<svg width="1440" height="1395" viewBox="0 0 1440 1395" fill="none" xmlns="http://www.w3.org/2000/svg">
<path d="M153.109 599.545C147.453 620.062 150.681 627.731 147.134 644.038C141.332 670.55 126.953 677.152 113.062 700.294C87.3214 743.173 94.2995 791.198 95.1499 796.576C100.774 832.01 122.01 872.763 157.471 891.199C171.027 898.243 171.555 894.163 202.324 905.608C232.349 916.779 247.299 926.394 270.939 938.142C309.441 957.283 328.864 966.56 354.293 971.427C371.042 974.645 425.121 985.02 466.118 953.969C472.43 949.182 497.317 930.329 498.194 903.861C498.765 886.069 487.941 882.026 480.696 860.817C467.358 821.793 485.352 780.954 496.434 755.781C511.433 721.729 519.69 725.775 529.351 695.604C541.621 657.305 536.147 626.455 533.992 616.505C529.531 595.691 526.232 580.263 513.364 570.127C492.814 553.912 473.714 571.507 427.623 566.162C399.771 562.93 402.198 555.97 335.515 535.05C299.902 523.878 282.106 518.293 266.899 518.298C259.175 518.303 201.286 519.201 171.262 559.981C159.937 575.373 154.853 593.329 153.136 599.526L153.109 599.545Z" stroke="#F6EDE9" stroke-width="4" stroke-miterlimit="10"/>
<path d="M258.105 589.254C240.889 591.543 226.555 593.669 216.285 605.121C200.579 622.643 213.665 640.516 204.161 679.183C195.529 714.261 181.314 713.673 174.118 752.171C168.59 781.753 173.572 800.428 174.967 805.303C176.682 811.218 182.298 828.613 196.434 844.201C213.826 863.362 228.151 862.242 295.525 883.044C339.926 896.749 350.626 902.45 373.304 900.476C389.285 899.073 410.159 897.261 421.02 882.866C439.297 858.651 404.429 831.684 410.836 782.566C417.545 730.911 461.574 718.575 456.894 668.941C456.242 661.895 454.502 645.782 442.797 632.997C429.078 618.034 411.937 618.801 382.456 614.203C313.779 603.508 303.71 583.216 258.101 589.277L258.105 589.254Z" stroke="#F6EDE9" stroke-width="4" stroke-miterlimit="10"/>
<path d="M1063.17 837.124C1037.7 837.359 1018.64 843.999 1006.07 848.475C957.695 865.752 951.128 888.987 898.886 918.798C875.312 932.246 853.499 944.685 821.845 949.825C810.784 951.616 743.721 962.505 696.447 923.061C681.747 910.803 671.3 894.834 650.358 862.888C636.376 841.523 629.358 830.859 626.24 820.523C612.517 775.387 638.836 730.859 647.375 716.439C670.202 677.844 702.154 658.366 716.76 649.668C750.515 629.621 756.82 638.48 793.801 618.641C830.25 599.093 830.663 586.958 878.83 552.782C913.483 528.192 930.809 515.897 956.44 507.921C963.976 505.58 1023.18 488.101 1084.27 515.59C1102.91 523.986 1127.93 535.234 1136.08 559.119C1142.66 578.387 1131.11 585.082 1133.75 614.473C1134.21 619.615 1138.29 659.069 1167.52 686.41C1184.45 702.226 1191.71 697.102 1204.01 711.431C1220.73 730.954 1225.54 761.758 1217.6 787.244C1205.99 824.485 1168.36 846.534 1137.57 849.189C1109.59 851.594 1101.87 836.753 1063.14 837.12L1063.17 837.124Z" stroke="#F6EDE9" stroke-width="4" stroke-miterlimit="10"/>
<path d="M729.596 779.002C725.989 805.445 741.539 833.011 764.152 846.64C795.499 865.55 830.038 851.398 838.673 847.859C865.513 836.834 863.134 823.391 894.413 802.427C933.472 776.24 975.538 771.497 982.255 770.81C1025.56 766.405 1046.7 780.471 1063.75 764.457C1077.54 751.515 1076.63 730.176 1076.5 727.778C1074.98 700.647 1051.54 698.217 1043.7 667.982C1036.52 640.188 1052.24 626.387 1040.79 609.69C1029.51 593.262 1004.53 592.406 998.661 592.212C972.34 591.312 958.511 604.584 904.551 641.551C853.917 676.251 828.603 693.59 811.06 701.673C795.502 708.835 781.189 714.107 764.246 728.58C750.212 740.568 732.819 755.418 729.623 778.983L729.596 779.002Z" stroke="#F6EDE9" stroke-width="4" stroke-miterlimit="10"/>
<path d="M756.407 1002.37C662.818 1004.15 641.618 1004.27 603.386 1010.94C512.959 1026.75 491.745 1050.61 424.452 1061.32C341.314 1074.55 274.956 1053.83 215.692 1035.32C127.829 1007.89 11.4572 971.562 -55.963 857.571C-117.141 754.156 -101.059 649.348 -98.1485 632.161C-94.341 609.615 -72.5198 480.42 40.2959 416.942C99.1124 383.853 156.735 383.244 177.527 383.936C230.72 385.736 244.576 403.05 338.222 436.999C441.671 474.524 493.407 493.288 557.036 484.864C578.993 481.948 618.153 464.845 696.455 430.61C822.988 375.307 820.976 368.356 860.846 357.566C966.913 328.827 1060.6 356.404 1086.8 364.933C1196.87 400.842 1259.77 474.198 1282 502.941C1314.79 545.348 1382.93 633.513 1363.33 743.002C1348.71 824.872 1292.73 875.444 1268.02 897.805C1191.41 967.044 1103.29 981.75 1031.57 993.713C1008.74 997.53 924.332 999.196 756.403 1002.4L756.407 1002.37Z" stroke="#F6EDE9" stroke-width="4" stroke-miterlimit="10"/>
<path d="M824.595 1097.86C745.072 1118.21 733.297 1130.72 654.134 1152.83C616.468 1163.36 511.674 1192.64 399.432 1194.5C196.241 1197.87 43.0292 1110.12 9.69501 1090.24C-70.9296 1042.16 -191.221 970.385 -251.567 818.451C-262.178 791.708 -329.216 614.61 -238.649 429.612C-225.936 403.624 -152.785 254.147 3.76996 203.37C76.1735 179.872 138.002 186.696 253.348 199.456C374.227 212.807 374.68 230.779 492.185 247.757C663.956 272.552 811.712 255.625 859.855 249.196C954.544 236.559 966.47 224.151 1035.81 224.577C1078.14 224.822 1173.04 226.396 1274.11 275.879C1462.56 368.132 1525.41 554.95 1538.2 592.991C1560.79 660.101 1585.66 734.066 1558.61 819.214C1518.95 944.017 1396.96 1000.5 1364.78 1015.39C1329.68 1031.65 1242.3 1042.05 1068.98 1062.17C927.676 1078.57 893.133 1080.37 824.61 1097.91L824.595 1097.86Z" stroke="#F6EDE9" stroke-width="4" stroke-miterlimit="10"/>
</svg>
