<svg width="226" height="226" viewBox="0 0 226 226" fill="none" xmlns="http://www.w3.org/2000/svg">
<path d="M113 224C174.304 224 224 174.304 224 113C224 51.6964 174.304 2 113 2C51.6964 2 2 51.6964 2 113C2 174.304 51.6964 224 113 224Z" fill="#244523" stroke="#FFF6F2" stroke-width="4" stroke-miterlimit="10"/>
<path d="M52.7402 118.61L96.0302 132.34L165.47 85.7002L96.8602 152.23L52.7402 118.61Z" fill="#FFF6F2"/>
<path d="M148.04 99.8201L96.7101 149.6L63.1101 124L94.5101 133.96L96.3501 134.54L97.9501 133.46L148.04 99.8201ZM182.9 71.5901L95.7201 130.14L42.3701 113.22L97.0201 154.86L182.9 71.5801V71.5901Z" fill="#FFF6F2"/>
</svg>
