<svg width="508" height="457" viewBox="0 0 508 457" fill="none" xmlns="http://www.w3.org/2000/svg">
<g filter="url(#filter0_d_316_5564)">
<g filter="url(#filter1_d_316_5564)">
<path d="M245.756 93.7007C244.01 94.0639 242.597 94.4271 241.608 94.7001C239.421 95.3013 239.376 95.4366 237.638 95.8499C236.768 96.0553 236.08 96.1905 235.045 96.5713C234.201 96.8844 233.6 97.1123 232.946 97.6208C232.102 98.2771 231.666 99.016 231.37 99.5245C230.819 100.474 230.631 101.263 230.256 102.838C230.188 103.124 229.885 104.404 229.665 106.185C229.554 107.069 229.444 107.961 229.434 109.171C229.434 109.449 229.429 110.619 229.632 112.257C229.827 113.83 230.11 115.007 230.256 115.603C231.09 119.03 231.909 122.151 232.127 122.988C232.773 125.482 232.54 124.961 233.637 129.683C234.286 132.476 234.95 135.324 235.967 139.036C237.57 144.883 237.532 143.688 238.013 146C238.086 146.35 238.477 148.249 239.446 150.393C239.824 151.227 240.243 151.994 240.974 152.723C241.548 153.294 242.121 153.65 242.645 153.975C243.511 154.514 244.29 154.859 244.842 155.075C244.947 154.409 245.029 153.69 245.079 152.926C245.105 152.53 245.12 152.149 245.127 151.778C244.679 151.5 244.025 151.04 243.359 150.346C242.878 149.845 242.422 149.249 241.305 147.144C240.308 145.266 239.809 144.327 239.584 143.563C239.155 142.102 239.13 140.927 239.105 139.74C239.073 138.19 239.055 137.265 239.439 136.063C239.792 134.956 240.027 135.056 240.966 133.15C241.067 132.947 241.275 132.521 241.73 132.195C241.801 132.145 242.059 131.968 242.447 131.862C243.005 131.707 243.216 131.867 244.01 131.862C244.2 131.862 244.057 131.852 245.41 131.72C246.114 131.649 246.354 131.632 246.7 131.672C247.093 131.717 247.401 131.81 247.559 131.862C247.845 131.957 248.078 132.073 248.258 132.173C247.324 129.518 246.75 127.316 246.397 125.796C246.004 124.097 246.029 123.854 245.485 121.397C244.927 118.877 244.796 118.654 244.012 115.34C243.657 113.84 243.354 112.405 242.747 109.531C242.419 107.976 242.154 106.676 242.046 104.917C241.958 103.505 242.024 102.605 242.046 102.33C242.096 101.696 242.139 101.639 242.625 99.0486C242.928 97.4279 243.025 96.8468 243.396 95.9976C243.724 95.2512 244.03 94.8304 244.401 94.4922C244.897 94.0388 245.418 93.8159 245.753 93.7032L245.756 93.7007Z" fill="#244523" stroke="#FFF6F2" stroke-width="1.5" stroke-miterlimit="10"/>
<path d="M499.062 248.957C497.233 248.941 494.876 248.752 492.215 248.072C490.235 247.572 487.086 246.542 483.701 244.378C481.461 242.944 479.826 241.905 478.432 239.963C476.772 237.653 477.437 236.834 475.643 232.015C475.332 231.172 474.197 228.196 472.131 224.641C470.931 222.578 469.764 220.904 468.789 219.515C467.619 217.848 466.58 216.469 465.79 215.459C467.517 215.931 469.565 216.618 471.802 217.637C474.313 218.783 476.062 219.891 478.209 221.25C480.75 222.866 482.022 223.67 483.498 224.976C484.496 225.856 485.893 227.239 488.306 230.712C490.783 234.289 491.823 236.456 494.412 241.044C495.461 242.898 497.035 245.631 499.051 248.944L499.062 248.957Z" fill="#244523" stroke="#FFF6F2" stroke-width="1.5" stroke-linejoin="round"/>
<path d="M478.431 239.962C477.529 240.24 475.969 240.586 474.094 240.247C471.95 239.857 470.523 238.777 468.772 237.416C465.675 235.005 463.905 232.49 463.358 231.674C461.846 229.433 461.767 228.535 459.808 224.216C459.375 223.251 457.624 219.387 455.941 216.465C454.513 213.987 452.147 210.486 448.225 206.642C451.283 207.296 453.782 208.193 455.618 208.968C458.807 210.317 460.959 211.702 461.503 212.062C462.948 213.012 464.332 213.926 465.796 215.461C466.315 216.004 466.841 216.623 468.795 219.517C470.545 222.113 471.418 223.406 472.137 224.643C473.789 227.485 474.705 229.717 475.649 232.017C476.51 234.109 477.51 236.786 478.438 239.965L478.431 239.962Z" fill="#244523" stroke="#FFF6F2" stroke-width="1.5" stroke-linejoin="round"/>
<path d="M463.358 231.674C459.777 231.313 456.956 230.388 455.115 229.643C453.021 228.797 450.327 227.711 447.795 225.32C446.397 223.993 445.402 222.318 443.47 219.028C440.409 213.798 440.565 213.131 438.37 209.743C437.296 208.088 435.503 205.513 432.888 202.693C430.095 199.684 427.379 197.467 425.283 195.945C427.011 195.954 429.53 196.129 432.455 196.941C436.246 197.993 438.863 199.595 440.976 200.914C441.782 201.412 444.832 203.354 448.231 206.646C449.367 207.744 452.819 211.198 455.947 216.468C456.649 217.649 457.715 219.853 459.815 224.22C461.326 227.347 462.542 229.929 463.365 231.678L463.358 231.674Z" fill="#244523" stroke="#FFF6F2" stroke-width="1.5" stroke-linejoin="round"/>
<path d="M445.452 222.341C443.4 222.343 440.429 222.145 436.981 221.187C435.113 220.665 431.464 219.622 427.607 216.815C426.813 216.234 423.964 214.101 421.351 210.412C418.89 206.949 419.513 206.166 416.84 201.686C414.768 198.217 412.69 195.826 410.723 193.568C408.85 191.419 406.451 188.91 403.457 186.295C404.794 186.244 406.765 186.286 409.092 186.761C412.862 187.528 415.524 189.013 417.437 190.1C419.708 191.395 421.594 192.924 425.276 195.941C428.971 198.965 430.823 200.478 432.881 202.689C434.452 204.381 436.448 206.522 438.363 209.739C440.083 212.638 440.558 214.03 443.463 219.025C444.287 220.441 444.988 221.589 445.452 222.341Z" fill="#244523" stroke="#FFF6F2" stroke-width="1.5" stroke-linejoin="round"/>
<path d="M423.735 213.344C419.288 213.367 415.686 212.589 413.304 211.901C410.485 211.082 407.049 210.097 403.543 207.349C400.18 204.716 398.428 201.811 397.462 200.166C395.688 197.161 396.079 196.507 393.949 192.133C393.477 191.157 391.983 188.177 389.649 184.773C387.924 182.253 385.35 178.94 381.651 175.428C383.247 175.408 385.702 175.553 388.528 176.449C391.757 177.475 393.929 179 397.21 181.293C400.07 183.293 402.053 185.039 403.464 186.282C407.331 189.694 409.92 192.624 410.73 193.554C413.986 197.299 415.611 199.17 416.847 201.672C418.393 204.815 418.829 206.879 421.358 210.399C422.283 211.692 423.151 212.682 423.744 213.324L423.735 213.344Z" fill="#244523" stroke="#FFF6F2" stroke-width="1.5" stroke-linejoin="round"/>
<path d="M399.825 203.673C398.011 203.478 395.412 203.07 392.382 202.153C389.471 201.275 385.9 200.211 382.621 197.601C381.065 196.355 379.503 194.148 376.46 189.779C374.707 187.264 372.587 184.211 369.843 179.697C366.857 174.786 366.81 174.187 365.148 171.974C362.579 168.558 359.856 166.191 357.959 164.737C359.837 164.63 362.776 164.676 366.208 165.651C369.574 166.602 371.888 168.007 373.877 169.226C377.31 171.339 379.51 173.413 381.638 175.438C385.655 179.261 388.267 182.787 389.636 184.783C391.669 187.746 392.856 189.47 393.935 192.142C395.089 195.005 395.575 196.962 397.449 200.176C398.344 201.715 399.219 202.911 399.815 203.677L399.825 203.673Z" fill="#244523" stroke="#FFF6F2" stroke-width="1.5" stroke-linejoin="round"/>
<path d="M376.463 189.773C374.711 189.997 371.975 190.143 368.748 189.37C363.791 188.187 360.526 185.527 358.37 183.766C355.36 181.315 353.564 178.965 351.75 176.6C349.361 173.479 347.823 170.779 346.63 168.662C344.332 164.592 343.824 162.884 341.441 159.457C340.244 157.737 339.13 156.389 338.353 155.498C341.421 156.059 343.946 156.79 345.808 157.414C348.984 158.481 351.544 159.358 354.301 161.375C354.966 161.863 355.974 162.829 357.962 164.731C361.909 168.522 363.89 170.421 365.15 171.968C367.144 174.409 367.303 175.336 369.846 179.691C371.275 182.129 373.445 185.628 376.463 189.773Z" fill="#244523" stroke="#FFF6F2" stroke-width="1.5" stroke-linejoin="round"/>
<path d="M354.884 180.457C352.94 180.542 350 180.48 346.54 179.638C344.32 179.099 340.977 178.263 337.525 175.784C334.362 173.513 332.662 171.013 331.305 168.991C329.993 167.022 329.968 166.523 327.179 160.542C323.736 153.15 322.635 151.499 321.848 150.409C319.949 147.801 318.005 145.935 316.695 144.788C318.41 144.808 320.868 145.003 323.707 145.815C327.423 146.882 329.96 148.487 331.34 149.375C334.892 151.657 337.085 154.077 338.356 155.49C339.806 157.109 340.74 158.438 341.444 159.449C343.623 162.578 343.798 163.602 346.633 168.654C349.208 173.252 351.233 175.903 351.753 176.592C352.98 178.229 354.085 179.54 354.887 180.451L354.884 180.457Z" fill="#244523" stroke="#FFF6F2" stroke-width="1.5" stroke-linejoin="round"/>
<path d="M334.037 172.647C332.493 172.48 330.33 172.113 327.862 171.279C324.178 170.032 321.67 168.383 319.766 167.073C316.961 165.139 314.213 163.249 311.796 159.968C311.401 159.434 311.048 158.904 307.973 152.708C304.746 146.214 304.812 146.147 304.161 145.023C302.719 142.538 300.211 139.085 295.619 135.481C297.028 135.366 299.131 135.347 301.579 135.912C304.546 136.597 306.537 137.793 309.684 139.692C311.313 140.67 313.83 142.21 316.695 144.789C319.61 147.424 321.404 149.797 321.848 150.41C324.42 153.893 325.748 157.08 327.179 160.543C328.743 164.328 329.38 166.055 331.305 168.992C332.363 170.607 333.368 171.855 334.044 172.65L334.037 172.647Z" fill="#244523" stroke="#FFF6F2" stroke-width="1.5" stroke-linejoin="round"/>
<path d="M311.795 159.967C310.424 160.002 308.533 159.933 306.323 159.504C302.721 158.8 300.167 157.487 298.63 156.68C296.216 155.417 293.134 153.801 290.527 150.668C289.4 149.313 288.438 147.345 286.515 143.409C284.447 139.178 284.636 138.9 283.158 136.366C281.044 132.748 279.087 130.633 278.524 130.037C277.046 128.478 275.635 127.308 274.566 126.509C275.9 126.408 277.803 126.377 280.056 126.753C284.419 127.479 287.494 129.295 289.129 130.277C291.542 131.727 292.957 133.037 295.615 135.487C298.963 138.576 301.723 141.123 304.157 145.029C305.425 147.058 305.186 147.183 307.97 152.715C309.547 155.847 310.907 158.358 311.792 159.974L311.795 159.967Z" fill="#244523" stroke="#FFF6F2" stroke-width="1.5" stroke-linejoin="round"/>
<path d="M290.524 150.658C288.901 150.641 286.596 150.468 283.902 149.805C281.762 149.279 277.595 148.205 273.619 145.01C271.371 143.206 270.108 141.463 268.227 138.872C267.111 137.327 266.916 136.862 263.665 131.357C261.325 127.397 260.137 125.38 259.06 123.732C257.731 121.707 256.001 119.234 253.8 116.501C255.327 116.466 257.571 116.586 260.099 117.439C261.181 117.806 262.009 118.2 266.844 121.283C272.435 124.842 273.724 125.832 274.555 126.496C275.899 127.57 277.093 128.525 278.513 130.024C279.055 130.594 281.018 132.712 283.147 136.354C284.735 139.077 284.799 139.879 286.505 143.396C287.355 145.142 288.661 147.66 290.517 150.655L290.524 150.658Z" fill="#244523" stroke="#FFF6F2" stroke-width="1.5" stroke-linejoin="round"/>
<path d="M270.06 141.343C268.312 141.154 265.909 140.805 263.1 140.113C259.761 139.287 257.399 138.722 254.621 137.134C253.367 136.419 250.183 134.561 247.58 131.072C246.493 129.614 246.647 129.393 243.811 123.496C242.069 119.872 241.175 118.016 239.886 115.847C237.584 111.97 235.962 110.149 235.166 109.299C233.818 107.865 232.546 106.801 231.633 106.091C232.905 105.847 234.993 105.602 237.529 106.053C238.085 106.15 240.559 106.621 243.413 108.285C245.203 109.323 245.432 109.844 248.866 112.656C252.475 115.607 252.378 115.171 253.801 116.517C254.61 117.285 255.703 118.436 259.061 123.748C261.418 127.472 262.594 129.329 263.666 131.373C265.103 134.107 266.213 136.031 268.228 138.888C268.976 139.951 269.62 140.796 270.061 141.36L270.06 141.343Z" fill="#244523" stroke="#FFF6F2" stroke-width="1.5" stroke-linejoin="round"/>
<path d="M247.587 131.075C245.924 130.722 243.769 130.173 241.312 129.278C239.632 128.666 236.87 127.654 233.756 125.755C229.859 123.385 227.445 120.87 225.369 118.716C222.683 115.919 220.768 113.328 219.587 111.591C217.125 107.964 216.829 106.558 214.227 102.753C212.534 100.273 210.95 98.3722 209.902 97.1769C211.485 97.3706 213.682 97.7204 216.256 98.4008C218.311 98.9445 221.511 99.8109 225.281 101.829C228.4 103.495 230.55 105.212 231.641 106.095C232.551 106.828 233.782 107.833 235.173 109.302C235.925 110.1 237.565 111.921 239.894 115.851C241.174 118 241.674 119.135 243.818 123.499C244.695 125.281 245.984 127.89 247.587 131.075Z" fill="#244523" stroke="#FFF6F2" stroke-width="1.5" stroke-linejoin="round"/>
<path d="M228.559 121.868C226.465 121.591 223.64 121.062 220.416 119.973C214.431 117.938 210.484 115.122 209.67 114.531C205.966 111.821 203.793 109.158 201.517 106.382C197.86 101.914 197.555 100.268 193.951 96.1657C191.637 93.5268 189.451 91.5728 187.947 90.3269C189.765 89.9967 192.377 89.7516 195.497 90.1991C199.374 90.7553 202.144 92.1202 203.563 92.8307C204.862 93.4853 207.352 94.752 209.889 97.1699C210.329 97.5867 211.589 98.824 214.213 102.746C217.18 107.185 216.864 107.549 219.574 111.584C220.811 113.42 222.743 115.938 225.355 118.709C226.595 120.026 227.704 121.088 228.544 121.862L228.559 121.868Z" fill="#244523" stroke="#FFF6F2" stroke-width="1.5" stroke-linejoin="round"/>
<path d="M207.921 113.147C206.403 113.146 204.221 113.023 201.647 112.432C197.681 111.517 194.881 109.976 192.369 108.536C189.333 106.803 187.416 105.706 185.368 103.622C184.001 102.229 184.035 101.879 180.384 96.6088C178.204 93.4632 177.12 91.8853 175.948 90.4611C174.479 88.6626 172.182 86.1533 168.775 83.4676C169.889 83.3046 171.486 83.1554 173.417 83.2838C177.825 83.5839 180.994 85.1428 181.682 85.4882C183.599 86.4554 185.054 87.7514 187.964 90.3269C189.883 92.0263 191.799 93.7324 193.967 96.1658C197.733 100.4 197.947 101.947 201.534 106.382C202.883 108.051 204.979 110.459 207.928 113.15L207.921 113.147Z" fill="#244523" stroke="#FFF6F2" stroke-width="1.5" stroke-linejoin="round"/>
<path d="M188.215 106.022C186.577 105.965 184.371 105.781 181.79 105.244C177.758 104.396 174.854 103.115 172.976 102.248C168.604 100.233 166.131 99.0963 163.676 96.6512C162.177 95.1557 160.979 93.086 158.605 88.9398C156.616 85.4769 156.24 84.3342 154.213 80.8049C152.62 78.0386 151.189 75.8438 150.223 74.4184C151.964 74.3848 154.231 74.5645 156.743 75.3783C159.626 76.3165 161.612 77.6893 163.599 79.0954C164.865 79.9865 166.045 80.9348 168.769 83.4648C172.753 87.1589 174.744 88.9976 175.942 90.4582C180.47 95.9663 180.314 98.8595 185.359 103.626C186.522 104.72 187.557 105.536 188.212 106.028L188.215 106.022Z" fill="#244523" stroke="#FFF6F2" stroke-width="1.5" stroke-linejoin="round"/>
<path d="M163.686 96.648C162.342 96.8257 160.296 96.9443 157.862 96.4594C154.238 95.7286 151.755 94.0426 149.742 92.6733C146.739 90.6308 144.872 88.5817 143.789 87.37C142.336 85.7577 139.965 83.0759 138.295 79.1684C137.112 76.4063 137.452 75.7686 136.087 71.906C135.065 68.9998 133.947 66.7233 133.177 65.2834C135.78 66.2532 137.992 67.1221 139.698 67.8043C143.92 69.4967 144.959 70.0297 146.091 70.7852C146.64 71.1547 148.414 72.3724 150.23 74.4218C151.754 76.1401 152.428 77.4375 154.22 80.8084C156.599 85.2741 157.787 87.5103 158.612 88.9432C159.697 90.8306 161.352 93.52 163.683 96.6547L163.686 96.648Z" fill="#244523" stroke="#FFF6F2" stroke-width="1.5" stroke-linejoin="round"/>
<path d="M146.266 89.9142C144.674 89.6108 142.559 89.1041 140.149 88.1997C138.907 87.7344 135.182 86.2654 131.047 83.2079C126.348 79.7244 123.672 76.1524 123.017 75.2376C121.543 73.2095 121.156 72.2 118.568 67.2229C117.267 64.7145 115.455 61.2938 113.185 57.2202C114.763 57.3873 116.875 57.6976 119.322 58.3022C121.235 58.7802 123.623 59.3818 126.451 60.733C129.223 62.0579 131.388 63.1001 133.162 65.2763C134.255 66.6144 134.873 68.398 136.072 71.8989C137.756 76.8447 137.157 76.5653 138.28 79.1613C139.998 83.1317 142.575 86.0154 143.774 87.3629C144.748 88.4588 145.627 89.3156 146.259 89.9109L146.266 89.9142Z" fill="#244523" stroke="#FFF6F2" stroke-width="1.5" stroke-linejoin="round"/>
<path d="M127.666 80.3958C126.235 80.1514 124.303 79.7301 122.089 78.9577C117.293 77.282 113.881 74.9025 112.028 73.429C110.157 71.9391 107.278 69.613 104.981 65.7792C103.762 63.7562 103.514 62.6493 102.081 58.7871C101.136 56.2499 99.7202 52.6239 97.7578 48.2389C98.9738 48.3915 100.662 48.691 102.603 49.3119C104.111 49.7956 106.43 50.5274 108.658 52.1351C109.511 52.7524 110.899 53.8792 113.181 57.2105C114.758 59.5143 115.49 61.0177 118.565 67.2133C121.319 72.7718 122.05 73.909 123.013 75.228C124.738 77.5842 126.472 79.3112 127.662 80.3859L127.666 80.3958Z" fill="#244523" stroke="#FFF6F2" stroke-width="1.5" stroke-linejoin="round"/>
<path d="M108.757 70.5795C107.422 70.3877 105.591 70.0458 103.462 69.386C101.35 68.7262 98.271 67.8025 95.3424 65.5999C93.1755 63.9719 91.9778 62.3082 89.5963 58.9874C88.3428 57.2408 86.404 54.5165 84.6046 50.5732C83.1331 47.3435 82.1932 44.2805 81.606 41.5282C82.8247 41.5276 84.6546 41.6333 86.7845 42.2365C89.1375 42.8949 90.828 43.87 93.0432 45.155C95.6095 46.6442 96.8965 47.3987 97.7614 48.249C99.401 49.8668 99.5353 51.0508 102.084 58.7972C103.531 63.2018 104.19 64.476 104.985 65.7892C106.297 67.9615 107.739 69.5605 108.764 70.5828L108.757 70.5795Z" fill="#244523" stroke="#FFF6F2" stroke-width="1.5" stroke-linejoin="round"/>
<path d="M92.3728 62.7115C90.9869 62.4634 89.024 62.0357 86.7388 61.287C84.1037 60.4239 81.1266 59.4663 77.8864 57.159C74.8852 55.0201 73.0445 52.7478 72.2071 51.6178C71.1703 50.2161 69.512 47.6632 68.5102 44.2543C67.5533 40.9884 68.1576 40.1894 67.1835 37.5492C66.1936 34.8692 64.5508 32.9086 63.2907 31.6546C64.6187 31.5669 66.6612 31.5848 68.9861 32.3033C71.4544 33.0642 73.0726 34.2494 75.5607 36.1085C78.7424 38.486 80.3333 39.6748 81.6199 41.5344C83.7222 44.5706 82.3454 45.2044 84.6185 50.5794C86.034 53.9292 87.9978 56.6733 89.6102 58.9935C90.6849 60.5348 91.6564 61.8005 92.394 62.7213L92.3728 62.7115Z" fill="#244523" stroke="#FFF6F2" stroke-width="1.5" stroke-linejoin="round"/>
<path d="M75.3297 55.0809C74.1962 55.0643 72.5579 54.9342 70.6403 54.4463C66.5537 53.402 63.8125 51.368 62.2623 50.1657C58.8657 47.5498 56.9754 44.8319 56.0584 43.486C54.2693 40.864 53.3094 38.5798 52.1299 35.7545C50.8143 32.6138 50.8322 31.9314 49.7153 29.4684C48.3791 26.5375 46.8944 24.2931 45.8411 22.8349C47.0648 22.9342 48.7464 23.1739 50.6791 23.7582C53.5309 24.6167 55.4964 25.7933 57.0013 26.7063C58.7193 27.7512 60.9942 29.1289 63.2876 31.6448C64.3543 32.8167 66.0666 34.7203 67.1804 37.5394C68.2832 40.3452 67.4343 40.5832 68.5071 44.2446C69.5831 47.8992 71.3596 50.4748 72.204 51.608C73.3365 53.1356 74.4713 54.2905 75.3328 55.0742L75.3297 55.0809Z" fill="#244523" stroke="#FFF6F2" stroke-width="1.5" stroke-linejoin="round"/>
<path d="M59.1257 47.3383C57.5656 47.1877 55.3605 46.8746 52.8 46.1275C50.4141 45.4294 46.9988 44.4544 43.7502 41.9076C41.2791 39.9752 40.0605 38.0986 37.7237 34.4979C36.8145 33.0988 34.9158 30.1413 33.2614 25.9974C31.8895 22.5542 31.9376 21.4389 30.4842 18.5753C29.214 16.0733 27.7849 14.188 26.7682 12.9825C28.1768 12.9243 30.3321 12.9948 32.7949 13.7856C35.0902 14.5309 36.6338 15.6002 39.6302 17.7125C42.7231 19.8942 44.2644 20.9867 45.8326 22.8313C47.6385 24.9573 48.5225 26.8891 49.7068 29.4648C50.8409 31.9277 50.538 31.8596 52.1214 35.7509C53.2774 38.5897 54.2568 40.8504 56.0499 43.4824C57.2118 45.1862 58.3367 46.4909 59.1187 47.335L59.1257 47.3383Z" fill="#244523" stroke="#FFF6F2" stroke-width="1.5" stroke-linejoin="round"/>
<path d="M40.237 38.2372C38.3595 37.8656 35.7836 37.2251 32.849 36.0842C30.3952 35.1269 27.914 34.173 25.204 32.1455C24.5748 31.6733 21.7339 29.5034 19.212 25.7109C17.2076 22.704 16.3446 20.0831 14.8945 15.6852C13.9787 12.9015 13.8228 11.8374 12.6803 8.78555C11.8149 6.46424 10.9647 4.58881 10.3617 3.32433C11.6382 3.31013 13.6035 3.43831 15.8714 4.18708C18.5246 5.0667 20.269 6.36772 21.3599 7.19333C23.6169 8.90402 24.8897 10.5539 26.7621 12.9791C27.9023 14.4535 29.212 16.1531 30.4781 18.5719C31.9769 21.4486 31.5184 21.7142 33.2553 25.994C34.8898 30.0148 36.7902 33.0057 37.7176 34.4946C38.6859 36.0431 39.5643 37.306 40.237 38.2372Z" fill="#244523" stroke="#FFF6F2" stroke-width="1.5" stroke-linejoin="round"/>
<path d="M252.782 95.7625C255.731 97.9267 265.199 102.29 268.626 103.868C268.626 103.868 270.472 104.717 273.415 106.594C274.407 107.225 275.108 107.718 275.847 108.51C276.155 108.84 277.064 109.86 277.763 111.458C278.46 113.054 278.572 114.369 278.72 116.322C278.83 117.76 278.795 118.775 278.72 120.744C278.625 123.278 278.577 124.548 278.352 125.901C277.986 128.105 277.368 129.611 276.363 132.018C275.419 134.28 275.236 134.295 272.826 139.167C271.804 141.233 270.692 143.26 269.73 145.356C269.319 146.256 268.533 148.009 267.005 149.85C266.369 150.617 265.808 151.155 265.089 151.619C264.523 151.984 263.478 152.641 261.993 152.723C260.78 152.791 259.874 152.443 259.267 152.207C257.97 151.706 257.088 150.97 256.615 150.511C255.625 149.555 255.157 148.598 254.699 147.638C253.842 145.845 253.526 144.332 253.449 143.954C252.82 140.968 251.835 138.07 251.089 135.111C249.877 130.302 249.862 131.034 248.584 126.049C248.006 123.792 247.462 121.377 246.372 116.543C246.372 116.543 245.821 114.098 244.752 108.658C244.308 106.403 244.028 104.895 244.015 102.836C244.01 102.2 244.136 100.963 244.383 98.4878C244.476 97.5685 244.569 96.7294 245.047 95.7625C245.308 95.2365 245.636 94.5902 246.375 94.1419C247.146 93.6735 247.925 93.6885 248.216 93.6985C248.89 93.7211 249.391 93.9315 249.984 94.2145C251.297 94.8382 251.953 95.1513 252.785 95.7625H252.782Z" fill="#244523" stroke="#FFF6F2" stroke-width="1.5" stroke-miterlimit="10"/>
<path d="M248.216 93.7006C247.833 93.5804 246.861 93.3324 245.756 93.7006C245.035 93.9411 244.569 94.3393 244.403 94.4896C244.033 94.8278 243.727 95.2486 243.399 95.9951C243.028 96.8442 242.931 97.4253 242.627 99.046C242.142 101.636 242.099 101.694 242.049 102.327C242.026 102.603 241.961 103.502 242.049 104.915C242.157 106.673 242.422 107.973 242.75 109.529C243.356 112.399 243.659 113.837 244.015 115.338C244.887 119.017 244.977 118.992 245.488 121.394C245.987 123.734 245.959 124.032 246.4 125.793C246.793 127.356 246.903 127.474 247.727 130.274C248.579 133.167 248.489 133.145 249.22 135.584C250.132 138.63 250.227 138.523 250.713 140.396C251.307 142.688 251.162 142.829 251.793 145.043C252.066 145.997 252.519 147.473 253.336 149.191C253.832 150.238 254.2 150.822 254.613 151.348C255.014 151.859 255.585 152.57 256.557 153.151C257.133 153.494 257.624 153.657 258.22 153.855C258.801 154.048 259.428 154.256 260.277 154.333C261.599 154.454 262.616 154.181 262.869 154.108C263.636 153.888 264.132 153.597 265.039 153.066C265.88 152.57 266.374 152.282 266.925 151.741C267.453 151.222 267.756 150.739 268.362 149.77C268.876 148.948 269.224 148.254 269.425 147.838C269.986 146.668 270.294 145.737 270.409 145.394C270.792 144.254 271.481 142.388 272.824 139.164C271.423 141.804 270.406 143.903 269.728 145.353C269.239 146.398 268.478 148.069 267.002 149.847C266.366 150.614 265.805 151.152 265.086 151.616C264.52 151.981 263.475 152.638 261.99 152.72C260.778 152.788 259.871 152.44 259.265 152.204C257.967 151.703 257.086 150.967 256.612 150.508C255.623 149.552 255.154 148.595 254.696 147.635C253.839 145.842 253.524 144.329 253.446 143.951C252.817 140.965 251.833 138.067 251.086 135.109C249.874 130.299 249.859 131.031 248.582 126.046C248.003 123.789 247.459 121.374 246.37 116.54C246.37 116.54 245.819 114.095 244.749 108.655C244.306 106.4 244.025 104.892 244.013 102.833C244.008 102.197 244.133 100.96 244.381 98.4849C244.474 97.5656 244.566 96.7265 245.045 95.7596C245.303 95.2386 245.633 94.5898 246.372 94.139C247.109 93.6881 247.86 93.6781 248.213 93.6956L248.216 93.7006Z" fill="#244523" stroke="#FFF6F2" stroke-width="1.5" stroke-miterlimit="10"/>
<path d="M245.127 151.779C245.225 151.802 245.165 151.779 247.023 151.779C247.436 151.779 247.85 151.779 248.261 151.779H248.959C248.807 151.514 248.574 151.125 248.261 150.669C247.674 149.815 247.389 149.577 247.043 149.036C246.773 148.613 246.713 148.398 246.224 147.022C245.377 144.643 245.435 144.958 245.124 143.984C244.844 143.097 244.588 142.291 244.363 141.174C244.165 140.192 244.02 139.47 244.012 138.476C244.007 137.797 244.138 137.023 244.401 135.475C244.603 134.275 244.744 133.744 245.084 133.196C245.428 132.642 245.856 132.264 245.921 132.209C246.209 131.956 246.487 131.783 246.702 131.665C246.409 131.665 245.961 131.67 245.412 131.713C244.541 131.78 244.546 131.853 244.012 131.855C243.218 131.86 243.008 131.7 242.449 131.855C242.061 131.963 241.803 132.138 241.733 132.189C241.277 132.514 241.069 132.943 240.969 133.143C240.027 135.049 239.794 134.951 239.441 136.056C239.055 137.258 239.075 138.183 239.108 139.733C239.133 140.921 239.155 142.095 239.586 143.556C239.812 144.322 240.31 145.259 241.307 147.138C241.893 148.242 242.459 149.237 243.361 150.339C244.25 151.426 244.696 151.676 245.129 151.772L245.127 151.779Z" fill="#244523" stroke="#FFF6F2" stroke-width="1.5" stroke-miterlimit="10"/>
<path d="M248.96 151.779C249.15 151.992 249.433 152.3 249.909 152.51C250.38 152.721 250.793 152.723 251.084 152.723C251.79 152.723 252.293 152.503 252.396 152.455C252.637 152.347 253.022 152.174 253.336 151.779C253.503 151.568 253.599 151.36 253.734 151.062C253.867 150.772 253.954 150.519 254.009 150.333C253.836 150.068 253.594 149.677 253.333 149.194C252.516 147.676 252.138 146.368 251.79 145.046C251.086 142.363 251.254 142.426 250.71 140.399C250.227 138.593 250.027 138.295 249.218 135.587C248.787 134.142 248.464 132.952 248.258 132.173C248.1 132.09 247.862 131.973 247.559 131.863C247.143 131.71 246.936 131.635 246.7 131.672C246.585 131.69 246.395 131.745 245.919 132.216C245.633 132.499 245.345 132.782 245.082 133.203C244.741 133.751 244.601 134.282 244.398 135.482C244.135 137.03 244.005 137.804 244.01 138.483C244.017 139.477 244.163 140.199 244.361 141.181C244.586 142.298 244.842 143.104 245.122 143.991C245.43 144.965 245.375 144.65 246.222 147.029C246.71 148.405 246.768 148.62 247.041 149.043C247.502 149.762 247.755 149.795 248.258 150.677C248.519 151.132 248.609 151.398 248.957 151.786L248.96 151.779Z" fill="#244523" stroke="#FFF6F2" stroke-width="1.5" stroke-miterlimit="10"/>
<path d="M251.261 157.019L253.338 157.445C253.328 157.109 253.32 156.641 253.338 156.075C253.358 155.378 253.368 155.03 253.448 154.587C253.531 154.138 253.638 153.823 253.856 153.194C253.896 153.074 254.057 152.623 254.305 152.037C254.422 151.759 254.53 151.526 254.615 151.348L254.012 150.331C253.954 150.516 253.869 150.769 253.736 151.06C253.598 151.361 253.506 151.566 253.338 151.776C253.022 152.172 252.636 152.347 252.398 152.453C251.877 152.688 251.397 152.723 251.086 152.721C251.176 152.986 251.289 153.389 251.334 153.885C251.377 154.356 251.339 154.69 251.311 155.073C251.276 155.534 251.244 156.192 251.264 157.017L251.261 157.019Z" fill="#244523" stroke="#FFF6F2" stroke-width="1.5" stroke-miterlimit="10"/>
<path d="M244.841 155.075C244.654 156.638 244.784 156.591 244.646 157.445C244.596 157.758 244.493 158.287 243.759 160.21C242.822 162.665 242.685 162.602 242.499 163.432C242.342 164.135 242.392 164.398 242.499 166.888C242.637 170.077 242.562 169.852 242.687 171.793C242.817 173.819 242.885 174.854 243.108 175.808C243.411 177.113 243.804 178.02 244.323 179.217C245.104 181.023 245.563 182.08 246.565 183.28C247.614 184.538 248.666 185.236 248.964 185.429C249.313 185.655 250.738 186.541 252.854 186.925C254.072 187.145 255.136 187.338 256.419 186.925C257.606 186.541 258.37 185.835 258.801 185.429C258.986 185.254 259.475 184.776 260.67 182.767C261.561 181.266 262.007 180.517 262.398 179.545C262.949 178.168 263.157 177.073 263.38 175.903C263.565 174.929 263.798 173.664 263.801 171.981C263.801 171.009 263.803 170.102 263.52 168.945C263.285 167.98 263.117 167.935 262.493 166.282C262.007 165 261.622 163.98 261.376 162.64C261.208 161.726 261.376 162.142 261.093 159.419C261.033 158.845 260.933 157.926 261 156.756C261.03 156.24 261.093 155.689 261.376 155.078C261.559 154.685 261.777 154.391 261.942 154.194C261.559 154.284 260.983 154.379 260.286 154.336C259.515 154.291 258.939 154.098 258.23 153.858C257.596 153.643 257.118 153.48 256.567 153.154C256.086 152.871 255.327 152.332 254.623 151.351C254.538 151.528 254.433 151.761 254.312 152.039C254.062 152.623 253.904 153.076 253.864 153.197C253.646 153.825 253.538 154.141 253.456 154.589C253.375 155.02 253.365 155.373 253.345 156.077C253.333 156.468 253.32 156.894 253.345 157.447C253.355 157.69 253.401 158.509 253.603 159.592C253.764 160.446 253.944 161.042 254.19 161.848C254.362 162.422 254.605 163.211 254.999 164.188C255.324 164.997 255.404 165.067 256.224 166.836C257.118 168.762 257.2 169.065 257.256 169.288C257.371 169.764 257.398 170.485 257.448 171.906C257.501 173.366 257.526 174.11 257.448 174.746C257.303 175.951 256.995 176.813 256.892 177.086C256.719 177.549 256.489 177.98 256.028 178.841C255.695 179.463 255.48 179.813 255.081 180.124C254.793 180.349 254.54 180.45 254.44 180.487C254.27 180.55 253.841 180.7 253.348 180.597C253.148 180.557 252.875 180.46 252.406 180.069C251.76 179.525 251.384 178.954 251.209 178.676C250.956 178.275 250.573 177.609 250.067 176.337C249.636 175.25 249.405 174.668 249.23 173.829C249.115 173.273 249.13 173.123 249.007 170.848C248.879 168.521 248.849 168.424 248.867 167.755C248.899 166.635 249.02 165.799 249.117 165.107C249.26 164.105 249.34 163.579 249.591 162.878C249.831 162.212 249.914 162.254 250.204 161.485C250.367 161.049 250.65 160.3 250.79 159.314C250.868 158.76 250.876 158.312 251.094 157.558C251.179 157.26 251.199 157.257 251.269 157.022C251.625 155.824 251.464 154.695 251.339 153.891C251.296 153.607 251.221 153.204 251.091 152.726C250.497 152.788 250.134 152.648 249.916 152.513C249.503 152.257 249.428 151.909 248.967 151.781C248.914 151.766 248.857 151.759 248.857 151.759C248.561 151.709 248.326 151.769 248.268 151.781C248.045 151.832 247.855 151.799 247.031 151.781C246.605 151.771 245.981 151.766 245.134 151.781C245.129 152.042 245.119 152.44 245.087 152.929C245.027 153.83 244.937 154.339 244.849 155.078L244.841 155.075Z" fill="#244523" stroke="#FFF6F2" stroke-width="1.5" stroke-miterlimit="10"/>
<path d="M263.117 138.367C263.636 138.217 264.069 138.317 264.274 138.367C264.465 138.415 264.873 138.52 265.239 138.851C265.675 139.247 265.792 139.733 265.915 140.234C265.993 140.559 266.13 141.301 265.915 142.197C265.762 142.826 265.504 143.249 265.369 143.45C265.141 143.783 264.918 144.101 264.517 144.221C264.259 144.299 264.039 144.261 263.793 144.221C263.312 144.141 262.974 143.936 262.829 143.836C262.701 143.748 262.338 143.495 262.09 143.032C261.915 142.703 261.885 142.305 261.832 141.521C261.779 140.73 261.82 140.276 261.832 140.138C261.882 139.617 261.907 139.359 262.058 139.109C262.376 138.585 262.944 138.42 263.12 138.37L263.117 138.367Z" fill="#244523" stroke="#FFF6F2" stroke-width="1.5" stroke-miterlimit="10"/>
<path d="M265.241 138.851C265.244 138.603 265.206 138.133 264.888 137.727C264.628 137.396 264.299 137.258 263.876 137.083C263.638 136.985 263.338 136.863 262.927 136.825C262.336 136.772 261.882 136.928 261.544 137.05C261.103 137.208 260.625 137.381 260.227 137.837C259.843 138.278 259.736 138.746 259.648 139.139C259.495 139.811 259.56 140.332 259.648 141.068C259.67 141.246 259.758 141.945 260.034 142.837C260.159 143.24 260.297 143.681 260.58 144.219C260.875 144.78 261.088 145.171 261.544 145.474C261.915 145.72 262.278 145.795 262.443 145.827C262.952 145.928 263.355 145.858 263.505 145.827C263.716 145.785 264.039 145.715 264.375 145.474C264.75 145.204 264.928 144.873 265.051 144.638C265.289 144.182 265.357 143.748 265.372 143.448C265.296 143.596 265.038 144.069 264.52 144.219C264.257 144.294 264.029 144.257 263.796 144.219C263.315 144.139 262.977 143.934 262.832 143.834C262.704 143.746 262.341 143.493 262.093 143.03C261.917 142.701 261.887 142.303 261.835 141.519C261.782 140.728 261.822 140.274 261.835 140.136C261.885 139.615 261.91 139.357 262.06 139.107C262.378 138.583 262.947 138.418 263.122 138.368C263.643 138.218 264.077 138.318 264.279 138.368C264.745 138.483 265.071 138.711 265.244 138.851H265.241Z" fill="#244523" stroke="#FFF6F2" stroke-width="1.5" stroke-miterlimit="10"/>
<path d="M262.924 136.825C262.676 136.679 262.305 136.492 261.832 136.341C261.414 136.208 261.033 136.088 260.514 136.116C260.342 136.126 259.828 136.168 259.259 136.469C259.087 136.562 258.648 136.8 258.295 137.273C257.932 137.759 257.857 138.23 257.749 138.944C257.696 139.292 257.589 140.181 257.749 141.323C257.792 141.621 257.907 142.1 258.135 143.059C258.345 143.938 258.403 144.091 258.455 144.217C258.758 144.928 259.184 145.384 259.452 145.664C259.783 146.013 260.038 146.278 260.482 146.501C261.055 146.787 261.576 146.812 261.832 146.822C262.396 146.844 262.811 146.726 262.924 146.694C263.21 146.609 263.55 146.508 263.873 146.21C264.161 145.947 264.302 145.649 264.372 145.471C264.192 145.587 263.896 145.744 263.503 145.825C263.365 145.855 262.957 145.927 262.441 145.825C262.275 145.792 261.912 145.717 261.541 145.471C261.083 145.168 260.873 144.78 260.577 144.217C260.294 143.678 260.154 143.237 260.031 142.834C259.755 141.942 259.668 141.243 259.645 141.065C259.557 140.329 259.492 139.808 259.645 139.137C259.733 138.743 259.841 138.275 260.224 137.834C260.637 137.358 261.143 137.185 261.541 137.048C262.102 136.855 262.596 136.82 262.924 136.822V136.825Z" fill="#244523" stroke="#FFF6F2" stroke-width="1.5" stroke-miterlimit="10"/>
<path d="M266.664 107.994C267.393 107.781 268.002 107.924 268.29 107.994C268.556 108.059 269.132 108.207 269.645 108.67C270.259 109.226 270.424 109.908 270.594 110.612C270.705 111.07 270.898 112.112 270.594 113.367C270.382 114.249 270.018 114.842 269.828 115.125C269.51 115.594 269.197 116.04 268.631 116.21C268.27 116.318 267.959 116.268 267.614 116.21C266.94 116.1 266.464 115.807 266.259 115.669C266.081 115.546 265.57 115.191 265.219 114.539C264.971 114.078 264.931 113.517 264.858 112.418C264.786 111.305 264.841 110.669 264.858 110.476C264.928 109.747 264.964 109.382 265.174 109.031C265.62 108.295 266.421 108.064 266.664 107.992V107.994Z" fill="#244523" stroke="#FFF6F2" stroke-width="1.5" stroke-miterlimit="10"/>
<path d="M269.645 108.67C269.647 108.322 269.597 107.661 269.149 107.09C268.783 106.624 268.32 106.433 267.726 106.188C267.393 106.05 266.97 105.877 266.393 105.827C265.562 105.752 264.926 105.972 264.452 106.143C263.833 106.366 263.162 106.606 262.601 107.25C262.063 107.869 261.912 108.527 261.79 109.078C261.577 110.023 261.664 110.754 261.79 111.786C261.82 112.034 261.945 113.019 262.331 114.269C262.506 114.835 262.699 115.453 263.097 116.21C263.513 116.999 263.808 117.547 264.452 117.971C264.973 118.314 265.484 118.422 265.717 118.467C266.429 118.609 266.997 118.509 267.208 118.467C267.503 118.407 267.956 118.306 268.427 117.971C268.956 117.592 269.204 117.127 269.377 116.796C269.71 116.155 269.805 115.546 269.828 115.125C269.722 115.333 269.359 115.999 268.63 116.21C268.26 116.318 267.941 116.265 267.613 116.21C266.94 116.1 266.464 115.807 266.258 115.669C266.08 115.546 265.569 115.19 265.219 114.539C264.971 114.078 264.931 113.517 264.858 112.417C264.785 111.305 264.84 110.669 264.858 110.476C264.928 109.747 264.963 109.382 265.174 109.031C265.619 108.294 266.421 108.064 266.664 107.991C267.395 107.778 268.007 107.921 268.29 107.991C268.946 108.154 269.402 108.472 269.645 108.668V108.67Z" fill="#244523" stroke="#FFF6F2" stroke-width="1.5" stroke-miterlimit="10"/>
<path d="M266.393 105.825C266.042 105.622 265.524 105.359 264.857 105.149C264.271 104.963 263.735 104.795 263.006 104.833C262.763 104.845 262.045 104.906 261.245 105.329C261.002 105.459 260.386 105.795 259.89 106.459C259.382 107.142 259.274 107.801 259.124 108.806C259.051 109.294 258.896 110.544 259.124 112.147C259.184 112.565 259.344 113.239 259.665 114.584C259.96 115.819 260.041 116.035 260.116 116.21C260.542 117.207 261.14 117.848 261.516 118.241C261.979 118.73 262.338 119.106 262.961 119.416C263.765 119.817 264.499 119.855 264.857 119.867C265.649 119.897 266.233 119.734 266.393 119.687C266.796 119.567 267.272 119.426 267.726 119.01C268.129 118.64 268.329 118.224 268.424 117.971C268.169 118.134 267.756 118.352 267.205 118.467C267.012 118.507 266.436 118.61 265.714 118.467C265.481 118.419 264.97 118.314 264.449 117.971C263.808 117.548 263.51 116.999 263.094 116.21C262.696 115.454 262.5 114.835 262.328 114.269C261.942 113.016 261.817 112.034 261.787 111.786C261.661 110.752 261.574 110.021 261.787 109.079C261.912 108.528 262.06 107.869 262.598 107.25C263.179 106.584 263.891 106.338 264.449 106.143C265.236 105.87 265.93 105.822 266.39 105.827L266.393 105.825Z" fill="#244523" stroke="#FFF6F2" stroke-width="1.5" stroke-miterlimit="10"/>
</g>
<path d="M252.554 251.793L230.406 256.868C229.151 262.851 226.83 271.069 222.264 280.093C220.63 283.323 215.761 292.482 205.974 303.015C203.421 305.763 195.171 314.376 170.382 329.562C150.122 341.972 139.989 348.178 128.455 352.186C118.289 355.719 103.455 359.544 91.0502 369.379C87.3714 372.295 83.0002 376.461 82.6052 382.353C82.3347 386.437 84.0767 389.797 85.321 391.701C87.6041 390.029 91.0989 387.611 95.5784 385.063C106.761 378.712 113.961 377.327 125.62 372.555C132.393 369.785 137.197 367.21 146.816 362.065C158.264 355.941 163.977 352.062 181.635 340.869C183.463 339.711 202.031 327.95 217.536 318.482C226.505 313.007 238.775 305.655 253.653 297.178C252.17 291.497 250.802 284.205 250.499 275.657C250.158 266.103 251.256 257.961 252.554 251.788V251.793Z" fill="#FF6726" stroke="#FFF6F2" stroke-linejoin="round"/>
<path d="M253.653 297.183C257.532 300.061 263.163 304.34 269.802 309.739C282.369 319.97 291.506 328.512 299.686 336.189C306.984 343.038 311.918 347.939 318.994 354.967C336.214 372.073 340.813 377.608 344.649 382.736C348.993 388.547 351.914 392.458 354.965 398.604C359.082 406.903 358.893 410.122 363.957 421.082C367.587 428.943 369.405 432.871 372.948 436.425C379.17 442.657 386.365 444.626 391.196 445.946C395.118 447.018 404.467 449.452 414.205 445.946C417.851 444.637 419.225 443.328 419.761 442.771C425.317 436.993 422.331 426.784 421.876 425.313C419.052 427.347 414.026 430.425 407.064 431.924C404.007 432.584 396.428 434.12 387.49 431.128C378.034 427.964 372.732 421.629 370.562 418.961C369.87 418.107 366.494 413.892 363.951 407.325C361.133 400.059 361.961 396.705 360.251 390.132C359.12 385.787 356.767 379.609 351.26 372.674C344.838 363.363 338.779 356.59 334.332 352.045C329.744 347.355 327.71 345.9 320.114 338.223C313.227 331.26 313.374 330.919 307.093 324.541C294.936 312.195 294.103 313.191 289.369 307.083C284.262 300.494 281.633 294.689 278.263 287.245C273.551 276.841 272.544 271.063 272.182 268.467C271.663 264.788 271.603 261.672 271.652 259.475L252.555 251.782C251.256 257.955 250.163 266.102 250.499 275.651C250.802 284.193 252.17 291.491 253.653 297.172V297.183Z" fill="#FF6726" stroke="#FFF6F2" stroke-linejoin="round"/>
<path d="M85.3159 391.7C85.8515 392.258 86.6684 392.993 87.8045 393.621C90.7854 395.266 94.8754 395.547 102.898 392.658C110.332 389.985 115.477 386.631 116.256 386.128C124.176 380.978 132.626 376.682 140.579 371.581C154.602 362.578 161.813 357.947 170.112 352.905C186.217 343.119 187.224 343.438 201.49 334.555C213.651 326.981 215.366 325.222 226.462 318.271C238.24 310.886 248.887 304.978 257.754 300.374L253.653 297.188C238.775 305.665 226.5 313.018 217.536 318.492C202.031 327.96 183.464 339.716 181.635 340.879C163.972 352.072 158.264 355.946 146.817 362.075C137.203 367.22 132.394 369.79 125.62 372.565C113.962 377.337 106.761 378.722 95.5787 385.073C91.0992 387.616 87.6043 390.034 85.3213 391.711L85.3159 391.7Z" fill="#FF6726" stroke="#FFF6F2" stroke-linejoin="round"/>
<path d="M252.554 251.793L259.019 250.538C262.065 250.971 266.02 251.836 270.38 253.638C274.129 255.185 277.148 257.003 279.431 258.61L271.651 259.492L252.554 251.799V251.793Z" fill="#FF6726" stroke="#FFF6F2" stroke-linejoin="round"/>
<path d="M279.431 258.609C279.274 260.113 279.144 262.38 279.431 265.096C279.999 270.511 281.892 274.655 286.036 281.959C289.477 288.029 291.533 291.654 295.352 297.183C300.184 304.178 304.257 309.041 310.446 316.393C316.608 323.713 319.692 327.37 322.949 330.665C330.912 338.715 334.413 340.165 345.709 349.416C353.299 355.632 358.276 360.344 367.527 369.108C385.066 385.728 381.788 384.619 390.644 391.868C393.17 393.935 406.154 404.435 412.581 411.679C415.568 415.05 417.991 418.669 418.127 418.875C419.82 421.428 421.053 423.679 421.887 425.318C419.063 427.352 414.037 430.43 407.074 431.929C404.017 432.589 396.438 434.125 387.501 431.134C378.044 427.969 372.742 421.634 370.573 418.967C369.88 418.112 366.505 413.898 363.962 407.33C361.143 400.059 361.976 396.726 360.261 390.137C358.606 383.802 355.971 379.761 351.27 372.679C345.016 363.271 341.435 360.69 320.125 338.223C311.09 328.701 311.112 328.512 307.103 324.541C296.31 313.856 294.227 313.331 289.38 307.083C284.273 300.494 281.644 294.689 278.273 287.245C273.561 276.841 272.555 271.063 272.192 268.466C271.673 264.788 271.613 261.672 271.662 259.475L279.442 258.593L279.431 258.609Z" fill="#FF6726" stroke="#FFF6F2" stroke-linejoin="round"/>
<path d="M110.174 384.018C110.407 381.438 113.994 380.058 115.801 379.36C117.105 378.857 119.296 378.23 122.201 378.392C202.155 391.186 282.109 403.981 362.063 416.781C362.669 418.204 363.302 419.638 363.962 421.093C365.314 424.068 366.694 426.919 368.084 429.641C282.628 415.569 197.178 401.503 111.722 387.432C111.099 386.799 110.039 385.522 110.174 384.018Z" fill="#FF6726" stroke="#FFF6F2" stroke-linejoin="round"/>
<path d="M228.161 201.053C228.637 200.253 229.735 200.042 230.46 200.101C231.277 200.172 231.813 200.61 232.348 201.053C232.77 201.4 233.484 201.984 233.728 202.985C233.798 203.282 233.912 203.748 233.728 204.251C233.409 205.127 232.413 205.576 231.634 205.63C230.363 205.717 229.481 204.77 229.156 204.418C229.064 204.316 227.349 202.422 228.166 201.059L228.161 201.053Z" fill="#FF6726" stroke="#FFF6F2" stroke-linejoin="round"/>
<path d="M233.727 202.979C234.49 202.633 235.567 202.054 236.681 201.113C237.228 200.647 238.477 199.511 240.095 196.66C241.242 194.642 241.426 193.782 242.502 191.407C243.135 190.006 244.848 186.788 245.212 185.813C245.575 184.837 246.623 183.343 246.623 183.343L245.212 181.227L243.8 178.404C243.8 178.404 242.389 180.521 241.684 181.932C240.978 183.343 240.448 184.291 240.095 185.619C239.742 186.948 238.272 189.914 238.272 189.914C237.487 191.667 236.752 193.133 236.157 194.264C234.625 197.169 233.895 198.088 233.019 198.857C232.24 199.544 231.488 199.982 230.958 200.252C231.325 200.388 231.845 200.62 232.364 201.053C233.192 201.746 233.576 202.552 233.744 202.984L233.727 202.979Z" fill="#FF6726" stroke="#FFF6F2" stroke-linejoin="round"/>
<path d="M250.504 177.699L250.151 176.64L249.798 175.582C249.798 175.582 249.093 175.243 251.851 174.956C255.33 174.593 257.964 175.562 259.43 176.119C260.534 176.541 263.991 177.947 267.075 181.377C269.434 183.996 270.418 186.511 271.495 189.249C273.031 193.16 273.513 196.498 273.697 198.311C273.794 199.295 274.156 203.266 273.215 208.406C272.544 212.057 271.857 215.806 269.26 219.61C267.459 222.25 266.377 222.499 263.731 226.437C262.39 228.428 261.459 229.813 260.659 231.831C259.982 233.535 259.485 235.477 259.155 242.207C259.036 244.69 258.933 247.947 258.965 251.794C258.5 251.978 257.618 252.253 256.487 252.178C255.389 252.102 254.572 251.723 254.14 251.485C254.221 247.958 254.253 245.107 254.259 243.192C254.286 237.76 254.194 236.619 254.708 234.492C255.33 231.906 256.314 230.105 257.651 227.649C258.825 225.496 260.009 223.802 262.384 220.421C265.252 216.337 265.825 215.839 266.799 213.832C268.038 211.278 268.563 209.066 268.784 208.011C269.753 203.315 269.076 199.539 268.53 196.493C268.249 194.929 267.951 193.317 267.188 191.245C266.436 189.216 265.392 186.484 262.904 183.952C261.605 182.632 259.912 180.912 257.207 180.371C255.692 180.068 255.256 180.153 252.973 180.521L252.267 180.168L251.915 179.815L251.209 178.757L250.504 177.699Z" fill="#FF6726" stroke="#FFF6F2" stroke-linejoin="round"/>
</g>
<defs>
<filter id="filter0_d_316_5564" x="5.61182" y="2.57324" width="498.2" height="453.697" filterUnits="userSpaceOnUse" color-interpolation-filters="sRGB">
<feFlood flood-opacity="0" result="BackgroundImageFix"/>
<feColorMatrix in="SourceAlpha" type="matrix" values="0 0 0 0 0 0 0 0 0 0 0 0 0 0 0 0 0 0 127 0" result="hardAlpha"/>
<feOffset dy="4"/>
<feGaussianBlur stdDeviation="2"/>
<feComposite in2="hardAlpha" operator="out"/>
<feColorMatrix type="matrix" values="0 0 0 0 0 0 0 0 0 0 0 0 0 0 0 0 0 0 0.25 0"/>
<feBlend mode="normal" in2="BackgroundImageFix" result="effect1_dropShadow_316_5564"/>
<feBlend mode="normal" in="SourceGraphic" in2="effect1_dropShadow_316_5564" result="shape"/>
</filter>
<filter id="filter1_d_316_5564" x="5.61182" y="2.57324" width="498.2" height="255.134" filterUnits="userSpaceOnUse" color-interpolation-filters="sRGB">
<feFlood flood-opacity="0" result="BackgroundImageFix"/>
<feColorMatrix in="SourceAlpha" type="matrix" values="0 0 0 0 0 0 0 0 0 0 0 0 0 0 0 0 0 0 127 0" result="hardAlpha"/>
<feOffset dy="4"/>
<feGaussianBlur stdDeviation="2"/>
<feComposite in2="hardAlpha" operator="out"/>
<feColorMatrix type="matrix" values="0 0 0 0 0 0 0 0 0 0 0 0 0 0 0 0 0 0 0.25 0"/>
<feBlend mode="normal" in2="BackgroundImageFix" result="effect1_dropShadow_316_5564"/>
<feBlend mode="normal" in="SourceGraphic" in2="effect1_dropShadow_316_5564" result="shape"/>
</filter>
</defs>
</svg>
