<svg width="737" height="645" viewBox="0 0 737 645" fill="none" xmlns="http://www.w3.org/2000/svg">
<path d="M472.182 223.07L461.147 254.929L472.182 280.83V307.63L461.147 318.541L463.812 351.259L477.749 375.791L448.543 401.692L416.691 377.16L376.195 364.88L341.03 329.438L350.321 294.908L341.03 237.201L318.469 223.07L333.522 192.23L396.07 227.364L416.946 215.836L472.182 223.07Z" fill="#244523" stroke="#FFF6F2" stroke-width="6" stroke-linejoin="round"/>
<path d="M344.904 168.911L331.513 179.857L333.474 192.391L396.035 227.339L416.915 215.872L472.164 223.067L469.811 190.523L481.868 170.633L467.341 140.131L418.758 116.062L344.904 168.911Z" fill="#244523" stroke="#FFF6F2" stroke-width="6" stroke-linejoin="round"/>
<path d="M318.673 223.174L301.853 229.978L295.843 264.386L315.492 274.029L301.853 286.967V304.312L285.403 332.679L257.324 334.889L245.694 355.261L285.403 387.204L355.202 403.477L376.139 364.703L341.133 329.331L350.382 294.869L341.133 237.277L318.673 223.174Z" fill="#244523" stroke="#FFF6F2" stroke-width="6" stroke-linejoin="round"/>
<path d="M245.427 355.277L210.85 371.819L195.576 392.789L208.425 420.922L197.571 445.474L253.464 426.168L277.187 450.706L320.604 457.883L335.897 501.19L375.891 524.87L378.199 454.623L355.18 403.575L285.225 387.275L245.427 355.277Z" fill="#244523" stroke="#FFF6F2" stroke-width="6" stroke-linejoin="round"/>
<path d="M197.635 445.4L230.301 467.193L201.675 501.949L232.301 517.959L258.105 535.619L291.967 544.717L302.045 567.893L328.653 570.094L331.064 547.482L322.614 530.64L336.319 501.131L320.986 457.813L277.457 450.633L253.674 426.089L197.635 445.4Z" fill="#244523" stroke="#FFF6F2" stroke-width="6" stroke-linejoin="round"/>
<path d="M197.601 445.727L163.142 465.046L131.074 452.838L96.7121 477.001L118.47 510.263L123.821 548.461L147.166 573.665L210.107 569.702L223.083 553.398L258.052 535.426L232.257 517.868L201.639 501.95L230.257 467.394L197.601 445.727Z" fill="#244523" stroke="#FFF6F2" stroke-width="6" stroke-linejoin="round"/>
<path d="M245.575 355.277L183.781 329.224L179.682 296.928L160.562 285.06L197.587 229.992H216.57L245.575 223.174L278.521 261.417L295.974 264.391L315.723 274.035L302.015 286.975V304.322L285.483 332.693L257.263 334.903L245.575 355.277Z" fill="#244523" stroke="#FFF6F2" stroke-width="6" stroke-linejoin="round"/>
<path d="M245.486 223.087L234.739 209.086L186.651 182.703L209.786 153.511H258.793L281.029 140.46L331.619 179.801L333.573 192.357L318.566 223.087L301.723 229.88L295.704 264.233L278.313 261.264L245.486 223.087Z" fill="#244523" stroke="#FFF6F2" stroke-width="6" stroke-linejoin="round"/>
<path d="M281.189 140.336L252.098 119.82L217.545 111.424L238.16 60.7227L278.918 77.5159L294.208 69.6014L345.244 168.754L331.873 179.735L281.189 140.336Z" fill="#244523" stroke="#FFF6F2" stroke-width="6" stroke-linejoin="round"/>
<path d="M131.308 452.497L112.215 435.303L68.5635 433.278L84.6805 385.679L76.6122 358.976L149.932 343.593L183.987 329.095L245.694 355.181L211.071 371.717L195.776 392.68L208.643 420.805L197.774 445.348L163.346 464.769L131.308 452.497Z" fill="#244523" stroke="#FFF6F2" stroke-width="6" stroke-linejoin="round"/>
<path d="M76.2332 359.443L42.4744 324.985L64.4961 297.22L50.6001 264.573L111.091 221.758L120.296 181.52L186.597 182.861L234.899 209.325L245.694 223.368L216.666 230.195H197.666L160.61 285.336L179.747 297.22L183.849 329.559L149.717 344.058L76.2332 359.443Z" fill="#244523" stroke="#FFF6F2" stroke-width="6" stroke-linejoin="round"/>
<path d="M217.669 111.448L193.127 102.376L137.379 106.905L85.7273 152.01L120.501 181.369L186.717 182.709L209.926 153.457H259.088L281.395 140.378L252.266 119.85L217.669 111.448Z" fill="#244523" stroke="#FFF6F2" stroke-width="6" stroke-linejoin="round"/>
<path d="M-23.4325 586.372L-44.7178 559.685L-11.2666 527.25V478.604L39.6228 497.931L96.5659 476.67L118.242 510.153L123.573 548.605L146.831 573.975L132.946 590.777L85.5913 602.771L45.032 622.46L-23.4325 586.372Z" fill="#244523" stroke="#FFF6F2" stroke-width="6" stroke-linejoin="round"/>
<path d="M-11.3663 478.771L-79.2123 481.913L-112 435.364L-95.2245 390.386L-3.7322 413.922L68.3224 433.283L111.954 435.31L131.04 452.523L96.7253 476.838L39.6454 498.092L-11.3663 478.771Z" fill="#244523" stroke="#FFF6F2" stroke-width="6" stroke-linejoin="round"/>
<path d="M-95.6034 390.391L-103.761 348.452L-67.3448 300.8L-59.5398 253.98L-23.9861 219.603L111.13 221.332L50.9846 264.184L64.5746 296.751L42.5717 324.505L76.3017 358.95L84.3811 385.645L68.2418 433.229L-95.6034 390.391Z" fill="#244523" stroke="#FFF6F2" stroke-width="6" stroke-linejoin="round"/>
<path d="M-23.6129 219.676L-89.3437 179.688L-48.6923 122.67L-65.125 55.8453L9.62429 4.39232L85.6452 33.3697L160.531 3.00098L183.283 36.8748L164.679 73.3307L192.83 102.388L137.193 106.91L85.6452 151.942L120.35 181.253L111.175 221.388L-23.6129 219.676Z" fill="#244523" stroke="#FFF6F2" stroke-width="6" stroke-linejoin="round"/>
<g filter="url(#filter0_d_316_4828)">
<path d="M529.26 610.168C528.369 609.124 527.351 607.704 526.56 605.896C525.966 604.553 525.201 602.314 525.189 599.443C525.182 597.542 525.171 596.157 525.971 594.512C526.921 592.554 527.877 592.571 530.682 589.433C531.175 588.886 532.894 586.933 534.598 584.197C535.586 582.609 536.292 581.21 536.875 580.047C537.575 578.649 538.118 577.454 538.502 576.561C538.993 577.748 539.477 579.212 539.8 580.928C540.161 582.857 540.175 584.336 540.193 586.151C540.209 588.303 540.221 589.379 539.949 590.791C539.767 591.743 539.397 593.144 537.927 596.041C536.41 599.019 535.263 600.562 533.027 604.049C532.124 605.46 530.807 607.555 529.264 610.156L529.26 610.168Z" fill="#FF6726" stroke="#FFF6F2" stroke-width="2" stroke-linejoin="round"/>
<path d="M525.971 594.513C525.313 594.124 524.279 593.392 523.613 592.179C522.854 590.792 522.977 589.508 523.156 587.916C523.475 585.099 524.528 582.988 524.883 582.319C525.854 580.476 526.503 580.036 528.844 577.025C529.37 576.354 531.465 573.661 532.873 571.421C534.066 569.521 535.58 566.639 536.59 562.723C537.597 564.745 538.143 566.557 538.455 567.939C538.995 570.341 538.996 572.17 538.989 572.637C538.974 573.875 538.957 575.062 538.503 576.567C538.343 577.101 538.129 577.672 536.876 580.053C535.752 582.188 535.192 583.252 534.599 584.204C533.237 586.391 531.98 587.892 530.683 589.44C529.506 590.848 527.949 592.593 525.972 594.519L525.971 594.513Z" fill="#FF6726" stroke="#FFF6F2" stroke-width="2" stroke-linejoin="round"/>
<path d="M524.883 582.319C523.394 580.13 522.711 578.123 522.373 576.752C521.988 575.192 521.491 573.186 522.073 570.698C522.4 569.322 523.191 568.021 524.758 565.477C527.254 561.44 527.842 561.235 529.354 558.499C530.091 557.163 531.179 555.012 532.049 552.288C532.976 549.381 533.334 546.865 533.466 545.007C534.311 545.991 535.42 547.496 536.241 549.512C537.305 552.125 537.369 554.314 537.401 556.093C537.418 556.769 537.435 559.353 536.591 562.729C536.31 563.856 535.367 567.333 532.874 571.426C532.316 572.344 531.154 573.918 528.845 577.03C527.196 579.263 525.818 581.088 524.884 582.325L524.883 582.319Z" fill="#FF6726" stroke="#FFF6F2" stroke-width="2" stroke-linejoin="round"/>
<path d="M523.198 568.059C522.184 566.896 520.871 565.124 519.904 562.747C519.382 561.458 518.381 558.93 518.627 555.508C518.681 554.802 518.909 552.248 520.446 549.143C521.884 546.224 522.791 546.232 524.904 542.745C526.538 540.043 527.345 537.814 528.104 535.704C528.826 533.697 529.563 531.232 530.089 528.384C530.788 529.119 531.728 530.256 532.512 531.784C533.785 534.259 533.961 536.422 534.072 537.986C534.2 539.843 533.959 541.586 533.465 545.001C532.972 548.427 532.726 550.143 532.048 552.283C531.528 553.918 530.872 555.992 529.353 558.493C527.981 560.744 527.15 561.626 524.757 565.471C524.079 566.562 523.546 567.464 523.198 568.059Z" fill="#FF6726" stroke="#FFF6F2" stroke-width="2" stroke-linejoin="round"/>
<path d="M519.376 551.784C517.165 549.272 515.983 546.888 515.335 545.234C514.572 543.276 513.631 540.894 514.006 537.696C514.364 534.631 515.725 532.359 516.508 531.087C517.934 528.759 518.629 528.693 520.928 525.56C521.442 524.863 522.988 522.705 524.444 519.884C525.522 517.797 526.79 514.879 527.655 511.236C528.458 512.133 529.557 513.589 530.266 515.585C531.073 517.867 530.976 519.77 530.838 522.64C530.717 525.142 530.359 527.034 530.103 528.381C529.397 532.075 528.43 534.833 528.117 535.702C526.855 539.196 526.224 540.941 524.917 542.742C523.273 545.002 521.907 546.158 520.459 549.14C519.925 550.234 519.595 551.162 519.396 551.78L519.376 551.784Z" fill="#FF6726" stroke="#FFF6F2" stroke-width="2" stroke-linejoin="round"/>
<path d="M514.987 533.971C514.243 532.856 513.273 531.203 512.48 529.081C511.717 527.044 510.77 524.551 511.151 521.543C511.338 520.113 512.258 518.256 514.102 514.608C515.165 512.507 516.457 509.961 518.56 506.42C520.848 502.565 521.284 502.275 522.159 500.358C523.508 497.398 523.978 494.813 524.155 493.098C525.164 494.115 526.579 495.802 527.525 498.177C528.457 500.505 528.523 502.435 528.569 504.099C528.645 506.976 528.142 509.136 527.641 511.233C526.694 515.194 525.282 518.226 524.429 519.881C523.163 522.338 522.428 523.769 520.913 525.557C519.29 527.471 518.031 528.608 516.494 531.084C515.757 532.269 515.272 533.292 514.98 533.966L514.987 533.971Z" fill="#FF6726" stroke="#FFF6F2" stroke-width="2" stroke-linejoin="round"/>
<path d="M514.109 514.607C513.074 513.712 511.612 512.224 510.613 510.054C509.073 506.723 509.499 503.701 509.785 501.704C510.178 498.918 511.091 496.866 512.007 494.796C513.219 492.068 514.529 490.008 515.561 488.4C517.545 485.306 518.602 484.267 520.051 481.407C520.778 479.971 521.262 478.747 521.56 477.914C522.644 479.901 523.33 481.654 523.77 482.985C524.52 485.255 525.112 487.092 524.927 489.544C524.88 490.136 524.638 491.132 524.162 493.096C523.206 497.003 522.729 498.961 522.166 500.357C521.28 502.561 520.648 503.06 518.567 506.418C517.405 508.301 515.796 511.071 514.109 514.607Z" fill="#FF6726" stroke="#FFF6F2" stroke-width="2" stroke-linejoin="round"/>
<path d="M510.598 498.272C509.574 497.207 508.172 495.512 507.109 493.18C506.428 491.684 505.418 489.42 505.614 486.372C505.794 483.579 506.869 481.515 507.749 479.856C508.609 478.245 508.979 478.012 512.184 473.799C516.147 468.594 516.868 467.243 517.315 466.317C518.376 464.093 518.846 462.169 519.078 460.921C519.909 461.903 520.972 463.382 521.751 465.349C522.767 467.926 522.789 470.071 522.79 471.244C522.794 474.263 522.022 476.571 521.567 477.914C521.042 479.448 520.485 480.562 520.058 481.407C518.737 484.019 518.038 484.569 515.568 488.4C513.317 491.883 512.286 494.198 512.014 494.795C511.366 496.212 510.906 497.415 510.605 498.271L510.598 498.272Z" fill="#FF6726" stroke="#FFF6F2" stroke-width="2" stroke-linejoin="round"/>
<path d="M506.297 483.013C505.664 482.064 504.877 480.677 504.299 478.91C503.436 476.273 503.462 474.124 503.526 472.469C503.623 470.027 503.716 467.637 505.036 464.823C505.25 464.364 505.482 463.93 508.71 459.461C512.092 454.773 512.176 454.781 512.716 453.917C513.908 452.006 515.315 449.064 515.81 444.875C516.593 445.623 517.645 446.807 518.42 448.444C519.359 450.428 519.425 452.083 519.524 454.703C519.577 456.057 519.64 458.162 519.078 460.921C518.498 463.734 517.566 465.795 517.315 466.317C515.916 469.308 514.131 471.463 512.184 473.799C510.057 476.351 509.049 477.472 507.749 479.856C507.034 481.166 506.573 482.286 506.298 483.019L506.297 483.013Z" fill="#FF6726" stroke="#FFF6F2" stroke-width="2" stroke-linejoin="round"/>
<path d="M505.036 464.822C504.333 464.059 503.453 462.957 502.691 461.515C501.454 459.163 501.2 457.137 501.059 455.91C500.836 453.985 500.553 451.526 501.667 448.67C502.148 447.434 503.181 446.023 505.247 443.201C507.467 440.166 507.773 440.151 508.985 438.198C510.713 435.407 511.368 433.367 511.547 432.785C512.011 431.261 512.211 429.946 512.296 428.989C513.031 429.701 513.994 430.766 514.817 432.209C516.413 435.003 516.54 437.545 516.594 438.905C516.674 440.911 516.368 442.289 515.803 444.875C515.089 448.133 514.5 450.818 512.709 453.917C511.78 455.529 511.567 455.449 508.704 459.461C507.082 461.734 505.83 463.61 505.029 464.823L505.036 464.822Z" fill="#FF6726" stroke="#FFF6F2" stroke-width="2" stroke-linejoin="round"/>
<path d="M501.673 448.663C500.885 447.736 499.881 446.353 499.06 444.533C498.407 443.088 497.174 440.253 497.659 436.592C497.932 434.524 498.644 433.04 499.701 430.833C500.333 429.521 500.593 429.206 503.206 424.94C505.084 421.87 506.043 420.309 506.774 418.974C507.67 417.329 508.71 415.26 509.717 412.809C510.498 413.659 511.513 414.984 512.106 416.793C512.359 417.568 512.466 418.212 512.489 422.31C512.522 427.046 512.399 428.213 512.301 428.977C512.141 430.211 511.999 431.308 511.551 432.773C511.382 433.331 510.729 435.377 508.989 438.186C507.687 440.285 507.104 440.674 505.252 443.189C504.335 444.439 503.05 446.288 501.672 448.658L501.673 448.663Z" fill="#FF6726" stroke="#FFF6F2" stroke-width="2" stroke-linejoin="round"/>
<path d="M498.712 432.961C497.995 431.886 497.076 430.37 496.221 428.473C495.206 426.216 494.474 424.628 494.319 422.354C494.248 421.329 494.101 418.706 495.489 415.694C496.069 414.436 496.314 414.426 499.432 410.223C501.348 407.64 502.328 406.317 503.354 404.632C505.188 401.621 505.782 399.9 506.041 399.074C506.474 397.679 506.661 396.49 506.755 395.659C507.569 396.273 508.787 397.349 509.692 398.986C509.893 399.343 510.752 400.954 510.886 403.304C510.974 404.776 510.688 405.135 510.228 408.319C509.748 411.665 510.034 411.418 509.705 412.817C509.516 413.614 509.174 414.74 506.762 418.982C505.072 421.957 504.23 423.441 503.194 424.948C501.809 426.966 500.883 428.442 499.689 430.841C499.243 431.734 498.914 432.471 498.7 432.969L498.712 432.961Z" fill="#FF6726" stroke="#FFF6F2" stroke-width="2" stroke-linejoin="round"/>
<path d="M495.49 415.7C494.94 414.601 494.298 413.137 493.771 411.35C493.411 410.129 492.823 408.117 492.742 405.516C492.634 402.263 493.37 399.787 493.996 397.662C494.813 394.909 495.853 392.682 496.6 391.248C498.163 388.257 499.094 387.47 500.725 384.32C501.789 382.269 502.463 380.534 502.862 379.414C503.495 380.397 504.31 381.796 505.059 383.556C505.656 384.96 506.571 387.156 506.886 390.181C507.148 392.683 506.894 394.658 506.756 395.665C506.643 396.504 506.481 397.644 506.042 399.079C505.802 399.857 505.216 401.588 503.355 404.638C502.341 406.309 501.718 407.093 499.433 410.229C498.501 411.51 497.139 413.389 495.49 415.7Z" fill="#FF6726" stroke="#FFF6F2" stroke-width="2" stroke-linejoin="round"/>
<path d="M493.154 400.858C492.334 399.549 491.346 397.714 490.589 395.406C489.195 391.118 489.405 387.64 489.456 386.919C489.704 383.625 490.672 381.221 491.675 378.71C493.293 374.67 494.403 373.773 495.767 369.924C496.647 367.451 497.065 365.351 497.277 363.95C498.427 364.836 499.903 366.209 501.1 368.175C502.586 370.618 502.907 372.79 503.063 373.907C503.203 374.932 503.461 376.901 502.86 379.403C502.758 379.836 502.432 381.095 500.723 384.309C498.787 387.945 498.352 387.926 496.599 391.238C495.802 392.747 494.827 394.951 493.994 397.651C493.596 398.934 493.33 400.03 493.152 400.847L493.154 400.858Z" fill="#FF6726" stroke="#FFF6F2" stroke-width="2" stroke-linejoin="round"/>
<path d="M489.653 385.318C488.905 384.457 487.923 383.165 487.106 381.446C485.85 378.794 485.65 376.529 485.513 374.471C485.342 371.986 485.237 370.417 485.823 368.338C486.216 366.95 486.5 366.816 488.735 362.426C490.069 359.805 490.743 358.497 491.256 357.205C491.908 355.581 492.697 353.174 493.073 350.061C493.748 350.621 494.65 351.461 495.504 352.612C497.449 355.244 497.818 357.726 497.893 358.269C498.098 359.781 497.823 361.177 497.286 363.96C496.931 365.796 496.569 367.633 495.776 369.934C494.39 373.932 493.312 374.734 491.684 378.72C491.071 380.219 490.261 382.467 489.654 385.324L489.653 385.318Z" fill="#FF6726" stroke="#FFF6F2" stroke-width="2" stroke-linejoin="round"/>
<path d="M485.389 371.008C484.624 370.054 483.677 368.722 482.815 367.022C481.476 364.363 481.024 362.153 480.762 360.706C480.148 357.34 479.799 355.438 480.461 352.97C480.866 351.461 481.861 349.872 483.865 346.701C485.536 344.049 486.226 343.333 487.929 340.631C489.262 338.51 490.237 336.733 490.852 335.558C491.736 336.53 492.717 337.895 493.333 339.678C494.037 341.726 493.965 343.456 493.868 345.201C493.811 346.311 493.666 347.397 493.073 350.056C492.208 353.94 491.783 355.878 491.255 357.2C489.27 362.192 486.977 363.376 485.815 368.334C485.551 369.475 485.436 370.421 485.382 371.009L485.389 371.008Z" fill="#FF6726" stroke="#FFF6F2" stroke-width="2" stroke-linejoin="round"/>
<path d="M480.468 352.973C479.669 352.289 478.569 351.181 477.739 349.588C476.512 347.211 476.578 345.061 476.634 343.318C476.717 340.716 477.365 338.755 477.759 337.608C478.277 336.074 479.161 333.55 481.33 330.884C482.862 328.997 483.518 328.91 485.803 326.436C487.525 324.578 488.717 322.942 489.44 321.872C489.981 323.774 490.406 325.411 490.726 326.679C491.512 329.818 491.617 330.641 491.596 331.616C491.584 332.089 491.527 333.631 490.853 335.563C490.289 337.183 489.628 338.136 487.93 340.635C485.683 343.95 484.557 345.608 483.866 346.706C482.956 348.152 481.712 350.273 480.461 352.974L480.468 352.973Z" fill="#FF6726" stroke="#FFF6F2" stroke-width="2" stroke-linejoin="round"/>
<path d="M477.032 340.133C476.479 339.097 475.824 337.675 475.328 335.91C475.071 335.001 474.359 332.242 474.661 328.553C475.011 324.355 476.426 321.265 476.804 320.492C477.63 318.763 478.212 318.1 480.748 314.442C482.027 312.601 483.753 310.068 485.753 306.988C486.403 307.957 487.208 309.291 487.951 310.944C488.529 312.24 489.247 313.859 489.607 316.057C489.959 318.211 490.229 319.898 489.438 321.861C488.952 323.07 487.891 324.205 485.801 326.425C482.844 329.557 482.762 329.094 481.328 330.873C479.135 333.595 478.197 336.325 477.757 337.598C477.398 338.632 477.175 339.507 477.031 340.128L477.032 340.133Z" fill="#FF6726" stroke="#FFF6F2" stroke-width="2" stroke-linejoin="round"/>
<path d="M475.146 325.397C474.628 324.478 473.998 323.197 473.497 321.602C472.415 318.145 472.554 315.163 472.768 313.464C472.986 311.747 473.347 309.091 475.151 306.101C476.099 304.52 476.824 303.893 479.075 301.38C480.552 299.728 482.631 297.33 485.021 294.287C485.504 295.044 486.108 296.133 486.59 297.507C486.963 298.575 487.547 300.212 487.414 302.182C487.362 302.938 487.184 304.221 485.759 306.981C484.772 308.889 483.982 309.966 480.753 314.435C477.855 318.443 477.344 319.358 476.809 320.485C475.856 322.499 475.388 324.243 475.152 325.39L475.146 325.397Z" fill="#FF6726" stroke="#FFF6F2" stroke-width="2" stroke-linejoin="round"/>
<path d="M473.337 310.356C472.826 309.514 472.184 308.325 471.639 306.828C471.103 305.34 470.291 303.188 470.533 300.558C470.711 298.613 471.395 297.201 472.763 294.39C473.483 292.91 474.613 290.612 476.745 287.857C478.493 285.601 480.375 283.72 482.193 282.176C482.795 282.867 483.617 283.951 484.206 285.424C484.862 287.048 484.949 288.436 485.058 290.258C485.183 292.368 485.24 293.43 485.016 294.294C484.585 295.936 483.745 296.533 479.069 301.387C476.41 304.146 475.759 305.08 475.145 306.109C474.129 307.809 473.616 309.33 473.338 310.361L473.337 310.356Z" fill="#FF6726" stroke="#FFF6F2" stroke-width="2" stroke-linejoin="round"/>
<path d="M471.281 297.603C470.787 296.708 470.146 295.407 469.592 293.781C468.953 291.907 468.218 289.798 468.387 286.945C468.545 284.302 469.377 282.259 469.829 281.286C470.391 280.082 471.528 278.018 473.645 275.95C475.674 273.97 476.584 273.961 478.126 272.247C479.69 270.507 480.382 268.712 480.72 267.446C481.443 268.16 482.436 269.326 483.033 270.961C483.668 272.695 483.558 274.135 483.362 276.364C483.111 279.214 482.985 280.639 482.195 282.187C480.907 284.715 479.742 284.213 476.747 287.867C474.88 290.144 473.747 292.465 472.765 294.4C472.115 295.688 471.625 296.796 471.283 297.619L471.281 297.603Z" fill="#FF6726" stroke="#FFF6F2" stroke-width="2" stroke-linejoin="round"/>
<path d="M468.717 284.581C468.171 283.931 467.462 282.944 466.89 281.642C465.674 278.865 465.879 276.416 466.035 275.008C466.363 271.931 467.512 269.663 468.091 268.551C469.216 266.382 470.492 264.833 472.074 262.921C473.831 260.793 474.362 260.503 475.697 258.786C477.283 256.738 478.27 254.909 478.867 253.67C479.394 254.407 480.04 255.466 480.546 256.82C481.296 258.814 481.364 260.447 481.407 261.702C481.454 263.136 481.521 265.032 480.726 267.44C480.355 268.56 479.741 270.369 478.132 272.241C476.527 274.101 475.926 273.724 473.651 275.944C471.382 278.162 470.286 280.302 469.835 281.28C469.224 282.594 468.899 283.746 468.724 284.579L468.717 284.581Z" fill="#FF6726" stroke="#FFF6F2" stroke-width="2" stroke-linejoin="round"/>
<path d="M466.654 271.986C466 271.035 465.152 269.647 464.461 267.866C463.818 266.206 462.88 263.841 463.228 260.878C463.489 258.626 464.325 257.109 465.93 254.2C466.553 253.069 467.882 250.691 470.24 247.929C472.2 245.636 473.078 245.173 474.554 243.088C475.844 241.267 476.583 239.627 477.004 238.52C477.744 239.293 478.753 240.547 479.362 242.291C479.924 243.921 479.866 245.266 479.727 247.895C479.581 250.609 479.505 251.964 478.866 253.665C478.129 255.624 477.085 256.975 475.697 258.78C474.37 260.507 474.272 260.305 472.073 262.916C470.469 264.82 469.221 266.37 468.09 268.545C467.358 269.954 466.914 271.166 466.653 271.981L466.654 271.986Z" fill="#FF6726" stroke="#FFF6F2" stroke-width="2" stroke-linejoin="round"/>
<path d="M464.306 257.27C463.664 256.042 462.884 254.299 462.31 252.133C461.833 250.32 461.339 248.494 461.556 246.065C461.607 245.5 461.867 242.935 463.528 239.836C464.842 237.376 466.424 235.733 469.077 232.976C470.757 231.232 471.495 230.675 473.269 228.684C474.62 227.172 475.637 225.865 476.308 224.966C476.948 225.684 477.819 226.855 478.365 228.47C479 230.362 478.864 231.924 478.77 232.905C478.573 234.938 477.937 236.386 477.003 238.515C476.437 239.81 475.781 241.3 474.553 243.083C473.089 245.199 472.66 245.055 470.239 247.924C467.965 250.62 466.612 253.013 465.929 254.194C465.221 255.425 464.687 256.479 464.306 257.27Z" fill="#FF6726" stroke="#FFF6F2" stroke-width="2" stroke-linejoin="round"/>
<path d="M463.521 239.836C462.922 239.353 462.065 238.539 461.456 237.338C460.36 235.203 460.713 233.199 460.939 231.919C461.119 230.877 461.561 229.227 462.766 227.354C463.513 226.302 464.563 224.713 465.642 222.71C467.027 220.148 467.056 219.492 468.341 217.414C469.476 215.569 469.996 215.214 471.72 212.788C473.142 210.787 474.157 209.115 474.767 208.065C475.49 210.261 476.014 212.183 476.387 213.717C477.02 216.293 477.341 217.611 477.357 219.219C477.383 221.465 476.885 223.422 476.308 224.971C475.638 225.87 474.62 227.172 473.27 228.689C471.484 230.693 470.241 231.805 469.078 232.981C467.57 234.498 465.567 236.743 463.529 239.841L463.521 239.836Z" fill="#FF6726" stroke="#FFF6F2" stroke-width="2" stroke-linejoin="round"/>
<path d="M461.573 229.798C460.984 229.099 460.211 228.062 459.58 226.698C458.377 224.109 458.335 221.849 458.356 219.758C458.382 217.065 458.392 215.722 459.162 214.105C459.859 212.652 460.324 212.648 462.845 209.375C464.54 207.168 465.394 206.064 465.869 204.869C466.363 203.631 466.488 202.279 466.751 199.573C467.037 196.57 466.838 196.336 467.182 195.254C467.567 194.053 468.452 192.348 470.782 190.483C471.349 191.13 472.139 192.152 472.818 193.514C473.603 195.087 473.512 195.664 474.467 199.211C475.317 202.361 475.578 202.596 475.587 203.891C475.592 204.35 475.571 206.015 474.76 208.066C474.413 208.935 474.036 209.596 471.714 212.79C469 216.523 469.038 216.275 468.334 217.415C466.665 220.117 467.317 220.08 465.636 222.712C464.528 224.439 463.899 225.223 462.76 227.355C462.225 228.364 461.826 229.214 461.572 229.792L461.573 229.798Z" fill="#FF6726" stroke="#FFF6F2" stroke-width="2" stroke-linejoin="round"/>
<path d="M459.162 214.105C458.302 212.685 457.281 210.974 456.148 209.019C453.983 205.292 453.532 204.334 453.119 203.194C452.478 201.422 451.882 199.714 452.104 197.436C452.24 196.031 452.394 194.494 453.643 193.028C454.911 191.548 456.604 190.968 459.494 189.982C461.783 189.202 463.456 188.969 464.608 188.816C467.963 188.371 468.993 188.846 469.411 189.081C470.15 189.5 470.559 190.073 470.782 190.483C468.452 192.348 467.56 194.054 467.182 195.254C466.837 196.331 467.044 196.569 466.751 199.573C466.488 202.279 466.363 203.631 465.869 204.869C465.592 205.557 465.258 206.189 462.845 209.375C461.918 210.605 460.673 212.217 459.162 214.105Z" fill="#FF6726" stroke="#FFF6F2" stroke-width="2" stroke-linejoin="round"/>
<path d="M387.488 332.902C391.132 307.971 395.175 288.532 398.73 273.864C403.199 255.475 407.601 237.33 415.793 220.624C422.523 206.898 428.536 200.803 436.446 192.796C446.804 182.306 454.327 179.416 459.599 178.294C459.976 178.214 460.868 178.029 461.939 177.881C464.889 177.471 476.195 176.321 493.201 186.506C499.906 190.523 513.477 199.887 531.117 221.368C546.268 239.81 558.034 259.424 564.381 270.076C571.575 282.149 577.67 293.393 582.305 302.262L581.377 311.109C576.842 302.807 570.737 291.975 563.492 280.158C555.37 266.904 544.738 249.559 531.517 233.706C527.031 228.323 512.626 211.582 494.816 201.731C478.167 192.518 466.572 193.774 463.153 194.288C460.368 194.703 450.314 196.538 438.819 207.262C434.192 211.576 426.738 218.708 418.857 234.968C410.373 252.467 405.754 271.521 402.407 285.617C398.988 300.007 395.191 319.328 392.022 344.505L387.488 332.902Z" fill="#FF6726" stroke="#FFF6F2" stroke-linejoin="round"/>
<path d="M478.353 112.875C476.63 108.933 473.843 104.246 469.333 100.047C466.668 97.5676 463.527 94.6437 458.388 93.2109C452.7 91.6277 447.912 92.8082 445.376 93.4681C443.055 94.0693 438.49 95.3132 434.176 99.2979C429.017 104.056 427.465 109.714 427.007 111.743C425.654 117.75 427.001 122.554 427.633 124.699C429.43 130.81 432.875 134.682 434.455 136.413C437.72 140.001 438.376 139.137 447.607 146.784C450.761 149.396 453.269 151.643 454.717 155.428C455.504 157.477 455.721 159.332 455.781 160.604C456.801 166.543 457.827 172.481 458.847 178.42L463.68 177.567C461.691 168.816 460.724 163.409 460.228 159.82C460.072 158.702 459.811 156.601 458.776 154.033C457.682 151.325 456.224 149.318 455.114 147.806C454.421 146.865 453.142 145.211 451.403 143.473C446.073 138.123 442.979 138.497 438.114 134.032C436.282 132.352 432.848 129.123 431.171 123.774C429.602 118.762 430.371 114.456 430.747 112.819C431.131 111.146 432.253 106.51 436.417 102.6C440.068 99.1711 444.042 98.1892 445.905 97.7511C451.586 96.4268 456.147 97.7217 457.446 98.1306C461.64 99.4489 464.254 101.718 466.503 103.708C470.646 107.375 473.26 111.51 474.908 114.992L478.344 112.863L478.353 112.875Z" fill="#FF6726" stroke="#FFF6F2" stroke-linejoin="round"/>
<path d="M285.331 357.384C297.081 329.912 308.677 308.29 318.472 291.891C330.754 271.322 342.865 251.029 362.418 231.62C378.483 215.672 391.77 208.075 409.247 198.072C432.121 184.984 447.921 180.559 458.843 178.434C459.625 178.283 461.468 177.93 463.675 177.582C469.737 176.623 492.936 173.424 525.719 181.424C538.647 184.577 564.615 192.297 596.738 212.342C624.319 229.559 644.828 248.613 655.874 258.971C668.397 270.715 678.829 281.751 686.704 290.493L683.283 300.171C675.514 292.027 664.989 281.434 652.316 269.97C638.111 257.123 619.517 240.304 595.399 225.542C587.215 220.531 560.854 205.019 526.356 197.514C494.11 190.496 470.324 193.867 463.282 195.019C457.552 195.954 436.782 199.678 411.547 213.217C401.396 218.663 385 227.638 366.141 246.513C345.849 266.822 333.149 288.13 323.878 303.888C314.418 319.975 303.341 341.429 292.518 369.067L285.327 357.364L285.331 357.384Z" fill="#FF6726" stroke="#FFF6F2" stroke-width="2" stroke-linejoin="round"/>
<path d="M442.388 201.386C442.615 202.244 443.097 203.614 444.196 204.95C445.671 206.747 447.424 207.474 448.755 208.028C450.079 208.577 451.624 209.216 453.72 209.094C456.081 208.952 457.738 207.933 458.43 207.502C460.169 206.406 461.105 205.103 461.73 204.217C462.635 202.933 463.681 201.445 463.711 199.361C463.729 198.336 463.492 197.493 463.284 196.94C461.18 198.806 459.218 200.037 457.806 200.814C455.755 201.937 454.263 202.763 452.043 203.079C449.79 203.401 447.938 203.041 446.658 202.78C444.845 202.414 443.395 201.846 442.395 201.385L442.388 201.386Z" fill="#FF6726" stroke="#FFF6F2" stroke-width="2" stroke-linejoin="round"/>
<path d="M442.388 201.385C441.231 200.108 441.414 198.388 441.426 198.297C441.574 197.077 442.308 196.227 442.958 195.598C445.232 193.414 447.536 193.069 451.464 191.396C454.753 189.993 456.223 188.924 460.185 187.643C461.119 187.341 462.752 186.847 464.636 187.345C465.276 187.513 467.095 187.995 467.639 189.449C468.091 190.652 467.421 191.868 466.81 192.991C466.38 193.773 465.625 194.935 463.284 196.939C461.987 198.053 460.346 199.44 457.806 200.814C455.616 202.002 454.189 202.768 452.043 203.078C450.471 203.3 449.2 203.127 446.658 202.779C443.441 202.338 442.77 201.798 442.395 201.384L442.388 201.385Z" fill="#FF6726" stroke="#FFF6F2" stroke-width="2" stroke-linejoin="round"/>
<path d="M444.814 194.188C444.934 193.591 445.129 192.788 445.43 191.85C446.365 188.99 447.685 187.069 448.058 186.544C448.7 185.635 449.84 184.055 451.806 182.611C453.511 181.357 455.432 180.785 459.261 179.644C463.189 178.478 464.362 178.525 465.239 179.145C466.188 179.821 466.462 180.946 466.471 180.999C466.655 181.811 466.409 182.396 465.72 184.28C465.484 184.926 465.102 185.987 464.636 187.346C463.66 187.291 462.074 187.276 460.185 187.643C456.953 188.282 455.175 189.59 451.464 191.397C449.987 192.117 447.728 193.146 444.814 194.188Z" fill="#FF6726" stroke="#FFF6F2" stroke-width="2" stroke-linejoin="round"/>
<path d="M451.806 182.611L453.272 179.458C455.256 177.921 457.248 176.39 459.232 174.854C459.432 174.818 459.722 174.795 460.059 174.838C461.134 174.985 461.798 175.759 462.556 176.559C463.17 177.205 464.054 178.098 465.241 179.151C463.652 179.082 461.594 179.15 459.262 179.65C455.979 180.345 453.46 181.613 451.807 182.617L451.806 182.611Z" fill="#FF6726" stroke="#FFF6F2" stroke-width="2" stroke-linejoin="round"/>
<path d="M453.279 179.457C451.612 179.408 450.24 179.519 449.24 179.641C448.133 179.774 447.622 179.912 447.132 180.28C446.077 181.063 445.875 182.326 445.846 182.51C445.63 184.009 446.514 185.602 448.059 186.551C449.138 185.359 450.043 184.431 450.686 183.796C451.252 183.237 451.494 183.016 451.807 182.618C452.704 181.486 453.093 180.306 453.273 179.465L453.279 179.457Z" fill="#FF6726" stroke="#FFF6F2" stroke-width="2" stroke-linejoin="round"/>
<path d="M447.131 180.273C446.773 179.685 446.272 178.669 446.166 177.329C446.118 176.666 446.037 175.665 446.569 174.638C447.081 173.656 447.864 173.196 448.771 172.665C449.851 172.029 451.361 171.145 452.964 171.528C453.873 171.745 454.067 172.184 455.319 173.027C456.19 173.614 457.466 174.322 459.237 174.839L453.277 179.443C452.249 179.33 450.844 179.289 449.238 179.627C448.431 179.797 447.724 180.025 447.129 180.267L447.131 180.273Z" fill="#FF6726" stroke="#FFF6F2" stroke-width="2" stroke-linejoin="round"/>
<path d="M450.921 171.641C450.89 171.311 450.866 170.828 450.895 170.253C450.951 169.132 451.028 167.74 451.895 166.709C452.451 166.055 453.107 165.809 453.839 165.529C455.471 164.912 457.063 164.961 458.258 165.169C458.643 165.252 459.167 165.427 459.527 165.871C460.096 166.573 459.785 167.335 459.989 168.492C460.183 169.596 460.552 169.353 461.456 171.334C462.376 173.36 462.518 174.748 462.547 175.147C462.596 175.736 462.579 176.225 462.555 176.552C462.347 176.232 461.496 175.017 460.058 174.832C459.757 174.796 459.477 174.804 459.231 174.847C457.312 174.417 456.089 173.666 455.313 173.034C454.609 172.459 454.031 171.786 452.958 171.536C452.144 171.35 451.408 171.487 450.907 171.644L450.921 171.641Z" fill="#FF6726" stroke="#FFF6F2" stroke-width="2" stroke-linejoin="round"/>
<path d="M458.266 165.174C458.28 164.712 458.369 163.969 458.835 163.27C459.776 161.842 461.558 161.651 462.581 161.539C463.139 161.482 465.688 161.204 467.487 162.814C467.975 163.249 468.28 163.737 468.89 164.707C469.346 165.429 469.966 166.417 470.311 167.557C470.83 169.256 470.567 170.681 470.221 172.491C469.838 174.513 469.196 175.964 468.703 177.059C467.946 178.75 467.124 180.075 466.473 181.012C466.063 180.124 465.588 179.529 465.242 179.158C464.034 177.869 462.917 177.716 462.557 176.565C462.413 176.097 462.589 176.086 462.549 175.161C462.5 173.832 462.099 172.88 461.459 171.347C461.33 171.047 460.864 169.956 460.069 168.636C460.038 168.579 460.01 168.536 459.991 168.505C460.014 168.44 460.494 166.928 459.529 165.884C459.08 165.401 458.531 165.237 458.26 165.182L458.266 165.174Z" fill="#FF6726" stroke="#FFF6F2" stroke-width="2" stroke-linejoin="round"/>
<path d="M468.882 164.701C469.444 164.465 470.379 164.17 471.528 164.235C472.829 164.307 473.727 164.814 474.756 165.401C475.938 166.077 477.478 166.958 478.563 168.797C479.383 170.182 479.558 171.448 479.676 172.387C479.98 174.776 479.437 176.634 479.081 177.801C478.414 180.004 477.422 181.489 476.855 182.316C476.316 183.111 474.926 185.023 472.527 186.811C470.746 188.14 469.01 188.947 467.646 189.448L464.643 187.344C464.95 184.422 465.772 182.357 466.479 181.004C467.257 179.509 467.794 179.057 468.709 177.051C469.153 176.074 469.834 174.569 470.227 172.483C470.531 170.865 470.815 169.368 470.316 167.549C469.966 166.259 469.352 165.304 468.895 164.699L468.882 164.701Z" fill="#FF6726" stroke="#FFF6F2" stroke-width="2" stroke-linejoin="round"/>
<path d="M479.738 174.49C480.286 174.798 481.149 175.38 481.888 176.381C482.728 177.53 482.963 178.633 483.134 179.481C483.302 180.323 483.7 182.42 482.846 184.732C482.215 186.441 481.215 187.413 479.575 188.958C477.883 190.559 476.461 191.434 473.743 193.086C471.038 194.729 469.643 195.565 467.619 196.176C465.855 196.707 464.329 196.879 463.284 196.94C464.051 196.469 465.764 195.261 466.81 192.992C467.465 191.573 467.613 190.271 467.639 189.45C469.004 188.949 470.74 188.142 472.52 186.813C474.914 185.033 476.304 183.121 476.848 182.318C478.318 180.159 478.929 178.261 479.075 177.803C479.482 176.497 479.656 175.348 479.731 174.491L479.738 174.49Z" fill="#FF6726" stroke="#FFF6F2" stroke-width="2" stroke-linejoin="round"/>
<path d="M476.202 191.561C476.06 192.114 475.802 192.908 475.297 193.772C474.448 195.218 473.384 196.023 472.329 196.806C471.462 197.446 470.317 198.299 468.566 198.868C466.616 199.507 464.865 199.487 463.705 199.362L463.278 196.941C465.174 196.846 466.645 196.484 467.612 196.176C469.566 195.557 471.03 194.689 473.736 193.087C474.791 192.462 475.642 191.921 476.202 191.561Z" fill="#FF6726" stroke="#FFF6F2" stroke-width="2" stroke-linejoin="round"/>
</g>
<defs>
<filter id="filter0_d_316_4828" x="280.327" y="91.9219" width="411.377" height="527.246" filterUnits="userSpaceOnUse" color-interpolation-filters="sRGB">
<feFlood flood-opacity="0" result="BackgroundImageFix"/>
<feColorMatrix in="SourceAlpha" type="matrix" values="0 0 0 0 0 0 0 0 0 0 0 0 0 0 0 0 0 0 127 0" result="hardAlpha"/>
<feOffset dy="4"/>
<feGaussianBlur stdDeviation="2"/>
<feComposite in2="hardAlpha" operator="out"/>
<feColorMatrix type="matrix" values="0 0 0 0 0 0 0 0 0 0 0 0 0 0 0 0 0 0 0.25 0"/>
<feBlend mode="normal" in2="BackgroundImageFix" result="effect1_dropShadow_316_4828"/>
<feBlend mode="normal" in="SourceGraphic" in2="effect1_dropShadow_316_4828" result="shape"/>
</filter>
</defs>
</svg>
