<svg width="1440" height="1024" viewBox="0 0 1440 1024" fill="none" xmlns="http://www.w3.org/2000/svg">
<path d="M1642.29 999.407L1604.45 1009.26L1596.02 1079.38L1608.64 1149.49L1531.84 1195L1467.69 1123.66L1386.68 1074.45L1178.38 1035.09L1167.86 939.151L1242.53 910.838L1301.45 816.156L1341.42 780.468L1444.52 821.046L1642.29 771.871V999.407Z" fill="#244523" stroke="#FFF6F2" stroke-width="12" stroke-linejoin="round"/>
<path d="M1642.57 772.117L1651 637.706L1414.24 572.358L1172.21 672.219L1301.63 816.512L1341.6 780.736L1444.74 821.415L1642.57 772.117Z" fill="#244523" stroke="#FFF6F2" stroke-width="12" stroke-linejoin="round"/>
<path d="M1172.49 672.12L1145.8 646.004L1115.24 649.828L1030.03 771.844L1057.98 812.567L1040.44 920.321L1119.79 915.732L1168.29 939.248L1242.66 910.914L1301.34 816.161L1172.49 672.12Z" fill="#244523" stroke="#FFF6F2" stroke-width="12" stroke-linejoin="round"/>
<path d="M1040.18 921.059L1067.09 990.595L1133.52 1004.36L1179.47 1035.66L1168.91 939.93L1120.08 916.484L1040.18 921.059Z" fill="#244523" stroke="#FFF6F2" stroke-width="12" stroke-linejoin="round"/>
<path d="M1040.4 478.221L1074.53 457.26L1138.86 363.472L1210.03 408.594V504.174L1241.85 547.543L1145.93 646.21L1115.32 650.021L1040.4 620.752L1023.83 587.902L940.073 576.164L947.311 542.246L1040.4 478.221Z" fill="#244523" stroke="#FFF6F2" stroke-width="12" stroke-linejoin="round"/>
<path d="M1242.16 547.855L1292.18 491.118L1312.65 423.728L1436.27 463.932L1395.33 543.426L1414.62 573.246L1172.87 672.784L1146.1 646.706L1242.16 547.855Z" fill="#244523" stroke="#FFF6F2" stroke-width="12" stroke-linejoin="round"/>
<path d="M707.934 148.119L791.949 82.2783L859.645 125.228L939.245 98.1261L1043.63 216.104L1141.74 234.057L1138.47 363.366L1073.95 457.573L1039.71 478.627L1023.06 422.011V384.956L888.62 312.684L859.645 350.007L780.797 358.007L745.444 291.439L707.934 148.119Z" fill="#244523" stroke="#FFF6F2" stroke-width="12" stroke-linejoin="round"/>
<path d="M1312.59 423.968L1334.71 376.103L1323.67 267.375L1213.69 166.637L1142.11 234.458L1138.84 363.602L1210.16 408.867V504.75L1242.05 548.256L1292.11 491.445L1312.59 423.968Z" fill="#244523" stroke="#FFF6F2" stroke-width="12" stroke-linejoin="round"/>
<path d="M1651 637.97V524.382L1647.12 423.39L1577.3 312.589L1494.72 356.978L1405.86 320.68L1335.03 375.604L1312.95 423.39L1436.41 463.581L1395.52 543.046L1414.79 572.855L1651 637.97Z" fill="#244523" stroke="#FFF6F2" stroke-width="12" stroke-linejoin="round"/>
<path d="M-180 233.332L-175.029 -128.024L-53.7827 -101.32L25.2054 -154.728L155.151 -46.4275L67.2669 87.1286L115.216 166.249L19.1873 187.658L-27.5514 145.831L-55.1236 187.658L-122.729 236.265L-180 233.332Z" fill="#244523" stroke="#FFF6F2" stroke-width="12" stroke-linejoin="round"/>
<path d="M154.638 -46.2627L219.705 -87.7764L298.788 -22.5351H417.396L370.274 76.7169L422.112 187.776L340.475 230.051L246.721 240.448L184.863 285.809L143.897 258.73L114.655 166.371L66.6483 87.2667L154.638 -46.2627Z" fill="#244523" stroke="#FFF6F2" stroke-width="12" stroke-linejoin="round"/>
<path d="M416.987 -22.7297L409.327 -155.053L522.823 -219L632.488 -186.282L575.102 -7.84047L527.897 132.691L522.954 217.788L480.986 255.011L421.701 188.086L369.88 76.7608L416.987 -22.7297Z" fill="#244523" stroke="#FFF6F2" stroke-width="12" stroke-linejoin="round"/>
<path d="M632.472 -187.021L734.729 -202.932L850.913 -131.907L965.069 -116.684L1048.89 -47.3424L1044.67 216.18L940.191 98.8763L860.785 125.382L793.115 82.4682L709.132 148.253L644.045 164.011L528.025 132.534L632.472 -187.021Z" fill="#244523" stroke="#FFF6F2" stroke-width="12" stroke-linejoin="round"/>
<path d="M1048.71 -46.6146L1146.21 -174.812L1285.23 -95.5282L1448.16 -127.578L1573.61 18.2093L1502.96 166.476L1577.01 312.53L1494.41 356.904L1405.53 320.619L1334.68 375.523L1323.66 267.012L1213.86 166.476L1142.39 234.162L1044.54 216.267L1048.71 -46.6146Z" fill="#244523" stroke="#FFF6F2" stroke-width="12" stroke-linejoin="round"/>
</svg>
