<svg width="450" height="576" viewBox="0 0 450 576" fill="none" xmlns="http://www.w3.org/2000/svg">
<g filter="url(#filter0_d_376_5997)">
<path d="M212.423 566.153C211.673 564.877 210.857 563.177 210.354 561.108C209.976 559.569 209.582 557.047 210.107 553.994C210.456 551.972 210.704 550.499 211.862 548.901C213.239 546.999 214.251 547.195 217.82 544.387C218.446 543.898 220.638 542.144 222.962 539.556C224.309 538.054 225.322 536.7 226.159 535.573C227.164 534.219 227.965 533.05 228.541 532.174C228.839 533.528 229.08 535.173 229.102 537.058C229.123 539.175 228.861 540.749 228.541 542.681C228.155 544.971 227.965 546.116 227.412 547.565C227.04 548.543 226.385 549.962 224.28 552.765C222.11 555.645 220.602 557.071 217.572 560.356C216.349 561.686 214.557 563.666 212.43 566.141L212.423 566.153Z" fill="#244523" stroke="#FFF6F2" stroke-width="2" stroke-linejoin="round"/>
<path d="M211.863 548.901C211.236 548.364 210.275 547.392 209.794 545.979C209.248 544.363 209.619 543.021 210.107 541.363C210.974 538.429 212.489 536.384 212.991 535.74C214.368 533.963 215.14 533.617 218.192 530.856C218.876 530.242 221.608 527.773 223.523 525.656C225.147 523.861 227.296 521.082 229.102 517.11C229.794 519.448 230.034 521.475 230.107 523.002C230.231 525.656 229.889 527.6 229.794 528.095C229.546 529.407 229.306 530.665 228.541 532.18C228.272 532.716 227.937 533.283 226.16 535.579C224.565 537.636 223.771 538.662 222.962 539.562C221.105 541.632 219.488 542.991 217.82 544.393C216.305 545.669 214.324 547.231 211.863 548.907V548.901Z" fill="#244523" stroke="#FFF6F2" stroke-width="2" stroke-linejoin="round"/>
<path d="M212.991 535.74C211.818 533.134 211.469 530.874 211.367 529.353C211.25 527.624 211.097 525.399 212.182 522.865C212.787 521.464 213.872 520.229 216.013 517.82C219.422 513.997 220.085 513.89 222.204 511.266C223.238 509.984 224.797 507.903 226.232 505.172C227.761 502.256 228.613 499.65 229.101 497.7C229.815 498.904 230.711 500.711 231.206 503.007C231.847 505.983 231.505 508.32 231.206 510.217C231.097 510.938 230.631 513.687 229.101 517.116C228.592 518.261 226.938 521.78 223.522 525.662C222.758 526.532 221.228 527.987 218.191 530.862C216.021 532.925 214.214 534.607 212.991 535.746V535.74Z" fill="#244523" stroke="#FFF6F2" stroke-width="2" stroke-linejoin="round"/>
<path d="M213.873 520.271C213.013 518.846 211.95 516.717 211.367 514.009C211.054 512.542 210.464 509.668 211.367 506.078C211.556 505.339 212.278 502.667 214.492 499.656C216.567 496.823 217.529 497.002 220.427 493.692C222.671 491.128 223.945 488.91 225.147 486.811C226.291 484.813 227.536 482.332 228.628 479.404C229.233 480.317 230.02 481.7 230.566 483.471C231.454 486.34 231.236 488.671 231.061 490.353C230.85 492.351 230.267 494.158 229.102 497.694C227.937 501.242 227.354 503.019 226.232 505.166C225.373 506.806 224.288 508.887 222.205 511.26C220.326 513.395 219.277 514.176 216.014 517.814C215.089 518.846 214.353 519.704 213.873 520.271Z" fill="#244523" stroke="#FFF6F2" stroke-width="2" stroke-linejoin="round"/>
<path d="M212.86 502.262C210.981 499.179 210.173 496.424 209.794 494.546C209.35 492.321 208.796 489.614 209.794 486.286C210.748 483.096 212.62 480.937 213.69 479.733C215.642 477.526 216.392 477.586 219.422 474.688C220.1 474.044 222.146 472.04 224.222 469.315C225.759 467.299 227.652 464.437 229.255 460.728C229.939 461.831 230.835 463.584 231.214 465.838C231.644 468.414 231.185 470.418 230.5 473.441C229.903 476.077 229.167 478.021 228.643 479.405C227.201 483.197 225.657 485.946 225.161 486.811C223.166 490.288 222.168 492.023 220.442 493.693C218.272 495.786 216.604 496.758 214.506 499.656C213.734 500.718 213.21 501.642 212.882 502.262H212.86Z" fill="#244523" stroke="#FFF6F2" stroke-width="2" stroke-linejoin="round"/>
<path d="M211.535 482.512C210.952 481.188 210.231 479.25 209.787 476.847C209.357 474.539 208.818 471.712 209.787 468.587C210.253 467.102 211.578 465.302 214.222 461.771C215.744 459.738 217.594 457.275 220.493 453.906C223.647 450.238 224.164 450.012 225.453 448.139C227.441 445.247 228.425 442.587 228.934 440.798C229.816 442.069 231.003 444.126 231.564 446.827C232.117 449.475 231.826 451.538 231.564 453.315C231.105 456.386 230.165 458.587 229.24 460.722C227.492 464.753 225.424 467.711 224.208 469.309C222.401 471.682 221.353 473.066 219.408 474.682C217.325 476.411 215.774 477.383 213.676 479.727C212.671 480.848 211.964 481.844 211.527 482.506L211.535 482.512Z" fill="#244523" stroke="#FFF6F2" stroke-width="2" stroke-linejoin="round"/>
<path d="M214.229 461.771C213.297 460.626 212.023 458.771 211.367 456.279C210.355 452.45 211.374 449.32 212.052 447.25C212.991 444.364 214.346 442.354 215.708 440.327C217.507 437.655 219.284 435.711 220.682 434.197C223.37 431.281 224.688 430.374 226.764 427.607C227.805 426.218 228.548 425.007 229.022 424.178C229.801 426.492 230.202 428.484 230.42 429.981C230.791 432.533 231.076 434.596 230.42 437.166C230.26 437.786 229.816 438.8 228.942 440.798C227.194 444.77 226.32 446.761 225.46 448.139C224.105 450.315 223.341 450.727 220.5 453.905C218.912 455.688 216.684 458.33 214.229 461.771Z" fill="#244523" stroke="#FFF6F2" stroke-width="2" stroke-linejoin="round"/>
<path d="M213.56 443.756C212.672 442.432 211.499 440.369 210.807 437.691C210.363 435.974 209.715 433.38 210.494 430.177C211.208 427.243 212.737 425.252 213.983 423.654C215.199 422.103 215.636 421.924 219.831 418.048C225.017 413.259 226.036 411.959 226.684 411.059C228.229 408.894 229.088 406.938 229.569 405.656C230.268 406.855 231.12 408.626 231.579 410.862C232.176 413.79 231.797 416.074 231.579 417.32C231.018 420.529 229.765 422.837 229.03 424.178C228.185 425.711 227.384 426.79 226.772 427.607C224.878 430.136 224.033 430.589 220.69 434.197C217.646 437.476 216.116 439.743 215.716 440.327C214.762 441.71 214.048 442.903 213.567 443.756H213.56Z" fill="#244523" stroke="#FFF6F2" stroke-width="2" stroke-linejoin="round"/>
<path d="M211.848 426.736C211.352 425.609 210.777 423.987 210.493 422.001C210.07 419.038 210.5 416.76 210.879 415.012C211.44 412.436 211.986 409.914 213.916 407.171C214.229 406.723 214.557 406.306 218.825 402.162C223.297 397.814 223.384 397.838 224.12 397.021C225.744 395.214 227.791 392.352 229.102 387.993C229.794 388.935 230.689 390.39 231.206 392.274C231.833 394.558 231.592 396.329 231.206 399.132C231.01 400.581 230.682 402.829 229.568 405.656C228.424 408.536 227.048 410.552 226.684 411.059C224.637 413.975 222.335 415.931 219.83 418.048C217.092 420.362 215.81 421.363 213.982 423.653C212.976 424.912 212.277 426.015 211.848 426.742V426.736Z" fill="#244523" stroke="#FFF6F2" stroke-width="2" stroke-linejoin="round"/>
<path d="M213.916 407.171C213.311 406.229 212.583 404.893 212.044 403.217C211.17 400.486 211.279 398.285 211.359 396.956C211.483 394.868 211.643 392.203 213.362 389.376C214.105 388.154 215.467 386.848 218.191 384.236C221.119 381.427 221.447 381.469 223.1 379.62C225.46 376.978 226.538 374.933 226.836 374.349C227.616 372.816 228.074 371.456 228.344 370.455C228.992 371.349 229.815 372.661 230.42 374.349C231.592 377.617 231.25 380.342 231.053 381.797C230.762 383.944 230.179 385.351 229.094 387.993C227.725 391.32 226.596 394.063 224.112 397.021C222.823 398.56 222.612 398.434 218.817 402.162C216.669 404.273 214.986 406.032 213.909 407.171H213.916Z" fill="#244523" stroke="#FFF6F2" stroke-width="2" stroke-linejoin="round"/>
<path d="M213.369 389.37C212.707 388.237 211.898 386.579 211.366 384.492C210.944 382.834 210.165 379.59 211.366 375.792C212.044 373.645 213.078 372.202 214.615 370.055C215.532 368.779 215.867 368.493 219.444 364.45C222.015 361.539 223.326 360.061 224.352 358.778C225.612 357.198 227.106 355.194 228.635 352.779C229.305 353.829 230.135 355.427 230.427 357.461C230.551 358.331 230.543 359.035 229.8 363.394C228.948 368.433 228.599 369.65 228.351 370.443C227.95 371.725 227.594 372.864 226.843 374.337C226.559 374.897 225.481 376.949 223.107 379.608C221.33 381.594 220.638 381.898 218.198 384.224C216.989 385.381 215.278 387.104 213.369 389.364V389.37Z" fill="#244523" stroke="#FFF6F2" stroke-width="2" stroke-linejoin="round"/>
<path d="M213.166 372.13C212.605 370.854 211.914 369.071 211.36 366.895C210.704 364.307 210.224 362.482 210.486 360.037C210.603 358.934 210.938 356.119 212.977 353.179C213.829 351.951 214.091 351.986 218.192 348.104C220.712 345.719 222.001 344.496 223.406 342.898C225.919 340.042 226.873 338.324 227.303 337.496C228.024 336.094 228.446 334.866 228.701 334.001C229.452 334.806 230.544 336.178 231.2 338.086C231.345 338.503 231.957 340.376 231.658 342.898C231.476 344.479 231.105 344.807 230.02 348.104C228.883 351.569 229.233 351.36 228.621 352.785C228.272 353.596 227.696 354.729 224.339 358.785C221.986 361.629 220.814 363.048 219.43 364.456C217.58 366.34 216.32 367.735 214.601 370.061C213.96 370.926 213.472 371.647 213.152 372.136L213.166 372.13Z" fill="#244523" stroke="#FFF6F2" stroke-width="2" stroke-linejoin="round"/>
<path d="M212.977 353.185C212.598 351.914 212.19 350.239 211.964 348.241C211.811 346.875 211.564 344.627 211.964 341.848C212.459 338.372 213.705 335.879 214.768 333.738C216.152 330.965 217.674 328.795 218.738 327.411C220.959 324.525 222.095 323.863 224.419 320.822C225.933 318.842 226.975 317.124 227.609 316.009C228.097 317.172 228.701 318.812 229.167 320.822C229.539 322.426 230.099 324.93 229.866 328.204C229.677 330.912 229.036 332.963 228.701 334.007C228.424 334.877 228.038 336.058 227.303 337.501C226.902 338.282 225.955 340.012 223.406 342.904C222.015 344.49 221.207 345.206 218.191 348.11C216.96 349.297 215.162 351.038 212.977 353.185Z" fill="#244523" stroke="#FFF6F2" stroke-width="2" stroke-linejoin="round"/>
<path d="M213.275 336.976C212.649 335.432 211.942 333.297 211.571 330.703C210.893 325.884 211.767 322.229 211.957 321.472C212.838 318.019 214.317 315.645 215.853 313.165C218.33 309.175 219.677 308.43 221.847 304.595C223.246 302.133 224.083 299.98 224.571 298.531C225.627 299.688 226.938 301.423 227.842 303.737C228.963 306.611 228.898 308.978 228.854 310.195C228.81 311.31 228.716 313.451 227.608 315.997C227.419 316.439 226.836 317.715 224.418 320.81C221.68 324.31 221.221 324.209 218.737 327.399C217.609 328.854 216.159 331.013 214.768 333.726C214.105 335.014 213.617 336.129 213.275 336.964V336.976Z" fill="#244523" stroke="#FFF6F2" stroke-width="2" stroke-linejoin="round"/>
<path d="M212.467 319.808C211.833 318.752 211.032 317.196 210.486 315.216C209.648 312.163 209.859 309.718 210.1 307.506C210.384 304.834 210.566 303.146 211.578 301.047C212.256 299.646 212.583 299.556 215.781 295.311C217.689 292.776 218.65 291.512 219.437 290.236C220.435 288.632 221.724 286.222 222.707 282.984C223.319 283.706 224.12 284.767 224.812 286.151C226.385 289.311 226.312 292.019 226.29 292.609C226.225 294.255 225.671 295.686 224.579 298.543C223.858 300.427 223.129 302.311 221.855 304.607C219.633 308.597 218.337 309.247 215.861 313.177C214.928 314.656 213.647 316.892 212.467 319.814V319.808Z" fill="#244523" stroke="#FFF6F2" stroke-width="2" stroke-linejoin="round"/>
<path d="M210.617 303.803C209.983 302.646 209.226 301.054 208.628 299.086C207.703 296.009 207.638 293.576 207.631 291.989C207.609 288.298 207.594 286.211 208.759 283.712C209.473 282.186 210.828 280.683 213.552 277.689C215.824 275.185 216.691 274.553 219.007 272C220.821 269.997 222.19 268.291 223.064 267.158C223.821 268.357 224.608 269.991 224.928 272C225.292 274.308 224.892 276.133 224.462 277.97C224.193 279.138 223.836 280.266 222.707 282.979C221.061 286.944 220.245 288.924 219.437 290.23C216.392 295.162 213.734 295.991 211.571 301.042C211.076 302.205 210.777 303.189 210.609 303.803H210.617Z" fill="#244523" stroke="#FFF6F2" stroke-width="2" stroke-linejoin="round"/>
<path d="M208.766 283.718C208.045 282.841 207.084 281.458 206.501 279.609C205.642 276.854 206.115 274.582 206.501 272.74C207.077 269.991 208.133 268.029 208.766 266.884C209.604 265.351 211.017 262.835 213.821 260.408C215.802 258.69 216.516 258.72 219.407 256.519C221.585 254.868 223.158 253.353 224.127 252.351C224.345 254.474 224.491 256.293 224.593 257.7C224.841 261.183 224.797 262.077 224.593 263.109C224.491 263.61 224.141 265.238 223.063 267.164C222.16 268.78 221.279 269.669 219.007 272.006C215.999 275.107 214.491 276.658 213.552 277.695C212.313 279.061 210.595 281.082 208.759 283.718H208.766Z" fill="#244523" stroke="#FFF6F2" stroke-width="2" stroke-linejoin="round"/>
<path d="M207.522 269.43C207.129 268.226 206.699 266.592 206.502 264.624C206.4 263.61 206.16 260.545 207.172 256.681C208.33 252.286 210.413 249.268 210.96 248.517C212.161 246.835 212.904 246.239 216.284 242.828C217.988 241.11 220.297 238.743 222.999 235.845C223.509 236.996 224.113 238.564 224.594 240.46C224.965 241.945 225.424 243.8 225.395 246.203C225.366 248.559 225.337 250.401 224.128 252.339C223.385 253.532 222.045 254.54 219.408 256.508C215.679 259.281 215.679 258.774 213.822 260.396C210.981 262.876 209.474 265.602 208.767 266.872C208.192 267.903 207.791 268.792 207.522 269.424V269.43Z" fill="#244523" stroke="#FFF6F2" stroke-width="2" stroke-linejoin="round"/>
<path d="M208.279 253.418C207.9 252.345 207.47 250.866 207.237 249.077C206.735 245.201 207.441 242.058 207.987 240.293C208.541 238.51 209.422 235.755 211.899 232.917C213.202 231.414 214.091 230.883 216.953 228.635C218.832 227.156 221.491 224.997 224.601 222.212C224.972 223.107 225.409 224.377 225.664 225.928C225.861 227.132 226.174 228.981 225.664 231.05C225.467 231.843 225.038 233.173 223.005 235.839C221.6 237.681 220.558 238.677 216.29 242.822C212.459 246.537 211.746 247.413 210.966 248.511C209.575 250.473 208.752 252.238 208.286 253.412L208.279 253.418Z" fill="#244523" stroke="#FFF6F2" stroke-width="2" stroke-linejoin="round"/>
<path d="M209.175 237.097C208.788 236.108 208.33 234.724 208.031 233.031C207.74 231.349 207.281 228.91 208.031 226.161C208.585 224.127 209.575 222.756 211.556 220.025C212.598 218.587 214.229 216.357 217.011 213.829C219.291 211.759 221.643 210.113 223.865 208.813C224.375 209.66 225.045 210.966 225.394 212.642C225.788 214.491 225.62 215.981 225.394 217.937C225.132 220.203 224.994 221.342 224.593 222.219C223.828 223.883 222.823 224.36 216.946 228.641C213.603 231.075 212.736 231.945 211.891 232.923C210.493 234.539 209.662 236.06 209.175 237.103V237.097Z" fill="#244523" stroke="#FFF6F2" stroke-width="2" stroke-linejoin="round"/>
<path d="M209.379 223.16C209.022 222.116 208.585 220.614 208.301 218.783C207.973 216.672 207.587 214.293 208.301 211.293C208.963 208.514 210.231 206.499 210.893 205.55C211.716 204.376 213.312 202.396 215.948 200.595C218.475 198.871 219.444 199.032 221.403 197.5C223.392 195.943 224.462 194.166 225.059 192.884C225.693 193.779 226.531 195.204 226.858 197.053C227.208 199.015 226.822 200.523 226.196 202.855C225.394 205.837 224.994 207.327 223.865 208.824C222.022 211.269 220.879 210.518 217.011 213.839C214.601 215.909 212.962 218.163 211.556 220.035C210.624 221.282 209.896 222.367 209.379 223.178V223.16Z" fill="#244523" stroke="#FFF6F2" stroke-width="2" stroke-linejoin="round"/>
<path d="M209.094 208.843C208.636 208.049 208.068 206.869 207.703 205.378C206.931 202.199 207.609 199.635 208.038 198.168C208.963 194.96 210.609 192.765 211.432 191.692C213.035 189.599 214.681 188.192 216.72 186.456C218.985 184.524 219.604 184.315 221.345 182.741C223.413 180.863 224.804 179.104 225.671 177.899C226.094 178.781 226.582 180.028 226.866 181.56C227.288 183.821 227.055 185.568 226.866 186.91C226.647 188.442 226.363 190.47 225.067 192.879C224.462 194 223.472 195.807 221.41 197.494C219.357 199.17 218.788 198.657 215.955 200.589C213.129 202.521 211.563 204.591 210.901 205.545C210.005 206.827 209.444 207.99 209.102 208.843H209.094Z" fill="#244523" stroke="#FFF6F2" stroke-width="2" stroke-linejoin="round"/>
<path d="M209.263 195.073C208.745 193.94 208.104 192.306 207.704 190.285C207.332 188.4 206.779 185.711 207.704 182.628C208.403 180.284 209.576 178.829 211.826 176.038C212.7 174.953 214.557 172.675 217.58 170.182C220.093 168.113 221.112 167.785 223.072 165.847C224.783 164.154 225.876 162.549 226.531 161.452C227.172 162.412 228.01 163.933 228.33 165.901C228.621 167.737 228.308 169.157 227.667 171.924C227.004 174.78 226.669 176.205 225.672 177.893C224.521 179.837 223.159 181.077 221.345 182.735C219.612 184.321 219.546 184.089 216.721 186.45C214.659 188.174 213.043 189.587 211.433 191.686C210.391 193.046 209.692 194.25 209.263 195.067V195.073Z" fill="#244523" stroke="#FFF6F2" stroke-width="2" stroke-linejoin="round"/>
<path d="M209.525 178.996C209.073 177.571 208.571 175.573 208.367 173.164C208.199 171.148 208.017 169.115 208.702 166.575C208.862 165.984 209.619 163.307 211.965 160.325C213.822 157.958 215.81 156.508 219.146 154.075C221.258 152.537 222.147 152.084 224.404 150.301C226.123 148.947 227.449 147.748 228.33 146.919C228.876 147.802 229.583 149.209 229.859 151.028C230.18 153.157 229.743 154.791 229.459 155.817C228.869 157.94 227.922 159.359 226.531 161.446C225.686 162.716 224.71 164.177 223.071 165.841C221.12 167.815 220.69 167.582 217.58 170.176C214.659 172.615 212.773 174.905 211.826 176.032C210.843 177.207 210.078 178.227 209.525 178.996Z" fill="#244523" stroke="#FFF6F2" stroke-width="2" stroke-linejoin="round"/>
<path d="M211.957 160.325C211.411 159.699 210.653 158.673 210.231 157.284C209.466 154.809 210.216 152.746 210.697 151.428C211.083 150.354 211.862 148.685 213.494 146.92C214.484 145.942 215.897 144.451 217.42 142.525C219.371 140.062 219.524 139.37 221.28 137.402C222.831 135.655 223.45 135.375 225.737 133.121C227.623 131.26 229.014 129.674 229.859 128.672C230.216 131.141 230.413 133.282 230.522 134.981C230.711 137.837 230.806 139.299 230.522 141.01C230.129 143.401 229.233 145.387 228.33 146.926C227.449 147.754 226.123 148.947 224.404 150.307C222.132 152.102 220.602 153.05 219.146 154.082C217.259 155.411 214.71 157.421 211.964 160.331L211.957 160.325Z" fill="#244523" stroke="#FFF6F2" stroke-width="2" stroke-linejoin="round"/>
<path d="M211.768 149.293C211.273 148.441 210.647 147.194 210.232 145.626C209.438 142.65 209.816 140.241 210.232 138.023C210.763 135.166 211.025 133.741 212.147 132.167C213.159 130.753 213.655 130.837 216.947 127.831C219.161 125.804 220.275 124.79 221.004 123.609C221.761 122.387 222.147 120.973 222.934 118.147C223.8 115.01 223.633 114.724 224.201 113.639C224.834 112.434 226.095 110.788 228.92 109.244C229.401 110.037 230.049 111.271 230.515 112.845C231.054 114.664 230.85 115.261 231.2 119.208C231.513 122.715 231.746 123.013 231.513 124.39C231.433 124.879 231.098 126.645 229.853 128.672C229.321 129.531 228.797 130.163 225.73 133.121C222.147 136.579 222.234 136.323 221.273 137.402C218.993 139.961 219.693 140.044 217.413 142.525C215.913 144.153 215.097 144.868 213.487 146.92C212.73 147.892 212.147 148.721 211.768 149.287V149.293Z" fill="#244523" stroke="#FFF6F2" stroke-width="2" stroke-linejoin="round"/>
<path d="M212.146 132.167C211.498 130.497 210.733 128.487 209.896 126.197C208.294 121.832 207.995 120.729 207.769 119.441C207.42 117.437 207.106 115.511 207.769 113.132C208.177 111.665 208.629 110.061 210.231 108.737C211.855 107.401 213.763 107.103 217.019 106.596C219.597 106.196 221.418 106.262 222.671 106.316C226.32 106.471 227.325 107.168 227.725 107.496C228.432 108.081 228.76 108.767 228.92 109.244C226.094 110.788 224.827 112.434 224.2 113.639C223.632 114.718 223.807 115.01 222.933 118.147C222.146 120.974 221.76 122.387 221.003 123.609C220.58 124.289 220.107 124.897 216.946 127.831C215.73 128.964 214.106 130.443 212.146 132.167Z" fill="#244523" stroke="#FFF6F2" stroke-width="2" stroke-linejoin="round"/>
<path d="M118.421 244.713C126.964 218.904 134.903 199.006 141.429 184.086C149.622 165.383 157.699 146.928 169.535 130.711C179.258 117.387 186.789 112.037 196.694 105.011C209.665 95.805 218.201 94.1432 224.013 93.9391C224.429 93.9245 225.412 93.8954 226.577 93.9391C229.789 94.0557 242.018 94.9522 258.179 108.961C264.552 114.486 277.217 126.979 291.937 153.109C304.581 175.543 313.408 198.59 318.157 211.098C323.539 225.274 327.909 238.365 331.172 248.656L328.528 257.884C325.265 248.212 320.808 235.559 315.323 221.644C309.176 206.039 301.128 185.616 290.051 166.294C286.292 159.734 274.122 139.246 257.043 125.441C241.078 112.533 228.522 111.694 224.793 111.6C221.756 111.519 210.729 111.585 196.505 120.827C190.78 124.544 181.523 130.725 170.103 146.527C157.809 163.532 149.331 182.912 143.133 197.264C136.804 211.914 129.149 231.732 121.065 257.891L118.421 244.713Z" fill="#FF6726" stroke="#FFF6F2" stroke-linejoin="round"/>
<path d="M256.198 27.9409C255.106 23.4292 253.023 17.9262 249.017 12.62C246.65 9.48589 243.861 5.79052 238.668 3.30507C232.921 0.557233 227.612 0.91438 224.793 1.14033C222.215 1.34441 217.131 1.81089 211.8 5.23658C205.427 9.32554 202.718 15.0472 201.851 17.1172C199.287 23.247 199.819 28.6041 200.088 31.0021C200.853 37.8316 203.788 42.5912 205.143 44.7267C207.94 49.151 208.799 48.3565 217.175 58.2108C220.037 61.5782 222.28 64.4354 223.111 68.7284C223.562 71.0535 223.446 73.0652 223.271 74.4282C223.242 80.9297 223.22 87.4312 223.191 93.9328H228.486C228.012 84.2607 227.998 78.3349 228.143 74.4282C228.187 73.211 228.304 70.9296 227.685 68.0068C227.029 64.9237 225.856 62.5185 224.961 60.7036C224.4 59.5738 223.351 57.5767 221.829 55.4047C217.168 48.721 213.81 48.5387 209.476 42.8827C207.845 40.7544 204.801 36.68 204.021 30.6814C203.293 25.0618 204.917 20.6303 205.624 18.9612C206.345 17.2556 208.406 12.5399 213.562 9.16519C218.085 6.20598 222.492 5.90714 224.553 5.79052C230.838 5.44795 235.441 7.67829 236.745 8.35614C240.955 10.5428 243.307 13.4437 245.325 15.9801C249.039 20.6522 251.042 25.5356 252.142 29.5444L256.191 27.9263L256.198 27.9409Z" fill="#FF6726" stroke="#FFF6F2" stroke-linejoin="round"/>
<path d="M5.2832 251.587C22.9159 224.597 39.2887 203.795 52.77 188.204C69.6744 168.649 86.3457 149.356 110.759 132.395C130.817 118.459 146.36 112.876 166.804 105.521C193.562 95.9003 211.181 94.1583 223.183 93.9469C224.043 93.9323 226.067 93.9032 228.478 93.9469C235.099 94.0635 260.35 95.0111 293.685 109.654C306.831 115.427 332.978 128.495 363.357 155.813C389.438 179.276 407.661 203.365 417.457 216.441C428.564 231.266 437.58 244.947 444.31 255.712L438.862 265.355C432.132 255.246 422.934 242.017 411.615 227.461C398.928 211.149 382.322 189.793 359.46 169.589C351.703 162.73 326.598 141.309 291.347 126.87C258.398 113.371 232.491 112.497 224.793 112.402C218.529 112.322 195.762 112.387 166.41 122.045C154.604 125.93 135.5 132.395 111.924 148.918C86.5569 166.695 69.0699 186.958 56.2659 201.965C43.1998 217.286 27.4097 238.008 10.7311 265.348L5.2832 251.565V251.587Z" fill="#FF6726" stroke="#FFF6F2" stroke-width="2" stroke-linejoin="round"/>
<path d="M196.705 115.509C196.785 116.464 197.04 118.009 197.958 119.634C199.189 121.821 200.915 122.921 202.226 123.76C203.529 124.59 205.052 125.56 207.302 125.822C209.837 126.114 211.789 125.341 212.604 125.013C214.658 124.175 215.896 122.965 216.727 122.141C217.928 120.946 219.32 119.561 219.742 117.353C219.953 116.267 219.859 115.327 219.742 114.7C217.156 116.289 214.84 117.229 213.194 117.79C210.805 118.599 209.065 119.197 206.647 119.117C204.192 119.036 202.291 118.308 200.98 117.79C199.123 117.061 197.688 116.187 196.712 115.509H196.705Z" fill="#244523" stroke="#FFF6F2" stroke-width="2" stroke-linejoin="round"/>
<path d="M196.705 115.508C195.714 113.934 196.231 112.141 196.26 112.046C196.646 110.778 197.586 110.012 198.394 109.466C201.22 107.571 203.733 107.636 208.219 106.594C211.978 105.719 213.74 104.859 218.19 104.24C219.239 104.094 221.067 103.875 222.975 104.757C223.623 105.056 225.466 105.909 225.772 107.556C226.027 108.919 225.087 110.085 224.228 111.164C223.623 111.915 222.604 113.008 219.741 114.699C218.154 115.639 216.151 116.806 213.194 117.789C210.645 118.642 208.984 119.189 206.646 119.116C204.935 119.058 203.616 118.635 200.98 117.789C197.644 116.718 197.032 116.018 196.712 115.508H196.705Z" fill="#244523" stroke="#FFF6F2" stroke-width="2" stroke-linejoin="round"/>
<path d="M200.631 108.315C200.871 107.702 201.228 106.886 201.723 105.946C203.253 103.081 205.015 101.288 205.511 100.8C206.363 99.9544 207.87 98.4894 210.23 97.3232C212.277 96.3101 214.425 96.0623 218.708 95.5666C223.1 95.0637 224.338 95.3334 225.154 96.157C226.035 97.0535 226.115 98.2999 226.115 98.3582C226.159 99.2547 225.787 99.8305 224.702 101.704C224.331 102.345 223.726 103.402 222.976 104.758C221.949 104.517 220.266 104.204 218.191 104.24C214.637 104.313 212.503 105.37 208.22 106.594C206.516 107.083 203.923 107.753 200.631 108.315Z" fill="#244523" stroke="#FFF6F2" stroke-width="2" stroke-linejoin="round"/>
<path d="M210.23 97.3231L212.379 94.2472C214.775 92.9863 217.179 91.7326 219.575 90.4717C219.793 90.4717 220.107 90.5008 220.456 90.6102C221.57 90.9673 222.131 91.9148 222.787 92.9061C223.318 93.7079 224.09 94.823 225.154 96.1642C223.479 95.7924 221.279 95.479 218.708 95.5738C215.088 95.6977 212.175 96.5723 210.23 97.3303V97.3231Z" fill="#244523" stroke="#FFF6F2" stroke-width="2" stroke-linejoin="round"/>
<path d="M212.386 94.2472C210.623 93.8827 209.145 93.7442 208.059 93.6859C206.858 93.6203 206.29 93.6714 205.7 93.9702C204.432 94.6043 203.981 95.909 203.915 96.0985C203.406 97.651 204.046 99.5096 205.51 100.807C206.88 99.7428 208.016 98.9265 208.817 98.3726C209.523 97.8842 209.822 97.6947 210.23 97.3303C211.395 96.2953 212.029 95.1145 212.378 94.2544L212.386 94.2472Z" fill="#244523" stroke="#FFF6F2" stroke-width="2" stroke-linejoin="round"/>
<path d="M205.7 93.9631C205.43 93.2707 205.088 92.0972 205.226 90.654C205.299 89.9398 205.401 88.861 206.158 87.8698C206.887 86.9222 207.804 86.5797 208.868 86.1861C210.135 85.7123 211.905 85.0563 213.536 85.7633C214.461 86.1642 214.585 86.6671 215.758 87.7969C216.573 88.5841 217.797 89.5753 219.581 90.4573L212.386 94.2328C211.315 93.9194 209.829 93.6133 208.059 93.6716C207.171 93.7007 206.377 93.81 205.7 93.9558V93.9631Z" fill="#244523" stroke="#FFF6F2" stroke-width="2" stroke-linejoin="round"/>
<path d="M211.345 85.5008C211.374 85.1437 211.439 84.6262 211.578 84.0212C211.847 82.8405 212.189 81.3754 213.304 80.4425C214.018 79.8521 214.76 79.7136 215.591 79.5533C217.441 79.2034 219.123 79.5533 220.354 79.9979C220.747 80.1582 221.272 80.4425 221.57 80.9819C222.044 81.8346 221.57 82.5854 221.57 83.8536C221.57 85.0635 222.007 84.874 222.597 87.1481C223.194 89.4732 223.085 90.9747 223.042 91.4047C222.983 92.0388 222.874 92.5563 222.787 92.8989C222.626 92.5199 221.949 91.0694 220.456 90.6029C220.143 90.5082 219.844 90.4645 219.575 90.4645C217.616 89.6481 216.457 88.6204 215.751 87.8041C215.11 87.0606 214.622 86.237 213.53 85.7705C212.699 85.4207 211.891 85.428 211.33 85.5008H211.345Z" fill="#244523" stroke="#FFF6F2" stroke-width="2" stroke-linejoin="round"/>
<path d="M220.361 80.0049C220.463 79.5166 220.696 78.744 221.322 78.088C222.589 76.7469 224.52 76.8781 225.627 76.951C226.231 76.9947 228.991 77.1769 230.601 79.225C231.038 79.779 231.271 80.3548 231.737 81.4991C232.087 82.3519 232.56 83.5181 232.713 84.7936C232.946 86.6959 232.4 88.161 231.694 90.0196C230.907 92.0969 229.953 93.5182 229.225 94.5896C228.103 96.2441 226.981 97.4978 226.115 98.3724C225.845 97.352 225.452 96.6304 225.153 96.1713C224.112 94.575 222.954 94.2033 222.786 92.9132C222.721 92.3884 222.91 92.4103 223.041 91.419C223.238 89.9977 222.99 88.9117 222.597 87.1624C222.517 86.8198 222.225 85.5735 221.628 84.021C221.606 83.9554 221.584 83.9044 221.57 83.8679C221.606 83.8023 222.4 82.2863 221.57 80.9962C221.184 80.3985 220.63 80.1215 220.354 80.0122L220.361 80.0049Z" fill="#244523" stroke="#FFF6F2" stroke-width="2" stroke-linejoin="round"/>
<path d="M231.731 81.4924C232.371 81.3466 233.42 81.2081 234.629 81.4924C235.999 81.8131 236.858 82.5201 237.841 83.3364C238.97 84.2767 240.441 85.5012 241.25 87.6586C241.862 89.284 241.811 90.6616 241.76 91.682C241.636 94.2768 240.711 96.15 240.114 97.3235C238.992 99.5392 237.659 100.931 236.902 101.704C236.181 102.447 234.345 104.219 231.461 105.669C229.32 106.748 227.324 107.28 225.78 107.557L222.983 104.758C223.857 101.711 225.117 99.6704 226.122 98.3657C227.23 96.9226 227.885 96.5436 229.232 94.5829C229.888 93.6281 230.893 92.1558 231.701 90.0129C232.328 88.3511 232.91 86.8132 232.721 84.7869C232.59 83.351 232.117 82.2213 231.745 81.4924H231.731Z" fill="#244523" stroke="#FFF6F2" stroke-width="2" stroke-linejoin="round"/>
<path d="M241.432 93.9268C241.956 94.3568 242.765 95.1367 243.362 96.3393C244.039 97.7169 244.083 98.9341 244.105 99.867C244.127 100.793 244.156 103.096 242.816 105.392C241.825 107.09 240.58 107.936 238.548 109.269C236.45 110.654 234.775 111.318 231.577 112.564C228.395 113.803 226.756 114.43 224.491 114.7C222.517 114.933 220.864 114.831 219.742 114.7C220.645 114.342 222.692 113.38 224.229 111.165C225.19 109.78 225.591 108.424 225.773 107.557C227.317 107.28 229.312 106.748 231.454 105.669C234.331 104.226 236.166 102.455 236.894 101.704C238.861 99.6848 239.866 97.7825 240.106 97.3233C240.783 96.0113 241.184 94.8233 241.424 93.9268H241.432Z" fill="#244523" stroke="#FFF6F2" stroke-width="2" stroke-linejoin="round"/>
<path d="M234.476 111.405C234.221 111.966 233.798 112.76 233.099 113.584C231.927 114.962 230.645 115.618 229.377 116.252C228.336 116.769 226.959 117.462 224.993 117.739C222.801 118.052 220.943 117.702 219.734 117.352V114.699C221.766 114.954 223.398 114.845 224.483 114.699C226.675 114.408 228.394 113.759 231.57 112.564C232.808 112.097 233.813 111.682 234.476 111.405Z" fill="#244523" stroke="#FFF6F2" stroke-width="2" stroke-linejoin="round"/>
</g>
<defs>
<filter id="filter0_d_376_5997" x="0.283203" y="0.48877" width="449.026" height="574.664" filterUnits="userSpaceOnUse" color-interpolation-filters="sRGB">
<feFlood flood-opacity="0" result="BackgroundImageFix"/>
<feColorMatrix in="SourceAlpha" type="matrix" values="0 0 0 0 0 0 0 0 0 0 0 0 0 0 0 0 0 0 127 0" result="hardAlpha"/>
<feOffset dy="4"/>
<feGaussianBlur stdDeviation="2"/>
<feComposite in2="hardAlpha" operator="out"/>
<feColorMatrix type="matrix" values="0 0 0 0 0 0 0 0 0 0 0 0 0 0 0 0 0 0 0.25 0"/>
<feBlend mode="normal" in2="BackgroundImageFix" result="effect1_dropShadow_376_5997"/>
<feBlend mode="normal" in="SourceGraphic" in2="effect1_dropShadow_376_5997" result="shape"/>
</filter>
</defs>
</svg>
