<svg width="268" height="211" viewBox="0 0 268 211" fill="none" xmlns="http://www.w3.org/2000/svg">
<path d="M132.346 193.766C131.948 193.153 131.44 192.246 131.075 191.082C130.514 189.287 130.589 187.832 130.686 186.514C130.799 184.923 130.872 183.917 131.43 182.651C131.802 181.805 131.995 181.745 133.805 179.159C134.885 177.615 135.429 176.845 135.869 176.071C136.428 175.099 137.143 173.642 137.66 171.7C138.038 172.116 138.535 172.729 138.975 173.536C139.974 175.379 139.987 176.987 139.986 177.338C139.981 178.316 139.682 179.177 139.093 180.895C138.704 182.028 138.311 183.162 137.602 184.55C136.367 186.964 135.611 187.377 134.223 189.76C133.7 190.657 132.985 192.011 132.346 193.77L132.346 193.766Z" fill="#FF6726" stroke="#FFF6F2" stroke-width="2" stroke-linejoin="round"/>
<path d="M130.916 184.306C130.516 183.632 130.034 182.703 129.638 181.548C129.026 179.741 128.936 178.298 128.899 177.357C128.81 175.166 128.758 173.928 129.397 172.421C129.789 171.5 130.562 170.58 132.117 168.747C133.413 167.214 133.915 166.821 135.236 165.258C136.271 164.031 137.048 162.991 137.544 162.3C138.018 162.996 138.519 163.949 138.751 165.135C139.014 166.497 138.815 167.589 138.598 168.688C138.462 169.387 138.273 170.063 137.66 171.697C136.765 174.084 136.322 175.276 135.869 176.068C134.165 179.058 132.604 179.605 131.425 182.647C131.155 183.348 130.998 183.938 130.912 184.306L130.916 184.306Z" fill="#FF6726" stroke="#FFF6F2" stroke-width="2" stroke-linejoin="round"/>
<path d="M129.402 172.425C128.956 171.92 128.357 171.118 127.973 170.033C127.405 168.416 127.639 167.058 127.83 165.956C128.115 164.313 128.701 163.127 129.053 162.434C129.518 161.507 130.305 159.984 131.919 158.486C133.059 157.425 133.483 157.428 135.153 156.063C136.412 155.037 137.314 154.106 137.868 153.491C138.042 154.746 138.166 155.823 138.255 156.656C138.475 158.718 138.467 159.249 138.368 159.866C138.317 160.165 138.144 161.139 137.544 162.304C137.041 163.282 136.537 163.827 135.237 165.262C133.516 167.164 132.653 168.116 132.117 168.751C131.41 169.587 130.432 170.823 129.398 172.425L129.402 172.425Z" fill="#FF6726" stroke="#FFF6F2" stroke-width="2" stroke-linejoin="round"/>
<path d="M128.367 163.971C128.108 163.265 127.82 162.304 127.662 161.14C127.581 160.54 127.374 158.726 127.895 156.412C128.491 153.78 129.665 151.946 129.974 151.489C130.652 150.466 131.08 150.096 133.015 148.002C133.991 146.947 135.312 145.495 136.856 143.719C137.182 144.391 137.574 145.309 137.898 146.425C138.149 147.298 138.46 148.389 138.493 149.816C138.524 151.215 138.545 152.309 137.868 153.484C137.452 154.207 136.677 154.833 135.153 156.056C132.998 157.779 132.987 157.478 131.918 158.479C130.284 160.01 129.446 161.659 129.053 162.427C128.733 163.051 128.514 163.587 128.367 163.968L128.367 163.971Z" fill="#FF6726" stroke="#FFF6F2" stroke-width="2" stroke-linejoin="round"/>
<path d="M128.484 154.453C128.237 153.824 127.952 152.955 127.776 151.898C127.398 149.608 127.752 147.728 128.04 146.669C128.331 145.6 128.797 143.946 130.208 142.21C130.95 141.292 131.467 140.958 133.119 139.565C134.203 138.648 135.736 137.312 137.524 135.595C137.763 136.118 138.049 136.863 138.232 137.777C138.374 138.488 138.598 139.579 138.339 140.817C138.238 141.292 138.011 142.09 136.86 143.714C136.064 144.837 135.467 145.45 133.02 147.998C130.823 150.282 130.418 150.817 129.978 151.484C129.193 152.678 128.741 153.742 128.489 154.449L128.484 154.453Z" fill="#FF6726" stroke="#FFF6F2" stroke-width="2" stroke-linejoin="round"/>
<path d="M128.678 144.748C128.428 144.168 128.127 143.357 127.915 142.358C127.707 141.366 127.384 139.928 127.773 138.281C128.059 137.063 128.618 136.228 129.737 134.566C130.326 133.692 131.248 132.334 132.847 130.776C134.157 129.501 135.519 128.475 136.81 127.658C137.13 128.15 137.555 128.911 137.797 129.898C138.069 130.987 138 131.875 137.907 133.041C137.798 134.391 137.74 135.07 137.52 135.598C137.101 136.602 136.514 136.905 133.115 139.568C131.181 141.082 130.685 141.616 130.204 142.214C129.407 143.202 128.946 144.122 128.678 144.751L128.678 144.748Z" fill="#FF6726" stroke="#FFF6F2" stroke-width="2" stroke-linejoin="round"/>
<path d="M128.51 136.472C128.277 135.86 127.986 134.978 127.78 133.897C127.541 132.651 127.263 131.247 127.624 129.452C127.96 127.789 128.671 126.567 129.044 125.99C129.508 125.276 130.414 124.068 131.941 122.944C133.405 121.869 133.984 121.945 135.115 120.994C136.262 120.03 136.861 118.953 137.189 118.179C137.583 118.697 138.11 119.526 138.343 120.616C138.591 121.773 138.393 122.677 138.07 124.073C137.656 125.859 137.449 126.752 136.81 127.664C135.767 129.153 135.073 128.731 132.847 130.783C131.459 132.061 130.533 133.432 129.738 134.573C129.21 135.332 128.801 135.991 128.51 136.483L128.51 136.472Z" fill="#FF6726" stroke="#FFF6F2" stroke-width="2" stroke-linejoin="round"/>
<path d="M128.045 127.981C127.756 127.52 127.394 126.831 127.147 125.954C126.623 124.084 126.972 122.548 127.197 121.668C127.679 119.745 128.61 118.409 129.077 117.755C129.984 116.479 130.932 115.61 132.106 114.538C133.41 113.344 133.773 113.207 134.774 112.237C135.963 111.079 136.752 110.007 137.241 109.274C137.51 109.789 137.826 110.518 138.026 111.422C138.323 112.754 138.221 113.796 138.137 114.596C138.039 115.511 137.912 116.72 137.193 118.176C136.857 118.854 136.307 119.947 135.119 120.991C133.934 122.028 133.587 121.736 131.945 122.941C130.308 124.146 129.422 125.407 129.048 125.987C128.543 126.766 128.234 127.468 128.049 127.981L128.045 127.981Z" fill="#FF6726" stroke="#FFF6F2" stroke-width="2" stroke-linejoin="round"/>
<path d="M127.859 119.806C127.528 119.144 127.114 118.188 126.834 116.996C126.575 115.886 126.191 114.301 126.676 112.452C127.042 111.047 127.708 110.159 128.986 108.456C129.482 107.794 130.537 106.404 132.279 104.862C133.727 103.581 134.326 103.366 135.448 102.175C136.429 101.134 137.044 100.16 137.41 99.4948C137.811 100.051 138.339 100.936 138.57 102.098C138.781 103.182 138.625 104.03 138.302 105.686C137.968 107.395 137.798 108.248 137.241 109.27C136.598 110.447 135.816 111.212 134.774 112.233C133.778 113.211 133.734 113.074 132.106 114.534C130.919 115.599 129.988 116.472 129.077 117.751C128.487 118.579 128.097 119.309 127.859 119.802L127.859 119.806Z" fill="#FF6726" stroke="#FFF6F2" stroke-width="2" stroke-linejoin="round"/>
<path d="M127.681 110.259C127.384 109.423 127.044 108.248 126.873 106.822C126.732 105.63 126.582 104.426 126.935 102.905C127.018 102.551 127.412 100.946 128.742 99.1281C129.795 97.6846 130.945 96.7834 132.875 95.2703C134.096 94.3134 134.614 94.0261 135.917 92.9211C136.909 92.0821 137.671 91.3433 138.177 90.8331C138.519 91.3455 138.968 92.1661 139.17 93.2398C139.404 94.4966 139.179 95.4754 139.031 96.09C138.725 97.3621 138.193 98.224 137.41 99.4915C136.935 100.263 136.386 101.15 135.448 102.172C134.331 103.383 134.071 103.254 132.279 104.858C130.596 106.366 129.524 107.764 128.986 108.453C128.426 109.17 127.994 109.791 127.681 110.259Z" fill="#FF6726" stroke="#FFF6F2" stroke-width="2" stroke-linejoin="round"/>
<path d="M128.738 99.1286C128.401 98.7683 127.93 98.1753 127.65 97.3594C127.145 95.9066 127.548 94.6665 127.806 93.8744C128.013 93.2294 128.44 92.2223 129.372 91.1409C129.94 90.54 130.747 89.6259 131.611 88.4512C132.718 86.9492 132.795 86.5355 133.796 85.3312C134.68 84.2621 135.042 84.0829 136.352 82.6977C137.433 81.5545 138.226 80.5842 138.706 79.9722C138.969 81.4299 139.13 82.6964 139.231 83.7028C139.402 85.3941 139.489 86.2592 139.355 87.2808C139.172 88.7081 138.681 89.9052 138.177 90.837C137.671 91.3472 136.909 92.0825 135.917 92.925C134.606 94.0373 133.718 94.6318 132.875 95.2742C131.783 96.1025 130.312 97.348 128.742 99.132L128.738 99.1286Z" fill="#FF6726" stroke="#FFF6F2" stroke-width="2" stroke-linejoin="round"/>
<path d="M128.397 92.5844C128.085 92.0886 127.688 91.3619 127.409 90.4397C126.876 88.6902 127.051 87.2525 127.251 85.9274C127.508 84.2212 127.634 83.3699 128.267 82.4123C128.838 81.5526 129.134 81.5919 131.025 79.7399C132.297 78.4908 132.938 77.866 133.345 77.1502C133.77 76.409 133.969 75.5622 134.378 73.8684C134.827 71.9889 134.722 71.8225 135.036 71.1666C135.387 70.4386 136.101 69.4357 137.746 68.4605C138.048 68.9212 138.458 69.6404 138.767 70.565C139.125 71.6333 139.016 71.9914 139.306 74.327C139.564 76.4015 139.709 76.5736 139.599 77.396C139.561 77.6879 139.399 78.7424 138.702 79.9715C138.404 80.4921 138.106 80.8781 136.348 82.6971C134.293 84.824 134.339 84.67 133.791 85.3305C132.491 86.896 132.908 86.9311 131.606 88.4506C130.75 89.4478 130.28 89.8894 129.368 91.1402C128.938 91.7328 128.61 92.2368 128.397 92.5809L128.397 92.5844Z" fill="#FF6726" stroke="#FFF6F2" stroke-width="2" stroke-linejoin="round"/>
<path d="M128.267 82.4126C127.847 81.4351 127.352 80.2583 126.807 78.9166C125.766 76.3592 125.566 75.7107 125.405 74.9509C125.156 73.769 124.93 72.6324 125.274 71.2066C125.486 70.3275 125.721 69.3661 126.644 68.5472C127.581 67.7208 128.707 67.5043 130.628 67.136C132.15 66.8455 133.232 66.8467 133.977 66.8526C136.146 66.869 136.757 67.2622 137.001 67.4486C137.432 67.7807 137.641 68.1809 137.746 68.4608C136.101 69.4359 135.383 70.439 135.036 71.1669C134.722 71.8192 134.831 71.989 134.378 73.8687C133.969 75.5625 133.77 76.4093 133.345 77.1505C133.109 77.5627 132.84 77.9335 131.025 79.7402C130.327 80.4378 129.394 81.3492 128.267 82.4126Z" fill="#FF6726" stroke="#FFF6F2" stroke-width="2" stroke-linejoin="round"/>
<path d="M72.1958 151.399C76.7311 135.904 81.0301 123.931 84.5938 114.941C89.0689 103.671 93.48 92.5515 100.168 82.6816C105.662 74.5728 110.021 71.2417 115.754 66.8665C123.261 61.1344 128.292 59.9712 131.738 59.7296C131.984 59.7124 132.567 59.6747 133.259 59.6765C135.168 59.6792 142.444 59.9578 152.325 67.9368C156.222 71.0835 163.998 78.2352 173.275 93.4377C181.243 106.49 186.96 119.985 190.037 127.309C193.525 135.611 196.39 143.289 198.54 149.33L197.162 154.861C195.025 149.188 192.118 141.771 188.574 133.627C184.603 124.493 179.403 112.54 172.428 101.302C170.062 97.4867 162.415 85.5795 151.993 77.7406C142.25 70.4107 134.781 70.1735 132.566 70.1946C130.762 70.2099 124.219 70.4774 115.969 76.2571C112.649 78.5818 107.283 82.4418 100.833 92.0565C93.889 102.403 89.2593 114.081 85.8784 122.726C82.4258 131.552 78.2937 143.472 74.0379 159.165L72.1958 151.399Z" fill="#FF6726" stroke="#FFF6F2" stroke-linejoin="round"/>
<path d="M149.47 19.894C148.729 17.2391 147.378 14.0164 144.891 10.9503C143.421 9.13935 141.689 7.00405 138.556 5.63663C135.088 4.12495 131.945 4.44694 130.277 4.63945C128.751 4.814 125.743 5.1962 122.65 7.33975C118.953 9.89852 117.464 13.3503 116.992 14.5968C115.598 18.2878 116.024 21.4561 116.234 22.8737C116.829 26.911 118.67 29.6748 119.518 30.9141C121.27 33.4819 121.763 32.9925 126.938 38.6673C128.707 40.6064 130.097 42.2556 130.679 44.7862C130.995 46.1567 130.968 47.353 130.892 48.1655C131.01 52.0246 131.131 55.8835 131.249 59.7426L134.391 59.6329C133.91 53.9026 133.778 50.3861 133.784 48.0645C133.785 47.3412 133.806 45.9849 133.379 44.2631C132.926 42.447 132.18 41.0438 131.611 39.9853C131.254 39.3264 130.591 38.1629 129.642 36.9054C126.737 33.0354 124.741 32.9968 122.052 29.7299C121.039 28.5007 119.148 26.1457 118.561 22.6018C118.013 19.2818 118.885 16.6182 119.269 15.613C119.662 14.5858 120.788 11.7444 123.778 9.63475C126.401 7.7848 129.01 7.51613 130.23 7.4042C133.954 7.07063 136.732 8.29889 137.519 8.67416C140.063 9.88461 141.519 11.5575 142.769 13.021C145.07 15.7168 146.36 18.5734 147.096 20.9298L149.466 19.8855L149.47 19.894Z" fill="#FF6726" stroke="#FFF6F2" stroke-linejoin="round"/>
<path d="M5.19353 157.823C15.0988 141.44 24.3844 128.755 32.0621 119.223C41.6892 107.267 51.1834 95.4713 65.3206 84.8995C76.9358 76.2132 86.0441 72.5776 98.0247 67.7893C113.706 61.5249 124.126 60.1259 131.245 59.7517C131.754 59.7253 132.956 59.666 134.387 59.642C138.319 59.574 153.324 59.613 173.411 67.6124C181.333 70.7659 197.121 77.9799 215.716 93.5629C231.681 106.947 242.995 120.865 249.08 128.423C255.979 136.991 261.613 144.923 265.83 151.173L262.797 157.008C258.594 151.148 252.86 143.488 245.842 135.084C237.974 125.666 227.676 113.336 213.689 101.819C208.944 97.9094 193.6 85.7166 172.381 77.8781C152.546 70.5498 137.153 70.5676 132.582 70.6709C128.864 70.7532 115.353 71.2639 98.1338 77.6037C91.2076 80.154 80.0039 84.3868 66.3547 94.6816C51.6681 105.758 41.7099 118.145 34.4221 127.317C26.9852 136.681 18.0436 149.306 8.71189 165.877L5.19308 157.81L5.19353 157.823Z" fill="#FF6726" stroke="#FFF6F2" stroke-width="2" stroke-linejoin="round"/>
<path d="M118.758 72.8464C118.826 73.4114 119.009 74.3231 119.587 75.2687C120.363 76.5409 121.41 77.1583 122.206 77.6286C122.997 78.0947 123.92 78.6385 125.261 78.7475C126.771 78.868 127.914 78.3691 128.391 78.1575C129.593 77.6175 130.302 76.8738 130.778 76.3678C131.466 75.6335 132.263 74.7827 132.468 73.4633C132.571 72.8144 132.495 72.2584 132.413 71.8888C130.912 72.8854 129.557 73.4914 128.591 73.8586C127.19 74.3882 126.17 74.779 124.733 74.7815C123.275 74.7848 122.132 74.3916 121.343 74.1117C120.225 73.7176 119.356 73.2283 118.763 72.8462L118.758 72.8464Z" fill="#FF6726" stroke="#FFF6F2" stroke-width="2" stroke-linejoin="round"/>
<path d="M118.758 72.8461C118.138 71.9322 118.407 70.8574 118.423 70.8006C118.626 70.0399 119.167 69.5662 119.636 69.2251C121.274 68.0418 122.766 68.0287 125.407 67.3171C127.619 66.7202 128.648 66.1732 131.276 65.7133C131.895 65.6051 132.976 65.4374 134.126 65.9213C134.517 66.0852 135.629 66.5531 135.844 67.5243C136.024 68.328 135.49 69.0395 135.003 69.6975C134.659 70.1556 134.077 70.8256 132.413 71.8885C131.49 72.4794 130.326 73.213 128.591 73.8582C127.096 74.4172 126.122 74.776 124.733 74.7812C123.716 74.7821 122.925 74.5585 121.343 74.1114C119.341 73.5446 118.963 73.1421 118.763 72.8459L118.758 72.8461Z" fill="#FF6726" stroke="#FFF6F2" stroke-width="2" stroke-linejoin="round"/>
<path d="M120.939 68.4954C121.069 68.1271 121.264 67.6352 121.538 67.0669C122.387 65.3352 123.395 64.2346 123.679 63.9345C124.167 63.4151 125.032 62.5144 126.408 61.7734C127.602 61.1297 128.872 60.9381 131.403 60.5552C133.999 60.1657 134.739 60.3001 135.241 60.772C135.782 61.2858 135.855 62.0238 135.857 62.0584C135.901 62.5896 135.693 62.939 135.087 64.0732C134.88 64.4615 134.543 65.1013 134.126 65.9214C133.512 65.7999 132.507 65.6488 131.276 65.7134C129.168 65.8304 127.923 66.5018 125.407 67.3173C124.406 67.6424 122.881 68.0941 120.939 68.4954Z" fill="#FF6726" stroke="#FFF6F2" stroke-width="2" stroke-linejoin="round"/>
<path d="M126.408 61.7732L127.619 59.9032C129.015 59.1052 130.416 58.3114 131.812 57.5134C131.941 57.5088 132.128 57.5197 132.338 57.5773C133.006 57.7662 133.359 58.3169 133.768 58.8916C134.101 59.3564 134.582 60.0022 135.241 60.7761C134.239 60.5902 132.927 60.4498 131.403 60.5593C129.257 60.7079 127.547 61.2873 126.408 61.7775L126.408 61.7732Z" fill="#FF6726" stroke="#FFF6F2" stroke-width="2" stroke-linejoin="round"/>
<path d="M127.624 59.9033C126.57 59.7236 125.69 59.672 125.044 59.6599C124.33 59.6459 123.994 59.6879 123.65 59.8775C122.911 60.2801 122.67 61.0638 122.635 61.1776C122.365 62.1095 122.783 63.1993 123.679 63.9389C124.47 63.279 125.127 62.771 125.591 62.4256C126 62.1211 126.174 62.0025 126.408 61.7778C127.078 61.1394 127.43 60.4255 127.619 59.9078L127.624 59.9033Z" fill="#FF6726" stroke="#FFF6F2" stroke-width="2" stroke-linejoin="round"/>
<path d="M123.65 59.8733C123.475 59.4679 123.248 58.7786 123.3 57.9193C123.329 57.4938 123.367 56.8515 123.796 56.2475C124.208 55.6701 124.746 55.4478 125.369 55.1922C126.111 54.8847 127.148 54.4587 128.131 54.8445C128.688 55.0633 128.772 55.3592 129.491 56.0053C129.992 56.4556 130.738 57.0185 131.816 57.505L127.623 59.8948C126.981 59.731 126.093 59.5801 125.044 59.6514C124.517 59.6871 124.049 59.7684 123.65 59.869L123.65 59.8733Z" fill="#FF6726" stroke="#FFF6F2" stroke-width="2" stroke-linejoin="round"/>
<path d="M126.824 54.7342C126.834 54.5216 126.862 54.2132 126.932 53.8513C127.067 53.1449 127.24 52.2684 127.882 51.6916C128.294 51.3264 128.732 51.2288 129.221 51.1165C130.312 50.8705 131.317 51.0433 132.057 51.2816C132.294 51.3686 132.611 51.5265 132.799 51.8404C133.098 52.3367 132.833 52.792 132.859 53.5447C132.884 54.2627 133.139 54.1412 133.537 55.4786C133.939 56.8461 133.905 57.7394 133.888 57.9956C133.867 58.3731 133.813 58.6825 133.768 58.8876C133.665 58.666 133.233 57.8192 132.337 57.5733C132.15 57.5236 131.971 57.5038 131.812 57.5094C130.632 57.0655 129.923 56.4796 129.487 56.0098C129.091 55.5819 128.785 55.1032 128.127 54.849C127.627 54.6585 127.147 54.6796 126.816 54.7345L126.824 54.7342Z" fill="#FF6726" stroke="#FFF6F2" stroke-width="2" stroke-linejoin="round"/>
<path d="M132.062 51.2853C132.112 50.9934 132.234 50.5301 132.592 50.1278C133.317 49.3056 134.465 49.3434 135.123 49.3638C135.483 49.3772 137.125 49.4281 138.123 50.6103C138.394 50.93 138.544 51.2669 138.844 51.9363C139.069 52.4352 139.375 53.1175 139.492 53.8713C139.669 54.9955 139.376 55.8762 138.995 56.9939C138.571 58.243 138.034 59.1063 137.624 59.7573C136.993 60.7625 136.353 61.5297 135.857 62.0667C135.676 61.4667 135.428 61.0467 135.241 60.7803C134.59 59.8546 133.895 59.658 133.769 58.8958C133.719 58.5857 133.832 58.5948 133.889 58.0038C133.976 57.1562 133.807 56.5168 133.537 55.4868C133.482 55.2851 133.284 54.5515 132.897 53.6425C132.883 53.604 132.869 53.5742 132.859 53.5529C132.879 53.5132 133.319 52.597 132.8 51.8486C132.558 51.5019 132.224 51.349 132.057 51.2898L132.062 51.2853Z" fill="#FF6726" stroke="#FFF6F2" stroke-width="2" stroke-linejoin="round"/>
<path d="M138.84 51.9324C139.217 51.8326 139.837 51.7287 140.56 51.8723C141.379 52.0343 141.904 52.4361 142.504 52.9002C143.194 53.4348 144.092 54.131 144.617 55.3946C145.014 56.3466 145.012 57.1652 145.003 57.7718C144.983 59.3143 144.473 60.4452 144.143 61.154C143.523 62.4923 142.761 63.3461 142.327 63.8203C141.915 64.2765 140.862 65.3656 139.181 66.2862C137.932 66.9708 136.759 67.3279 135.848 67.5243L134.131 65.9212C134.586 64.095 135.292 62.8577 135.861 62.0625C136.488 61.1831 136.869 60.9446 137.628 59.7531C137.998 59.1728 138.564 58.2782 138.999 56.9897C139.336 55.9905 139.65 55.0657 139.496 53.8671C139.388 53.0176 139.084 52.357 138.848 51.9321L138.84 51.9324Z" fill="#FF6726" stroke="#FFF6F2" stroke-width="2" stroke-linejoin="round"/>
<path d="M144.855 59.111C145.175 59.3554 145.671 59.8015 146.05 60.5028C146.481 61.3063 146.532 62.0278 146.564 62.5811C146.596 63.13 146.661 64.4963 145.914 65.8866C145.361 66.915 144.639 67.4426 143.461 68.2763C142.245 69.1417 141.265 69.57 139.393 70.376C137.53 71.1773 136.57 71.5833 135.231 71.7903C134.065 71.9696 133.082 71.9433 132.413 71.8887C132.942 71.658 134.136 71.0446 135.003 69.6977C135.544 68.8559 135.754 68.0431 135.844 67.5245C136.755 67.3282 137.928 66.971 139.176 66.2865C140.854 65.3704 141.906 64.2812 142.323 63.8206C143.448 62.5816 144.005 61.4318 144.139 61.1543C144.513 60.3616 144.726 59.6482 144.851 59.1112L144.855 59.111Z" fill="#FF6726" stroke="#FFF6F2" stroke-width="2" stroke-linejoin="round"/>
<path d="M141.089 69.6281C140.95 69.9664 140.715 70.4467 140.317 70.95C139.65 71.7918 138.903 72.2077 138.164 72.6103C137.557 72.939 136.754 73.3785 135.593 73.5836C134.298 73.815 133.189 73.6459 132.464 73.4633L132.409 71.8888C133.62 71.9981 134.586 71.8994 135.227 71.7904C136.522 71.5719 137.529 71.1513 139.389 70.3761C140.114 70.0736 140.702 69.8062 141.089 69.6281Z" fill="#FF6726" stroke="#FFF6F2" stroke-width="2" stroke-linejoin="round"/>
<path d="M122.159 199.89C122.226 200.455 122.41 201.367 122.988 202.313C123.764 203.585 124.811 204.202 125.606 204.673C126.397 205.139 127.321 205.682 128.662 205.791C130.172 205.912 131.314 205.413 131.792 205.201C132.993 204.661 133.703 203.918 134.179 203.412C134.867 202.677 135.664 201.827 135.869 200.507C135.972 199.858 135.896 199.302 135.814 198.933C134.312 199.929 132.957 200.535 131.992 200.902C130.591 201.432 129.57 201.823 128.134 201.825C126.675 201.829 125.532 201.436 124.743 201.156C123.626 200.762 122.756 200.272 122.163 199.89L122.159 199.89Z" fill="#FF6726" stroke="#FFF6F2" stroke-width="2" stroke-linejoin="round"/>
<path d="M122.159 199.89C121.538 198.976 121.808 197.901 121.823 197.845C122.026 197.084 122.568 196.61 123.036 196.269C124.674 195.086 126.167 195.073 128.808 194.361C131.02 193.764 132.048 193.217 134.676 192.757C135.296 192.649 136.376 192.481 137.527 192.965C137.918 193.129 139.029 193.597 139.245 194.568C139.424 195.372 138.891 196.083 138.403 196.741C138.06 197.2 137.478 197.87 135.814 198.932C134.891 199.523 133.727 200.257 131.992 200.902C130.497 201.461 129.523 201.82 128.134 201.825C127.117 201.826 126.326 201.602 124.743 201.155C122.742 200.589 122.364 200.186 122.163 199.89L122.159 199.89Z" fill="#FF6726" stroke="#FFF6F2" stroke-width="2" stroke-linejoin="round"/>
<path d="M124.34 195.539C124.469 195.171 124.664 194.679 124.939 194.111C125.787 192.379 126.796 191.279 127.08 190.978C127.568 190.459 128.432 189.558 129.809 188.817C131.002 188.174 132.272 187.982 134.804 187.599C137.4 187.21 138.14 187.344 138.641 187.816C139.183 188.33 139.256 189.068 139.257 189.102C139.302 189.634 139.093 189.983 138.488 191.117C138.281 191.505 137.944 192.145 137.527 192.965C136.913 192.844 135.908 192.693 134.676 192.757C132.569 192.874 131.324 193.546 128.808 194.361C127.807 194.686 126.282 195.138 124.34 195.539Z" fill="#FF6726" stroke="#FFF6F2" stroke-width="2" stroke-linejoin="round"/>
<path d="M129.809 188.817L131.02 186.947C132.416 186.149 133.816 185.355 135.212 184.557C135.342 184.553 135.529 184.564 135.738 184.621C136.407 184.81 136.759 185.361 137.169 185.936C137.501 186.4 137.982 187.046 138.641 187.82C137.64 187.634 136.328 187.494 134.804 187.603C132.658 187.752 130.947 188.331 129.809 188.821L129.809 188.817Z" fill="#FF6726" stroke="#FFF6F2" stroke-width="2" stroke-linejoin="round"/>
<path d="M131.024 186.947C129.971 186.768 129.09 186.716 128.445 186.704C127.73 186.69 127.394 186.732 127.05 186.921C126.312 187.324 126.071 188.108 126.036 188.222C125.765 189.153 126.184 190.243 127.08 190.983C127.87 190.323 128.528 189.815 128.992 189.47C129.401 189.165 129.574 189.046 129.809 188.822C130.479 188.183 130.83 187.469 131.02 186.952L131.024 186.947Z" fill="#FF6726" stroke="#FFF6F2" stroke-width="2" stroke-linejoin="round"/>
<path d="M127.05 186.917C126.876 186.512 126.649 185.823 126.701 184.963C126.729 184.538 126.767 183.895 127.196 183.291C127.609 182.714 128.147 182.492 128.769 182.236C129.512 181.929 130.549 181.503 131.531 181.888C132.089 182.107 132.173 182.403 132.892 183.049C133.392 183.5 134.139 184.062 135.216 184.549L131.024 186.939C130.382 186.775 129.494 186.624 128.445 186.695C127.918 186.731 127.449 186.812 127.05 186.913L127.05 186.917Z" fill="#FF6726" stroke="#FFF6F2" stroke-width="2" stroke-linejoin="round"/>
<path d="M130.225 181.778C130.235 181.566 130.263 181.257 130.333 180.895C130.468 180.189 130.641 179.312 131.283 178.736C131.694 178.37 132.132 178.273 132.622 178.16C133.712 177.914 134.718 178.087 135.458 178.326C135.694 178.413 136.012 178.57 136.2 178.884C136.499 179.381 136.233 179.836 136.259 180.589C136.285 181.307 136.54 181.185 136.937 182.523C137.34 183.89 137.306 184.783 137.289 185.04C137.268 185.417 137.214 185.726 137.169 185.932C137.066 185.71 136.634 184.863 135.738 184.617C135.55 184.568 135.372 184.548 135.212 184.553C134.033 184.109 133.324 183.524 132.888 183.054C132.492 182.626 132.185 182.147 131.527 181.893C131.027 181.702 130.548 181.724 130.216 181.778L130.225 181.778Z" fill="#FF6726" stroke="#FFF6F2" stroke-width="2" stroke-linejoin="round"/>
<path d="M135.462 178.329C135.513 178.037 135.635 177.574 135.993 177.172C136.717 176.35 137.866 176.387 138.524 176.408C138.884 176.421 140.526 176.472 141.523 177.654C141.794 177.974 141.945 178.311 142.245 178.98C142.47 179.479 142.775 180.161 142.892 180.915C143.07 182.039 142.776 182.92 142.396 184.038C141.972 185.287 141.435 186.15 141.025 186.801C140.394 187.806 139.754 188.574 139.258 189.111C139.077 188.511 138.828 188.091 138.641 187.824C137.99 186.899 137.295 186.702 137.169 185.94C137.119 185.63 137.232 185.639 137.289 185.048C137.377 184.2 137.207 183.561 136.938 182.531C136.883 182.329 136.684 181.595 136.298 180.686C136.283 180.648 136.269 180.618 136.26 180.597C136.28 180.557 136.72 179.641 136.2 178.893C135.959 178.546 135.625 178.393 135.458 178.334L135.462 178.329Z" fill="#FF6726" stroke="#FFF6F2" stroke-width="2" stroke-linejoin="round"/>
<path d="M142.24 178.976C142.618 178.877 143.237 178.773 143.961 178.916C144.78 179.078 145.305 179.48 145.905 179.944C146.594 180.479 147.493 181.175 148.018 182.439C148.414 183.391 148.413 184.209 148.403 184.816C148.384 186.358 147.874 187.489 147.544 188.198C146.924 189.536 146.162 190.39 145.728 190.864C145.316 191.32 144.263 192.41 142.581 193.33C141.333 194.015 140.16 194.372 139.249 194.568L137.531 192.965C137.987 191.139 138.692 189.902 139.262 189.106C139.889 188.227 140.27 187.989 141.029 186.797C141.398 186.217 141.964 185.322 142.4 184.034C142.737 183.034 143.051 182.11 142.896 180.911C142.789 180.062 142.485 179.401 142.249 178.976L142.24 178.976Z" fill="#FF6726" stroke="#FFF6F2" stroke-width="2" stroke-linejoin="round"/>
<path d="M148.255 186.155C148.576 186.399 149.072 186.845 149.451 187.547C149.881 188.35 149.933 189.072 149.965 189.625C149.997 190.174 150.062 191.54 149.314 192.931C148.762 193.959 148.04 194.487 146.862 195.32C145.646 196.186 144.665 196.614 142.793 197.42C140.93 198.221 139.971 198.627 138.632 198.834C137.465 199.014 136.482 198.987 135.814 198.933C136.342 198.702 137.537 198.089 138.403 196.742C138.945 195.9 139.155 195.087 139.245 194.568C140.155 194.372 141.329 194.015 142.577 193.33C144.255 192.414 145.307 191.325 145.724 190.865C146.849 189.626 147.406 188.476 147.539 188.198C147.914 187.406 148.127 186.692 148.251 186.155L148.255 186.155Z" fill="#FF6726" stroke="#FFF6F2" stroke-width="2" stroke-linejoin="round"/>
<path d="M144.49 196.672C144.35 197.01 144.116 197.491 143.718 197.994C143.051 198.836 142.304 199.252 141.565 199.654C140.957 199.983 140.155 200.422 138.993 200.628C137.699 200.859 136.589 200.69 135.864 200.507L135.809 198.933C137.021 199.042 137.987 198.943 138.628 198.834C139.923 198.616 140.929 198.195 142.789 197.42C143.514 197.118 144.102 196.85 144.49 196.672Z" fill="#FF6726" stroke="#FFF6F2" stroke-width="2" stroke-linejoin="round"/>
</svg>
