<svg width="587" height="529" viewBox="0 0 587 529" fill="none" xmlns="http://www.w3.org/2000/svg">
<g filter="url(#filter0_d_380_6045)">
<path d="M352.705 80.0364C356.06 79.8789 358.635 80.8506 360.182 81.5525L360.782 81.8321C362.302 82.5558 365.065 83.913 367.219 86.8906L367.426 87.1833C369.145 89.6953 369.628 92.1386 369.921 94.3151L370.038 95.2306C370.527 99.1605 369.987 102.631 369.216 105.319L367.043 105.003C367.659 102.533 368.05 99.3781 367.517 95.8306L367.518 95.8309C367.224 93.8502 366.856 91.5281 365.251 89.0176L365.252 89.0179C364.755 88.2359 362.955 85.5806 359.435 83.8008L359.436 83.8012C358.326 83.2373 355.955 82.0679 352.718 82.1687L352.403 82.1827L352.402 82.1823C349.017 82.3744 346.602 83.8644 345.434 84.7001L345.011 85.0116C344.131 85.6725 341.971 87.4707 340.593 90.5672L340.462 90.8707C339.188 93.9384 339.32 96.746 339.517 98.5039L339.601 99.1915C339.892 101.402 340.48 102.8 341.038 104.251C341.558 105.602 342.058 107.014 342.295 109.219L342.34 109.67C342.478 111.278 342.423 112.655 342.377 113.424L342.377 113.425C342.302 114.591 342.197 116.086 341.698 117.764L341.593 118.102L341.593 118.103C341.177 119.391 340.65 120.367 340.245 121.041L339.889 121.614C338.619 123.629 336.832 126.736 334.172 131.91L331.79 130.536C332.758 128.878 333.725 127.22 334.692 125.563C335.698 123.838 336.702 122.113 337.709 120.387C338.166 119.784 338.751 118.902 339.216 117.748L339.407 117.235L339.407 117.234L339.561 116.747C340.169 114.656 340.011 112.756 339.659 110.652L339.484 109.666C338.765 105.737 338.229 103.811 337.856 102.464C337.533 101.295 337.337 100.579 337.249 99.357L337.218 98.8001C337.16 97.2999 337.066 94.0659 338.579 90.3849L338.731 90.0276L338.731 90.0267C339.303 88.7142 340.585 85.8853 343.578 83.4893L343.873 83.2589C344.924 82.4622 347.92 80.3876 352.278 80.0631L352.705 80.0364Z" fill="#FF6726" stroke="#FFF6F2" stroke-width="0.5" stroke-linejoin="round"/>
<path d="M272.538 98.882C275.534 99.921 279.801 101.46 284.881 103.46C294.725 107.334 307.617 112.933 320.233 119.965L321.453 120.65C323.345 121.72 330.422 125.823 336.128 133.861L336.128 133.862C337.928 136.399 339.784 139.595 340.94 142.348C341.52 143.728 341.912 144.971 342.045 145.949C342.166 146.843 342.052 147.371 341.837 147.642L341.739 147.744C341.529 147.919 341.23 148.015 340.658 147.907C340.065 147.796 339.253 147.478 338.104 146.899C336.383 146.032 334.006 144.633 330.639 142.637L326.93 140.439C321.155 137.021 315.413 133.501 309.503 130.274L308.318 129.633C291.356 120.535 266.076 110.094 257.554 107.007L256.782 106.731C218.302 93.2203 184.072 89.122 162.559 87.802L160.517 87.6822C141.116 86.6036 123.823 87.26 109.259 88.5749C130.953 82.1134 149.776 80.0005 163.469 79.3881C163.494 79.3869 163.518 79.3839 163.542 79.3792C186.498 78.3565 204.339 81.1265 215.72 83.1246L217.911 83.5129C229.315 85.5472 240.131 88.7197 259.145 94.6102L267.822 97.3058C267.823 97.306 267.824 97.3066 267.826 97.3071C267.829 97.3081 267.834 97.3095 267.841 97.3115C267.854 97.3156 267.873 97.3216 267.899 97.3298C267.952 97.3464 268.031 97.3719 268.135 97.4051C268.343 97.4717 268.652 97.5712 269.054 97.7034C269.859 97.9678 271.04 98.3624 272.538 98.882Z" fill="#FF6726" stroke="#FFF6F2" stroke-linejoin="round"/>
<path d="M346.986 153.909C348.148 165.976 348.257 176.352 348.005 184.504L347.95 186.126C347.543 196.983 346.501 204.807 345.634 209.966L345.275 212.015L345.275 212.016C343.757 220.385 342.231 225.085 341.471 227.199L341.195 227.949C340.433 229.965 340.289 230.079 335.764 238.835L333.542 243.148C328.347 253.253 326.668 256.703 324.165 260.485L323.652 261.249L323.65 261.25L319.077 267.89L319.077 267.891L315.198 273.519L315.198 273.52C312.832 276.958 311.146 279.405 310.052 280.994C309.505 281.788 309.106 282.367 308.844 282.748C308.713 282.939 308.617 283.08 308.552 283.173C308.52 283.22 308.496 283.255 308.48 283.278C308.472 283.289 308.466 283.298 308.462 283.303C308.461 283.306 308.459 283.308 308.458 283.309L308.457 283.311L308.456 283.312C302.762 291.566 294.998 301.528 281.612 319.165C279.677 321.713 276.568 325.813 272.695 330.951L254.789 318.089C264.387 305.874 272.538 295.191 279.043 286.53L281.758 282.904C288.932 273.301 294.613 265.502 300.946 255.68L302.222 253.688C309.091 242.891 312.228 236.801 313.951 233.142L314.61 231.717C319.215 221.574 321.608 213.12 322.661 208.98L323.032 207.477L323.032 207.476L323.387 205.949C324.233 202.207 325.516 195.701 326.181 187.544L326.324 185.632C326.85 177.796 326.582 171.383 326.298 166.705L326.178 164.807C325.921 160.845 325.569 157.464 325.262 154.895L346.986 153.909Z" fill="#244523" stroke="#FFF6F2" stroke-miterlimit="10"/>
<path d="M319.539 268.529C319.624 268.595 319.716 268.669 319.811 268.754L319.992 268.926L319.994 268.927C320.464 269.388 320.907 269.833 321.029 270.367L321.028 270.368C321.11 270.74 321.018 271.056 320.769 271.556L320.467 272.126C319.9 273.17 319.506 273.885 318.736 274.209L318.577 274.269L318.574 274.27C317.718 274.561 316.898 274.254 316.684 274.176C316.369 274.057 316.121 273.899 315.937 273.757C317.141 272.016 318.34 270.272 319.539 268.529Z" fill="#244523" stroke="#FFF6F2" stroke-width="0.5" stroke-miterlimit="10"/>
<path d="M246.143 297.856C246.378 297.898 246.579 298.045 246.741 298.227C246.888 298.393 246.975 298.554 247.001 298.605C247.179 298.973 247.191 299.388 247.12 299.805C247.048 300.226 246.901 300.599 246.797 300.885L246.797 300.886C245.668 304.02 246.389 307.389 246.692 308.552L246.79 308.909L246.789 308.91C247.186 310.295 248.133 311.567 249.864 313.913L249.865 313.912C251.335 315.913 252.71 317.47 253.713 318.541L253.794 318.628L253.847 318.647C256.949 320.875 260.052 323.104 263.154 325.333C266.275 327.576 269.397 329.819 272.517 332.059L272.6 332.119L272.701 332.141C272.849 332.173 273.374 332.3 273.75 332.769L273.822 332.867C273.856 332.917 273.934 333.032 274.002 333.187C274.057 333.311 274.097 333.442 274.109 333.569L274.111 333.694C274.096 333.917 273.979 334.094 273.611 334.371C273.422 334.512 273.216 334.647 272.954 334.829C272.765 334.96 272.561 335.107 272.352 335.278L272.14 335.457C271.237 336.252 270.76 337.1 270.293 337.934C269.884 338.663 269.478 339.396 268.792 340.173L268.48 340.508L268.476 340.512C268.368 340.626 268.226 340.762 268.065 340.864C267.943 340.941 267.837 340.981 267.746 340.991L267.66 340.989C267.569 340.978 267.474 340.93 267.371 340.839C267.318 340.791 267.272 340.74 267.228 340.688L267.104 340.529C266.78 340.107 266.533 339.928 266.128 339.672C265.842 339.492 265.461 339.262 264.867 338.849L264.197 338.371C262.939 337.448 260.749 335.715 258.386 333.732L257.364 332.869C255.466 331.25 254.389 330.257 253.631 329.63C252.935 329.055 252.441 328.73 251.743 328.426L251.431 328.296L251.43 328.296C250.562 327.954 249.664 327.626 248.985 327.385C248.644 327.265 248.358 327.165 248.157 327.096C248.056 327.062 247.977 327.035 247.923 327.016C247.896 327.007 247.874 327 247.86 326.995L247.838 326.987L247.836 326.988C246.753 326.627 246.063 326.423 245.531 326.202C245.028 325.993 244.714 325.786 244.409 325.443L244.408 325.443C243.725 324.675 243.543 323.734 243.486 323.273L243.469 323.107C243.377 322.12 243.654 321.477 243.97 320.742C244.272 320.039 244.605 319.256 244.513 318.138L244.488 317.91L244.488 317.906L244.461 317.742C244.431 317.595 244.389 317.485 244.306 317.281C244.254 317.154 244.182 316.98 244.079 316.719L243.661 315.632C242.935 313.685 242.52 312.571 242.287 311.651L242.199 311.267L242.198 311.267C242.1 310.804 242.081 310.253 242.133 309.464C242.16 309.069 242.203 308.623 242.26 308.108L242.471 306.336C243.147 300.853 243.823 299.398 244.768 298.519L244.768 298.517C244.934 298.365 245.152 298.172 245.408 298.027C245.633 297.899 245.85 297.833 246.056 297.846L246.143 297.856Z" fill="#244523" stroke="#FFF6F2" stroke-miterlimit="10"/>
<path d="M247.802 328.01C249.261 328.425 250.36 328.895 251.033 329.206L251.032 329.207C253.415 330.319 255.01 331.601 256.782 333.212C258.556 334.824 260.52 336.779 263.592 339.16L263.591 339.161C264.584 339.933 265.442 340.547 266.03 340.961C265.781 341.335 265.471 341.746 265.086 342.159L264.853 342.399C264.493 342.756 264.14 343.046 263.814 343.289C263.458 343.375 262.953 343.443 262.399 343.329L262.137 343.262C261.723 343.134 261.347 342.92 260.629 342.235L260.299 341.911L260.298 341.91L259.919 341.521C259.576 341.16 259.334 340.874 259.125 340.618C258.918 340.365 258.73 340.123 258.506 339.864L258.269 339.597L258.266 339.596L258.117 339.443C257.554 338.886 256.814 338.384 255.704 337.705L254.335 336.881C253.244 336.229 252.444 335.751 251.528 335.259L250.559 334.756L250.558 334.755C249.482 334.216 248.986 334.017 248.403 333.602L248.145 333.409L247.818 333.139C247.141 332.545 246.676 331.916 246.359 331.423C246.344 331.134 246.356 330.783 246.431 330.393L246.474 330.2C246.738 329.122 247.384 328.395 247.802 328.01Z" fill="#244523" stroke="#FFF6F2" stroke-miterlimit="10"/>
<path d="M245.65 332.166C246.056 332.768 246.658 333.52 247.532 334.202L247.531 334.203C248.346 334.842 248.956 335.075 250.114 335.655L250.113 335.655C251.123 336.163 251.888 336.597 252.821 337.148L253.825 337.746C255.925 339.001 256.884 339.586 257.54 340.286L257.54 340.285C257.849 340.619 258.056 340.894 258.354 341.258C258.65 341.62 259.01 342.038 259.593 342.622L259.593 342.623C260.445 343.48 260.985 343.895 261.584 344.133L261.845 344.224L261.846 344.224C262.351 344.38 262.829 344.411 263.243 344.387C263.182 344.546 263.115 344.718 263.048 344.902C262.815 345.542 262.693 345.969 262.596 346.277C262.501 346.583 262.435 346.758 262.312 346.956L262.736 347.221L262.311 346.956L262.31 346.959C262.124 347.262 261.766 347.678 261.01 348.039C260.542 347.801 259.949 347.501 259.261 347.166L259.262 347.166C256.921 346.018 254.936 345.159 253.701 344.643L252.731 344.244L252.73 344.243C250.811 343.469 249.59 343.107 248.53 342.781C247.481 342.458 246.593 342.172 245.304 341.543L245.305 341.544C244.663 341.229 243.966 340.873 243.429 340.595C243.161 340.456 242.932 340.337 242.771 340.253C242.691 340.211 242.627 340.177 242.583 340.154C242.562 340.143 242.546 340.134 242.535 340.128C242.529 340.125 242.524 340.123 242.522 340.121C242.52 340.121 242.519 340.12 242.518 340.12L242.518 340.119C241.729 339.701 241.042 339.318 240.484 339.006C241.217 338.116 241.975 337.136 242.728 336.052L243.107 335.497C243.841 334.405 244.48 333.343 245.039 332.34C245.242 332.281 245.446 332.224 245.65 332.166Z" fill="#244523" stroke="#FFF6F2" stroke-miterlimit="10"/>
<path d="M240.6 340.218L242.056 341.005L242.057 341.007C242.057 341.007 242.059 341.007 242.06 341.008C242.063 341.009 242.068 341.012 242.074 341.015C242.085 341.021 242.102 341.03 242.124 341.041C242.168 341.065 242.232 341.098 242.313 341.14C242.474 341.225 242.704 341.345 242.974 341.485C243.243 341.624 243.554 341.784 243.878 341.949L244.87 342.444L244.871 342.445C246.23 343.107 247.173 343.411 248.242 343.74C249.3 344.065 250.485 344.415 252.361 345.172L252.361 345.173C253.158 345.497 255.143 346.313 257.7 347.524L258.829 348.067C259.481 348.385 260.046 348.672 260.503 348.904C260.489 349.18 260.434 349.485 260.279 349.756L260.178 349.91L260.177 349.911C259.85 350.341 259.359 350.477 258.704 350.626C258.402 350.695 258.044 350.772 257.727 350.91C257.437 351.036 257.153 351.224 256.942 351.526L256.856 351.662C256.508 352.278 256.701 352.846 256.811 353.198C256.931 353.583 256.974 353.77 256.859 353.998C256.769 354.174 256.614 354.307 256.368 354.42C256.113 354.538 255.806 354.614 255.445 354.701C255.109 354.781 254.71 354.873 254.37 355.031C254.06 355.175 253.754 355.393 253.565 355.748L253.492 355.908L253.491 355.909C253.291 356.43 253.471 356.858 253.558 357.098C253.625 357.283 253.656 357.389 253.638 357.499L253.603 357.613C253.5 357.86 253.285 357.973 252.833 358.165C252.471 358.318 251.893 358.542 251.601 359.135L251.547 359.257C251.34 359.785 251.492 360.203 251.583 360.463C251.675 360.727 251.691 360.805 251.64 360.928C251.595 361.033 251.515 361.117 251.36 361.198C251.192 361.287 250.981 361.35 250.705 361.428C250.452 361.5 250.134 361.588 249.854 361.733C249.561 361.884 249.273 362.115 249.103 362.492C248.848 363.053 249.032 363.562 249.125 363.854C249.206 364.108 249.23 364.225 249.21 364.315L249.175 364.399L249.174 364.399C249.106 364.514 249.009 364.56 248.593 364.637C248.235 364.704 247.659 364.797 247.222 365.308C246.763 365.84 246.815 366.407 246.846 366.797C246.874 367.148 246.891 367.397 246.77 367.664L246.709 367.78C246.504 368.124 246.226 368.226 245.752 368.376C245.319 368.513 244.728 368.689 244.276 369.281L244.188 369.405C243.778 370.021 243.82 370.564 243.846 370.981C243.871 371.374 243.886 371.67 243.657 372.068C243.418 372.476 243.143 372.608 242.756 372.783C242.373 372.956 241.881 373.169 241.487 373.757L241.409 373.88C240.966 374.62 241.017 375.315 241.044 375.809C241.072 376.33 241.059 376.546 240.851 376.751C240.662 376.935 240.459 376.974 240.095 377.038C239.755 377.098 239.237 377.189 238.877 377.715C238.561 378.172 238.618 378.595 238.659 378.878C238.693 379.118 238.712 379.257 238.655 379.422L238.626 379.494L238.625 379.495C238.463 379.853 238.092 380.023 237.499 380.239C237.238 380.334 236.915 380.447 236.648 380.608C236.366 380.778 236.09 381.035 235.981 381.443L235.981 381.444C235.849 381.936 236.064 382.283 236.175 382.471C236.258 382.612 236.288 382.673 236.291 382.735L236.285 382.799L236.285 382.8C236.263 382.914 236.185 383.038 235.977 383.188C235.764 383.342 235.483 383.475 235.147 383.63C234.834 383.774 234.462 383.943 234.164 384.157C233.898 384.348 233.632 384.617 233.527 384.998L233.491 385.169C233.434 385.598 233.617 385.922 233.691 386.078C233.75 386.202 233.766 386.253 233.761 386.301L233.75 386.35C233.725 386.426 233.69 386.474 233.501 386.569C233.35 386.646 233.053 386.765 232.775 386.98L232.657 387.078C232.247 387.448 232.063 387.91 231.983 388.365C231.906 388.807 231.922 389.277 231.937 389.68C231.952 390.107 231.965 390.463 231.915 390.771C231.873 391.027 231.794 391.211 231.661 391.348L231.601 391.405L231.6 391.406C231.421 391.557 231.249 391.582 230.956 391.625C230.682 391.664 230.207 391.727 229.91 392.219C229.716 392.538 229.693 392.876 229.726 393.167C229.758 393.449 229.849 393.726 229.92 393.944C230 394.184 230.055 394.35 230.073 394.489C230.081 394.549 230.079 394.584 230.076 394.602C230.04 394.606 229.984 394.607 229.861 394.598C229.657 394.585 229.293 394.551 228.921 394.737L228.762 394.831C228.394 395.083 228.231 395.448 228.156 395.793C228.085 396.122 228.084 396.489 228.08 396.791C228.075 397.116 228.068 397.39 228.016 397.629C227.979 397.799 227.923 397.931 227.841 398.035L227.75 398.131C227.611 398.251 227.509 398.258 227.249 398.261C227.004 398.263 226.64 398.263 226.264 398.52L226.101 398.647C225.462 399.208 225.482 400.023 225.475 400.552C225.467 401.167 225.438 401.553 225.143 401.85C224.987 402.006 224.877 402.026 224.637 402.06C224.356 402.1 223.96 402.155 223.536 402.543C222.879 403.14 222.83 403.899 222.789 404.441C222.749 404.955 222.714 405.286 222.502 405.55L222.4 405.658L222.399 405.659C222.181 405.862 221.983 405.891 221.64 405.939C221.33 405.983 220.915 406.045 220.529 406.395L220.367 406.561C219.967 407.024 219.943 407.481 219.926 407.83C219.911 408.118 219.901 408.352 219.765 408.634L219.698 408.758L219.697 408.76C219.512 409.078 219.336 409.172 219.051 409.309C218.724 409.466 218.291 409.661 217.827 410.212C217.287 410.848 217.166 411.41 217.067 411.85C216.974 412.26 216.908 412.518 216.589 412.81C216.291 413.081 216.05 413.128 215.73 413.19C215.376 413.259 214.916 413.347 214.479 413.838C213.952 414.428 213.907 415.096 213.87 415.552C213.833 415.994 213.798 416.188 213.668 416.319L213.606 416.373L213.606 416.374C213.467 416.477 213.354 416.478 213.045 416.448C212.746 416.419 212.265 416.361 211.775 416.712C211.151 417.159 211.073 417.872 211.008 418.31C210.941 418.761 210.884 419.01 210.714 419.176L210.634 419.242C210.497 419.339 210.399 419.342 210.145 419.34C209.874 419.337 209.475 419.336 209.047 419.66C208.625 419.98 208.48 420.378 208.382 420.744C208.283 421.113 208.23 421.435 208.041 421.852C207.962 422.021 207.801 422.367 206.514 423.579C205.893 424.16 205.057 424.9 204.001 425.716C203.772 425.095 203.488 424.417 203.13 423.708L202.911 423.288C202.362 422.254 201.775 421.376 201.226 420.653L201.241 420.64L200.952 420.282C199.919 418.992 198.707 417.613 197.293 416.201L196.675 415.595C195.249 414.217 193.856 413.035 192.546 412.024L192.545 412.023C190.974 410.784 189.681 409.8 188.676 409.051L187.767 408.378L187.763 408.376L187.267 408.003C186.715 407.566 185.936 406.867 185.258 405.891L185.076 405.618L185.076 405.617C184.695 405.021 184.48 404.517 184.476 403.989L184.487 403.761L184.486 403.76L184.509 403.6C184.544 403.408 184.607 403.237 184.675 403.088C184.743 403.112 184.814 403.138 184.889 403.164L185.69 403.461L185.692 403.462C186.725 403.857 187.282 404.11 187.692 404.28C188.11 404.454 188.391 404.548 188.807 404.574L188.807 404.573C189.203 404.598 189.622 404.484 190.092 404.302C190.33 404.209 190.597 404.094 190.899 403.955L191.914 403.475C192.791 403.054 193.47 402.73 193.972 402.453C194.403 402.215 194.756 401.986 195.004 401.717L195.104 401.6C195.722 400.798 195.889 399.913 196.009 399.287C196.073 398.954 196.116 398.732 196.182 398.573C196.238 398.44 196.275 398.432 196.29 398.428C196.331 398.416 196.365 398.413 196.6 398.529C196.784 398.619 197.191 398.838 197.665 398.631L197.664 398.63C197.995 398.486 198.167 398.221 198.261 397.972C198.348 397.743 198.388 397.474 198.422 397.268C198.498 396.805 198.578 396.453 198.854 396.188L198.854 396.187C199.04 396.01 199.184 395.991 199.45 395.968C199.745 395.942 200.186 395.917 200.637 395.527L200.638 395.528C201.328 394.934 201.378 394.067 201.42 393.49C201.444 393.168 201.462 392.926 201.519 392.726C201.57 392.544 201.642 392.444 201.746 392.376L201.745 392.375C201.853 392.306 201.928 392.308 202.176 392.352C202.393 392.39 202.747 392.463 203.145 392.294L203.319 392.205L203.32 392.204C203.748 391.946 203.961 391.532 204.076 391.138C204.19 390.751 204.227 390.317 204.258 389.948C204.291 389.554 204.316 389.236 204.383 388.984C204.449 388.737 204.526 388.669 204.579 388.644C204.614 388.628 204.626 388.617 204.845 388.697C205.043 388.768 205.432 388.922 205.888 388.709L205.888 388.708C206.316 388.511 206.533 388.129 206.654 387.78C206.774 387.434 206.831 387.033 206.88 386.696C206.933 386.332 206.978 386.035 207.058 385.801C207.137 385.571 207.218 385.504 207.274 385.48L207.273 385.478C207.301 385.466 207.305 385.456 207.479 385.522C207.626 385.578 207.912 385.697 208.267 385.605L208.423 385.552L208.424 385.552C208.855 385.369 209.054 384.993 209.157 384.656C209.257 384.331 209.299 383.94 209.341 383.609C209.428 382.92 209.536 382.371 209.908 382.014L209.986 381.945C210.088 381.862 210.163 381.828 210.219 381.81C210.283 381.789 210.343 381.781 210.457 381.767C210.564 381.755 210.722 381.737 210.896 381.677C211.032 381.63 211.167 381.561 211.305 381.463L211.443 381.354C212.133 380.768 212.228 379.977 212.305 379.412C212.379 378.869 212.44 378.527 212.671 378.277L212.781 378.176L212.784 378.172C212.967 378.024 213.09 378.017 213.325 378.007C213.568 377.997 213.908 377.986 214.272 377.73L214.429 377.604L214.431 377.603C215.068 377.03 215.119 376.197 215.163 375.657C215.188 375.352 215.207 375.129 215.26 374.948C215.296 374.826 215.338 374.753 215.39 374.704L215.446 374.663L215.448 374.662C215.504 374.628 215.516 374.624 215.655 374.646C215.806 374.67 216.066 374.719 216.381 374.596L216.52 374.533L216.524 374.531C216.954 374.297 217.163 373.89 217.275 373.512C217.385 373.139 217.422 372.715 217.453 372.354C217.486 371.968 217.513 371.653 217.58 371.403C217.646 371.155 217.722 371.09 217.765 371.068C217.779 371.061 217.769 371.044 217.952 371.108C218.122 371.167 218.483 371.306 218.903 371.097L218.904 371.098C219.316 370.894 219.493 370.512 219.579 370.18C219.663 369.856 219.688 369.471 219.715 369.15C219.744 368.805 219.777 368.499 219.857 368.233C219.916 368.039 219.994 367.886 220.102 367.767L220.219 367.659C220.287 367.606 220.328 367.592 220.349 367.585C220.378 367.577 220.408 367.574 220.494 367.569C220.572 367.565 220.705 367.559 220.854 367.518C221.01 367.475 221.166 367.401 221.33 367.282L221.329 367.281C222.105 366.719 222.229 365.761 222.318 365.124C222.368 364.765 222.404 364.492 222.478 364.273C222.547 364.069 222.623 363.992 222.702 363.953C222.751 363.93 222.758 363.928 222.886 363.954C223.055 363.988 223.347 364.048 223.705 363.859L223.705 363.858C224.062 363.67 224.248 363.369 224.346 363.066C224.438 362.784 224.467 362.463 224.493 362.197C224.55 361.616 224.61 361.136 224.942 360.746C225.174 360.476 225.377 360.43 225.71 360.359C226.078 360.28 226.57 360.176 227.029 359.632C227.575 358.987 227.665 358.207 227.724 357.678C227.756 357.387 227.776 357.2 227.818 357.061C227.828 357.029 227.84 357.007 227.848 356.993C227.866 357.001 227.894 357.012 227.935 357.033C228.041 357.087 228.317 357.248 228.665 357.189L228.817 357.15L228.817 357.149C229.299 356.979 229.473 356.513 229.553 356.182C229.637 355.83 229.669 355.392 229.705 355.015C229.744 354.612 229.789 354.247 229.886 353.944C229.982 353.646 230.108 353.471 230.265 353.378L230.264 353.376C230.355 353.323 230.392 353.327 230.536 353.339C230.615 353.346 230.752 353.359 230.906 353.337C231.03 353.319 231.153 353.282 231.279 353.219L231.405 353.146C231.8 352.894 231.997 352.523 232.102 352.157C232.202 351.807 232.23 351.415 232.256 351.085C232.315 350.349 232.384 349.857 232.75 349.552L232.75 349.553C232.835 349.483 232.891 349.46 232.927 349.449C232.95 349.442 232.973 349.438 233.003 349.434L233.308 349.41C233.38 349.402 233.462 349.389 233.548 349.366C233.726 349.318 233.908 349.234 234.101 349.094C234.96 348.472 235.11 347.412 235.209 346.68C235.265 346.273 235.303 345.96 235.381 345.712C235.437 345.534 235.496 345.453 235.548 345.411L235.599 345.381L235.599 345.38C235.679 345.346 235.75 345.354 236.012 345.431C236.204 345.489 236.618 345.629 237.031 345.39L237.114 345.337L237.115 345.335C237.59 344.995 237.562 344.445 237.556 344.141C237.55 343.821 237.536 343.491 237.627 343.098L237.672 342.925C237.7 342.832 237.725 342.754 237.911 342.473C238.107 342.177 238.459 341.692 239.128 340.789C239.405 340.418 239.651 340.087 239.862 339.803C240.086 339.93 240.332 340.07 240.6 340.218Z" fill="#244523" stroke="#FFF6F2" stroke-miterlimit="10"/>
<path d="M184.091 402.546C183.958 402.783 183.816 403.098 183.746 403.482L183.715 403.701C183.636 404.457 183.874 405.117 184.249 405.762L184.418 406.038L184.419 406.039C185.243 407.324 186.268 408.218 186.867 408.682L187.301 409.002L187.302 409.004C188.734 410.005 190.063 411.106 191.461 412.179L192.066 412.637L192.078 412.647C192.086 412.653 192.099 412.663 192.117 412.676C192.151 412.703 192.202 412.742 192.269 412.793C192.402 412.896 192.597 413.049 192.842 413.247C193.333 413.644 194.026 414.221 194.833 414.946C196.449 416.395 198.519 418.427 200.342 420.759L200.343 420.759C200.895 421.47 201.459 422.259 202.004 423.22L202.237 423.644C202.831 424.756 203.212 425.747 203.458 426.471L200.3 429.929C200.522 429.267 200.692 428.474 200.686 427.584L200.675 427.245L200.675 427.244L200.655 427.003C200.569 426.131 200.301 425.39 199.842 424.388L199.267 423.175C198.394 421.367 197.476 420.002 196.855 419.161L196.607 418.833C195.761 417.727 194.985 416.899 194.34 416.256L193.741 415.671C192.595 414.567 191.569 413.732 190.141 412.647L188.56 411.46C186.66 410.039 185.929 409.576 184.659 408.377L184.66 408.377C184.315 408.047 183.377 407.141 182.536 405.731L182.369 405.441C181.699 404.242 181.629 403.626 181.642 403.297L181.651 403.173L181.651 403.171L181.675 402.993C181.801 402.254 182.224 401.703 182.524 401.391L184.091 402.546Z" fill="#244523" stroke="#FFF6F2" stroke-width="0.5" stroke-miterlimit="10"/>
<path d="M179.006 382.442C179.247 382.356 179.566 382.418 179.93 382.607C180.105 382.697 180.265 382.804 180.398 382.903L180.707 383.149L180.713 383.155C180.971 383.368 181.743 384.1 181.895 385.127L181.917 385.337L181.917 385.338C181.949 385.846 181.809 386.158 181.529 386.596C181.275 386.991 180.897 387.497 180.529 388.257L180.373 388.598L180.372 388.6C179.684 390.204 179.644 391.544 179.58 393.704L179.579 393.705C179.521 395.57 179.48 396.822 179.998 398.238L180.109 398.523L180.109 398.524C180.612 399.735 181.33 400.608 181.91 401.184C181.817 401.361 181.699 401.585 181.581 401.808L181.06 402.793L180.993 402.927L180.919 403.072L180.945 403.232C181.046 403.858 181.251 404.777 181.736 405.784L181.736 405.785C182.304 406.971 183.051 407.863 184.18 408.928L184.18 408.927C185.162 409.86 185.851 410.373 186.923 411.161L188.148 412.067C190.488 413.815 191.762 414.78 193.257 416.218L193.257 416.217C193.889 416.829 194.717 417.628 195.645 418.778L196.048 419.293L196.049 419.295C196.561 419.962 197.412 421.146 198.263 422.778L198.627 423.506C199.454 425.22 199.844 426.042 199.946 427.083L199.963 427.295C199.996 427.844 200.056 429.307 199.247 430.682L199.074 430.956L199.073 430.956C198.781 431.385 198.476 431.684 198.132 431.969L197.776 432.255C196.193 433.493 194.804 434.438 193.901 435.038L193.171 435.521L193.17 435.522C193.068 435.59 192.455 436.043 191.311 436.89L186.276 440.629C186.275 440.629 186.274 440.631 186.273 440.632C186.269 440.634 186.263 440.638 186.255 440.644C186.238 440.656 186.213 440.674 186.177 440.699C186.104 440.748 185.991 440.824 185.834 440.924C185.599 441.074 185.265 441.279 184.821 441.534L184.34 441.805C183.707 442.155 183.318 442.335 183.081 442.426C183.1 442.296 183.139 442.133 183.198 441.945C183.333 441.508 183.544 441.02 183.716 440.65C184.334 440.302 185.167 439.792 186.084 439.106L186.083 439.105C186.765 438.598 187.82 437.75 189.783 435.585L190.681 434.573C192.256 432.772 193.161 431.731 194.008 430.505L194.369 429.964C195.856 427.662 196.771 426.279 196.759 424.556L196.744 424.207C196.533 421.506 194.419 419.796 194.025 419.492L194.024 419.492C192.664 418.432 191.255 418.134 190.585 418.036L190.348 418.005C189.596 417.914 189.121 417.976 188.605 418.08C188.234 418.155 187.857 418.247 187.314 418.322L186.709 418.391C185.86 418.468 183.995 418.616 181.914 418.017L181.494 417.888L181.493 417.887C180.769 417.648 179.447 417.193 178.182 416.097L177.93 415.868C177.658 415.607 176.444 414.427 175.534 411.683L175.356 411.111L175.265 410.785C174.885 409.373 174.725 407.89 174.799 404.164L174.85 402.276L174.849 402.275L174.925 399.958C174.983 398.251 175.039 397.038 175.139 395.838L175.203 395.115L175.258 394.622C175.488 392.799 176.036 390.746 177.002 387.572L178.226 383.62C178.291 383.415 178.379 383.149 178.518 382.909C178.642 382.697 178.781 382.549 178.936 382.472L179.005 382.443L179.006 382.442Z" fill="#244523" stroke="#FFF6F2" stroke-miterlimit="10"/>
<path d="M186.329 420.152C186.265 420.635 186.201 421.118 186.162 421.415C185.837 422.152 185.448 423.221 185.237 424.556L185.158 425.151C185.068 425.967 185.108 426.751 185.222 427.928L185.358 429.253C185.648 431.98 186.012 433.295 186.783 434.126L186.943 434.286C187.267 434.589 187.567 434.743 187.798 434.827L187.798 434.826C188.402 435.049 188.995 434.992 189.472 434.861C188.57 435.937 187.427 437.111 185.986 438.23L185.622 438.507C184.89 439.05 184.176 439.51 183.496 439.904C183.313 438.819 183.369 437.953 183.484 437.312L183.541 437.025L183.605 436.763C183.761 436.177 183.96 435.742 184.133 435.272C184.331 434.735 184.48 434.185 184.433 433.408L184.434 433.408C184.369 432.263 183.927 431.506 183.82 431.335L183.819 431.334C183.339 430.549 182.703 430.093 182.277 429.85C182.439 429.586 182.631 429.265 182.834 428.894L183.105 428.381C183.831 426.952 184.256 426.138 184.332 425.15L184.342 424.95C184.373 424.104 184.153 423.422 183.831 422.695L183.48 421.946L183.479 421.946C183.353 421.686 182.922 420.802 182.02 419.686L181.605 419.194C181.417 418.98 181.199 418.744 180.948 418.493L181.247 418.602C183.4 419.343 185.302 419.3 186.456 419.177C186.42 419.455 186.374 419.804 186.329 420.152Z" fill="#244523" stroke="#FFF6F2" stroke-width="0.5" stroke-miterlimit="10"/>
<path d="M211.4 396.501C212.022 397.261 212.679 398.149 213.324 399.174L213.657 399.718L213.657 399.719C214.412 400.978 214.98 402.176 215.419 403.239L209.887 409.015C209.349 408.339 208.781 407.549 208.226 406.636L207.936 406.147C207.249 404.951 206.747 403.827 206.37 402.838L211.4 396.501Z" fill="#FFF6F2" stroke="#FFF6F2" stroke-miterlimit="10"/>
<path d="M223.624 379.012C224.222 379.524 224.932 380.241 225.585 381.205L225.745 381.45L225.746 381.451C226.344 382.382 226.716 383.268 226.951 383.981C225.948 386.138 224.62 388.6 222.857 391.188L222.49 391.721C220.991 393.862 219.471 395.687 218.044 397.221C217.613 396.351 217.141 395.45 216.613 394.525L216.614 394.525C216.055 393.542 215.49 392.618 214.935 391.755C215.612 390.737 216.294 389.718 216.983 388.697L219.253 385.353L219.254 385.353C220.71 383.214 222.169 381.1 223.624 379.012Z" fill="#FFF6F2" stroke="#FFF6F2" stroke-miterlimit="10"/>
<path d="M230.918 368.424C231.513 368.69 232.339 369.163 233.114 369.984L233.114 369.983C233.85 370.767 234.251 371.575 234.474 372.137C233.938 373.619 233.08 375.485 231.66 377.383L231.358 377.777C230.836 378.44 230.303 379.025 229.785 379.54C229.562 378.829 229.272 378.052 228.895 377.233L228.659 376.74L228.658 376.74C228.252 375.922 227.821 375.206 227.402 374.582L230.918 368.424Z" fill="#FFF6F2" stroke="#FFF6F2" stroke-miterlimit="10"/>
<path d="M250.549 349.593C249.188 351.731 247.938 353.635 246.841 355.27L245.727 356.917C242.972 360.956 241.637 362.672 240.39 364.038L239.856 364.608L239.856 364.609C238.629 365.896 237.484 366.923 236.567 367.695C236.422 367.251 236.23 366.758 235.969 366.24L235.778 365.879L235.777 365.878C235.436 365.263 235.067 364.747 234.725 364.328C235.831 361.191 237.19 358.961 238.244 357.488L238.244 357.486C239.066 356.34 239.812 355.5 240.611 354.546C241.409 353.594 242.241 352.551 243.202 351.033C244.216 349.438 244.932 348.005 245.415 346.947L250.549 349.593Z" fill="#FFF6F2" stroke="#FFF6F2" stroke-miterlimit="10"/>
<path d="M326.143 121.986C327.491 122.489 328.17 122.724 328.481 122.837C329.774 123.32 331.317 124.225 332.591 125.053C333.225 125.465 333.784 125.853 334.202 126.15L334.964 126.708L334.968 126.711C339.096 129.823 341.191 131.415 342.619 133.578L342.896 134.018L342.897 134.02C343.146 134.435 343.906 135.742 344.932 139.988L345.14 140.876L345.14 140.877C345.807 143.79 346.552 147.877 346.913 152.922L325.108 153.912C324.608 151.272 323.974 148.922 323.309 146.888L323.008 145.992C321.743 142.339 321.05 140.322 319.569 138.27L319.263 137.859C317.11 135.058 315.539 132.997 313.049 131.74L313.05 131.74C312.509 131.466 311.333 130.911 310.746 129.785L310.638 129.552L310.637 129.552C310.541 129.324 310.378 128.844 310.405 128.259L310.429 128.001C310.551 127.159 311.054 126.547 311.762 125.883L312.077 125.594L312.079 125.593C315.053 122.899 316.437 121.658 318.408 121.097L318.408 121.096C319.033 120.919 320.069 120.632 321.39 120.703L321.658 120.721C322.295 120.777 322.865 120.906 323.352 121.035L323.811 121.162L323.814 121.163C324.145 121.255 324.393 121.336 324.725 121.456L326.143 121.986Z" fill="#244523" stroke="#FFF6F2" stroke-miterlimit="10"/>
<path d="M325.896 122.132C326.867 122.172 328.934 122.569 333.842 125.91L334.975 126.697C337.323 128.366 339.054 129.596 340.33 130.715C341.519 131.756 342.283 132.676 342.767 133.722L342.859 133.933C343.106 134.522 343.276 135.259 343.428 136.33C343.504 136.865 343.574 137.476 343.647 138.184L343.883 140.626C344.064 142.559 344.13 144.26 344.17 146.137L344.205 148.087C344.238 150.071 344.226 151.754 344.211 153.02L330.308 153.656L330.23 153.185C330.126 152.582 329.899 151.426 329.438 149.953L329.225 149.302L329.225 149.3L329.044 148.797C328.856 148.286 328.562 147.54 328.096 146.505L327.795 145.849L327.795 145.848L327.286 144.794C326.794 143.802 326.129 142.535 325.262 141.054L324.718 140.14C323.978 138.923 322.971 137.281 321.491 135.301L320.828 134.432C319.72 133.013 318.874 131.928 318.17 131.142C317.558 130.458 317.017 129.958 316.461 129.655L316.221 129.537C315.766 129.337 315.32 129.192 314.892 128.949C314.532 128.744 314.287 128.522 314.167 128.255L314.123 128.137L314.123 128.135L314.087 127.972C314.045 127.694 314.092 127.399 314.143 127.185L314.2 126.974L314.2 126.972L314.257 126.8C314.383 126.464 314.576 126.166 314.841 125.859L314.98 125.705L314.981 125.704C315.526 125.117 316.324 124.492 317.97 123.79L317.969 123.789C318.887 123.398 320.05 122.986 321.577 122.653L321.578 122.655C323.252 122.293 324.81 122.145 325.626 122.136L325.896 122.132Z" fill="#244523" stroke="#FFF6F2" stroke-miterlimit="10"/>
</g>
<g filter="url(#filter1_d_380_6045)">
<path d="M233.342 140.036C229.987 139.879 227.412 140.851 225.864 141.552L225.265 141.832C223.744 142.556 220.981 143.913 218.827 146.891L218.62 147.183C216.901 149.695 216.419 152.139 216.126 154.315L216.009 155.231C215.519 159.161 216.06 162.631 216.83 165.319L219.003 165.003C218.387 162.533 217.997 159.378 218.529 155.831L218.528 155.831C218.823 153.85 219.19 151.528 220.796 149.018L220.795 149.018C221.292 148.236 223.091 145.581 226.611 143.801L226.61 143.801C227.721 143.237 230.091 142.068 233.328 142.169L233.644 142.183L233.645 142.182C237.029 142.374 239.445 143.864 240.613 144.7L241.036 145.012C241.915 145.673 244.075 147.471 245.453 150.567L245.584 150.871C246.858 153.938 246.726 156.746 246.53 158.504L246.445 159.191C246.154 161.402 245.567 162.8 245.009 164.251C244.489 165.602 243.988 167.014 243.751 169.219L243.707 169.67C243.568 171.278 243.623 172.655 243.669 173.424L243.669 173.425C243.745 174.591 243.85 176.086 244.349 177.764L244.453 178.102L244.453 178.103C244.869 179.391 245.396 180.367 245.801 181.041L246.157 181.614C247.427 183.629 249.214 186.736 251.874 191.91L254.256 190.536C253.289 188.878 252.321 187.22 251.354 185.563C250.349 183.838 249.344 182.113 248.338 180.387C247.88 179.784 247.295 178.902 246.831 177.748L246.64 177.235L246.639 177.234L246.485 176.747C245.878 174.656 246.035 172.756 246.388 170.652L246.562 169.666C247.282 165.737 247.818 163.811 248.19 162.464C248.513 161.295 248.709 160.579 248.797 159.357L248.828 158.8C248.886 157.3 248.98 154.066 247.467 150.385L247.316 150.028L247.315 150.027C246.743 148.714 245.462 145.885 242.469 143.489L242.174 143.259C241.123 142.462 238.126 140.388 233.768 140.063L233.342 140.036Z" fill="#FF6726" stroke="#FFF6F2" stroke-width="0.5" stroke-linejoin="round"/>
<path d="M313.508 158.882C310.512 159.921 306.246 161.46 301.166 163.46C291.321 167.334 278.429 172.933 265.814 179.965L264.593 180.65C262.702 181.72 255.624 185.823 249.918 193.861L249.918 193.862C248.118 196.399 246.263 199.595 245.106 202.348C244.527 203.728 244.134 204.971 244.001 205.949C243.88 206.843 243.994 207.371 244.209 207.642L244.308 207.744C244.518 207.919 244.816 208.015 245.389 207.907C245.981 207.796 246.793 207.478 247.943 206.899C249.664 206.032 252.04 204.633 255.407 202.637L259.116 200.439C264.891 197.021 270.633 193.501 276.543 190.274L277.728 189.633C294.69 180.535 319.97 170.094 328.493 167.007L329.264 166.731C367.745 153.22 401.974 149.122 423.487 147.802L425.529 147.682C444.93 146.604 462.223 147.26 476.787 148.575C455.094 142.113 436.271 140.001 422.577 139.388C422.552 139.387 422.528 139.384 422.504 139.379C399.549 138.357 381.708 141.126 370.327 143.125L368.135 143.513C356.731 145.547 345.915 148.72 326.901 154.61L318.224 157.306C318.224 157.306 318.222 157.307 318.221 157.307C318.218 157.308 318.212 157.309 318.206 157.312C318.193 157.316 318.173 157.322 318.147 157.33C318.094 157.346 318.015 157.372 317.911 157.405C317.704 157.472 317.395 157.571 316.992 157.703C316.187 157.968 315.006 158.362 313.508 158.882Z" fill="#FF6726" stroke="#FFF6F2" stroke-linejoin="round"/>
<path d="M239.06 213.909C237.898 225.976 237.789 236.352 238.041 244.504L238.096 246.126C238.503 256.983 239.545 264.807 240.412 269.966L240.771 272.015L240.771 272.016C242.29 280.385 243.815 285.085 244.575 287.199L244.852 287.949C245.613 289.965 245.757 290.079 250.282 298.835L252.505 303.148C257.699 313.253 259.378 316.703 261.882 320.485L262.394 321.249L262.396 321.25L266.969 327.89L266.97 327.891L270.848 333.519L270.848 333.52C273.214 336.958 274.9 339.405 275.994 340.994C276.541 341.788 276.94 342.367 277.202 342.748C277.333 342.939 277.43 343.08 277.494 343.173C277.526 343.22 277.551 343.255 277.566 343.278C277.574 343.289 277.58 343.298 277.584 343.303C277.586 343.306 277.587 343.308 277.588 343.309L277.59 343.311L277.59 343.312C283.284 351.566 291.049 361.528 304.434 379.165C306.37 381.713 309.478 385.813 313.351 390.951L331.257 378.089C321.659 365.874 313.509 355.191 307.004 346.53L304.288 342.904C297.114 333.301 291.433 325.502 285.1 315.68L283.824 313.688C276.956 302.891 273.818 296.801 272.095 293.142L271.436 291.717C266.831 281.574 264.439 273.12 263.386 268.98L263.015 267.477L263.014 267.476L262.659 265.949C261.814 262.207 260.531 255.701 259.865 247.544L259.723 245.632C259.196 237.796 259.465 231.383 259.749 226.705L259.868 224.807C260.125 220.845 260.478 217.464 260.785 214.895L239.06 213.909Z" fill="#244523" stroke="#FFF6F2" stroke-miterlimit="10"/>
<path d="M266.507 328.529C266.423 328.595 266.33 328.669 266.236 328.754L266.054 328.926L266.053 328.927C265.582 329.388 265.139 329.833 265.018 330.367L265.018 330.368C264.936 330.74 265.029 331.056 265.278 331.556L265.579 332.126C266.147 333.17 266.541 333.885 267.311 334.209L267.47 334.269L267.472 334.27C268.328 334.561 269.148 334.254 269.363 334.176C269.677 334.057 269.925 333.899 270.109 333.757C268.905 332.016 267.706 330.272 266.507 328.529Z" fill="#244523" stroke="#FFF6F2" stroke-width="0.5" stroke-miterlimit="10"/>
<path d="M339.903 357.856C339.669 357.898 339.468 358.045 339.306 358.227C339.158 358.393 339.072 358.554 339.045 358.605C338.868 358.973 338.856 359.388 338.927 359.805C338.998 360.226 339.145 360.599 339.249 360.885L339.25 360.886C340.378 364.02 339.658 367.389 339.354 368.552L339.257 368.909L339.257 368.91C338.861 370.295 337.914 371.567 336.182 373.913L336.182 373.912C334.711 375.913 333.337 377.47 332.334 378.541L332.252 378.628L332.199 378.647C329.097 380.875 325.995 383.104 322.892 385.333C319.771 387.576 316.65 389.819 313.529 392.059L313.446 392.119L313.345 392.141C313.198 392.173 312.672 392.3 312.296 392.769L312.224 392.867C312.19 392.917 312.113 393.032 312.044 393.187C311.99 393.311 311.95 393.442 311.938 393.569L311.936 393.694C311.95 393.917 312.068 394.094 312.436 394.371C312.624 394.512 312.831 394.647 313.093 394.829C313.282 394.96 313.485 395.107 313.695 395.278L313.906 395.457C314.809 396.252 315.287 397.1 315.754 397.934C316.162 398.663 316.568 399.396 317.255 400.173L317.567 400.508L317.57 400.512C317.679 400.626 317.821 400.762 317.981 400.864C318.103 400.941 318.21 400.981 318.3 400.991L318.386 400.989C318.478 400.978 318.573 400.93 318.675 400.839C318.728 400.791 318.775 400.74 318.818 400.688L318.942 400.529C319.266 400.107 319.513 399.928 319.919 399.672C320.204 399.492 320.585 399.262 321.179 398.849L321.85 398.371C323.107 397.448 325.298 395.715 327.661 393.732L328.682 392.869C330.581 391.25 331.657 390.257 332.416 389.63C333.112 389.055 333.605 388.73 334.303 388.426L334.615 388.296L334.616 388.296C335.484 387.954 336.382 387.626 337.062 387.385C337.402 387.265 337.689 387.165 337.89 387.096C337.99 387.062 338.069 387.035 338.124 387.016C338.151 387.007 338.173 387 338.187 386.995L338.209 386.987L338.21 386.988C339.294 386.627 339.984 386.423 340.516 386.202C341.018 385.993 341.332 385.786 341.637 385.443L341.638 385.443C342.322 384.675 342.503 383.734 342.56 383.273L342.578 383.107C342.669 382.12 342.392 381.477 342.076 380.742C341.775 380.039 341.441 379.256 341.534 378.138L341.558 377.91L341.559 377.906L341.585 377.742C341.615 377.595 341.658 377.485 341.741 377.281C341.792 377.154 341.864 376.98 341.967 376.719L342.385 375.632C343.112 373.685 343.526 372.571 343.759 371.651L343.848 371.267L343.849 371.267C343.947 370.804 343.965 370.253 343.913 369.464C343.887 369.069 343.843 368.623 343.786 368.108L343.576 366.336C342.899 360.853 342.224 359.398 341.278 358.519L341.279 358.517C341.112 358.365 340.894 358.172 340.639 358.027C340.414 357.899 340.196 357.833 339.991 357.846L339.903 357.856Z" fill="#244523" stroke="#FFF6F2" stroke-miterlimit="10"/>
<path d="M338.245 388.01C336.785 388.425 335.686 388.895 335.014 389.206L335.014 389.207C332.632 390.319 331.037 391.601 329.264 393.212C327.491 394.824 325.527 396.779 322.455 399.16L322.455 399.161C321.462 399.933 320.604 400.547 320.016 400.961C320.265 401.335 320.575 401.746 320.96 402.159L321.194 402.399C321.553 402.756 321.906 403.046 322.232 403.289C322.589 403.375 323.094 403.443 323.648 403.329L323.909 403.262C324.324 403.134 324.7 402.92 325.417 402.235L325.747 401.911L325.748 401.91L326.127 401.521C326.47 401.16 326.712 400.874 326.921 400.618C327.128 400.365 327.316 400.123 327.54 399.864L327.778 399.597L327.78 399.596L327.929 399.443C328.493 398.886 329.232 398.384 330.343 397.705L331.711 396.881C332.802 396.229 333.603 395.751 334.518 395.259L335.487 394.756L335.488 394.755C336.565 394.216 337.06 394.017 337.643 393.602L337.902 393.409L338.228 393.139C338.905 392.545 339.371 391.916 339.687 391.423C339.702 391.134 339.691 390.783 339.615 390.393L339.573 390.2C339.309 389.122 338.662 388.395 338.245 388.01Z" fill="#244523" stroke="#FFF6F2" stroke-miterlimit="10"/>
<path d="M340.397 392.166C339.991 392.768 339.389 393.52 338.515 394.202L338.515 394.203C337.701 394.842 337.09 395.075 335.933 395.655L335.933 395.655C334.923 396.163 334.159 396.597 333.226 397.148L332.221 397.746C330.122 399.001 329.163 399.586 328.507 400.286L328.506 400.285C328.197 400.619 327.99 400.894 327.692 401.258C327.397 401.62 327.036 402.038 326.453 402.622L326.453 402.623C325.601 403.48 325.062 403.895 324.462 404.133L324.201 404.224L324.2 404.224C323.696 404.38 323.217 404.411 322.804 404.387C322.865 404.546 322.931 404.718 322.998 404.902C323.231 405.542 323.354 405.969 323.45 406.277C323.545 406.583 323.611 406.758 323.734 406.956L323.31 407.221L323.735 406.956L323.736 406.959C323.923 407.262 324.28 407.678 325.037 408.039C325.505 407.801 326.098 407.501 326.785 407.166L326.784 407.166C329.126 406.018 331.111 405.159 332.345 404.643L333.315 404.244L333.316 404.243C335.236 403.469 336.456 403.107 337.516 402.781C338.566 402.458 339.453 402.172 340.743 401.543L340.742 401.544C341.383 401.229 342.08 400.873 342.617 400.595C342.886 400.456 343.114 400.337 343.275 400.253C343.356 400.211 343.42 400.177 343.463 400.154C343.484 400.143 343.501 400.134 343.512 400.128C343.517 400.125 343.522 400.123 343.525 400.121C343.526 400.121 343.528 400.12 343.528 400.12L343.528 400.119C344.318 399.701 345.005 399.318 345.562 399.006C344.829 398.116 344.071 397.136 343.319 396.052L342.939 395.497C342.205 394.405 341.567 393.343 341.008 392.34C340.804 392.281 340.601 392.224 340.397 392.166Z" fill="#244523" stroke="#FFF6F2" stroke-miterlimit="10"/>
<path d="M345.447 400.218L343.99 401.005L343.99 401.007C343.989 401.007 343.987 401.007 343.986 401.008C343.983 401.009 343.979 401.012 343.973 401.015C343.961 401.021 343.944 401.03 343.922 401.041C343.878 401.065 343.814 401.098 343.734 401.14C343.572 401.225 343.342 401.345 343.073 401.485C342.803 401.624 342.493 401.784 342.168 401.949L341.176 402.444L341.175 402.445C339.817 403.107 338.873 403.411 337.804 403.74C336.747 404.065 335.561 404.415 333.685 405.172L333.686 405.173C332.888 405.497 330.903 406.313 328.347 407.524L327.217 408.067C326.566 408.385 326 408.672 325.543 408.904C325.558 409.18 325.613 409.485 325.767 409.756L325.869 409.91L325.869 409.911C326.196 410.341 326.687 410.477 327.342 410.626C327.645 410.695 328.003 410.772 328.319 410.91C328.61 411.036 328.893 411.224 329.105 411.526L329.191 411.662C329.539 412.278 329.345 412.846 329.235 413.198C329.116 413.583 329.073 413.77 329.188 413.998C329.278 414.174 329.433 414.307 329.678 414.42C329.934 414.538 330.241 414.614 330.601 414.701C330.938 414.781 331.337 414.873 331.677 415.031C331.986 415.175 332.292 415.393 332.481 415.748L332.555 415.908L332.555 415.909C332.755 416.43 332.575 416.858 332.488 417.098C332.421 417.283 332.391 417.389 332.409 417.499L332.443 417.613C332.547 417.86 332.761 417.973 333.213 418.165C333.575 418.318 334.153 418.542 334.445 419.135L334.499 419.257C334.706 419.785 334.554 420.203 334.463 420.463C334.371 420.727 334.356 420.805 334.407 420.928C334.451 421.033 334.532 421.117 334.686 421.198C334.854 421.287 335.065 421.35 335.341 421.428C335.595 421.5 335.912 421.588 336.192 421.733C336.485 421.884 336.773 422.115 336.943 422.492C337.198 423.053 337.014 423.562 336.921 423.854C336.84 424.108 336.816 424.225 336.837 424.315L336.871 424.399L336.873 424.399C336.94 424.514 337.037 424.56 337.453 424.637C337.812 424.704 338.388 424.797 338.825 425.308C339.284 425.84 339.231 426.407 339.2 426.797C339.172 427.148 339.156 427.397 339.277 427.664L339.338 427.78C339.542 428.124 339.82 428.226 340.295 428.376C340.728 428.513 341.319 428.689 341.77 429.281L341.858 429.405C342.268 430.021 342.226 430.564 342.2 430.981C342.175 431.374 342.161 431.67 342.39 432.068C342.628 432.476 342.903 432.608 343.29 432.783C343.673 432.956 344.165 433.169 344.559 433.757L344.637 433.88C345.08 434.62 345.029 435.315 345.003 435.809C344.974 436.33 344.988 436.546 345.196 436.751C345.384 436.935 345.588 436.974 345.951 437.038C346.292 437.098 346.809 437.189 347.169 437.715C347.485 438.172 347.428 438.595 347.388 438.878C347.354 439.118 347.334 439.257 347.391 439.422L347.421 439.494L347.421 439.495C347.584 439.853 347.955 440.023 348.547 440.239C348.808 440.334 349.131 440.447 349.399 440.608C349.68 440.778 349.957 441.035 350.065 441.443L350.065 441.444C350.197 441.936 349.982 442.283 349.872 442.471C349.789 442.612 349.758 442.673 349.756 442.735L349.761 442.799L349.762 442.8C349.783 442.914 349.862 443.038 350.069 443.188C350.282 443.342 350.563 443.475 350.899 443.63C351.212 443.774 351.584 443.943 351.882 444.157C352.148 444.348 352.414 444.617 352.52 444.998L352.555 445.169C352.612 445.598 352.43 445.922 352.355 446.078C352.296 446.202 352.28 446.253 352.285 446.301L352.297 446.35C352.321 446.426 352.356 446.474 352.545 446.569C352.697 446.646 352.993 446.765 353.271 446.98L353.389 447.078C353.8 447.448 353.984 447.91 354.063 448.365C354.14 448.807 354.124 449.277 354.11 449.68C354.094 450.107 354.082 450.463 354.132 450.771C354.173 451.027 354.253 451.211 354.385 451.348L354.446 451.405L354.447 451.406C354.625 451.557 354.798 451.582 355.091 451.625C355.364 451.664 355.839 451.727 356.136 452.219C356.331 452.538 356.354 452.876 356.32 453.167C356.288 453.449 356.197 453.726 356.126 453.944C356.047 454.184 355.992 454.35 355.973 454.489C355.965 454.549 355.968 454.584 355.971 454.602C356.007 454.606 356.062 454.607 356.186 454.598C356.389 454.585 356.753 454.551 357.125 454.737L357.285 454.831C357.653 455.083 357.816 455.448 357.89 455.793C357.961 456.122 357.962 456.489 357.966 456.791C357.971 457.116 357.978 457.39 358.03 457.629C358.068 457.799 358.124 457.931 358.205 458.035L358.296 458.131C358.435 458.251 358.537 458.258 358.798 458.261C359.042 458.263 359.406 458.263 359.783 458.52L359.945 458.647C360.584 459.208 360.564 460.023 360.571 460.552C360.58 461.167 360.609 461.553 360.903 461.85C361.06 462.006 361.17 462.026 361.409 462.06C361.691 462.1 362.086 462.155 362.511 462.543C363.168 463.14 363.216 463.899 363.258 464.441C363.297 464.955 363.332 465.286 363.545 465.55L363.647 465.658L363.647 465.659C363.865 465.862 364.064 465.891 364.407 465.939C364.717 465.983 365.131 466.045 365.517 466.395L365.68 466.561C366.08 467.024 366.103 467.481 366.121 467.83C366.135 468.118 366.145 468.352 366.281 468.634L366.348 468.758L366.349 468.76C366.534 469.078 366.71 469.172 366.996 469.309C367.322 469.466 367.755 469.661 368.219 470.212C368.759 470.848 368.88 471.41 368.98 471.85C369.072 472.26 369.139 472.518 369.458 472.81C369.756 473.081 369.996 473.128 370.316 473.19C370.67 473.259 371.13 473.347 371.567 473.838C372.094 474.428 372.139 475.096 372.177 475.552C372.214 475.994 372.248 476.188 372.378 476.319L372.44 476.373L372.441 476.374C372.579 476.477 372.693 476.478 373.002 476.448C373.3 476.419 373.782 476.361 374.271 476.712C374.895 477.159 374.974 477.872 375.039 478.31C375.106 478.761 375.162 479.01 375.332 479.176L375.412 479.242C375.55 479.339 375.648 479.342 375.901 479.34C376.172 479.337 376.571 479.336 377 479.66C377.422 479.98 377.567 480.378 377.664 480.744C377.763 481.113 377.816 481.435 378.005 481.852C378.084 482.021 378.245 482.367 379.533 483.579C380.153 484.16 380.989 484.9 382.045 485.716C382.274 485.095 382.559 484.417 382.917 483.708L383.135 483.288C383.685 482.254 384.271 481.376 384.821 480.653L384.806 480.64L385.094 480.282C386.127 478.992 387.34 477.613 388.753 476.201L389.371 475.595C390.798 474.217 392.191 473.035 393.5 472.024L393.501 472.023C395.072 470.784 396.365 469.8 397.37 469.051L398.279 468.378L398.283 468.376L398.779 468.003C399.332 467.566 400.11 466.867 400.788 465.891L400.971 465.618L400.97 465.617C401.352 465.021 401.566 464.517 401.571 463.989L401.56 463.761L401.56 463.76L401.537 463.6C401.502 463.408 401.44 463.237 401.372 463.088C401.303 463.112 401.232 463.138 401.157 463.164L400.356 463.461L400.354 463.462C399.322 463.857 398.764 464.11 398.354 464.28C397.937 464.454 397.656 464.548 397.239 464.574L397.24 464.573C396.843 464.598 396.424 464.484 395.954 464.302C395.717 464.209 395.449 464.094 395.148 463.955L394.132 463.475C393.255 463.054 392.577 462.73 392.074 462.453C391.644 462.215 391.29 461.986 391.043 461.717L390.943 461.6C390.324 460.798 390.158 459.913 390.038 459.287C389.974 458.954 389.93 458.732 389.864 458.573C389.809 458.44 389.771 458.432 389.756 458.428C389.715 458.416 389.682 458.413 389.446 458.529C389.263 458.619 388.856 458.838 388.381 458.631L388.382 458.63C388.051 458.486 387.879 458.221 387.785 457.972C387.699 457.743 387.659 457.474 387.625 457.268C387.548 456.805 387.469 456.453 387.192 456.188L387.193 456.187C387.007 456.01 386.862 455.991 386.596 455.968C386.301 455.942 385.861 455.917 385.409 455.527L385.408 455.528C384.719 454.934 384.669 454.067 384.626 453.49C384.602 453.168 384.584 452.926 384.528 452.726C384.476 452.544 384.405 452.444 384.301 452.376L384.301 452.375C384.194 452.306 384.119 452.308 383.87 452.352C383.653 452.39 383.299 452.463 382.901 452.294L382.727 452.205L382.726 452.204C382.298 451.946 382.086 451.532 381.97 451.138C381.857 450.751 381.819 450.317 381.788 449.948C381.756 449.554 381.73 449.236 381.663 448.984C381.597 448.737 381.52 448.669 381.468 448.644C381.433 448.628 381.42 448.617 381.201 448.697C381.003 448.768 380.615 448.922 380.158 448.709L380.159 448.708C379.73 448.511 379.514 448.129 379.393 447.78C379.273 447.434 379.215 447.033 379.166 446.696C379.114 446.332 379.069 446.035 378.988 445.801C378.909 445.571 378.829 445.504 378.773 445.48L378.773 445.478C378.746 445.466 378.741 445.456 378.568 445.522C378.421 445.578 378.134 445.697 377.779 445.605L377.623 445.552L377.623 445.552C377.192 445.369 376.993 444.993 376.889 444.656C376.789 444.331 376.747 443.94 376.705 443.609C376.618 442.92 376.51 442.371 376.139 442.014L376.06 441.945C375.958 441.862 375.883 441.828 375.827 441.81C375.764 441.789 375.703 441.781 375.589 441.767C375.483 441.755 375.324 441.737 375.15 441.677C375.014 441.63 374.879 441.561 374.742 441.463L374.603 441.354C373.914 440.768 373.819 439.977 373.741 439.412C373.667 438.869 373.607 438.527 373.375 438.277L373.266 438.176L373.262 438.172C373.079 438.024 372.956 438.017 372.721 438.007C372.478 437.997 372.139 437.986 371.774 437.73L371.617 437.604L371.616 437.603C370.978 437.03 370.928 436.197 370.883 435.657C370.859 435.352 370.839 435.129 370.787 434.948C370.751 434.826 370.708 434.753 370.656 434.704L370.601 434.663L370.598 434.662C370.543 434.628 370.53 434.624 370.391 434.646C370.241 434.67 369.98 434.719 369.665 434.596L369.527 434.533L369.523 434.531C369.092 434.297 368.883 433.89 368.772 433.512C368.662 433.139 368.625 432.715 368.593 432.354C368.56 431.968 368.533 431.653 368.466 431.403C368.4 431.155 368.325 431.09 368.281 431.068C368.268 431.061 368.277 431.044 368.094 431.108C367.924 431.167 367.564 431.306 367.143 431.097L367.143 431.098C366.73 430.894 366.554 430.512 366.468 430.18C366.384 429.856 366.359 429.471 366.332 429.15C366.303 428.805 366.27 428.499 366.189 428.233C366.13 428.039 366.052 427.886 365.945 427.767L365.827 427.659C365.759 427.606 365.719 427.592 365.697 427.585C365.668 427.577 365.639 427.574 365.553 427.569C365.474 427.565 365.342 427.559 365.192 427.518C365.036 427.475 364.88 427.401 364.717 427.282L364.717 427.281C363.941 426.719 363.817 425.761 363.728 425.124C363.679 424.765 363.642 424.492 363.568 424.273C363.5 424.069 363.424 423.992 363.344 423.953C363.295 423.93 363.289 423.928 363.16 423.954C362.992 423.988 362.7 424.048 362.341 423.859L362.342 423.858C361.984 423.67 361.799 423.369 361.7 423.066C361.609 422.784 361.579 422.463 361.553 422.197C361.496 421.616 361.437 421.136 361.104 420.746C360.873 420.476 360.67 420.43 360.337 420.359C359.969 420.28 359.476 420.176 359.017 419.632C358.472 418.987 358.382 418.207 358.323 417.678C358.29 417.387 358.27 417.2 358.228 417.061C358.218 417.029 358.206 417.007 358.199 416.993C358.181 417.001 358.153 417.012 358.112 417.033C358.005 417.087 357.729 417.248 357.382 417.189L357.229 417.15L357.229 417.149C356.748 416.979 356.573 416.513 356.494 416.182C356.409 415.83 356.378 415.392 356.341 415.015C356.302 414.612 356.257 414.247 356.16 413.944C356.065 413.646 355.939 413.471 355.782 413.378L355.782 413.376C355.691 413.323 355.654 413.327 355.511 413.339C355.431 413.346 355.294 413.359 355.14 413.337C355.017 413.319 354.893 413.282 354.768 413.219L354.641 413.146C354.246 412.894 354.049 412.523 353.945 412.157C353.845 411.807 353.817 411.415 353.79 411.085C353.731 410.349 353.663 409.857 353.297 409.552L353.296 409.553C353.212 409.483 353.156 409.46 353.119 409.449C353.096 409.442 353.074 409.438 353.043 409.434L352.738 409.41C352.666 409.402 352.585 409.389 352.499 409.366C352.32 409.318 352.138 409.234 351.946 409.094C351.086 408.472 350.937 407.412 350.837 406.68C350.782 406.273 350.744 405.96 350.666 405.712C350.61 405.534 350.551 405.453 350.498 405.411L350.447 405.381L350.447 405.38C350.367 405.346 350.296 405.354 350.035 405.431C349.842 405.489 349.428 405.629 349.016 405.39L348.933 405.337L348.931 405.335C348.457 404.995 348.484 404.445 348.49 404.141C348.496 403.821 348.51 403.491 348.419 403.098L348.374 402.925C348.346 402.832 348.322 402.754 348.136 402.473C347.94 402.177 347.588 401.692 346.918 400.789C346.641 400.418 346.396 400.087 346.184 399.803C345.961 399.93 345.715 400.07 345.447 400.218Z" fill="#244523" stroke="#FFF6F2" stroke-miterlimit="10"/>
<path d="M402.278 462.619C402.386 462.844 402.488 463.118 402.547 463.436L402.581 463.675C402.667 464.504 402.402 465.219 402.013 465.888L401.839 466.173C400.994 467.491 399.944 468.406 399.332 468.88L398.89 469.206L398.887 469.208C397.455 470.21 396.147 471.296 394.741 472.375L394.131 472.837L394.13 472.837L394.128 472.839C394.126 472.84 394.124 472.843 394.119 472.846C394.111 472.853 394.098 472.862 394.081 472.875C394.047 472.901 393.996 472.939 393.931 472.99C393.799 473.092 393.605 473.244 393.361 473.441C392.873 473.836 392.184 474.411 391.38 475.132C389.771 476.575 387.713 478.596 385.901 480.913L385.901 480.912C385.354 481.618 384.797 482.396 384.26 483.344L384.031 483.761L384.03 483.762C383.481 484.79 383.117 485.713 382.873 486.413L385.246 489.011C385.16 488.57 385.107 488.092 385.11 487.583L385.122 487.23L385.122 487.229L385.142 486.977C385.233 486.066 385.513 485.293 385.977 484.282L386.555 483.066L386.555 483.066C387.562 480.98 388.629 479.479 389.241 478.68L389.24 478.68C390.095 477.563 390.88 476.727 391.53 476.079L392.132 475.491C393.287 474.378 394.322 473.536 395.754 472.448L397.336 471.26C399.008 470.01 399.762 469.509 400.767 468.608L401.217 468.194C401.559 467.866 402.474 466.979 403.296 465.602L403.459 465.32C404.112 464.151 404.167 463.577 404.155 463.3L404.147 463.198L404.147 463.196L404.125 463.035C404.029 462.474 403.743 462.028 403.487 461.726L402.278 462.619Z" fill="#244523" stroke="#FFF6F2" stroke-miterlimit="10"/>
<path d="M407.04 442.442C406.799 442.356 406.48 442.418 406.116 442.607C405.941 442.697 405.782 442.804 405.648 442.903L405.34 443.149L405.333 443.155C405.075 443.368 404.303 444.1 404.151 445.127L404.129 445.337L404.129 445.338C404.098 445.846 404.237 446.158 404.518 446.596C404.771 446.991 405.15 447.497 405.517 448.257L405.674 448.598L405.674 448.6C406.363 450.204 406.402 451.544 406.467 453.704L406.467 453.705C406.525 455.57 406.566 456.822 406.049 458.238L405.938 458.523L405.937 458.524C405.435 459.735 404.717 460.608 404.137 461.184C404.23 461.361 404.347 461.585 404.465 461.808L404.986 462.793L405.054 462.927L405.127 463.072L405.101 463.232C405 463.858 404.795 464.777 404.31 465.784L404.311 465.785C403.742 466.971 402.995 467.863 401.867 468.928L401.867 468.927C400.884 469.86 400.195 470.373 399.123 471.161L397.899 472.067C395.558 473.815 394.285 474.78 392.789 476.218L392.789 476.217C392.157 476.829 391.329 477.628 390.402 478.778L389.999 479.293L389.998 479.295C389.486 479.962 388.635 481.146 387.783 482.778L387.419 483.506C386.593 485.22 386.203 486.042 386.1 487.083L386.084 487.295C386.051 487.844 385.99 489.307 386.799 490.682L386.972 490.956L386.974 490.956C387.266 491.385 387.571 491.684 387.914 491.969L388.271 492.255C389.854 493.493 391.243 494.438 392.145 495.038L392.875 495.521L392.876 495.522C392.978 495.59 393.592 496.043 394.735 496.89L399.77 500.629C399.771 500.629 399.772 500.631 399.774 500.632C399.777 500.634 399.783 500.638 399.791 500.644C399.808 500.656 399.834 500.674 399.87 500.699C399.942 500.748 400.056 500.824 400.212 500.924C400.448 501.074 400.781 501.279 401.225 501.534L401.706 501.805C402.339 502.155 402.728 502.335 402.965 502.426C402.946 502.296 402.907 502.133 402.849 501.945C402.713 501.508 402.502 501.02 402.33 500.65C401.713 500.302 400.88 499.792 399.962 499.106L399.963 499.105C399.281 498.598 398.226 497.75 396.263 495.585L395.365 494.573C393.791 492.772 392.885 491.731 392.039 490.505L391.678 489.964C390.19 487.662 389.275 486.279 389.288 484.556L389.303 484.207C389.514 481.506 391.628 479.796 392.021 479.492L392.022 479.492C393.382 478.432 394.791 478.134 395.461 478.036L395.698 478.005C396.451 477.914 396.925 477.976 397.441 478.08C397.812 478.155 398.19 478.247 398.733 478.322L399.338 478.391C400.186 478.468 402.052 478.616 404.133 478.017L404.552 477.888L404.553 477.887C405.278 477.648 406.6 477.193 407.864 476.097L408.116 475.868C408.388 475.607 409.603 474.427 410.512 471.683L410.691 471.111L410.782 470.785C411.161 469.373 411.321 467.89 411.247 464.164L411.197 462.276L411.197 462.275L411.122 459.958C411.063 458.251 411.007 457.038 410.908 455.838L410.843 455.115L410.788 454.622C410.559 452.799 410.01 450.746 409.044 447.572L407.82 443.62C407.755 443.415 407.668 443.149 407.528 442.909C407.405 442.697 407.266 442.549 407.11 442.472L407.041 442.443L407.04 442.442Z" fill="#244523" stroke="#FFF6F2" stroke-miterlimit="10"/>
<path d="M399.718 480.152C399.781 480.635 399.845 481.118 399.884 481.415C400.209 482.152 400.598 483.221 400.809 484.556L400.889 485.151C400.979 485.967 400.939 486.751 400.825 487.928L400.689 489.253C400.398 491.98 400.035 493.295 399.264 494.126L399.104 494.286C398.78 494.589 398.48 494.743 398.249 494.827L398.248 494.826C397.645 495.049 397.051 494.992 396.575 494.861C397.477 495.937 398.619 497.111 400.06 498.23L400.425 498.507C401.157 499.05 401.87 499.51 402.55 499.904C402.733 498.819 402.677 497.953 402.563 497.312L402.505 497.025L402.441 496.763C402.286 496.177 402.086 495.742 401.913 495.272C401.715 494.735 401.567 494.185 401.614 493.408L401.613 493.408C401.678 492.263 402.12 491.506 402.227 491.335L402.228 491.334C402.708 490.549 403.343 490.093 403.769 489.85C403.607 489.586 403.415 489.265 403.212 488.894L402.941 488.381C402.215 486.952 401.791 486.138 401.714 485.15L401.704 484.95C401.673 484.104 401.893 483.422 402.216 482.695L402.567 481.946L402.567 481.946C402.693 481.686 403.125 480.802 404.026 479.686L404.441 479.194C404.629 478.98 404.848 478.744 405.099 478.493L404.8 478.602C402.646 479.343 400.745 479.3 399.59 479.177C399.627 479.455 399.672 479.804 399.718 480.152Z" fill="#244523" stroke="#FFF6F2" stroke-width="0.5" stroke-miterlimit="10"/>
<path d="M374.646 456.501C374.025 457.261 373.367 458.149 372.723 459.174L372.39 459.718L372.389 459.719C371.635 460.978 371.067 462.176 370.628 463.239L376.159 469.015C376.698 468.339 377.265 467.549 377.821 466.636L378.11 466.147C378.797 464.951 379.3 463.827 379.677 462.838L374.646 456.501Z" fill="#FFF6F2" stroke="#FFF6F2" stroke-miterlimit="10"/>
<path d="M362.423 439.012C361.825 439.524 361.115 440.241 360.462 441.205L360.301 441.45L360.301 441.451C359.702 442.382 359.331 443.268 359.095 443.981C360.099 446.138 361.426 448.6 363.189 451.188L363.557 451.721C365.055 453.862 366.576 455.687 368.003 457.221C368.433 456.351 368.905 455.45 369.433 454.525L369.432 454.525C369.991 453.542 370.556 452.618 371.112 451.755C370.434 450.737 369.752 449.718 369.063 448.697L366.794 445.353L366.792 445.353C365.336 443.214 363.878 441.1 362.423 439.012Z" fill="#FFF6F2" stroke="#FFF6F2" stroke-miterlimit="10"/>
<path d="M355.128 428.424C354.534 428.69 353.707 429.163 352.933 429.984L352.932 429.983C352.196 430.767 351.796 431.575 351.572 432.137C352.108 433.619 352.967 435.485 354.386 437.383L354.688 437.777C355.211 438.44 355.743 439.025 356.261 439.54C356.485 438.829 356.774 438.052 357.152 437.233L357.387 436.74L357.388 436.74C357.795 435.922 358.225 435.206 358.645 434.582L355.128 428.424Z" fill="#FFF6F2" stroke="#FFF6F2" stroke-miterlimit="10"/>
<path d="M335.498 409.593C336.858 411.731 338.108 413.635 339.206 415.27L340.32 416.917C343.075 420.956 344.409 422.672 345.656 424.038L346.19 424.608L346.19 424.609C347.418 425.896 348.563 426.923 349.479 427.695C349.624 427.251 349.817 426.758 350.077 426.24L350.268 425.879L350.269 425.878C350.611 425.263 350.98 424.747 351.322 424.328C350.216 421.191 348.856 418.961 347.802 417.488L347.803 417.486C346.981 416.34 346.235 415.5 345.436 414.546C344.638 413.594 343.806 412.551 342.844 411.033C341.83 409.438 341.114 408.005 340.632 406.947L335.498 409.593Z" fill="#FFF6F2" stroke="#FFF6F2" stroke-miterlimit="10"/>
<path d="M259.903 181.986C258.555 182.489 257.876 182.724 257.565 182.837C256.272 183.32 254.729 184.225 253.455 185.053C252.821 185.465 252.263 185.853 251.845 186.15L251.082 186.708L251.078 186.711C246.951 189.823 244.856 191.415 243.427 193.578L243.15 194.018L243.15 194.02C242.9 194.435 242.141 195.742 241.115 199.988L240.906 200.876L240.907 200.877C240.239 203.79 239.495 207.877 239.133 212.922L260.938 213.912C261.438 211.272 262.072 208.922 262.737 206.888L263.038 205.992C264.303 202.339 264.997 200.322 266.477 198.27L266.784 197.859C268.936 195.058 270.507 192.997 272.997 191.74L272.996 191.74C273.537 191.466 274.713 190.911 275.3 189.785L275.409 189.552L275.41 189.552C275.505 189.324 275.669 188.844 275.642 188.259L275.618 188.001C275.496 187.159 274.992 186.547 274.284 185.883L273.969 185.594L273.968 185.593C270.993 182.899 269.61 181.658 267.638 181.097L267.639 181.096C267.013 180.919 265.977 180.632 264.656 180.703L264.388 180.721C263.752 180.777 263.181 180.906 262.694 181.035L262.235 181.162L262.232 181.163C261.901 181.255 261.654 181.336 261.321 181.456L259.903 181.986Z" fill="#244523" stroke="#FFF6F2" stroke-miterlimit="10"/>
<path d="M260.151 182.132C259.18 182.172 257.112 182.569 252.205 185.91L251.072 186.697C248.723 188.366 246.993 189.596 245.716 190.715C244.528 191.756 243.763 192.676 243.28 193.722L243.187 193.933C242.941 194.522 242.77 195.259 242.618 196.33C242.542 196.865 242.472 197.476 242.399 198.184L242.164 200.626C241.982 202.559 241.917 204.26 241.877 206.137L241.841 208.087C241.808 210.071 241.82 211.754 241.836 213.02L255.738 213.656L255.816 213.185C255.921 212.582 256.147 211.426 256.609 209.953L256.822 209.302L256.822 209.3L257.002 208.797C257.191 208.286 257.484 207.54 257.951 206.505L258.251 205.849L258.252 205.848L258.761 204.794C259.252 203.802 259.917 202.535 260.784 201.054L261.329 200.14C262.068 198.923 263.075 197.281 264.555 195.301L265.219 194.432C266.326 193.013 267.172 191.928 267.877 191.142C268.488 190.458 269.03 189.958 269.585 189.655L269.825 189.537C270.281 189.337 270.727 189.192 271.154 188.949C271.514 188.744 271.759 188.522 271.88 188.255L271.923 188.137L271.923 188.135L271.96 187.972C272.001 187.694 271.955 187.399 271.904 187.185L271.847 186.974L271.846 186.972L271.789 186.8C271.663 186.464 271.471 186.166 271.205 185.859L271.066 185.705L271.066 185.704C270.521 185.117 269.722 184.492 268.076 183.79L268.077 183.789C267.159 183.398 265.996 182.986 264.469 182.653L264.469 182.655C262.794 182.293 261.236 182.145 260.42 182.136L260.151 182.132Z" fill="#244523" stroke="#FFF6F2" stroke-miterlimit="10"/>
</g>
<defs>
<filter id="filter0_d_380_6045" x="100.435" y="78.6597" width="274.041" height="372.343" filterUnits="userSpaceOnUse" color-interpolation-filters="sRGB">
<feFlood flood-opacity="0" result="BackgroundImageFix"/>
<feColorMatrix in="SourceAlpha" type="matrix" values="0 0 0 0 0 0 0 0 0 0 0 0 0 0 0 0 0 0 127 0" result="hardAlpha"/>
<feOffset dy="4"/>
<feGaussianBlur stdDeviation="2"/>
<feComposite in2="hardAlpha" operator="out"/>
<feColorMatrix type="matrix" values="0 0 0 0 0 0 0 0 0 0 0 0 0 0 0 0 0 0 0.25 0"/>
<feBlend mode="normal" in2="BackgroundImageFix" result="effect1_dropShadow_380_6045"/>
<feBlend mode="normal" in="SourceGraphic" in2="effect1_dropShadow_380_6045" result="shape"/>
</filter>
<filter id="filter1_d_380_6045" x="211.571" y="138.66" width="274.041" height="372.343" filterUnits="userSpaceOnUse" color-interpolation-filters="sRGB">
<feFlood flood-opacity="0" result="BackgroundImageFix"/>
<feColorMatrix in="SourceAlpha" type="matrix" values="0 0 0 0 0 0 0 0 0 0 0 0 0 0 0 0 0 0 127 0" result="hardAlpha"/>
<feOffset dy="4"/>
<feGaussianBlur stdDeviation="2"/>
<feComposite in2="hardAlpha" operator="out"/>
<feColorMatrix type="matrix" values="0 0 0 0 0 0 0 0 0 0 0 0 0 0 0 0 0 0 0.25 0"/>
<feBlend mode="normal" in2="BackgroundImageFix" result="effect1_dropShadow_380_6045"/>
<feBlend mode="normal" in="SourceGraphic" in2="effect1_dropShadow_380_6045" result="shape"/>
</filter>
</defs>
</svg>
