<svg width="910" height="1004" viewBox="0 0 910 1004" fill="none" xmlns="http://www.w3.org/2000/svg">
<path d="M757.928 -258L765.29 -231.917L817.652 -226.106L870.015 -234.801L904 -181.87L850.725 -137.656L813.971 -81.8191L784.58 61.7474L712.928 69L691.783 17.5332L621.072 -23.0771L594.42 -50.6237L624.725 -121.686L588 -258H757.928Z" fill="#FF6726" stroke="#FFF6F2" stroke-width="12" stroke-linejoin="round"/>
<path d="M588.183 -258.187L487.803 -264L439 -100.814L513.577 66L621.338 -23.1971L594.62 -50.7516L625 -121.834L588.183 -258.187Z" fill="#FF6726" stroke="#FFF6F2" stroke-width="12" stroke-linejoin="round"/>
<path d="M513.504 65.8115L494 84.2064L496.856 105.271L587.98 164L618.392 144.73L698.865 156.821L695.438 102.13L713 68.7054L691.84 17.4464L621.077 -23L513.504 65.8115Z" fill="#FF6726" stroke="#FFF6F2" stroke-width="12" stroke-linejoin="round"/>
<path d="M698.892 156.826L682.818 210.365L698.892 253.892V298.929L682.818 317.264L686.701 372.248L707 413.474L664.46 457L618.066 415.774L559.081 395.138L507.861 335.577L521.394 277.549L507.861 180.574L475 156.826L496.927 105L588.031 164.043L618.437 144.67L698.892 156.826Z" fill="#FF6726" stroke="#FFF6F2" stroke-width="12" stroke-linejoin="round"/>
<path d="M699.417 157L751.347 138.455L761.625 92.6687L785 61L713.51 68.2734L696 101.93L699.417 157Z" fill="#FF6726" stroke="#FFF6F2" stroke-width="12" stroke-linejoin="round"/>
<path d="M664.896 456.711L693 587.197L658.778 622.946L668.327 701.913L641.396 727.943L635.792 807.809L657.091 820.161L616.18 904.437L584.788 994H513V871.343L550.023 837.799L560.116 758.382L578.041 720.451L558.972 663.532L562.346 545.734L528.696 460.131L559.372 395L618.438 415.585L664.896 456.711Z" fill="#FF6726" stroke="#FFF6F2" stroke-width="12" stroke-linejoin="round"/>
<path d="M475.298 157L450.798 168.434L442.044 226.257L470.665 242.462L450.798 264.205V293.352L426.838 341.024L385.939 344.738L369 378.972L426.838 432.653L528.503 460L559 394.84L508.011 335.397L521.483 277.484L508.011 180.701L475.298 157Z" fill="#FF6726" stroke="#FFF6F2" stroke-width="12" stroke-linejoin="round"/>
<path d="M368.61 379L318.247 406.799L296 442.038L314.715 489.316L298.906 530.575L380.318 498.131L414.871 539.367L478.109 551.429L500.385 624.207L558.639 664L562 545.951L528.472 460.164L426.579 432.771L368.61 379Z" fill="#FF6726" stroke="#FFF6F2" stroke-width="12" stroke-linejoin="round"/>
<path d="M299 530.452L346.58 567.075L304.883 625.484L349.493 652.387L387.077 682.065L436.399 697.355L451.078 736.302L489.833 740L493.346 702.001L481.037 673.699L501 624.108L478.667 551.312L415.265 539.247L380.622 498L299 530.452Z" fill="#FF6726" stroke="#FFF6F2" stroke-width="12" stroke-linejoin="round"/>
<path d="M500.347 624L558.902 663.768L578 720.772L560.047 758.76L549.94 838.295L512.86 871.89L465.616 901L445 810.672L489.152 739.788L492.674 701.823L480.333 673.546L500.347 624Z" fill="#FF6726" stroke="#FFF6F2" stroke-width="12" stroke-linejoin="round"/>
<path d="M465.562 900.877L414.379 921L362.741 896.015L344.976 848.229L305 832.877L321.652 781.152L316.662 739.825L335.538 712.32L386.407 682L435.651 697.261L450.307 736.134L489 739.825L445.032 810.639L465.562 900.877Z" fill="#FF6726" stroke="#FFF6F2" stroke-width="12" stroke-linejoin="round"/>
<path d="M298.95 531L248.758 563.466L202.049 542.951L152 583.556L183.691 639.453L191.485 703.646L225.489 746L317.165 739.341L336.066 711.942L387 681.74L349.427 652.233L304.831 625.484L346.515 567.413L298.95 531Z" fill="#FF6726" stroke="#FFF6F2" stroke-width="12" stroke-linejoin="round"/>
<path d="M368.826 379L278.82 335.217L272.85 280.944L245 260.999L298.929 168.458H326.579L368.826 157L416.814 221.268L442.236 226.265L471 242.473L451.034 264.218V293.369L426.954 341.047L385.85 344.761L368.826 379Z" fill="#FF6726" stroke="#FFF6F2" stroke-width="12" stroke-linejoin="round"/>
<path d="M368.697 156.854L353.043 133.326L283 88.9888L316.698 39.9326H388.079L420.468 18L494.154 84.1124L497 105.213L475.142 156.854L450.608 168.27L441.842 226L416.512 221.011L368.697 156.854Z" fill="#FF6726" stroke="#FFF6F2" stroke-width="12" stroke-linejoin="round"/>
<path d="M420.701 17.7909L378.328 -16.6864L328 -30.7969L358.026 -116L417.393 -87.779L439.663 -101.079L514 65.5461L494.525 84L420.701 17.7909Z" fill="#FF6726" stroke="#FFF6F2" stroke-width="12" stroke-linejoin="round"/>
<path d="M513 994.583L299 998L348.981 934.146L326.156 909.571L363.228 896.193L414.834 921.15L465.983 901.049L513 872V994.583Z" fill="#FF6726" stroke="#FFF6F2" stroke-width="12" stroke-linejoin="round"/>
<path d="M225.556 746.682L205.311 774.829L136.262 794.921L152.264 860.979L121 893.131L152.264 912.097L188.597 958.604L186.405 998H298.82L348.763 934.102L325.955 909.51L363 896.123L345.261 848.357L305.34 833.012L321.969 781.309L316.986 740L225.556 746.682Z" fill="#FF6726" stroke="#FFF6F2" stroke-width="12" stroke-linejoin="round"/>
<path d="M202.391 542.377L174.58 513.483L111 510.08L134.475 430.09L122.723 385.216L229.517 359.364L279.121 335L369 378.838L318.569 406.628L296.292 441.855L315.032 489.119L299.202 530.364L249.056 563L202.391 542.377Z" fill="#FF6726" stroke="#FFF6F2" stroke-width="12" stroke-linejoin="round"/>
<path d="M122.171 386L73 328.093L105.076 281.435L84.8354 226.571L172.944 154.622L186.351 87L282.922 89.2541L353.277 133.727L369 157.326L326.718 168.8H299.045L245.071 261.464L272.944 281.435L278.919 335.78L229.205 360.146L122.171 386Z" fill="#FF6726" stroke="#FFF6F2" stroke-width="12" stroke-linejoin="round"/>
<path d="M328.179 -30.7548L292.433 -46L211.233 -38.3887L136 37.4095L186.65 86.7481L283.097 89L316.902 39.8415H388.509L421 17.8632L378.573 -16.6355L328.179 -30.7548Z" fill="#FF6726" stroke="#FFF6F2" stroke-width="12" stroke-linejoin="round"/>
<path d="M185.809 998L-84.0573 994.574L-64.1146 911.006L-104 856.564L-23.1196 767L76.6224 827.574L135.711 794.525L151.699 860.712L120.462 892.926L151.699 911.93L188 958.527L185.809 998Z" fill="#FF6726" stroke="#FFF6F2" stroke-width="12" stroke-linejoin="round"/>
<path d="M-22.9968 767.354L-54 722.507L-5.27668 668V586.25L68.8465 618.729L151.787 583L183.359 639.268L191.124 703.886L225 746.521L204.777 774.757L135.802 794.912L76.7253 828L-22.9968 767.354Z" fill="#FF6726" stroke="#FFF6F2" stroke-width="12" stroke-linejoin="round"/>
<path d="M-5.42187 586.532L-104.243 591.812L-152 513.586L-127.566 438L5.69765 477.553L110.649 510.089L174.201 513.496L202 542.421L152.019 583.283L68.8794 619L-5.42187 586.532Z" fill="#FF6726" stroke="#FFF6F2" stroke-width="12" stroke-linejoin="round"/>
<path d="M-128.118 438.011L-140 367.531L-86.9574 287.453L-75.5891 208.772L-23.8032 151L173 153.907L85.3954 225.918L105.19 280.648L73.1416 327.289L122.271 385.174L134.039 430.034L110.531 510L-128.118 438.011Z" fill="#FF6726" stroke="#FFF6F2" stroke-width="12" stroke-linejoin="round"/>
<path d="M-23.2596 151.122L-119 83.9229L-59.7891 -11.8964L-83.7242 -124.195L25.1521 -210.662L135.88 -161.965L244.956 -213L278.095 -156.075L250.997 -94.8109L292 -45.9795L210.963 -38.3805L135.88 37.2947L186.429 86.5533L173.065 154L-23.2596 151.122Z" fill="#FF6726" stroke="#FFF6F2" stroke-width="12" stroke-linejoin="round"/>
<path d="M0 204.062C0 601.708 322.355 924.062 720 924.062H0V204.062Z" fill="#244523"/>
</svg>
