<svg width="764" height="635" viewBox="0 0 764 635" fill="none" xmlns="http://www.w3.org/2000/svg">
<path d="M370.464 192.534L324.961 207.236C323.427 220.01 320.068 237.664 312.151 257.42C309.318 264.491 300.79 284.586 282.205 308.464C277.355 314.694 261.638 334.264 212.455 370.647C172.255 400.382 152.15 415.25 128.704 425.77C108.041 435.041 77.6425 445.78 53.4393 468.675C46.2616 475.463 37.8614 484.999 38.114 497.422C38.2961 506.035 42.5644 512.759 45.5224 516.523C50.0021 512.6 56.8855 506.889 65.8092 500.725C88.0882 485.359 102.93 481.134 126.497 468.992C140.189 461.943 149.789 455.663 169.011 443.112C191.887 428.174 203.153 418.994 238.12 392.288C241.741 389.526 278.51 361.463 309.279 338.77C327.08 325.647 351.455 307.983 381.091 287.481C376.941 275.844 372.734 260.806 370.531 242.941C368.064 222.974 368.873 205.702 370.463 192.523L370.464 192.534Z" fill="#244523" stroke="#FFF6F2" stroke-width="4" stroke-linejoin="round"/>
<path d="M381.092 287.493C389.752 292.815 402.344 300.754 417.251 310.855C445.474 329.998 466.198 346.231 484.755 360.825C501.312 373.845 512.555 383.216 528.679 396.651C567.918 429.356 578.574 440.116 587.556 450.164C597.729 461.549 604.571 469.213 612.096 481.538C622.249 498.181 622.442 504.965 635.069 527.015C644.121 542.829 648.652 550.73 656.733 557.531C670.92 569.456 686.366 572.265 696.736 574.146C705.156 575.673 725.201 579.062 744.974 569.926C752.378 566.512 755.019 563.516 756.04 562.249C766.628 549.117 758.495 528.262 757.272 525.261C751.725 530.043 741.753 537.419 727.43 541.837C721.143 543.782 705.535 548.393 686.249 543.76C665.843 538.86 653.566 526.551 648.528 521.357C646.92 519.692 639.069 511.476 632.534 498.173C625.292 483.458 626.412 476.274 621.623 462.807C618.455 453.907 612.388 441.386 599.57 427.856C584.4 409.514 570.454 396.425 560.297 387.713C549.819 378.721 545.288 376.044 527.955 361.342C512.24 348.009 512.484 347.267 498.146 335.047C470.396 311.394 468.832 313.634 457.787 301.697C445.872 288.819 439.295 277.132 430.864 262.143C419.076 241.197 415.907 229.268 414.671 223.891C412.907 216.273 412.211 209.751 411.91 205.138L370.462 192.512C368.872 205.691 368.075 222.973 370.53 242.93C372.732 260.783 376.94 275.833 381.09 287.47L381.092 287.493Z" fill="#244523" stroke="#FFF6F2" stroke-width="4" stroke-linejoin="round"/>
<path d="M45.511 516.524C46.7361 517.594 48.5837 518.987 51.0806 520.094C57.6317 522.995 66.2578 522.835 82.5481 515.307C97.6418 508.34 107.813 500.365 109.354 499.167C125.014 486.917 141.942 476.361 157.679 464.207C185.426 442.762 199.696 431.731 216.169 419.638C248.139 396.166 250.308 396.651 278.587 375.41C302.695 357.301 305.968 353.3 327.955 336.691C351.292 319.049 372.529 304.71 390.274 293.432L381.093 287.504C351.457 308.005 327.071 325.671 309.281 338.793C278.512 361.485 241.742 389.537 238.122 392.311C203.144 419.017 191.888 428.185 169.013 443.135C149.802 455.685 140.19 461.954 126.499 469.015C102.932 481.157 88.0901 485.381 65.8112 500.748C56.8864 506.9 50.0031 512.611 45.5244 516.546L45.511 516.524Z" fill="#244523" stroke="#FFF6F2" stroke-width="4" stroke-linejoin="round"/>
<path d="M370.464 192.535L383.787 188.718C390.252 189.066 398.702 190.156 408.174 193.133C416.318 195.689 422.98 198.946 428.061 201.896L411.913 205.171L370.465 192.546L370.464 192.535Z" fill="#244523" stroke="#FFF6F2" stroke-width="4" stroke-linejoin="round"/>
<path d="M428.061 201.896C428.008 205.077 428.152 209.854 429.251 215.495C431.435 226.744 436.165 235.084 446.192 249.636C454.519 261.731 459.494 268.953 468.516 279.844C479.927 293.623 489.36 303.072 503.683 317.35C517.944 331.566 525.08 338.668 532.512 344.977C550.684 360.394 558.289 362.791 583.667 380.114C600.72 391.754 612.019 400.72 633.022 417.397C672.841 449.023 665.764 447.299 685.66 460.873C691.336 464.742 720.483 484.375 735.286 498.383C742.165 504.902 747.91 512.045 748.231 512.451C752.25 517.494 755.248 521.986 757.296 525.27C751.748 530.052 741.776 537.428 727.454 541.846C721.167 543.791 705.559 548.402 686.273 543.769C665.867 538.869 653.589 526.56 648.552 521.366C646.944 519.701 639.093 511.485 632.558 498.182C625.315 483.455 626.45 476.316 621.646 462.816C617.014 449.838 610.749 441.849 599.594 427.865C584.757 409.288 576.775 404.535 527.978 361.34C507.291 343.035 507.301 342.634 498.168 335.045C473.581 314.624 469.119 313.906 457.81 301.695C445.895 288.817 439.318 277.129 430.886 262.141C419.099 241.195 415.93 229.266 414.694 223.888C412.93 216.271 412.234 209.749 411.933 205.135L428.081 201.86L428.061 201.896Z" fill="#244523" stroke="#FFF6F2" stroke-width="4" stroke-linejoin="round"/>
<path d="M96.2183 495.859C96.2327 490.406 103.499 486.856 107.16 485.062C109.801 483.768 114.279 482.05 120.4 481.857C290.369 494.016 460.339 506.175 630.31 518.345C631.842 521.217 633.432 524.106 635.082 527.036C638.463 533.026 641.879 538.75 645.293 544.2C463.554 530.374 281.827 516.558 100.088 502.732C98.6679 501.519 96.2107 499.037 96.2183 495.859Z" fill="#244523" stroke="#FFF6F2" stroke-width="4" stroke-linejoin="round"/>
<path d="M329.148 65.4151C329.053 62.509 329.245 57.7722 331.186 52.4022C332.132 49.7594 334.504 43.4261 340.898 38.1351C342.529 36.7924 347.422 33.0157 354.896 31.5732C362.122 30.1753 367.823 31.7222 370.999 32.6215C373.391 33.3038 380.896 35.6186 387.99 42.2438C393.415 47.3007 395.941 52.3941 398.7 57.9357C402.639 65.8541 404.26 72.7638 404.979 76.5297C405.363 78.576 406.852 86.8346 405.821 97.7821C405.084 105.561 404.331 113.547 399.585 121.997C396.292 127.862 394.069 128.582 389.246 137.324C386.798 141.744 385.101 144.819 383.793 149.196C382.687 152.893 382 157.056 382.543 171.226C382.749 176.454 383.131 183.3 383.904 191.358C382.962 191.829 381.164 192.57 378.78 192.618C376.464 192.661 374.682 192.017 373.731 191.597C373.254 184.187 372.799 178.204 372.459 174.188C371.519 162.796 371.117 160.419 371.805 155.868C372.635 150.332 374.368 146.375 376.719 140.98C378.786 136.251 380.959 132.484 385.318 124.959C390.58 115.87 391.691 114.721 393.364 110.335C395.493 104.754 396.188 100.019 396.459 97.7668C397.628 87.7444 395.518 79.9517 393.814 73.6664C392.937 70.4402 392.017 67.1148 390.038 62.9108C388.09 58.7954 385.399 53.2593 379.718 48.4077C376.754 45.8784 372.888 42.5822 367.118 41.9442C363.886 41.5869 361.415 42.2031 356.696 43.3931C352.111 44.5485 349.576 45.2275 347.314 47.4597C344.748 50.0042 343.95 53.1598 343.671 54.9329L329.161 65.4368L329.148 65.4151Z" fill="#244523" stroke="#FFF6F2" stroke-width="4" stroke-linejoin="round"/>
</svg>
