<svg width="20" height="20" viewBox="0 0 20 20" fill="none" xmlns="http://www.w3.org/2000/svg">
<path d="M14.017 0H5.947C4.37015 0.00185307 2.85844 0.629143 1.74353 1.74424C0.628623 2.85933 0.00158794 4.37115 0 5.948L0 14.018C0.00185307 15.5948 0.629143 17.1066 1.74424 18.2215C2.85933 19.3364 4.37115 19.9634 5.948 19.965H14.018C15.5948 19.9631 17.1066 19.3359 18.2215 18.2208C19.3364 17.1057 19.9634 15.5938 19.965 14.017V5.947C19.9631 4.37015 19.3359 2.85844 18.2208 1.74353C17.1057 0.628623 15.5938 0.00158794 14.017 0V0ZM17.957 14.017C17.957 14.5344 17.8551 15.0468 17.6571 15.5248C17.4591 16.0028 17.1689 16.4371 16.803 16.803C16.4371 17.1689 16.0028 17.4591 15.5248 17.6571C15.0468 17.8551 14.5344 17.957 14.017 17.957H5.947C4.90222 17.9567 3.90032 17.5415 3.16165 16.8026C2.42297 16.0638 2.008 15.0618 2.008 14.017V5.947C2.00827 4.90222 2.42349 3.90032 3.16235 3.16165C3.90122 2.42297 4.90322 2.008 5.948 2.008H14.018C15.0628 2.00827 16.0647 2.42349 16.8034 3.16235C17.542 3.90122 17.957 4.90322 17.957 5.948V14.018V14.017Z" fill="#012100"/>
<path d="M10.162 5C8.79343 5.00212 7.48153 5.54679 6.5139 6.51461C5.54627 7.48243 5.00185 8.79443 5 10.163C5.00159 11.5319 5.54602 12.8443 6.5139 13.8124C7.48178 14.7805 8.79408 15.3251 10.163 15.327C11.5321 15.3254 12.8447 14.7808 13.8127 13.8127C14.7808 12.8447 15.3254 11.5321 15.327 10.163C15.3249 8.79408 14.7799 7.48188 13.8117 6.51419C12.8434 5.5465 11.5309 5.00232 10.162 5.001V5ZM10.162 13.319C9.32524 13.319 8.52276 12.9866 7.93108 12.3949C7.3394 11.8032 7.007 11.0008 7.007 10.164C7.007 9.32724 7.3394 8.52476 7.93108 7.93308C8.52276 7.3414 9.32524 7.009 10.162 7.009C10.9988 7.009 11.8012 7.3414 12.3929 7.93308C12.9846 8.52476 13.317 9.32724 13.317 10.164C13.317 11.0008 12.9846 11.8032 12.3929 12.3949C11.8012 12.9866 10.9988 13.319 10.162 13.319Z" fill="#012100"/>
<path d="M15.237 6.474C15.9202 6.474 16.474 5.92018 16.474 5.237C16.474 4.55382 15.9202 4 15.237 4C14.5538 4 14 4.55382 14 5.237C14 5.92018 14.5538 6.474 15.237 6.474Z" fill="#012100"/>
</svg>
