<svg width="482" height="487" viewBox="0 0 482 487" fill="none" xmlns="http://www.w3.org/2000/svg">
<path d="M424.915 -30.9934L419.995 -18.9594L438.073 -1.29802L460.434 10.8801L457.649 40.9261L424.452 41.9055L394.067 52.1578L340.556 97.748L311.329 79.3279L318.536 53.6277L303.8 17.3927L301.86 -0.891706L334.304 -18.8044L360.68 -81.1797L424.915 -30.9934Z" fill="#244523" stroke="#FFF6F2" stroke-width="6" stroke-linejoin="round"/>
<path d="M360.805 -81.1961L324.576 -113.04L257.932 -65.7659L236.857 19.3181L303.936 17.4261L301.974 -0.880935L334.452 -18.779L360.805 -81.1961Z" fill="#244523" stroke="#FFF6F2" stroke-width="6" stroke-linejoin="round"/>
<path d="M236.885 19.2252L224.079 20.4184L218.938 29.2245L236.039 78.3376L253.227 80.0354L280.075 108.373L294.932 86.6864L311.443 79.2381L318.583 53.6118L303.779 17.4233L236.885 19.2252Z" fill="#244523" stroke="#FFF6F2" stroke-width="6" stroke-linejoin="round"/>
<path d="M280.084 108.382L258.196 123.874L251.417 145.075L238.116 162.1L226.624 164.283L211.853 186.215L207.351 207.794L178.415 211.684L173.053 182.398L156.85 157.177L155.079 119.534L177.333 101.596L200.858 60.9404L195.449 42.258L219.044 29.1428L236.046 78.3685L253.261 80.0254L280.084 108.382Z" fill="#244523" stroke="#FFF6F2" stroke-width="6" stroke-linejoin="round"/>
<path d="M280.231 108.603L305.339 116.93L322.747 102.658L340.936 97.5899L311.763 79.2254L295.204 86.7769L280.231 108.603Z" fill="#244523" stroke="#FFF6F2" stroke-width="6" stroke-linejoin="round"/>
<path d="M178.666 211.703L150.752 269.33L127.257 272.736L107.545 305.407L89.6766 307.293L63.9706 335.829L68.3743 346.789L28.0189 366.564L-10.2991 391.149L-37.4363 369.947L-1.21081 323.58L22.6916 321.835L49.9614 294.794L67.9402 285.75L77.5421 258.602L113.608 215.068L126.17 172.771L157.001 157.21L173.25 182.436L178.666 211.703Z" fill="#244523" stroke="#FFF6F2" stroke-width="6" stroke-linejoin="round"/>
<path d="M195.511 42.4124L182.873 39.499L162.486 58.7715L168.519 73.3503L154.588 75.7019L145.979 86.7202L122.843 97.6646L106.285 86.9894L89.7713 94.9277L95.7811 132.302L126.136 172.665L156.908 157.041L155.189 119.511L177.386 101.598L200.877 61.0333L195.511 42.4124Z" fill="#244523" stroke="#FFF6F2" stroke-width="6" stroke-linejoin="round"/>
<path d="M89.6156 94.8226L62.3675 90.4569L43.5502 97.2073L36.6617 120.607L18.5001 131.534L58.8571 143.314L59.7402 169.107L80.083 192.343L67.0096 226.433L77.2779 258.68L113.413 215.048L126.075 172.718L95.6479 132.269L89.6156 94.8226Z" fill="#244523" stroke="#FFF6F2" stroke-width="6" stroke-linejoin="round"/>
<path d="M18.572 131.515L25.7416 159.412L-7.2707 169.177L1.64672 192.522L7.08913 214.84L21.218 235.187L15.2646 254.245L28.8224 267.089L41.373 253.762L45.0786 239.428L67.2711 226.578L80.3282 192.463L59.9246 169.178L59.0109 143.354L18.572 131.515Z" fill="#244523" stroke="#FFF6F2" stroke-width="6" stroke-linejoin="round"/>
<path d="M67.0563 226.344L77.4459 258.671L67.8297 285.86L49.8239 294.917L22.5132 321.998L-1.42524 323.746L-27.8819 320.797L-8.99752 280.563L28.6274 266.808L41.1713 253.496L44.8575 239.163L67.0563 226.344Z" fill="#244523" stroke="#FFF6F2" stroke-width="6" stroke-linejoin="round"/>
<path d="M-27.8662 320.735L-53.1571 313.225L-65.2984 288.53L-57.9003 265.219L-68.4783 247.609L-46.9069 232.974L-36.5879 215.879L-21.3287 211.056L6.85506 214.618L20.9627 234.93L15.0223 253.954L28.5588 266.777L-8.97592 280.56L-27.8662 320.735Z" fill="#244523" stroke="#FFF6F2" stroke-width="6" stroke-linejoin="round"/>
<path d="M18.3911 131.708L-10.1709 129.157L-21.7685 107.607L-52.6803 108.175L-57.209 138.664L-73.2213 165.232L-72.8762 191.286L-36.2544 215.844L-21.0176 211.069L7.15616 214.695L1.66757 192.444L-7.2905 169.161L25.6176 159.52L18.3911 131.708Z" fill="#244523" stroke="#FFF6F2" stroke-width="6" stroke-linejoin="round"/>
<path d="M89.6973 94.8869L68.6045 51.7538L82.3767 29.4745L77.7393 13.71L125.457 -5.3448L135.909 2.82138L155.263 10.9671L154.422 49.4342L162.556 58.8314L168.643 73.4534L154.673 75.7766L146.063 86.7963L122.88 97.7076L106.245 86.972L89.6973 94.8869Z" fill="#244523" stroke="#FFF6F2" stroke-width="6" stroke-linejoin="round"/>
<path d="M155.257 10.873L156.288 -2.64416L142.905 -40.0908L170.132 -48.6825L197.115 -27.601L215.836 -26.3262L224.165 20.4278L219.009 29.245L195.495 42.3104L182.849 39.38L162.485 58.6141L154.383 49.2471L155.257 10.873Z" fill="#244523" stroke="#FFF6F2" stroke-width="6" stroke-linejoin="round"/>
<path d="M215.986 -26.3357L210.151 -51.883L195.293 -72.0808L231.808 -95.4213L245.915 -67.2198L258.261 -65.6704L237.151 19.2716L224.339 20.4956L215.986 -26.3357Z" fill="#244523" stroke="#FFF6F2" stroke-width="6" stroke-linejoin="round"/>
<path d="M-37.6083 370.168L-119.513 308.257L-81.761 298.88L-83.1312 282.85L-65.1661 288.741L-53.0294 313.417L-27.7576 320.925L-1.40489 323.83L-37.6083 370.168Z" fill="#244523" stroke="#FFF6F2" stroke-width="6" stroke-linejoin="round"/>
<path d="M-21.4698 107.491L-23.4491 88.3547L-46.4784 68.2905L-13.9803 44.9863L-5.16959 24.5523L42.8354 46.3203L68.782 51.7601L89.811 94.8763L62.5399 90.4873L43.7145 97.2246L36.84 120.626L18.6742 131.542L-9.92019 129.069L-21.4698 107.491Z" fill="#244523" stroke="#FFF6F2" stroke-width="6" stroke-linejoin="round"/>
<path d="M-5.60996 24.686L-7.09547 -11.7259L18.8099 -19.8905L27.3621 -46.6076L81.918 -47.7839L106.958 -69.3862L142.797 -40.0131L156.258 -2.42316L155.232 11.1417L135.86 2.99135L125.399 -5.18161L77.6287 13.9063L82.2671 29.6877L68.4754 51.9957L42.4862 46.524L-5.60996 24.686Z" fill="#244523" stroke="#FFF6F2" stroke-width="6" stroke-linejoin="round"/>
<path d="M195.349 -72.0121L186.338 -88.3324L153.395 -109.437L102.57 -103.003L107.145 -69.3932L142.938 -40.0574L170.236 -48.6563L197.304 -27.508L216.078 -26.2201L210.228 -51.7917L195.349 -72.0121Z" fill="#244523" stroke="#FFF6F2" stroke-width="6" stroke-linejoin="round"/>
<path d="M-113.067 62.807L-151.983 35.617L-146.932 -8.0581L-115.372 -29.4144L-76.678 24.8951L-46.6138 68.1904L-23.5961 88.2478L-21.6306 107.392L-52.5922 108.077L-94.5691 97.0246L-113.067 62.807Z" fill="#244523" stroke="#FFF6F2" stroke-width="6" stroke-linejoin="round"/>
<path d="M-115.584 -29.5738L-99.2604 -59.7257L-55.5592 -74.331L-28.0241 -100.716L8.61405 -107.261L82.1506 -48.0382L27.7667 -46.6896L19.0855 -20.1546L-6.80427 -11.9887L-5.32803 24.4024L-14.1286 44.8362L-46.632 68.1218L-115.584 -29.5738Z" fill="#244523" stroke="#FFF6F2" stroke-width="6" stroke-linejoin="round"/>
</svg>
