<svg width="1440" height="1321" viewBox="0 0 1440 1321" fill="none" xmlns="http://www.w3.org/2000/svg">
<path d="M335.638 363.486L318.312 369.224L314.013 383.042L353.338 445.492L377.646 442.353L423.817 472.965L437.437 438.236L457.889 422.666L459.581 384.953L427.558 339.64L335.638 363.486Z" fill="#244523" stroke="#FFF6F2" stroke-width="6" stroke-linejoin="round"/>
<path d="M423.832 472.975L398.512 501.383L395.906 532.862L382.949 560.649L367.757 567.337L354.334 602.377L354.997 633.653L316.229 648.269L299.465 609.486L269.01 579.784L254.545 528.3L279.589 496.392L299.139 432.667L285.697 408.561L314.135 382.894L353.358 445.533L377.691 442.328L423.832 472.975Z" fill="#244523" stroke="#FFF6F2" stroke-width="6" stroke-linejoin="round"/>
<path d="M285.83 408.755L267.425 408.761L245.389 441.917L258.385 460.15L239.872 467.849L231.486 485.832L202.989 508.351L176.686 498.876L156.386 515.124L176.627 564.884L231.484 611.005L269.046 579.577L254.689 528.233L279.662 496.378L299.195 432.789L285.83 408.755Z" fill="#244523" stroke="#FFF6F2" stroke-width="6" stroke-linejoin="round"/>
<path d="M156.137 515.03L117.067 517.691L93.2028 533.032L91.1476 567.586L69.5234 588.493L129.087 591.899L138.541 627.282L174.088 652.917L166.893 704.228L191.386 745.539L227.422 673.672L231.417 611.098L176.433 564.883L156.137 515.03Z" fill="#244523" stroke="#FFF6F2" stroke-width="6" stroke-linejoin="round"/>
<path d="M69.6169 588.445L88.4358 624.729L45.906 648.77L65.6888 678.203L80.3389 707.326L106.37 730.95L104.222 759.202L127.069 772.634L140.169 750.2L140.717 729.197L167.301 704.344L174.465 653.005L138.819 627.32L129.312 591.906L69.6169 588.445Z" fill="#244523" stroke="#FFF6F2" stroke-width="6" stroke-linejoin="round"/>
<path d="M166.929 704.089L191.615 745.47L186.998 786.135L164.992 804.408L135.874 850.571L103.331 860.63L65.8076 864.998L79.0756 803.337L126.709 772.306L139.805 749.896L140.326 728.899L166.929 704.089Z" fill="#244523" stroke="#FFF6F2" stroke-width="6" stroke-linejoin="round"/>
<path d="M65.8095 864.907L28.4419 862.597L3.77031 832.326L6.55848 797.732L-13.6895 776.76L11.4659 749.637L20.2769 722.704L39.8365 711.164L79.9442 707.093L105.936 730.676L103.794 758.876L126.605 772.286L79.1047 803.326L65.8095 864.907Z" fill="#244523" stroke="#FFF6F2" stroke-width="6" stroke-linejoin="round"/>
<path d="M69.428 588.768L29.1203 594.358L6.2045 568.263L-36.3568 578.916L-32.8857 622.521L-46.5451 664.368L-37.7509 700.283L20.7267 722.549L40.2706 711.082L80.3848 707.103L65.6926 678.088L45.8736 648.754L88.2987 624.918L69.428 588.768Z" fill="#244523" stroke="#FFF6F2" stroke-width="6" stroke-linejoin="round"/>
<path d="M156.271 515.09L113.336 462.182L125.267 426.98L113.822 406.662L173.719 365.082L190.778 373.037L220.14 378.122L231.257 431.58L245.504 441.977L258.588 460.252L240.013 467.924L231.627 485.91L203.053 508.398L176.625 498.864L156.271 515.09Z" fill="#244523" stroke="#FFF6F2" stroke-width="6" stroke-linejoin="round"/>
<path d="M220.102 377.995L217.213 358.975L186.754 311.469L221.658 290.898L265.698 311.434L291.992 307.22L318.434 369.21L314.119 383.047L285.776 408.62L267.355 408.604L245.337 441.701L231.144 431.335L220.102 377.995Z" fill="#244523" stroke="#FFF6F2" stroke-width="6" stroke-linejoin="round"/>
<path d="M292.196 307.159L275.972 273.697L248.981 250.512L292.019 206.582L320.528 241.073L338.094 239.274L336.02 363.465L318.695 369.248L292.196 307.159Z" fill="#244523" stroke="#FFF6F2" stroke-width="6" stroke-linejoin="round"/>
<path d="M6.58075 568.007L-2.26497 542.179L-40.5132 521.787L-3.01656 479.19L2.64315 448.122L75.9699 462.897L113.584 462.136L156.425 515.041L117.315 517.678L93.4356 533.003L91.4002 567.555L69.7666 588.448L29.4389 594.157L6.58075 568.007Z" fill="#244523" stroke="#FFF6F2" stroke-width="6" stroke-linejoin="round"/>
<path d="M2.07676 448.447L-11.601 398.574L21.6127 379.015L24.9092 339.342L99.9696 320.3L127.697 282.436L186.63 311.61L217.242 359.29L220.153 378.374L190.766 373.288L173.692 365.327L113.732 406.97L125.183 427.31L113.235 462.559L75.5519 463.29L2.07676 448.447Z" fill="#244523" stroke="#FFF6F2" stroke-width="6" stroke-linejoin="round"/>
<path d="M249.079 250.589L231.411 230.898L179.122 212.233L110.898 237.354L127.954 282.367L186.811 311.504L221.81 290.9L265.99 311.501L292.36 307.289L276.108 273.798L249.079 250.589Z" fill="#244523" stroke="#FFF6F2" stroke-width="6" stroke-linejoin="round"/>
<path d="M-197.204 641.968L-203.429 605.379L-157.687 585.767L-134.167 535.33L-97.7793 576.693L-36.3279 578.512L-33.037 622.311L-46.8369 664.413L-38.2025 700.464L-58.803 712.066L-107.157 704.657L-153.126 708.075L-197.204 641.968Z" fill="#244523" stroke="#FFF6F2" stroke-width="6" stroke-linejoin="round"/>
<path d="M-134.338 535.461L-196.827 510.288L-203.787 448.285L-166.965 408.68L-96.1244 471.423L-40.7327 521.691L-2.50265 542.077L6.32659 567.922L-36.2662 578.753L-97.8372 576.87L-134.338 535.461Z" fill="#244523" stroke="#FFF6F2" stroke-width="6" stroke-linejoin="round"/>
<path d="M-167.309 408.528L-154.363 361.626L-98.5983 327.48L-68.9477 282.206L-20.3762 261.461L100.21 319.875L25.4426 339.1L21.9095 378.562L-11.2821 398.118L2.37618 447.966L-3.26963 479.03L-40.7795 521.603L-167.309 408.528Z" fill="#244523" stroke="#FFF6F2" stroke-width="6" stroke-linejoin="round"/>
<path d="M-20.0761 261.693L-59.8123 192.688L4.2866 150.605L21.8276 74.4334L113.878 52.4093L168.185 114.31L250.164 114.204L254.233 158.86L219.888 188.862L231.137 230.786L178.953 212.16L110.858 237.249L127.873 282.183L100.224 319.951L-20.0761 261.693Z" fill="#244523" stroke="#FFF6F2" stroke-width="6" stroke-linejoin="round"/>
<path d="M1576.83 780.755L1558.43 780.761L1536.39 813.917L1549.38 832.15L1530.87 839.849L1522.49 857.832L1493.99 880.351L1467.69 870.876L1447.39 887.124L1467.63 936.884L1522.48 983.005L1560.05 951.577L1545.69 900.233L1570.66 868.378L1590.2 804.789L1576.83 780.755Z" fill="#244523" stroke="#FFF6F2" stroke-width="6" stroke-linejoin="round"/>
<path d="M1447.14 887.03L1408.07 889.691L1384.2 905.032L1382.15 939.586L1360.52 960.493L1420.09 963.899L1429.54 999.282L1465.09 1024.92L1457.89 1076.23L1482.39 1117.54L1518.42 1045.67L1522.42 983.098L1467.43 936.883L1447.14 887.03Z" fill="#244523" stroke="#FFF6F2" stroke-width="6" stroke-linejoin="round"/>
<path d="M1360.62 960.445L1379.44 996.729L1336.91 1020.77L1356.69 1050.2L1371.34 1079.33L1397.37 1102.95L1395.22 1131.2L1418.07 1144.63L1431.17 1122.2L1431.72 1101.2L1458.3 1076.34L1465.47 1025L1429.82 999.32L1420.31 963.906L1360.62 960.445Z" fill="#244523" stroke="#FFF6F2" stroke-width="6" stroke-linejoin="round"/>
<path d="M1457.93 1076.09L1482.61 1117.47L1478 1158.14L1455.99 1176.41L1426.87 1222.57L1394.33 1232.63L1356.81 1237L1370.08 1175.34L1417.71 1144.31L1430.8 1121.9L1431.33 1100.9L1457.93 1076.09Z" fill="#244523" stroke="#FFF6F2" stroke-width="6" stroke-linejoin="round"/>
<path d="M1356.81 1236.91L1319.44 1234.6L1294.77 1204.33L1297.56 1169.73L1277.31 1148.76L1302.47 1121.64L1311.28 1094.7L1330.84 1083.16L1370.94 1079.09L1396.94 1102.68L1394.79 1130.88L1417.6 1144.29L1370.1 1175.33L1356.81 1236.91Z" fill="#244523" stroke="#FFF6F2" stroke-width="6" stroke-linejoin="round"/>
<path d="M1360.43 960.768L1320.12 966.358L1297.2 940.263L1254.64 950.916L1258.11 994.521L1244.45 1036.37L1253.25 1072.28L1311.73 1094.55L1331.27 1083.08L1371.38 1079.1L1356.69 1050.09L1336.87 1020.75L1379.3 996.918L1360.43 960.768Z" fill="#244523" stroke="#FFF6F2" stroke-width="6" stroke-linejoin="round"/>
<path d="M1447.27 887.09L1404.34 834.182L1416.27 798.98L1404.82 778.662L1464.72 737.082L1481.78 745.037L1511.14 750.122L1522.26 803.58L1536.5 813.977L1549.59 832.252L1531.01 839.924L1522.63 857.91L1494.05 880.398L1467.62 870.864L1447.27 887.09Z" fill="#244523" stroke="#FFF6F2" stroke-width="6" stroke-linejoin="round"/>
<path d="M1511.1 749.995L1508.21 730.975L1477.75 683.469L1512.66 662.898L1556.7 683.434L1582.99 679.22L1609.43 741.21L1605.12 755.047L1576.78 780.62L1558.35 780.604L1536.34 813.701L1522.14 803.335L1511.1 749.995Z" fill="#244523" stroke="#FFF6F2" stroke-width="6" stroke-linejoin="round"/>
<path d="M1297.58 940.007L1288.73 914.179L1250.49 893.787L1287.98 851.19L1293.64 820.122L1366.97 834.897L1404.58 834.136L1447.42 887.041L1408.32 889.678L1384.44 905.003L1382.4 939.555L1360.77 960.448L1320.44 966.157L1297.58 940.007Z" fill="#244523" stroke="#FFF6F2" stroke-width="6" stroke-linejoin="round"/>
<path d="M1293.08 820.447L1279.4 770.574L1312.61 751.015L1315.91 711.342L1390.97 692.3L1418.7 654.436L1477.63 683.61L1508.24 731.29L1511.15 750.374L1481.77 745.288L1464.69 737.327L1404.73 778.97L1416.18 799.31L1404.23 834.559L1366.55 835.29L1293.08 820.447Z" fill="#244523" stroke="#FFF6F2" stroke-width="6" stroke-linejoin="round"/>
<path d="M1540.08 622.589L1522.41 602.898L1470.12 584.233L1401.9 609.354L1418.95 654.367L1477.81 683.504L1512.81 662.9L1556.99 683.501L1583.36 679.289L1567.11 645.798L1540.08 622.589Z" fill="#244523" stroke="#FFF6F2" stroke-width="6" stroke-linejoin="round"/>
<path d="M1093.8 1013.97L1087.57 977.379L1133.31 957.767L1156.83 907.33L1193.22 948.693L1254.67 950.512L1257.96 994.311L1244.16 1036.41L1252.8 1072.46L1232.2 1084.07L1183.84 1076.66L1137.87 1080.08L1093.8 1013.97Z" fill="#244523" stroke="#FFF6F2" stroke-width="6" stroke-linejoin="round"/>
<path d="M1156.66 907.461L1094.17 882.288L1087.21 820.285L1124.03 780.68L1194.88 843.423L1250.27 893.691L1288.5 914.077L1297.33 939.922L1254.73 950.753L1193.16 948.87L1156.66 907.461Z" fill="#244523" stroke="#FFF6F2" stroke-width="6" stroke-linejoin="round"/>
<path d="M1123.69 780.528L1136.64 733.626L1192.4 699.48L1222.05 654.206L1270.62 633.461L1391.21 691.875L1316.44 711.1L1312.91 750.562L1279.72 770.118L1293.38 819.966L1287.73 851.03L1250.22 893.603L1123.69 780.528Z" fill="#244523" stroke="#FFF6F2" stroke-width="6" stroke-linejoin="round"/>
<path d="M1270.92 633.693L1231.19 564.688L1295.29 522.605L1312.83 446.433L1404.88 424.409L1459.18 486.31L1541.16 486.204L1545.23 530.86L1510.89 560.862L1522.14 602.786L1469.95 584.16L1401.86 609.249L1418.87 654.183L1391.22 691.951L1270.92 633.693Z" fill="#244523" stroke="#FFF6F2" stroke-width="6" stroke-linejoin="round"/>
<g filter="url(#filter0_d_316_4993)">
<path d="M689.739 347.968C690.518 345.322 691.082 341.865 690.593 337.937C690.305 335.622 689.963 332.884 688.03 330.059C685.886 326.93 683.041 325.534 681.518 324.809C680.13 324.147 677.367 322.875 673.602 323.052C669.1 323.263 666.002 325.407 664.939 326.213C661.793 328.61 660.473 331.526 659.898 332.845C658.262 336.593 658.359 339.918 658.418 341.423C658.546 344.538 659.223 344.381 660.609 351.95C661.083 354.535 661.389 356.679 660.544 359.137C660.084 360.472 659.43 361.471 658.933 362.124C656.984 365.468 655.036 368.806 653.087 372.15L655.816 373.725C658.447 368.596 660.202 365.541 661.442 363.574C661.829 362.963 662.568 361.818 663.113 360.129C663.693 358.345 663.804 356.756 663.882 355.553C663.927 354.806 663.98 353.461 663.845 351.89C663.425 347.059 661.753 345.964 661.199 341.76C660.993 340.176 660.634 337.172 662.014 333.849C663.312 330.735 665.469 328.937 666.329 328.291C667.209 327.626 669.674 325.815 673.336 325.607C676.552 325.426 678.908 326.587 680.005 327.144C683.349 328.835 685.057 331.357 685.527 332.096C687.048 334.474 687.397 336.672 687.681 338.581C688.208 342.094 687.789 345.206 687.162 347.605L689.735 347.979L689.739 347.968Z" fill="#FF6726" stroke="#FFF6F2" stroke-linejoin="round"/>
<path d="M490.846 322.179C514.582 321.114 532.676 324.24 543.526 326.175C556.148 328.427 568.026 332.118 591.784 339.509C591.784 339.509 618.508 347.859 643.671 362.094C645.519 363.139 652.428 367.144 658 374.993C661.509 379.939 665.242 387.466 663.333 389.05C661.938 390.21 658.915 388.213 648.477 382.04C642.519 378.514 636.621 374.89 630.521 371.615C613.638 362.559 588.193 352.117 580.82 349.529C542.516 336.08 508.578 332.301 487.988 331.159C467.145 330 448.824 330.915 433.855 332.475C456.755 325.12 476.647 322.82 490.844 322.185L490.846 322.179Z" fill="#FF6726" stroke="#FFF6F2" stroke-width="2" stroke-linejoin="round"/>
<path d="M646.567 395.128L668.53 394.131C669.773 406.794 669.815 417.556 669.505 425.764C669.055 437.773 667.801 445.954 666.915 450.834C665.233 460.103 663.539 464.74 662.95 466.306C662.097 468.565 662.01 468.439 655.538 481.034C650.196 491.427 648.689 494.559 645.956 498.565C645.929 498.606 645.942 498.585 641.537 504.981C640.29 506.794 639.043 508.607 637.791 510.418C633.221 517.057 631.28 519.874 631.28 519.874C625.773 527.858 618.263 537.493 605.343 554.516C603.427 557.039 600.32 561.136 596.448 566.274L578.365 553.284C589.11 539.617 597.99 527.917 604.713 518.917C612.1 509.029 617.841 501.13 624.454 490.733C632.024 478.834 634.888 472.874 636.386 469.574C641.45 458.417 643.734 449.386 644.489 446.252C645.301 442.86 646.987 435.19 647.655 425.237C648.234 416.621 647.815 409.794 647.514 405.189C647.249 401.096 646.881 397.648 646.571 395.117L646.567 395.128Z" fill="#244523" stroke="#FFF6F2" stroke-width="2" stroke-miterlimit="10"/>
<path d="M637.789 510.423C637.985 510.596 638.301 510.837 638.745 511.005C638.951 511.08 639.817 511.408 640.732 511.097C641.686 510.781 642.122 509.967 642.695 508.913C643.135 508.101 643.388 507.631 643.26 507.048C643.124 506.449 642.636 505.969 642.194 505.536C641.944 505.287 641.706 505.106 641.532 504.979C640.285 506.792 639.038 508.605 637.785 510.416L637.789 510.423Z" fill="#244523" stroke="#FFF6F2" stroke-width="2" stroke-miterlimit="10"/>
<path d="M578.368 553.291C577.409 552.267 576.095 550.778 574.688 548.865C572.993 546.568 572.147 545.421 571.794 544.187C571.642 543.652 570.603 540.035 571.792 536.736C571.982 536.212 572.433 535.113 571.967 534.154C571.926 534.076 571.538 533.304 570.791 533.171C570.038 533.036 569.371 533.639 569.049 533.932C567.99 534.917 567.331 536.501 566.68 541.776C566.364 544.364 566.208 545.677 566.424 546.696C566.636 547.708 567.061 548.848 567.857 550.981C568.551 552.837 568.579 552.709 568.629 553.074C568.906 555.195 567.441 555.906 567.642 558.075C567.676 558.435 567.806 559.638 568.671 560.609C569.38 561.404 570.145 561.556 572.189 562.237C572.189 562.237 573.973 562.835 575.635 563.491C577.213 564.116 577.51 564.653 581.229 567.825C583.88 570.084 586.455 572.133 587.855 573.16C589.819 574.601 590.035 574.459 590.566 575.151C590.707 575.335 590.987 575.727 591.429 575.78C591.943 575.841 592.398 575.407 592.622 575.173C594.424 573.329 594.523 571.736 596.131 570.32C597.145 569.426 598.139 569.156 598.197 568.287C598.232 567.757 597.896 567.275 597.835 567.183C597.36 566.492 596.633 566.322 596.457 566.284C590.431 561.956 584.4 557.621 578.374 553.293L578.368 553.291Z" fill="#244523" stroke="#FFF6F2" stroke-width="2" stroke-miterlimit="10"/>
<path d="M590.56 575.148C590.235 575.693 589.769 576.35 589.115 577.002C588.719 577.395 588.334 577.709 587.981 577.966C587.541 578.083 586.809 578.202 586.009 577.955C585.436 577.778 584.958 577.459 584.034 576.529C582.932 575.427 582.686 574.959 582.061 574.283C581.37 573.545 580.371 572.942 578.369 571.746C576.963 570.906 576.071 570.373 574.753 569.71C573.6 569.133 573.078 568.936 572.341 568.359C571.402 567.626 570.805 566.802 570.438 566.214C570.407 565.83 570.419 565.33 570.555 564.766C570.891 563.392 571.796 562.554 572.185 562.228C573.754 562.654 574.929 563.157 575.631 563.482C580.359 565.689 581.957 568.582 587.852 573.152C589.043 574.078 590.028 574.771 590.562 575.142L590.56 575.148Z" fill="#244523" stroke="#FFF6F2" stroke-width="2" stroke-miterlimit="10"/>
<path d="M570.436 566.22C570.063 566.324 569.691 566.429 569.316 566.539C568.759 567.548 568.116 568.621 567.373 569.727C566.408 571.163 565.432 572.424 564.501 573.524C565.103 573.864 565.952 574.343 566.979 574.887C566.979 574.887 568.435 575.657 569.683 576.269C572.241 577.516 573.22 577.411 576.886 578.891C577.772 579.251 580.162 580.228 583.163 581.699C583.929 582.073 584.574 582.402 585.053 582.646C586.016 582.239 586.482 581.721 586.73 581.318C587.034 580.829 587.044 580.454 587.485 579.244C587.685 578.692 587.865 578.252 587.985 577.974C587.544 578.092 586.813 578.21 586.012 577.963C585.439 577.786 584.962 577.467 584.037 576.537C582.936 575.436 582.69 574.967 582.064 574.291C581.373 573.554 580.374 572.95 578.372 571.754C576.967 570.914 576.075 570.381 574.757 569.718C573.603 569.141 573.081 568.944 572.344 568.367C571.405 567.634 570.808 566.81 570.442 566.222L570.436 566.22Z" fill="#244523" stroke="#FFF6F2" stroke-width="2" stroke-miterlimit="10"/>
<path d="M526.678 652.185C527.267 652.924 527.923 653.863 528.53 655.006C529.098 656.065 529.493 657.061 529.772 657.908C531.061 656.95 532.056 656.074 532.764 655.411C534.022 654.227 534.232 653.842 534.348 653.594C534.759 652.689 534.614 652.081 535.172 651.659C535.729 651.237 536.148 651.648 536.692 651.265C537.532 650.674 536.977 649.405 537.796 648.819C538.42 648.371 538.974 648.932 539.572 648.487C540.324 647.927 539.708 646.845 540.487 645.972C541.106 645.276 541.706 645.728 542.489 645.016C543.34 644.239 542.844 643.503 543.728 642.461C544.485 641.562 545.079 641.854 545.583 640.99C546.097 640.116 545.634 639.568 546.178 638.939C546.76 638.261 547.436 638.728 548.104 638.106C549.009 637.268 548.245 635.967 549.198 635.101C549.795 634.554 550.23 634.953 550.767 634.416C551.653 633.526 550.81 632.095 551.671 631.342C552.221 630.854 552.706 631.327 553.259 630.847C554.182 630.046 553.318 628.292 554.192 627.694C554.704 627.344 555.245 627.768 555.557 627.396C556.007 626.852 554.986 625.774 555.442 625.024C555.76 624.496 556.389 624.851 556.973 624.356C558.093 623.413 556.831 621.224 558.005 620.167C558.474 619.745 559.031 619.777 559.197 619.25C559.356 618.746 558.9 618.523 558.966 618.029C559.112 616.952 561.45 616.894 561.659 615.764C561.765 615.197 561.216 615.022 561.358 614.493C561.603 613.559 563.378 613.801 563.885 612.685C564.192 612.014 563.699 611.601 564.086 611.041C564.533 610.383 565.324 610.778 565.934 610.179C566.682 609.441 565.859 608.46 566.549 607.309C567.166 606.271 568.099 606.623 568.721 605.556C569.318 604.523 568.62 603.909 569.219 603.009C569.902 601.982 571.065 602.431 571.667 601.419C572.202 600.521 571.512 599.797 572.113 599.1C572.708 598.401 573.663 598.812 574.049 598.151C574.418 597.521 573.686 596.964 574.003 596.265C574.429 595.321 576.065 595.683 576.459 594.74C576.714 594.126 576.113 593.781 576.373 593.118C576.722 592.229 577.98 592.434 578.355 591.541C578.64 590.862 578.012 590.507 578.252 589.881C578.683 588.769 580.874 589.27 581.483 588.083C581.905 587.252 581.027 586.629 581.471 585.844C582.041 584.833 583.77 585.355 584.642 584.208C585.042 583.684 585.072 583.044 585.059 582.648C584.579 582.404 583.935 582.075 583.168 581.701C580.166 580.236 577.777 579.253 576.892 578.893C573.225 577.413 572.246 577.517 569.688 576.271C568.435 575.657 566.984 574.889 566.984 574.889C565.957 574.344 565.107 573.871 564.506 573.526C564.251 573.862 563.926 574.306 563.544 574.817C562.254 576.558 562.151 576.735 562.063 577.031C561.74 578.107 562.15 578.786 561.706 579.104C561.288 579.401 560.856 578.871 560.332 579.097C559.337 579.524 560.07 581.811 558.793 582.736C558.226 583.148 557.97 582.777 557.463 583.198C556.393 584.091 557.216 585.994 556.213 586.633C555.777 586.91 555.574 586.583 555.124 586.849C553.954 587.547 554.668 590.149 553.813 590.45C553.451 590.578 553.23 590.144 552.862 590.287C552.2 590.545 552.72 591.997 551.878 592.991C551.211 593.784 550.534 593.285 549.865 594.064C548.996 595.08 549.623 596.533 548.812 596.958C548.429 597.16 548.257 596.851 547.86 597.041C546.903 597.501 547.573 599.494 546.459 600.3C545.995 600.637 545.814 600.337 545.377 600.67C544.301 601.491 545.048 603.518 544.186 603.943C543.769 604.151 543.513 603.711 543.092 603.911C542.166 604.357 542.894 606.712 541.871 607.268C541.448 607.493 541.225 607.152 540.81 607.406C539.969 607.914 540.658 609.49 539.757 610.299C539.205 610.793 538.795 610.341 538.187 610.833C537.21 611.607 537.897 613.051 536.883 613.913C536.325 614.385 536.048 614.019 535.484 614.477C534.301 615.435 535.001 617.502 534.09 617.89C533.657 618.074 533.419 617.634 532.979 617.821C532.029 618.226 532.596 620.503 531.627 620.946C531.14 621.173 530.833 620.664 530.361 620.883C529.401 621.336 530.178 623.696 529.101 624.346C528.536 624.683 528.119 624.165 527.567 624.52C526.657 625.11 527.429 626.755 526.445 627.603C525.828 628.136 525.313 627.677 524.704 628.257C523.91 629.016 524.34 630.246 523.696 630.523C523.238 630.723 522.919 630.158 522.424 630.306C521.616 630.549 522.072 632.192 521.033 633.538C520.686 633.986 519.833 634.389 518.127 635.208C516.659 635.911 515.913 636.258 515.364 636.223C514.716 636.182 514.51 635.95 512.499 635.18C511.923 634.957 511.44 634.794 511.116 634.676C510.953 634.933 510.736 635.34 510.682 635.869C510.603 636.624 510.882 637.281 511.325 637.972C512.298 639.495 513.55 640.411 514.045 640.768C515.086 641.532 516.629 642.687 518.65 644.282C519.902 645.249 521.234 646.377 522.598 647.695C524.205 649.246 525.558 650.767 526.687 652.176L526.678 652.185Z" fill="#244523" stroke="#FFF6F2" stroke-width="2" stroke-miterlimit="10"/>
<path d="M511.101 634.683L509.245 633.313C508.939 633.599 508.285 634.302 508.184 635.326C508.148 635.666 508.15 636.305 508.907 637.66C509.774 639.213 510.802 640.206 511.162 640.552C512.403 641.723 513.126 642.182 514.953 643.548C517.211 645.235 518.469 646.185 519.932 647.595C520.638 648.275 521.598 649.211 522.676 650.62C523.254 651.374 524.264 652.796 525.218 654.772C526.064 656.526 526.483 657.404 526.555 658.611C526.653 660.32 526.033 661.692 525.613 662.448L529.759 657.909C529.522 657.191 529.137 656.167 528.517 655.007C527.914 653.872 527.279 652.978 526.665 652.186C523.119 647.65 518.626 644.297 518.626 644.297C517.077 643.14 515.6 641.889 514.02 640.784C513.709 640.563 512.335 639.602 511.3 637.988C510.857 637.296 510.579 636.639 510.657 635.885C510.711 635.355 510.929 634.948 511.092 634.692L511.101 634.683Z" fill="#244523" stroke="#FFF6F2" stroke-miterlimit="10"/>
<path d="M509.251 633.315C508.692 632.802 507.907 631.942 507.382 630.677C506.815 629.303 506.846 628.159 506.907 626.224C506.97 624.125 507.01 622.921 507.634 621.469C508.391 619.718 509.243 619.371 509.163 618.098C509.085 616.788 508.113 615.885 507.826 615.648C507.557 615.417 506.557 614.574 505.708 614.877C505.048 615.111 504.782 615.929 504.657 616.325C502.861 622.074 501.966 624.949 501.717 627.523C501.532 629.42 501.481 631.105 501.374 634.47C501.2 639.786 501.367 641.393 501.882 643.153C502.803 646.311 504.181 647.658 504.5 647.963C505.872 649.259 507.36 649.768 508.12 650.02C510.389 650.776 512.464 650.61 513.352 650.529C515.147 650.368 515.441 649.995 516.765 650.155C517.226 650.209 518.682 650.404 520.079 651.494C520.448 651.78 522.332 653.317 522.518 655.702C522.645 657.333 521.863 658.545 520.301 660.963C519.394 662.363 518.523 663.365 516.782 665.358C514.333 668.167 513.135 669.132 512.417 669.666C511.48 670.367 510.638 670.875 510.045 671.203C509.693 671.946 509.032 673.467 509.436 673.778C509.53 673.85 509.754 673.912 511.255 673.082C512.608 672.331 513.177 671.913 513.177 671.913C517.478 668.718 519.633 667.116 519.817 666.993C520.517 666.528 522.238 665.425 524.294 663.818C524.779 663.439 525.228 663.072 525.649 662.455C526.702 660.913 526.625 659.199 526.59 658.618C526.517 657.398 526.096 656.525 525.254 654.779C524.302 652.797 523.29 651.38 522.712 650.627C521.635 649.212 520.668 648.279 519.968 647.602C518.499 646.189 517.247 645.241 514.988 643.554C513.162 642.189 512.436 641.735 511.198 640.558C510.131 639.551 509.455 638.737 508.942 637.666C508.5 636.748 508.313 635.909 508.219 635.332L508.287 635.199C508.311 635.151 509.257 633.367 509.28 633.319L509.251 633.315Z" fill="#244523" stroke="#FFF6F2" stroke-width="2" stroke-miterlimit="10"/>
<path d="M504.494 647.961C506.288 648.999 507.48 650.165 508.199 650.983C509.326 652.258 509.84 653.31 509.973 653.586C510.458 654.595 510.82 655.352 510.783 656.374C510.754 657.355 510.37 658.099 509.614 659.585C509.263 660.272 508.929 660.826 508.689 661.206C509.043 661.379 509.784 661.807 510.314 662.675C510.406 662.822 510.811 663.513 510.87 664.564C510.956 665.977 510.338 666.548 510.015 667.99C509.852 668.714 509.739 669.79 510.032 671.204C510.785 670.783 511.581 670.277 512.403 669.667C514.335 668.23 515.751 666.681 516.768 665.359C516.48 665.526 515.467 666.072 514.443 665.693C514.248 665.622 513.987 665.49 513.7 665.221C512.922 664.496 512.545 663.329 512.244 660.511C512.042 658.588 511.939 657.622 512.051 656.602C512.221 655.06 512.657 653.843 513.011 653.044L513.018 653.027C513.091 652.46 513.271 651.099 513.345 650.532C512.303 650.671 510.351 650.794 508.113 650.023C506.43 649.442 505.228 648.582 504.492 647.967L504.494 647.961Z" fill="#244523" stroke="#FFF6F2" stroke-miterlimit="10"/>
<path d="M537.145 628.144C537.969 629.106 538.877 630.308 539.747 631.768C540.56 633.124 541.154 634.407 541.6 635.523L535.663 641.722C534.942 640.859 534.147 639.781 533.389 638.463C532.651 637.178 532.128 635.978 531.747 634.942L537.145 628.144Z" fill="#FFF6F2" stroke="#FFF6F2" stroke-width="2" stroke-miterlimit="10"/>
<path d="M548.865 611.316C549.578 611.872 550.557 612.771 551.414 614.112C552.071 615.134 552.458 616.102 552.69 616.85C551.637 619.137 550.206 621.786 548.258 624.569C546.628 626.898 544.972 628.846 543.443 630.443C542.951 629.418 542.401 628.346 541.768 627.238C541.176 626.196 540.577 625.22 539.99 624.318C541.413 622.178 542.864 620.029 544.339 617.87C545.844 615.659 547.353 613.474 548.857 611.319L548.865 611.316Z" fill="#FFF6F2" stroke="#FFF6F2" stroke-width="2" stroke-miterlimit="10"/>
<path d="M555.796 601.186C556.396 601.411 557.477 601.911 558.475 602.969C559.321 603.871 559.74 604.8 559.954 605.376C559.394 606.966 558.45 609.04 556.807 611.125C556.091 612.033 555.359 612.796 554.668 613.428C554.406 612.449 554.008 611.287 553.389 610.039C552.951 609.16 552.487 608.404 552.039 607.761L555.798 601.18L555.796 601.186Z" fill="#FFF6F2" stroke="#FFF6F2" stroke-width="2" stroke-miterlimit="10"/>
<path d="M569.773 580.393L575.653 583.423C573.752 586.425 572.057 588.965 570.702 590.953C567.656 595.42 566.39 596.973 564.984 598.444C563.513 599.986 562.167 601.15 561.2 601.934C561.041 601.296 560.769 600.464 560.274 599.57C559.9 598.898 559.492 598.352 559.132 597.936C560.234 594.72 561.617 592.445 562.684 590.952C564.3 588.699 565.632 587.624 567.458 584.74C568.58 582.977 569.322 581.422 569.773 580.393Z" fill="#FFF6F2" stroke="#FFF6F2" stroke-width="2" stroke-miterlimit="10"/>
<path d="M646.567 395.127C646.008 392.051 645.251 389.376 644.479 387.144C643.171 383.366 642.518 381.48 640.936 379.427C638.841 376.701 637.389 374.809 635.101 373.654C634.573 373.386 633.14 372.726 632.543 371.296C632.422 371.005 632.196 370.342 632.31 369.544C632.472 368.422 633.222 367.679 634.057 366.929C636.901 364.352 638.326 363.059 640.361 362.48C641.015 362.295 642.182 361.968 643.675 362.101C644.543 362.177 645.289 362.386 645.844 362.543C646.509 362.729 646.854 362.873 648.132 363.351C649.438 363.839 650.083 364.061 650.39 364.173C652.991 365.145 656.495 367.765 656.776 367.981C661.002 371.167 663.111 372.762 664.556 375.176C664.847 375.66 665.68 377.119 666.78 381.939C667.45 384.866 668.202 389.01 668.539 394.14L646.577 395.137L646.567 395.127Z" fill="#244523" stroke="#FFF6F2" stroke-width="2" stroke-miterlimit="10"/>
<path d="M647.459 363.466C646.634 363.476 645.097 363.623 643.453 363.978C641.944 364.307 640.792 364.714 639.88 365.103C638.243 365.801 637.411 366.439 636.829 367.067C636.425 367.501 636.128 367.935 635.966 368.483C635.909 368.676 635.72 369.315 635.893 369.883C636.183 370.854 637.414 371.201 638.188 371.539C639.228 371.993 640.3 373.369 642.449 376.121C644.219 378.387 645.36 380.249 646.173 381.586C647.63 383.985 648.573 385.888 649.121 387.054C649.944 388.818 650.31 389.841 650.482 390.34C651.059 392.033 651.323 393.373 651.434 394.02C651.5 394.378 651.542 394.678 651.572 394.891L665.89 394.237C665.907 392.974 665.925 391.175 665.888 389.002C665.846 386.379 665.811 384.27 665.576 381.76C665.24 378.19 665.074 376.407 664.551 375.155C663.554 372.778 661.291 371.172 656.771 367.961C650.66 363.621 648.469 363.449 647.455 363.459L647.459 363.466Z" fill="#244523" stroke="#FFF6F2" stroke-width="2" stroke-miterlimit="10"/>
</g>
<g filter="url(#filter1_d_316_4993)">
<path d="M776.576 281.574C777.096 276.954 777.02 271.051 775.058 264.673C773.903 260.916 772.534 256.47 768.499 252.347C764.024 247.781 758.893 246.297 756.153 245.54C753.656 244.846 748.696 243.545 742.5 244.94C735.088 246.608 730.574 251.072 729.044 252.721C724.525 257.621 723.187 262.848 722.619 265.205C721.001 271.906 722.135 277.396 722.672 279.877C723.798 285.011 724.874 284.551 729.391 296.71C730.934 300.861 732.068 304.331 731.387 308.658C731.013 311.009 730.219 312.859 729.586 314.088C727.329 320.209 725.074 326.32 722.817 332.441L727.807 334.255C730.673 324.972 732.693 319.388 734.176 315.76C734.638 314.633 735.53 312.516 735.941 309.552C736.381 306.421 736.1 303.752 735.877 301.733C735.733 300.478 735.429 298.231 734.744 295.664C732.633 287.767 729.537 286.439 727.388 279.623C726.582 277.053 725.107 272.173 726.425 266.252C727.667 260.704 730.721 257.089 731.96 255.764C733.226 254.403 736.787 250.675 742.805 249.258C748.091 248.017 752.34 249.254 754.326 249.858C760.37 251.685 763.944 255.372 764.94 256.462C768.161 259.964 769.384 263.51 770.414 266.596C772.317 272.273 772.532 277.56 772.193 281.725L776.573 281.593L776.576 281.574Z" fill="#FF6726" stroke="#FFF6F2" stroke-width="2" stroke-linejoin="round"/>
<path d="M438.891 296.979C477.978 288.264 508.927 288.157 527.503 288.193C549.114 288.236 569.909 290.888 611.508 296.202C611.508 296.202 658.311 302.241 704.245 318.504C707.618 319.698 720.257 324.323 731.803 335.721C739.077 342.903 747.475 354.305 744.77 357.494C742.795 359.826 737.191 357.396 718.06 350.205C707.137 346.096 696.287 341.806 685.203 338.156C654.529 328.066 609.237 318.181 596.241 316.042C528.725 304.929 471.287 308.591 436.775 312.721C401.839 316.898 371.697 323.778 347.306 330.748C383.164 311.838 415.509 302.198 438.889 296.989L438.891 296.979Z" fill="#FF6726" stroke="#FFF6F2" stroke-width="2" stroke-linejoin="round"/>
<path d="M718.72 372.488L754.883 364.405C760.654 385.06 763.873 402.911 765.76 416.627C768.528 436.692 768.841 450.638 768.799 458.998C768.72 474.876 767.266 483.068 766.747 485.839C765.991 489.839 765.81 489.655 758.753 512.456C752.928 531.27 751.344 536.911 747.979 544.36C747.946 544.435 747.963 544.397 742.523 556.304C740.983 559.677 739.444 563.051 737.895 566.424C732.253 578.782 729.856 584.025 729.856 584.025C723.052 598.889 713.406 617.081 696.943 649.119C694.501 653.867 690.542 661.577 685.62 671.239L651.801 654.969C665.637 629.139 676.952 607.119 685.478 590.213C694.846 571.637 702.064 556.846 709.997 537.652C719.08 515.686 722.089 504.955 723.609 499.039C728.75 479.038 729.897 463.379 730.234 457.955C730.588 452.088 731.143 438.863 729.338 422.146C727.778 407.675 725.083 396.467 723.237 388.912C721.598 382.195 719.979 376.578 718.724 372.468L718.72 372.488Z" fill="#244523" stroke="#FFF6F2" stroke-width="2" stroke-miterlimit="10"/>
<path d="M737.893 566.433C738.269 566.662 738.865 566.97 739.651 567.119C740.015 567.183 741.548 567.474 742.976 566.69C744.468 565.887 744.952 564.408 745.595 562.491C746.089 561.014 746.371 560.16 745.987 559.229C745.587 558.275 744.636 557.62 743.775 557.032C743.287 556.692 742.84 556.461 742.513 556.302C740.973 559.676 739.434 563.05 737.885 566.422L737.893 566.433Z" fill="#244523" stroke="#FFF6F2" stroke-width="2" stroke-miterlimit="10"/>
<path d="M651.809 654.981C649.917 653.561 647.3 651.475 644.406 648.71C640.919 645.394 639.18 643.737 638.233 641.793C637.823 640.949 635.041 635.25 636.047 629.426C636.211 628.5 636.637 626.545 635.583 625.09C635.493 624.972 634.622 623.803 633.343 623.801C632.054 623.797 631.122 624.993 630.675 625.574C629.205 627.519 628.575 630.342 629.038 639.289C629.27 643.676 629.396 645.901 630.053 647.53C630.702 649.147 631.741 650.915 633.686 654.223C635.382 657.101 635.39 656.879 635.58 657.471C636.66 660.911 634.436 662.519 635.406 666.061C635.567 666.648 636.135 668.606 637.855 669.966C639.264 671.077 640.579 671.106 644.171 671.638C644.171 671.638 647.307 672.11 650.257 672.711C653.06 673.286 653.71 674.092 660.812 678.268C665.873 681.242 670.747 683.889 673.372 685.184C677.053 687.001 677.369 686.702 678.453 687.695C678.742 687.959 679.322 688.528 680.07 688.488C680.942 688.438 681.57 687.584 681.873 687.13C684.324 683.541 684.023 680.868 686.278 678.047C687.698 676.267 689.27 675.528 689.112 674.069C689.015 673.178 688.316 672.476 688.187 672.342C687.197 671.335 685.94 671.265 685.638 671.253C674.368 665.833 663.089 660.402 651.819 654.983L651.809 654.981Z" fill="#244523" stroke="#FFF6F2" stroke-width="2" stroke-miterlimit="10"/>
<path d="M678.444 687.692C678.064 688.692 677.482 689.919 676.587 691.193C676.046 691.961 675.497 692.595 674.988 693.125C674.291 693.449 673.112 693.86 671.711 693.684C670.707 693.558 669.822 693.168 668.015 691.895C665.864 690.389 665.318 689.683 664.083 688.745C662.72 687.722 660.885 687.013 657.212 685.614C654.633 684.631 652.997 684.008 650.615 683.293C648.531 682.672 647.607 682.499 646.215 681.756C644.442 680.813 643.21 679.621 642.429 678.753C642.265 678.125 642.138 677.29 642.199 676.316C642.354 673.936 643.611 672.279 644.163 671.625C646.891 671.873 648.988 672.364 650.249 672.699C658.742 674.978 662.243 679.312 673.364 685.172C675.612 686.36 677.45 687.223 678.445 687.682L678.444 687.692Z" fill="#244523" stroke="#FFF6F2" stroke-width="2" stroke-miterlimit="10"/>
<path d="M642.427 678.763C641.839 679.045 641.251 679.327 640.662 679.619C640.033 681.458 639.279 683.427 638.369 685.48C637.188 688.145 635.936 690.524 634.713 692.624C635.813 693.01 637.361 693.558 639.225 694.16C639.225 694.16 641.867 695.012 644.118 695.663C648.729 696.984 650.323 696.523 656.842 697.906C658.417 698.245 662.671 699.168 668.082 700.731C669.464 701.127 670.63 701.485 671.497 701.75C672.976 700.792 673.598 699.795 673.891 699.055C674.253 698.154 674.161 697.528 674.537 695.391C674.709 694.416 674.878 693.633 674.996 693.136C674.299 693.46 673.12 693.872 671.719 693.696C670.716 693.57 669.83 693.18 668.023 691.907C665.872 690.401 665.327 689.695 664.091 688.756C662.728 687.734 660.893 687.025 657.22 685.626C654.642 684.643 653.005 684.019 650.623 683.305C648.539 682.683 647.615 682.51 646.223 681.767C644.45 680.825 643.218 679.633 642.437 678.764L642.427 678.763Z" fill="#244523" stroke="#FFF6F2" stroke-width="2" stroke-miterlimit="10"/>
<path d="M594.954 834.262C596.149 835.315 597.512 836.683 598.854 838.402C600.107 839.993 601.054 841.531 601.765 842.855C603.625 840.888 605.019 839.144 606.001 837.834C607.743 835.501 607.978 834.801 608.097 834.355C608.515 832.733 608.097 831.766 608.899 830.902C609.701 830.038 610.516 830.598 611.306 829.803C612.528 828.577 611.236 826.633 612.424 825.421C613.329 824.494 614.412 825.264 615.274 824.35C616.36 823.201 615.02 821.583 616.057 819.908C616.882 818.571 618.009 819.145 619.101 817.734C620.286 816.196 619.247 815.119 620.41 813.131C621.403 811.417 622.475 811.728 623.059 810.146C623.656 808.545 622.726 807.772 623.446 806.568C624.212 805.272 625.471 805.849 626.398 804.622C627.655 802.965 626.006 801.029 627.334 799.313C628.165 798.231 629.005 798.765 629.738 797.717C630.948 795.98 629.13 793.852 630.339 792.349C631.11 791.378 632.052 792.022 632.831 791.063C634.128 789.464 632.18 786.805 633.456 785.558C634.204 784.826 635.225 785.372 635.635 784.662C636.223 783.629 634.212 782.137 634.749 780.759C635.123 779.789 636.27 780.195 637.095 779.203C638.678 777.309 635.943 774.044 637.582 771.947C638.238 771.108 639.171 770.999 639.293 770.076C639.408 769.192 638.587 768.956 638.552 768.117C638.479 766.287 642.343 765.506 642.36 763.57C642.369 762.596 641.406 762.467 641.487 761.547C641.621 759.926 644.637 759.808 645.153 757.807C645.466 756.603 644.526 756.062 645.005 755.019C645.555 753.796 646.983 754.22 647.82 753.048C648.846 751.604 647.192 750.216 648.001 748.104C648.722 746.201 650.373 746.512 651.094 744.557C651.782 742.668 650.443 741.853 651.174 740.185C652.008 738.281 654.069 738.685 654.772 736.829C655.397 735.182 654.04 734.181 654.834 732.849C655.617 731.515 657.323 731.917 657.77 730.706C658.197 729.553 656.819 728.843 657.142 727.59C657.572 725.899 660.394 726.021 660.771 724.341C661.015 723.246 659.917 722.85 660.155 721.673C660.474 720.095 662.622 720.067 662.983 718.476C663.258 717.265 662.111 716.86 662.327 715.75C662.715 713.778 666.5 713.968 667.163 711.82C667.621 710.317 665.98 709.54 666.487 708.107C667.137 706.262 670.161 706.622 671.273 704.462C671.782 703.476 671.645 702.406 671.507 701.752C670.64 701.487 669.474 701.129 668.092 700.733C662.679 699.18 658.427 698.247 656.852 697.909C650.333 696.526 648.739 696.986 644.128 695.665C641.867 695.012 639.235 694.162 639.235 694.162C637.371 693.56 635.821 693.022 634.723 692.626C634.398 693.259 633.987 694.09 633.503 695.051C631.871 698.317 631.753 698.641 631.692 699.159C631.472 701.039 632.351 702.047 631.707 702.705C631.101 703.319 630.228 702.566 629.424 703.095C627.898 704.095 629.784 707.677 627.935 709.585C627.115 710.435 626.58 709.894 625.862 710.742C624.348 712.537 626.27 715.455 624.793 716.809C624.151 717.396 623.718 716.914 623.048 717.486C621.311 718.987 623.257 723.098 621.927 723.848C621.363 724.165 620.869 723.509 620.301 723.856C619.277 724.477 620.565 726.735 619.458 728.632C618.583 730.143 617.313 729.513 616.431 731.002C615.287 732.943 616.752 735.171 615.53 736.113C614.953 736.56 614.578 736.098 613.974 736.53C612.52 737.573 614.216 740.685 612.602 742.35C611.932 743.044 611.543 742.6 610.915 743.281C609.37 744.958 611.202 748.104 609.896 749.062C609.265 749.529 608.71 748.873 608.071 749.329C606.665 750.34 608.562 754.036 607.026 755.258C606.39 755.755 605.92 755.256 605.306 755.797C604.058 756.887 605.663 759.302 604.405 760.908C603.633 761.889 602.82 761.259 601.954 762.253C600.56 763.825 602.123 766.02 600.691 767.747C599.905 768.695 599.337 768.169 598.535 769.093C596.853 771.031 598.619 774.256 597.22 775.167C596.555 775.598 596.032 774.938 595.355 775.377C593.898 776.328 595.505 779.942 594.025 780.961C593.284 781.48 592.625 780.724 591.907 781.227C590.446 782.259 592.425 785.948 590.829 787.342C589.99 788.068 589.145 787.33 588.333 788.08C586.996 789.327 588.758 791.831 587.372 793.526C586.504 794.592 585.515 793.981 584.674 795.122C583.578 796.614 584.652 798.53 583.664 799.178C582.963 799.643 582.269 798.8 581.489 799.191C580.219 799.83 581.457 802.424 580.126 804.962C579.683 805.808 578.384 806.726 575.792 808.584C573.56 810.181 572.425 810.976 571.503 811.077C570.416 811.2 570.006 810.874 566.442 810.185C565.421 809.984 564.57 809.855 563.999 809.754C563.804 810.227 563.562 810.967 563.628 811.862C563.718 813.137 564.372 814.146 565.31 815.164C567.372 817.406 569.717 818.561 570.643 819.008C572.596 819.972 575.495 821.438 579.316 823.493C581.677 824.731 584.218 826.215 586.868 828.002C589.99 830.107 592.681 832.236 594.967 834.244L594.954 834.262Z" fill="#244523" stroke="#FFF6F2" stroke-width="2" stroke-miterlimit="10"/>
<path d="M563.976 809.77L560.494 808.039C560.069 808.604 559.19 809.962 559.322 811.691C559.362 812.267 559.551 813.326 561.204 815.354C563.099 817.678 565.096 819.025 565.795 819.494C568.197 821.075 569.532 821.625 572.963 823.357C577.206 825.497 579.572 826.706 582.413 828.618C583.784 829.54 585.651 830.814 587.853 832.837C589.033 833.918 591.127 835.983 593.288 838.984C595.205 841.648 596.158 842.983 596.631 844.965C597.293 847.773 596.667 850.232 596.19 851.61L601.744 842.861C601.139 841.739 600.201 840.152 598.833 838.408C597.499 836.701 596.184 835.403 594.932 834.268C587.72 827.777 579.28 823.527 579.28 823.527C576.37 822.059 573.553 820.415 570.607 819.043C570.026 818.768 567.464 817.575 565.273 815.198C564.336 814.18 563.681 813.171 563.591 811.896C563.526 811.001 563.768 810.262 563.963 809.788L563.976 809.77Z" fill="#244523" stroke="#FFF6F2" stroke-width="2" stroke-miterlimit="10"/>
<path d="M560.504 808.041C559.427 807.353 557.871 806.155 556.63 804.21C555.287 802.094 555.004 800.186 554.538 796.956C554.028 793.455 553.743 791.444 554.352 788.851C555.097 785.723 556.41 784.898 555.905 782.809C555.391 780.657 553.513 779.442 552.969 779.133C552.454 778.829 550.547 777.721 549.227 778.473C548.2 779.054 547.998 780.49 547.906 781.185C546.608 791.253 545.964 796.287 546.304 800.632C546.552 803.834 546.96 806.648 547.767 812.263C549.035 821.138 549.781 823.758 551.151 826.527C553.605 831.499 556.288 833.333 556.905 833.746C559.562 835.494 562.18 835.905 563.517 836.1C567.505 836.692 570.9 835.808 572.35 835.414C575.283 834.621 575.661 833.916 577.906 833.794C578.686 833.748 581.161 833.647 583.798 835.046C584.495 835.413 588.072 837.414 589.079 841.318C589.766 843.988 588.823 846.228 586.938 850.699C585.841 853.288 584.691 855.207 582.383 859.024C579.139 864.403 577.434 866.357 576.398 867.453C575.048 868.891 573.8 869.98 572.912 870.697C572.544 872.034 571.892 874.752 572.655 875.15C572.831 875.242 573.221 875.28 575.47 873.464C577.497 871.82 578.318 870.96 578.318 870.96C584.522 864.398 587.631 861.107 587.9 860.85C588.925 859.873 591.459 857.538 594.401 854.269C595.096 853.498 595.734 852.758 596.251 851.61C597.549 848.742 596.919 845.92 596.691 844.966C596.212 842.962 595.258 841.636 593.349 838.984C591.189 835.974 589.094 833.919 587.914 832.837C585.714 830.804 583.835 829.539 582.474 828.618C579.623 826.704 577.267 825.497 573.024 823.357C569.593 821.625 568.256 821.085 565.856 819.494C563.791 818.135 562.43 816.981 561.265 815.354C560.262 813.959 559.706 812.622 559.383 811.691L559.456 811.45C559.481 811.364 560.529 808.126 560.555 808.039L560.504 808.041Z" fill="#244523" stroke="#FFF6F2" stroke-width="2" stroke-miterlimit="10"/>
<path d="M556.895 833.745C560.177 834.943 562.497 836.53 563.93 837.676C566.173 839.463 567.334 841.059 567.636 841.477C568.736 843.012 569.559 844.162 569.796 845.869C570.035 847.506 569.615 848.853 568.796 851.542C568.414 852.784 568.022 853.802 567.735 854.503C568.373 854.686 569.728 855.179 570.862 856.465C571.057 856.682 571.932 857.71 572.339 859.437C572.894 861.758 572.035 862.886 571.921 865.375C571.863 866.623 571.989 868.443 572.89 870.704C574.017 869.785 575.191 868.713 576.377 867.46C579.161 864.509 581.059 861.523 582.361 859.031C581.932 859.392 580.41 860.596 578.6 860.267C578.255 860.206 577.783 860.062 577.227 859.7C575.724 858.724 574.756 856.898 573.433 852.309C572.534 849.175 572.08 847.602 571.968 845.876C571.798 843.267 572.167 841.119 572.521 839.688L572.526 839.659C572.482 838.697 572.382 836.384 572.339 835.422C570.65 835.957 567.447 836.732 563.505 836.109C560.542 835.637 558.295 834.56 556.894 833.755L556.895 833.745Z" fill="#244523" stroke="#FFF6F2" stroke-width="2" stroke-miterlimit="10"/>
<path d="M605.292 791.294C606.942 792.651 608.8 794.38 610.672 796.548C612.418 798.562 613.779 800.518 614.847 802.24L606.806 814.266C605.356 813.046 603.722 811.488 602.078 809.523C600.477 807.606 599.257 805.766 598.322 804.159L605.292 791.294Z" fill="#FFF6F2" stroke="#FFF6F2" stroke-width="2" stroke-miterlimit="10"/>
<path d="M619.819 759.93C621.165 760.645 623.055 761.851 624.869 763.826C626.259 765.331 627.184 766.824 627.789 767.997C626.71 772.102 625.11 776.917 622.692 782.106C620.667 786.45 618.488 790.168 616.419 793.266C615.302 791.709 614.074 790.091 612.701 788.437C611.412 786.88 610.133 785.436 608.894 784.11C610.63 780.142 612.41 776.15 614.225 772.134C616.077 768.023 617.942 763.955 619.808 759.938L619.819 759.93Z" fill="#FFF6F2" stroke="#FFF6F2" stroke-width="2" stroke-miterlimit="10"/>
<path d="M628.361 741.087C629.423 741.284 631.363 741.799 633.329 743.263C634.997 744.511 635.965 745.931 636.488 746.825C636.024 749.628 635.064 753.347 632.947 757.29C632.025 759.006 631.033 760.486 630.071 761.738C629.349 760.189 628.348 758.378 626.955 756.487C625.972 755.156 624.981 754.037 624.049 753.101L628.363 741.077L628.361 741.087Z" fill="#FFF6F2" stroke="#FFF6F2" stroke-width="2" stroke-miterlimit="10"/>
<path d="M645.475 702.483L656.122 705.792C653.845 711.331 651.776 716.043 650.108 719.739C646.359 728.045 644.712 730.993 642.808 733.846C640.818 736.836 638.926 739.163 637.549 740.748C637.099 739.734 636.404 738.434 635.32 737.095C634.502 736.088 633.666 735.301 632.947 734.717C633.834 729.055 635.464 724.874 636.799 722.084C638.821 717.871 640.718 715.697 642.905 710.376C644.251 707.12 645.028 704.323 645.475 702.483Z" fill="#FFF6F2" stroke="#FFF6F2" stroke-width="2" stroke-miterlimit="10"/>
<path d="M718.72 372.488C716.891 367.545 714.852 363.327 712.917 359.848C709.64 353.96 708.005 351.021 704.778 348.076C700.502 344.164 697.538 341.448 693.402 340.201C692.448 339.911 689.877 339.234 688.467 337.036C688.18 336.589 687.611 335.555 687.566 334.196C687.507 332.287 688.535 330.833 689.701 329.343C693.669 324.235 695.654 321.67 698.863 320.114C699.895 319.616 701.737 318.732 704.253 318.516C705.717 318.388 707.015 318.515 707.982 318.615C709.14 318.728 709.755 318.866 712.017 319.286C714.328 319.713 715.464 319.893 716.005 319.989C720.607 320.841 727.19 324.165 727.72 324.441C735.667 328.492 739.635 330.522 742.74 334.106C743.365 334.825 745.174 337.002 748.41 344.681C750.38 349.344 752.841 356.002 754.901 364.418L718.738 372.501L718.72 372.488Z" fill="#244523" stroke="#FFF6F2" stroke-width="2" stroke-miterlimit="10"/>
<path d="M710.933 319.673C709.568 319.93 707.059 320.625 704.433 321.695C702.025 322.682 700.232 323.696 698.832 324.607C696.32 326.245 695.126 327.548 694.343 328.76C693.799 329.599 693.433 330.407 693.326 331.363C693.286 331.702 693.161 332.817 693.613 333.709C694.379 335.235 696.524 335.451 697.907 335.786C699.767 336.236 701.949 338.205 706.321 342.144C709.922 345.388 712.361 348.144 714.103 350.126C717.223 353.682 719.345 356.564 720.596 358.338C722.478 361.026 723.385 362.618 723.817 363.395C725.27 366.037 726.1 368.184 726.475 369.225C726.688 369.8 726.846 370.285 726.958 370.63L750.532 365.353C750.192 363.252 749.694 360.261 748.998 356.665C748.159 352.323 747.485 348.833 746.359 344.736C744.757 338.909 743.96 335.996 742.726 334.073C740.374 330.419 736.148 328.415 727.706 324.408C716.292 318.993 712.605 319.349 710.925 319.662L710.933 319.673Z" fill="#244523" stroke="#FFF6F2" stroke-width="2" stroke-miterlimit="10"/>
</g>
<defs>
<filter id="filter0_d_316_4993" x="428.854" y="320.964" width="266.421" height="361.853" filterUnits="userSpaceOnUse" color-interpolation-filters="sRGB">
<feFlood flood-opacity="0" result="BackgroundImageFix"/>
<feColorMatrix in="SourceAlpha" type="matrix" values="0 0 0 0 0 0 0 0 0 0 0 0 0 0 0 0 0 0 127 0" result="hardAlpha"/>
<feOffset dy="4"/>
<feGaussianBlur stdDeviation="2"/>
<feComposite in2="hardAlpha" operator="out"/>
<feColorMatrix type="matrix" values="0 0 0 0 0 0 0 0 0 0 0 0 0 0 0 0 0 0 0.25 0"/>
<feBlend mode="normal" in2="BackgroundImageFix" result="effect1_dropShadow_316_4993"/>
<feBlend mode="normal" in="SourceGraphic" in2="effect1_dropShadow_316_4993" result="shape"/>
</filter>
<filter id="filter1_d_316_4993" x="342.305" y="243.32" width="439.545" height="640.864" filterUnits="userSpaceOnUse" color-interpolation-filters="sRGB">
<feFlood flood-opacity="0" result="BackgroundImageFix"/>
<feColorMatrix in="SourceAlpha" type="matrix" values="0 0 0 0 0 0 0 0 0 0 0 0 0 0 0 0 0 0 127 0" result="hardAlpha"/>
<feOffset dy="4"/>
<feGaussianBlur stdDeviation="2"/>
<feComposite in2="hardAlpha" operator="out"/>
<feColorMatrix type="matrix" values="0 0 0 0 0 0 0 0 0 0 0 0 0 0 0 0 0 0 0.25 0"/>
<feBlend mode="normal" in2="BackgroundImageFix" result="effect1_dropShadow_316_4993"/>
<feBlend mode="normal" in="SourceGraphic" in2="effect1_dropShadow_316_4993" result="shape"/>
</filter>
</defs>
</svg>
