<svg width="1440" height="346" viewBox="0 0 1440 346" fill="none" xmlns="http://www.w3.org/2000/svg">
<g filter="url(#filter0_d_316_5074)">
<path d="M-77 0H1506V338L-77 187.5V0Z" fill="#244523"/>
<path d="M1504 2V335.8L-75 185.681V2H1504Z" stroke="#FFF6F2" stroke-width="4"/>
</g>
<path d="M1126.19 21.0832C1126 20.9647 1125.07 20.3674 1125.03 19.306C1124.99 18.2989 1125.76 17.4893 1126.5 17.2178C1127.17 16.971 1127.52 17.2869 1128.12 17.2178C1129.61 17.05 1130.3 14.7742 1131.06 13.4265C1132.4 11.0816 1134.72 10.2128 1138.96 8.62812C1140.13 8.18876 1143.79 6.92005 1148.71 7.00397C1153.58 7.0879 1157.1 8.45533 1157.91 8.78115C1159.8 9.54139 1161.11 10.351 1162.94 11.4913C1165.42 13.0266 1166.68 13.8214 1167.74 15.2827C1168.2 15.9047 1169.41 17.6226 1169.6 20.081C1169.74 21.9273 1169.23 23.2553 1168.44 25.3435C1167.81 26.9972 1167.28 28.3795 1165.96 29.7518C1164.61 31.1588 1163.04 31.9141 1162.86 31.998C1161.34 32.7138 1160.73 32.5262 1159.69 33.3901C1159.33 33.6912 1158.39 34.5008 1158.15 35.7893C1158.01 36.4952 1158.15 37.0975 1158.46 38.2675C1158.73 39.3387 1159.06 40.1829 1159.31 40.7457L1156.06 41.4417C1155.51 40.5778 1154.7 39.0623 1154.43 37.0333C1154.29 36.0164 1154.15 34.9106 1154.59 33.6271C1155.38 31.3167 1157.48 30.1863 1157.99 29.9147C1159.68 29.0064 1160.18 29.5494 1161.55 28.6016C1162.81 27.7328 1163.39 26.5825 1164.03 25.3533C1164.75 23.9513 1165.33 22.8307 1165.19 21.33C1165.06 19.8688 1164.33 18.8568 1163.88 18.2347C1162.86 16.8327 1161.68 16.1564 1160.01 15.2185C1159.63 15.0062 1157.84 14.0238 1155.21 13.2043C1154.48 12.9773 1152.55 12.4145 1149.95 12.1232C1148.4 11.9504 1146.51 11.748 1144.07 12.0442C1142.68 12.2121 1140.31 12.5231 1137.64 13.9004C1136.57 14.4533 1135.12 15.2037 1133.7 16.6847C1132.94 17.4745 1132.26 18.3977 1130.6 20.0119C1129.91 20.6932 1129.33 21.2066 1128.44 21.404C1128.14 21.4682 1127.13 21.6953 1126.19 21.093L1126.19 21.0832Z" fill="#FF6726" stroke="#FFF6F2" stroke-width="2" stroke-miterlimit="10"/>
<path d="M1156.05 41.4369C1151.65 42.3996 1149.46 42.8833 1147.31 43.6041C1145.23 44.3051 1142.83 45.1048 1140.19 47.0103C1137.72 48.7875 1136.17 50.7177 1134.93 52.2728C1133.15 54.5041 1132.77 55.5359 1131.52 57.3772C1128.81 61.3907 1125.75 63.7454 1122.86 65.9669C1122.02 66.6087 1119.24 68.6968 1112.72 72.0044C1106.28 75.2675 1105.21 75.1391 1095.93 79.276C1085.84 83.7732 1086.86 84.0299 1082.55 85.4665C1081.04 85.97 1077.25 87.1548 1072.64 89.7218C1071.58 90.3142 1070.72 90.8424 1070.16 91.1929C1070.3 91.6224 1070.48 92.4567 1070.16 93.3601C1069.61 94.9398 1067.88 95.7001 1066.53 95.7593C1065.42 95.8087 1064.55 95.3891 1064.13 95.1422C1060.42 97.4081 1057.48 99.5802 1055.31 101.333C1053.42 102.843 1051.52 104.507 1050.2 107.059C1049.32 108.748 1049.11 110.026 1049.04 110.772C1048.9 112.218 1049.14 113.413 1049.35 114.178C1052.45 112.42 1056.62 110.075 1061.58 107.37C1067.12 104.339 1074.48 100.331 1083.78 95.6852C1090.94 92.1111 1096.62 89.4701 1106.22 85.0074C1115.92 80.4953 1116.71 80.2633 1121.61 77.8098C1128.03 74.601 1128.88 73.905 1138.4 69.0671C1146.29 65.0586 1149.82 63.4492 1151.79 62.5656C1156.25 60.5712 1160.05 59.0507 1162.78 57.9992L1157.91 41.042C1157.47 41.1358 1156.82 41.2691 1156.05 41.4419L1156.05 41.4369Z" fill="#FF6726" stroke="#FFF6F2" stroke-width="2" stroke-miterlimit="10"/>
<path d="M1159.3 40.7365C1161.78 40.3515 1163.76 40.8106 1164.71 41.0327C1175.64 43.5899 1175.91 43.6491 1177.07 44.0638C1182.72 46.0878 1186.87 48.3833 1189.97 50.1111C1192.45 51.4983 1194.52 52.7868 1199.46 55.5069C1200.86 56.272 1202.93 57.3976 1205.78 58.5824C1207.48 59.2883 1208.93 59.8017 1209.99 60.1473C1208.81 59.8856 1207.21 59.6042 1205.29 59.5006C1203.04 59.3771 1201.35 59.5549 1199.84 59.7178C1197.75 59.9449 1196.21 60.1226 1194.29 60.7989C1192.64 61.3765 1191.59 62.0133 1191.05 62.3638C1190.38 62.7982 1189.86 63.2228 1189.48 63.5535C1185.77 62.4082 1182.62 61.5344 1180.25 60.9075C1175.54 59.6585 1173.18 59.0365 1171.29 58.8588C1170.31 58.765 1167.88 58.5873 1164.17 58.1578C1163.59 58.0887 1163.11 58.0344 1162.79 57.9949L1157.91 41.0377C1158.21 40.9537 1158.7 40.8353 1159.3 40.7415V40.7365Z" fill="#FF6726" stroke="#FFF6F2" stroke-width="2" stroke-miterlimit="10"/>
<path d="M1162.78 57.9941L1163.13 63.0245C1161.55 63.8292 1159.18 65.0189 1156.3 66.4407C1150.45 69.3286 1146.92 70.9774 1143.67 72.5374C1134.55 76.9063 1135.46 76.8026 1125.02 81.8972C1117.49 85.5749 1115.5 86.3747 1108.41 89.9537C1104.44 91.953 1101.23 93.6414 1099.16 94.7422C1096.83 95.1914 1094.9 95.695 1093.48 96.1096C1090.71 96.9143 1088.25 97.6449 1085.29 99.2246C1084.37 99.7134 1082.84 100.582 1081.08 101.876C1080.56 102.256 1079.34 103.179 1077.89 104.527C1077.09 105.267 1076.43 105.943 1075.92 106.491L1061.58 107.365C1070.69 102.295 1078.33 98.3904 1083.78 95.6802C1091.72 91.7408 1099.81 87.984 1106.22 85.0023C1115.92 80.4902 1116.71 80.2582 1121.61 77.8047C1128.03 74.5959 1128.88 73.8999 1138.4 69.062C1146.29 65.0535 1149.82 63.4441 1151.79 62.5605C1156.25 60.5661 1160.05 59.0456 1162.78 57.9941Z" fill="#FF6726" stroke="#FFF6F2" stroke-width="2" stroke-miterlimit="10"/>
<path d="M1061.58 107.355C1060.67 107.839 1059.33 108.713 1058.15 110.199C1057.48 111.053 1057.15 111.759 1056.49 113.18C1055.97 114.281 1055.79 114.898 1055.96 115.57C1056.08 116.039 1056.33 116.374 1056.52 116.587L1073.69 114.558C1073.47 113.595 1073.33 112.238 1073.69 110.722C1073.94 109.675 1074.35 108.886 1074.57 108.461C1075.03 107.602 1075.53 106.945 1075.93 106.481L1061.58 107.355H1061.58Z" fill="#FF6726" stroke="#FFF6F2" stroke-width="2" stroke-miterlimit="10"/>
<path d="M1056.52 116.592C1055.78 117.229 1054.77 117.974 1053.43 118.591C1052.73 118.917 1052.06 119.149 1051.47 119.312C1051.09 119.055 1050.46 118.562 1049.96 117.737C1049.43 116.863 1049.31 116.059 1049.28 115.802C1049.19 115.106 1049.27 114.533 1049.35 114.163L1061.58 107.355C1060.67 107.839 1059.33 108.713 1058.15 110.199C1057.48 111.053 1057.15 111.759 1056.49 113.181C1055.97 114.282 1055.79 114.899 1055.96 115.57C1056.08 116.039 1056.33 116.375 1056.52 116.587L1056.52 116.592Z" fill="#FF6726" stroke="#FFF6F2" stroke-width="2" stroke-miterlimit="10"/>
<path d="M1163.13 63.0245C1164.35 63.1183 1165.98 63.2763 1167.91 63.5528C1169.91 63.8391 1171.6 64.1994 1174.96 64.9103C1178.02 65.562 1179.17 65.8631 1180.51 66.3419C1181.62 66.7369 1182.52 67.1318 1183.13 67.4181C1184.03 66.569 1184.87 66.1198 1185.46 65.868C1186.56 65.399 1187.33 65.3842 1188.33 64.6734C1188.88 64.2784 1189.26 63.8489 1189.48 63.5528C1185.76 62.3927 1182.61 61.5238 1180.25 60.9067C1176.46 59.9194 1174.27 59.3517 1171.29 58.858C1167.78 58.2755 1164.83 58.0731 1162.78 57.9941L1163.13 63.0245Z" fill="#FF6726" stroke="#FFF6F2" stroke-width="2" stroke-miterlimit="10"/>
<path d="M1209.99 60.1514C1210.63 58.4038 1211.07 56.9672 1211.35 55.9947C1211.95 53.9312 1212.1 52.9834 1212.94 51.7246C1213.18 51.3593 1213.76 50.5003 1214.74 49.745C1216.17 48.6491 1217.22 48.7182 1219.19 48.1159C1222.31 47.1632 1224.33 45.5686 1225.44 44.685C1226.57 43.7915 1227.5 42.8486 1228.17 41.5157C1228.44 40.9727 1228.74 40.3655 1228.79 39.5361C1228.87 38.1539 1228.22 37.1122 1227.51 36.0163C1226.92 35.103 1225.85 33.6912 1224.08 32.3632C1223.7 32.0818 1222 30.8378 1219.39 29.9887C1217.4 29.3371 1215.84 29.2285 1214.09 29.11C1211.15 28.9076 1208.91 29.184 1208.19 29.2877C1207.58 29.3716 1205.5 29.6826 1202.91 30.5663C1200.58 31.3611 1199.15 32.1707 1198.73 32.4126C1197.32 33.2321 1196.61 33.6418 1196 34.481C1195.4 35.3054 1195.4 35.8139 1194.64 36.4162C1194.4 36.5988 1193.59 37.2159 1192.48 37.1665C1192.14 37.1517 1191.35 37.1122 1190.81 36.505C1190.26 35.8978 1190.3 35.1178 1190.32 34.7427C1190.37 33.8442 1190.83 32.8717 1191.64 32.3682C1192.26 31.9782 1192.71 32.0966 1193.36 31.9732C1195.09 31.6425 1195.66 30.0578 1197.06 28.6262C1198.43 27.2193 1199.86 26.7108 1202.52 25.763C1205.15 24.825 1207.26 24.6424 1209.03 24.4844C1211.39 24.2771 1213.16 24.3857 1214.8 24.4844C1217.21 24.6325 1218.67 24.7214 1220.61 25.2743C1222.01 25.6791 1223.56 26.1382 1225.18 27.3427C1225.92 27.8907 1226.66 28.72 1228.13 30.3787C1229.69 32.1361 1230.48 33.0149 1230.91 33.8541C1231.8 35.6066 1231.95 37.211 1232.05 38.3859C1232.15 39.5805 1232.27 40.9332 1231.79 42.6116C1231.3 44.2901 1230.46 45.4057 1230.07 45.9142C1229.38 46.8127 1228.6 47.4396 1227.04 48.6886C1225.51 49.903 1224.75 50.5151 1223.6 51.1075C1221.94 51.9763 1220.34 52.396 1220.21 52.4256C1218.82 52.7859 1218.15 52.7415 1217.04 53.3487C1216.51 53.6449 1215.89 53.9806 1215.41 54.6668C1214.98 55.2839 1214.93 55.7973 1214.66 57.7028C1214.59 58.2211 1214.46 59.2035 1214.27 60.5216L1210 60.1415L1209.99 60.1514Z" fill="#FF6726" stroke="#FFF6F2" stroke-width="2" stroke-miterlimit="10"/>
<path d="M1183.13 67.4188C1181.61 68.6233 1180.94 69.5415 1180.14 70.3758C1179.23 71.3187 1178.83 71.452 1174.7 73.9697C1169.66 77.0304 1170.08 76.9316 1168.74 77.603C1168.22 77.8646 1165.93 79.0001 1162.23 80.0762C1157.66 81.4091 1156.42 81.0537 1151.19 82.0756C1148.06 82.6877 1148.8 82.7568 1140.42 84.9487C1139.26 85.2498 1135.13 86.326 1129.9 87.5651C1123.04 89.1892 1123.18 88.9917 1118.25 90.2358C1113.19 91.5045 1110.66 92.1413 1108.75 92.6991C1106.95 93.2224 1104.81 93.8839 1101.82 94.343C1100.79 94.501 1100.36 94.5257 1099.16 94.7379C1098.38 94.8762 1096.36 95.2514 1093.49 96.1054C1090.49 96.994 1088.17 97.6851 1085.29 99.2204C1084.38 99.7091 1082.84 100.578 1081.08 101.871C1079.82 102.804 1078.98 103.555 1077.89 104.522C1076.83 105.47 1076.36 105.959 1075.93 106.487C1075.29 107.252 1074.95 107.835 1074.57 108.467C1073.87 109.646 1073.43 110.407 1073.69 110.728C1073.92 111.019 1074.62 110.816 1074.93 110.728C1078.27 109.74 1079.94 109.247 1081.14 108.457C1081.76 108.047 1085.5 106.971 1093 104.814C1098.86 103.125 1101.79 102.281 1105.92 101.274C1106.94 101.027 1110.86 100.074 1116.1 99.018C1118.96 98.4404 1121.33 98.006 1125.64 97.2211C1132.43 95.982 1133.55 95.8536 1136.06 95.1181C1139.62 94.0764 1139.32 93.7753 1142.94 92.6547C1146.87 91.4403 1148.29 91.465 1154.95 90.142C1159.25 89.2879 1162.41 88.5277 1165.32 87.8316C1171.34 86.3902 1174.35 85.6645 1177.48 84.5982C1183.63 82.5001 1183.55 81.6954 1187.9 80.7476C1190.78 80.1256 1190.53 80.5353 1197.04 79.4641C1198.53 79.2173 1200.62 78.8569 1203.51 78.7434C1204.91 78.6891 1206.06 78.7137 1206.84 78.7434C1207.77 72.6713 1208.86 69.5465 1209.72 67.8137C1209.98 67.2707 1210.95 65.3997 1211.62 62.7093C1211.87 61.7022 1212.01 60.8679 1212.08 60.3397C1211.61 60.3051 1210.89 60.2508 1210 60.157C1207.51 59.8954 1206.63 59.6486 1205.31 59.5104C1203.56 59.3228 1202.33 59.456 1199.86 59.7276C1197.77 59.9546 1196.23 60.1324 1194.3 60.8087C1192.66 61.3863 1191.6 62.0181 1191.06 62.3736C1190.24 62.9067 1189.63 63.4448 1189.5 63.5633C1188.77 64.2051 1188.78 64.3285 1188.35 64.6839C1187.39 65.454 1186.75 65.3257 1185.48 65.8786C1184.67 66.234 1184.17 66.6339 1183.15 67.4287L1183.13 67.4188Z" fill="#FF6726" stroke="#FFF6F2" stroke-width="2" stroke-miterlimit="10"/>
<path d="M1214.25 60.5314C1215.71 60.7635 1216.87 61.1633 1218.38 61.7853C1221.19 62.9504 1222.6 63.5329 1224.29 64.6979C1225.76 65.705 1226.72 66.7022 1228.63 68.6966C1231.13 71.2834 1232.8 73.5246 1233.82 74.892C1234.88 76.3187 1235.58 77.3603 1236.2 78.2983C1238.29 81.4528 1238.84 82.7363 1239.19 83.773C1239.53 84.7751 1239.71 85.6242 1239.8 86.1623C1237.99 86.5079 1236.5 86.7448 1235.46 86.9028C1233.31 87.2187 1232.33 87.2928 1230.85 87.7272C1229.53 88.1172 1228.49 88.5911 1227.81 88.9416C1226.9 88.1517 1225.48 87.0114 1223.59 85.8562C1222.59 85.2391 1221.35 84.627 1218.9 83.4225C1215.11 81.5614 1216.22 82.2179 1213.38 80.8159C1211.76 80.0162 1210.63 79.4189 1208.86 79.0338C1208.02 78.8512 1207.3 78.7722 1206.82 78.7376C1207.75 72.6656 1208.84 69.5407 1209.69 67.808C1209.96 67.265 1210.92 65.394 1211.59 62.7036C1211.85 61.6965 1211.98 60.8622 1212.06 60.334C1212.6 60.3439 1213.36 60.3834 1214.25 60.5265L1214.25 60.5314Z" fill="#FF6726" stroke="#FFF6F2" stroke-width="2" stroke-miterlimit="10"/>
<path d="M1224.29 64.6983C1224.91 64.876 1229.15 66.0756 1229.77 66.2533C1239.72 69.0771 1240.62 69.3239 1241.91 69.6596C1246.55 70.8641 1250.1 71.5947 1253.32 72.2513C1261.11 73.8458 1260.69 73.4015 1266.13 74.6406C1270.99 75.7464 1272.46 76.3585 1278.86 77.805C1281.7 78.4467 1284.03 78.9206 1285.53 79.2119C1285.93 79.4785 1286.45 79.9228 1286.79 80.6188C1287.09 81.2409 1286.97 81.5025 1287.31 81.8777C1287.67 82.2775 1288.21 82.3664 1289.31 82.5441C1289.98 82.6527 1290.32 82.7021 1290.56 82.5441C1290.99 82.2627 1290.86 81.7394 1291.31 81.3593C1291.64 81.073 1292.09 81.0434 1292.42 81.0631C1296.19 82.7366 1299.24 83.798 1301.38 84.4694C1302.83 84.9285 1304.78 85.4913 1306.78 87.0611C1307.34 87.5005 1308.69 88.626 1309.52 90.4674C1309.76 91.0054 1310.06 91.82 1310.04 92.8369C1310.02 93.4392 1310 94.2192 1309.43 94.7079C1308.95 95.1078 1308.36 95.1028 1308.19 95.093C1307.44 95.0535 1306.9 94.5647 1306.78 94.4611C1306.19 93.9477 1303.95 93.1331 1299.45 91.4991C1295.82 90.181 1292.99 90.0428 1288.86 89.3517C1282.44 88.2755 1283.22 87.5992 1272.79 85.0568C1263.83 82.8699 1263.74 83.4919 1257.83 81.6506C1253.23 80.219 1252.28 79.5229 1247.39 78.2443C1245.51 77.7507 1244.11 77.4446 1238.06 75.9488C1236.29 75.5095 1234.82 75.1392 1233.82 74.8874C1232.44 72.9622 1230.73 70.8444 1228.63 68.692C1227.14 67.1617 1225.68 65.8337 1224.29 64.6934V64.6983Z" fill="#FF6726" stroke="#FFF6F2" stroke-width="2" stroke-miterlimit="10"/>
<path d="M1237.99 81.5669C1239.11 82.0112 1240.78 82.6431 1242.82 83.3243C1247.03 84.7214 1249.87 85.3187 1254.08 86.2912C1255.57 86.6368 1259.88 87.6982 1268.51 89.8259C1273.05 90.9465 1276.7 91.8745 1278.93 92.4423C1281.06 92.0029 1282.79 91.8104 1283.92 91.7166C1287.2 91.4451 1288.81 91.7067 1292.25 91.3266C1293.83 91.1538 1295.1 90.9218 1295.85 90.7687C1294.29 90.4824 1291.84 90.0184 1288.86 89.3519C1281.54 87.713 1279.83 86.8343 1272.79 85.0571C1264.49 82.9689 1264.41 83.5712 1257.83 81.6508C1253.23 80.3081 1252.23 79.7108 1247.39 78.2446C1241.7 76.5217 1236.96 75.4949 1233.82 74.8877C1234.59 75.8701 1235.4 77.0055 1236.19 78.2939C1236.9 79.4392 1237.49 80.5401 1237.98 81.562L1237.99 81.5669Z" fill="#FF6726" stroke="#FFF6F2" stroke-width="2" stroke-miterlimit="10"/>
<path d="M1278.93 92.4477C1277.39 92.6896 1274.68 93.1141 1271.12 93.7657C1267.42 94.4421 1266.47 94.6938 1263.46 95.1677C1261.92 95.4096 1260.65 95.5824 1259.82 95.691C1260.35 96.1353 1261 96.8166 1261.49 97.794C1261.59 98.0013 1261.79 98.4259 1262.19 99.9809C1262.36 100.652 1262.58 101.58 1262.8 102.696C1264.26 102.508 1266.38 102.237 1268.93 101.906C1276.26 100.958 1279.97 100.475 1281.58 100.198C1286.19 99.4083 1286.98 99.038 1290.87 98.5789C1292.07 98.4358 1292.74 98.3815 1296.41 98.026C1299.44 97.7298 1301.92 97.4781 1303.56 97.3102C1303.56 96.9153 1303.53 96.2982 1303.3 95.6022C1302.91 94.4223 1302.19 93.7016 1301.59 93.1042C1301.15 92.6599 1300.49 92.0133 1299.45 91.4998C1298.01 90.7939 1296.65 90.7347 1295.85 90.7692C1295.1 90.9223 1293.83 91.1543 1292.25 91.3271C1288.77 91.7121 1287.37 91.411 1283.92 91.7171C1283.14 91.7862 1281.74 92.0034 1278.93 92.4427V92.4477Z" fill="#FF6726" stroke="#FFF6F2" stroke-width="2" stroke-miterlimit="10"/>
<path d="M1296.41 98.0257C1300.91 98.8847 1304.39 99.3931 1306.06 99.5215C1306.53 99.5561 1307.13 99.5462 1308.33 99.5215C1309.71 99.4919 1310.2 99.4326 1310.67 99.097C1311.16 98.7514 1311.4 98.2775 1311.52 98.0257C1311.85 97.3543 1311.87 96.7619 1311.88 96.1202C1311.89 95.276 1311.75 94.6491 1311.63 94.1011C1311.46 93.3606 1311.33 92.783 1310.96 92.1166C1310.73 91.7069 1310.3 91.07 1309.52 90.4678C1309.8 91.0552 1310.07 91.8698 1310.03 92.8373C1310.01 93.4939 1309.99 94.2344 1309.42 94.7083C1308.99 95.0786 1308.44 95.1032 1308.18 95.0934C1305.27 93.8938 1302.36 92.6991 1299.45 91.4995C1300.45 92.0475 1301.15 92.6646 1301.59 93.1039C1302.19 93.7012 1302.91 94.422 1303.3 95.6018C1303.53 96.2979 1303.57 96.915 1303.56 97.3099L1296.41 98.0257Z" fill="#FF6726" stroke="#FFF6F2" stroke-width="2" stroke-miterlimit="10"/>
<path d="M1232.33 92.5361C1233.21 93.1137 1234.44 93.9135 1235.9 94.8712C1238.41 96.52 1240.83 98.1046 1243.71 100.03C1248.08 102.952 1248.74 103.471 1251.37 105.139C1253.25 106.334 1254.81 107.272 1255.82 107.874C1256.16 106.887 1256.59 105.253 1256.48 103.219C1256.42 102.182 1256.31 100.213 1255.07 98.2527C1253.96 96.5002 1252.53 95.666 1250.85 94.6885C1248.63 93.3951 1246.71 92.9064 1244.9 92.4423C1242.65 91.8697 1241.05 91.7315 1238.94 91.5439C1236.5 91.3316 1235.2 91.4057 1233.82 91.8697C1233.18 92.0869 1232.67 92.3387 1232.32 92.5263L1232.33 92.5361Z" fill="#FF6726" stroke="#FFF6F2" stroke-width="2" stroke-miterlimit="10"/>
<path d="M1226.56 95.7391C1227.06 96.0846 1227.56 96.4302 1228.06 96.7758C1228.54 97.1016 1232.32 99.713 1232.33 99.713C1235.3 101.762 1239.27 104.378 1241.92 106.15C1244.4 107.804 1247.95 110.203 1252.31 113.249C1253.03 112.835 1255.01 111.566 1255.63 109.216C1255.76 108.737 1255.82 108.283 1255.82 107.868C1254.81 107.266 1253.25 106.323 1251.37 105.133C1248.75 103.465 1248.08 102.947 1243.71 100.024C1240.83 98.0988 1238.41 96.5141 1235.9 94.8653C1234.44 93.9076 1233.21 93.1079 1232.33 92.5303C1231.44 92.8215 1230.38 93.251 1229.24 93.8878C1228.15 94.5 1227.26 95.1516 1226.56 95.7341V95.7391Z" fill="#FF6726" stroke="#FFF6F2" stroke-width="2" stroke-miterlimit="10"/>
<path d="M1228.06 96.7764L1224.88 96.8949C1224.62 97.4774 1223.94 98.756 1222.49 99.6594C1221.73 100.133 1221 100.351 1220.48 100.454C1220.45 100.444 1220.41 100.43 1220.35 100.41C1218.47 99.7976 1218.06 99.8026 1217.62 99.5162C1217.27 99.2941 1216.84 98.8498 1216.58 97.8773C1211.47 98.1833 1204.31 98.6276 1195.76 99.2348C1180.25 100.341 1167.86 101.427 1156.8 102.399C1145.39 103.406 1136.98 104.211 1123.17 105.179C1120.18 105.386 1117.72 105.549 1116.08 105.657C1114.4 106.166 1112.6 106.655 1110.69 107.099C1109.13 107.464 1107.62 107.765 1106.18 108.022C1108.87 108.787 1111.6 109.538 1114.36 110.283C1118.76 111.468 1123.11 112.593 1127.4 113.655C1142.35 112.48 1154.46 111.453 1162.78 110.722C1175.34 109.626 1176.64 109.449 1186.94 108.595C1200.71 107.449 1205.63 107.143 1218.1 106.102C1227.14 105.346 1234.47 104.685 1239.11 104.26C1236.86 102.779 1234.6 101.259 1232.32 99.7088C1230.89 98.7313 1229.46 97.7489 1228.06 96.7715L1228.06 96.7764Z" fill="#FF6726" stroke="#FFF6F2" stroke-width="2" stroke-miterlimit="10"/>
<path d="M1222.13 92.7774C1222.03 92.965 1221.72 93.587 1221.03 94.0807C1220.88 94.1893 1220.77 94.2584 1220.67 94.3127C1220.01 94.678 1219.63 94.5744 1218.32 95.0927C1217.59 95.384 1217.22 95.537 1216.95 95.8628C1216.32 96.6428 1216.56 97.714 1216.59 97.8769C1216.78 98.7458 1217.34 99.2641 1217.62 99.5159C1218.81 100.582 1220.29 100.469 1220.48 100.454C1221.47 100.365 1222.16 99.8911 1222.49 99.6591C1223.7 98.81 1223.53 98.0892 1224.88 96.8946C1225.1 96.707 1225.02 96.8008 1226.56 95.7394C1228.84 94.1794 1228.66 94.214 1229.24 93.8931C1229.72 93.6265 1229.67 93.6956 1232.33 92.5355C1233.7 91.9333 1233.64 91.953 1233.82 91.879C1234.89 91.4544 1236.07 91.3014 1238.95 91.5532C1241.05 91.7358 1242.66 91.879 1244.9 92.4516C1246.71 92.9157 1248.63 93.4044 1250.85 94.6978C1252.53 95.6752 1253.96 96.5046 1255.08 98.262C1255.4 98.7655 1256.57 100.735 1256.48 103.228C1256.46 104.033 1256.32 104.146 1255.83 107.883C1255.67 109.083 1255.68 109.063 1255.64 109.231C1255.37 110.248 1254.74 111.295 1252.31 113.264C1250.56 114.676 1249.68 115.387 1248.28 116.078C1246.51 116.947 1245.85 116.824 1241.48 117.717C1235.78 118.887 1234.24 119.642 1233.32 120.156C1232.1 120.847 1230.89 121.543 1229.81 122.92C1228.79 124.224 1228.64 125.166 1227.42 127.329C1226.62 128.741 1225.84 129.822 1225.31 130.518L1230 132.344C1231.19 130.083 1232.4 128.395 1233.32 127.235C1234.59 125.645 1235.23 125.171 1235.58 124.939C1237.06 123.937 1238.35 123.839 1240.22 123.488C1242.1 123.133 1243.6 122.659 1246.59 121.706C1249.96 120.64 1251.67 120.077 1253.39 118.798C1253.56 118.665 1253.5 118.709 1256.76 115.471C1259.66 112.598 1260.08 112.198 1260.61 111.25C1261.23 110.139 1261.51 109.058 1262.06 106.891C1262.57 104.902 1262.83 103.909 1262.81 102.71C1262.77 100.069 1261.73 98.2126 1261.5 97.8078C1261.36 97.5709 1261.17 97.2648 1259.83 95.7048C1257.71 93.2168 1256.64 91.9728 1255.74 91.2372C1254.13 89.9339 1252.68 89.2823 1251.19 88.6109C1249.32 87.7717 1247.85 87.3719 1246.36 86.972C1243.92 86.3105 1242.62 86.2068 1242.14 86.1772C1241.86 86.1574 1240.98 86.1081 1239.81 86.1772C1238.26 86.2759 1237.7 86.4981 1235.47 86.9177C1232.47 87.4805 1232.38 87.2781 1230.86 87.7421C1229.9 88.0383 1229.2 88.3444 1227.82 88.9565C1226.15 89.697 1225.32 90.0672 1224.38 90.7485C1223.14 91.6618 1222.51 92.1159 1222.14 92.7922L1222.13 92.7774Z" fill="#FF6726" stroke="#FFF6F2" stroke-width="2" stroke-miterlimit="10"/>
<path d="M1206.11 83.5603L1206.82 78.7372C1206.04 78.7076 1204.89 78.6829 1203.49 78.7372C1200.6 78.8458 1198.51 79.2111 1197.02 79.4579C1190.51 80.5292 1190.76 80.1145 1187.88 80.7415C1183.53 81.6844 1183.61 82.489 1177.46 84.592C1174.33 85.6632 1171.32 86.384 1165.3 87.8255C1161.06 88.8424 1157.5 89.6076 1154.93 90.1358C1149.71 90.6542 1145.68 91.7353 1142.92 92.6485C1139.89 93.6556 1139.32 94.1542 1136.04 95.1119C1133.54 95.8475 1132.42 95.9808 1125.62 97.2149C1121.31 97.9998 1118.94 98.4293 1116.08 99.0118C1110.85 100.068 1106.92 101.021 1105.9 101.268C1101.77 102.275 1098.84 103.119 1092.98 104.807C1085.44 106.975 1082.35 108.026 1081.12 108.451C1078.53 109.344 1076.39 110.149 1074.91 110.721H1073.67C1073.43 111.432 1073.04 112.977 1073.67 114.557C1073.85 115.011 1074.11 115.643 1074.74 115.994C1075.63 116.502 1076.73 116.122 1077.12 115.994C1078.54 115.535 1081.19 115.085 1086.41 114.829C1085.33 114.686 1084.23 114.542 1083.15 114.399C1083.16 113.994 1083.24 113.402 1083.55 112.775C1083.87 112.104 1084.31 111.719 1084.97 111.136C1086.51 109.788 1087.29 109.112 1087.54 108.939C1088.23 108.46 1089.41 107.661 1091.16 107.083C1091.43 106.994 1092.6 106.619 1094.22 106.466C1095.48 106.348 1096.5 106.417 1097.34 106.496C1100.84 106.836 1104.99 107.75 1106.17 108.011C1107.19 107.834 1108.77 107.532 1110.68 107.088C1113.37 106.461 1115.34 105.864 1116.07 105.647C1116.07 105.647 1121.89 103.889 1133.4 100.656C1139.37 98.9822 1143.79 97.9603 1148.99 96.7607C1157.37 94.8256 1158.61 94.796 1166.78 92.9349C1173.69 91.3601 1175.5 90.7628 1182.92 88.9313C1188.36 87.5885 1196.27 85.7176 1206.08 83.6837L1206.1 83.5504L1206.11 83.5603Z" fill="#FF6726" stroke="#FFF6F2" stroke-width="2" stroke-miterlimit="10"/>
<path d="M1086.43 114.835C1093.71 115.872 1099.1 117.17 1101.93 117.846C1107.84 119.258 1113.78 120.561 1119.68 121.993C1128.61 124.155 1139.48 126.782 1152.32 129.541C1159.11 130.997 1164.89 132.162 1173.58 134.537C1177.43 135.593 1180.6 136.536 1182.72 137.193C1185.42 136.467 1187.48 135.564 1188.89 134.853C1190.82 133.88 1192.16 132.952 1195.27 131.452C1196.33 130.938 1197.22 130.543 1197.82 130.282C1188.2 127.966 1180.41 126.164 1175.18 124.965C1160.46 121.603 1160.2 121.726 1154.45 120.181C1147.13 118.217 1143.95 117.052 1136.48 115.506C1132.8 114.741 1131.6 114.618 1127.4 113.655C1121.92 112.401 1116.85 110.979 1114.36 110.283C1111.1 109.37 1109.56 108.886 1106.18 108.022C1106.18 108.022 1102.16 107.001 1097.35 106.507C1096.69 106.443 1095.61 106.344 1094.23 106.477C1092.61 106.63 1091.44 107.006 1091.17 107.094C1089.43 107.667 1088.25 108.467 1087.55 108.951C1087.29 109.123 1086.52 109.8 1084.98 111.147C1084.32 111.725 1083.88 112.11 1083.56 112.786C1083.25 113.413 1083.18 114.006 1083.16 114.41C1083.93 114.504 1085.06 114.647 1086.42 114.84L1086.43 114.835Z" fill="#FF6726" stroke="#FFF6F2" stroke-width="2" stroke-miterlimit="10"/>
<path d="M1262.8 102.695C1269.96 106.437 1275.89 109.834 1280.39 112.5C1281.83 113.358 1288.06 117.066 1295.01 121.815C1297.73 123.676 1301.08 126.05 1305 129.501C1305.95 130.335 1306.72 131.046 1307.25 131.54C1307.53 132.246 1307.59 132.828 1307.59 133.238C1307.59 133.86 1307.46 134.048 1307.59 134.462C1307.79 135.094 1308.35 135.44 1308.75 135.687C1308.99 135.84 1309.64 136.23 1310.51 136.23C1311.24 136.23 1311.44 135.958 1312.35 135.82C1313.04 135.716 1313.61 135.766 1313.98 135.82C1314.65 136.175 1315.59 136.733 1316.63 137.518C1320.68 140.564 1322.52 144.252 1323.02 145.308C1324.03 147.451 1324.37 149.159 1324.74 151C1325.25 153.567 1325.4 155.986 1324.74 158.133C1324.49 158.943 1324.13 159.723 1323.39 160.301C1323.18 160.464 1322.48 160.992 1321.49 161.021C1320.19 161.061 1319.26 160.202 1318.78 159.758C1317.78 158.81 1317.58 157.931 1316.98 156.687C1316.48 155.665 1315.71 154.678 1314.18 152.713C1312.01 149.939 1309.57 147.846 1306.86 145.486C1298.77 138.461 1300.34 139.636 1298.1 137.809C1294.39 134.778 1289.48 131.061 1283.38 127.151C1278.8 123.498 1273.78 119.791 1268.3 116.133C1265.7 114.395 1263.13 112.761 1260.61 111.226C1261.12 109.997 1261.64 108.535 1262.06 106.867C1262.45 105.337 1262.67 103.925 1262.81 102.686L1262.8 102.695Z" fill="#FF6726" stroke="#FFF6F2" stroke-width="2" stroke-miterlimit="10"/>
<path d="M1324.74 151.006C1325.75 153.262 1326.17 155.212 1326.36 156.544C1326.62 158.302 1326.79 159.511 1326.36 161.032C1325.97 162.394 1325.27 163.283 1323.86 165.06C1322.61 166.635 1321.96 167.43 1320.85 167.815C1319.46 168.298 1318.17 167.953 1317.72 167.815C1317.18 167.642 1316.41 167.4 1315.84 166.689C1315.09 165.736 1315.17 164.552 1315.22 163.811C1315.34 162.004 1316.1 161.836 1316.1 160.306C1316.09 159.032 1315.56 158.055 1315.22 157.428C1314.94 156.915 1314.41 155.962 1313.34 155.172C1312.56 154.594 1311.83 154.362 1310.84 154.046C1309.99 153.775 1309.24 153.627 1308.71 153.548C1306.88 152.052 1304.16 149.87 1300.82 147.288C1299.74 146.454 1298.27 145.324 1292.67 141.152C1287.84 137.553 1286.7 136.724 1280.16 131.871C1277.86 130.163 1275.87 128.692 1271.9 125.75C1267.72 122.655 1265.57 121.07 1262.81 119.239C1260.28 117.565 1258.16 116.286 1256.76 115.462L1260.61 111.241C1262.35 112.298 1265.06 113.976 1268.3 116.148C1274.35 120.201 1275.76 121.618 1283.38 127.167C1292.2 133.589 1292.93 133.604 1298.1 137.825C1300.32 139.637 1298.87 138.555 1306.86 145.501C1309.57 147.856 1312.01 149.949 1314.18 152.728C1315.71 154.693 1316.48 155.676 1316.98 156.702C1317.58 157.946 1317.78 158.825 1318.78 159.773C1319.26 160.222 1320.18 161.076 1321.49 161.037C1322.48 161.007 1323.18 160.479 1323.39 160.316C1323.69 160.079 1324.31 159.516 1324.74 158.149C1325.61 155.419 1324.95 152.018 1324.74 151.015L1324.74 151.006Z" fill="#FF6726" stroke="#FFF6F2" stroke-width="2" stroke-miterlimit="10"/>
<path d="M1308.71 153.537C1303.47 152.762 1298.33 151.395 1293.1 150.58C1286.82 149.603 1288.34 149.41 1273.04 146.28C1259.89 143.59 1256.02 143.17 1251.45 141.793C1250.6 141.536 1247.22 140.49 1242.57 139.522C1241.46 139.295 1240.56 139.122 1239.99 139.023C1240.63 139.641 1241.5 140.613 1242.28 141.985C1243.09 143.417 1243.42 144.631 1243.71 145.713C1243.98 146.715 1244.28 148.112 1244.4 149.82C1246.52 150.304 1249.97 151.084 1254.22 152.017C1266.25 154.663 1270.45 155.408 1284.98 158.513C1294.97 160.651 1299.84 161.761 1301.5 162.142C1307.31 163.474 1312.14 164.644 1315.58 165.494C1315.43 165.113 1315.23 164.531 1315.22 163.805C1315.19 162.235 1316.04 161.786 1316.1 160.3C1316.14 159.115 1315.64 158.192 1315.22 157.422C1314.94 156.909 1314.41 155.956 1313.34 155.166C1312.55 154.584 1311.8 154.347 1310.84 154.041C1309.73 153.69 1308.87 153.562 1308.71 153.542L1308.71 153.537Z" fill="#FF6726" stroke="#FFF6F2" stroke-width="2" stroke-miterlimit="10"/>
<path d="M1225.31 130.499C1222.74 129.25 1220.46 128.623 1218.8 128.282C1215.76 127.66 1213.39 127.719 1210.57 127.789C1208.41 127.843 1206.47 127.902 1203.89 128.42C1202.91 128.618 1200.6 129.136 1197.82 130.277C1196.92 130.647 1196.32 130.938 1195.27 131.447C1191.99 133.036 1190.92 133.836 1188.89 134.848C1187.97 135.302 1187.42 135.524 1182.72 137.188C1177.89 138.896 1175.47 139.755 1174.64 140.021C1168.76 141.927 1162.91 141.878 1157.55 141.848C1144.76 141.784 1132.29 141.863 1124.92 141.986C1117.17 142.119 1117.28 142.268 1108.12 142.406C1108.12 142.406 1102.63 142.49 1094.55 142.825C1091.07 142.974 1087.17 143.166 1082.38 144.301C1080.33 144.79 1078.24 145.422 1075.93 146.622C1073.48 147.89 1072.03 149.159 1070.99 150.067C1070.82 150.22 1069.99 151.247 1068.32 153.301C1068.06 153.622 1067.6 154.209 1067.69 154.92C1067.73 155.231 1067.87 155.473 1067.97 155.621C1068.69 155.547 1069.77 155.433 1071.07 155.271C1074.61 154.826 1076.54 154.451 1079.09 154.076C1081.82 153.671 1083.8 153.479 1086.33 153.232C1092.74 152.61 1097.9 152.649 1100.74 152.669C1100.74 152.669 1112.21 152.738 1129.29 152.6C1133.03 152.57 1140.35 152.481 1149.4 152.18C1161.33 151.78 1161.67 151.494 1173.94 151.055C1183.42 150.714 1184.99 150.823 1197.36 150.423C1204.44 150.196 1210.21 149.954 1213.95 149.791C1215.61 147.234 1217.09 144.919 1218.38 142.899C1221.04 138.728 1221.99 137.188 1223.09 135.095C1224.09 133.194 1224.83 131.585 1225.31 130.489V130.499Z" fill="#FF6726" stroke="#FFF6F2" stroke-width="2" stroke-miterlimit="10"/>
<path d="M1229.99 132.33C1231.59 133.012 1233.15 133.678 1235.1 134.739C1236.79 135.658 1238.14 136.531 1239.11 137.193C1239.28 137.632 1239.55 138.284 1239.99 139.024C1240.87 140.525 1241.5 140.826 1242.28 141.986C1243.02 143.082 1243.27 144.035 1243.71 145.713C1244.14 147.308 1244.18 148.221 1244.4 149.821C1244.57 151.06 1244.89 152.585 1245.54 155.646C1246.52 160.281 1247.01 162.602 1247.58 164.28C1248.73 167.667 1250.12 170.041 1251.17 171.784C1253.38 175.501 1255.35 177.658 1258.02 180.758C1265.12 189.012 1263.89 188.499 1268.62 193.732C1273.39 199.004 1273.62 198.407 1280.37 205.397C1284.28 209.44 1287.59 212.876 1291.55 217.882C1293.41 220.231 1296.16 224.102 1301.58 231.754C1303.87 234.987 1305.76 237.668 1307.05 239.504C1307.58 240.639 1307.52 241.543 1307.46 241.953C1307.33 242.816 1306.92 243.488 1306.56 244.075C1305.93 245.107 1305.68 245.033 1305.5 245.625C1305.13 246.83 1305.88 248.02 1306.07 248.316C1306.35 248.75 1306.74 249.367 1307.46 249.619C1308.24 249.896 1308.66 249.471 1309.58 249.619C1310.12 249.703 1310.74 249.97 1311.38 250.597C1312.4 252.384 1313.59 254.738 1314.64 257.611C1315.49 259.961 1316.35 262.311 1316.68 265.609C1317.06 269.42 1316.52 272.362 1316.27 273.522C1315.62 276.578 1314.58 278.582 1314.23 279.234C1313.64 280.33 1313.1 280.996 1312.03 282.334C1311.06 283.543 1310.61 283.924 1309.99 284.047C1309.55 284.136 1309.44 284.003 1308.19 284.047C1307.23 284.082 1307.07 284.17 1306.81 284.047C1306.01 283.667 1306 282.132 1305.99 281.682C1305.95 279.209 1305.06 276.81 1304.93 274.342C1304.77 271.325 1303.71 268.684 1301.58 263.407C1300.32 260.287 1299.22 258.224 1297.02 254.106C1294.13 248.721 1291.67 244.737 1290.9 243.503C1288.24 239.237 1287.15 237.86 1281.11 229.226C1273.38 218.163 1273.86 218.558 1270.59 214.135C1266.53 208.66 1263.15 204.508 1260.55 201.324C1257.27 197.301 1254.86 194.507 1250.68 189.659C1243.42 181.247 1243.54 181.652 1237.46 174.568C1233.74 170.234 1229.86 166.047 1226.28 161.595C1224.92 159.891 1222.57 156.92 1218.78 153.597C1216.86 151.914 1215.15 150.65 1213.95 149.816C1215.6 147.259 1217.09 144.943 1218.38 142.924C1221.04 138.753 1221.99 137.213 1223.09 135.12C1224.09 133.219 1224.82 131.61 1225.3 130.514C1227.2 131.185 1228.78 131.827 1229.99 132.34L1229.99 132.33Z" fill="#FF6726" stroke="#FFF6F2" stroke-width="2" stroke-miterlimit="10"/>
<path d="M1213.95 149.805V155.64C1211.01 155.605 1206.55 155.581 1201.14 155.64C1189.6 155.768 1183.44 156.188 1170.51 156.75C1150.13 157.639 1152.73 157.155 1137.95 157.93C1128.3 158.434 1123.36 158.839 1112.35 159.258C1105.34 159.525 1099.58 159.648 1095.78 159.717C1092.28 158.587 1090.03 157.333 1088.59 156.356C1087.88 155.872 1086.75 155.037 1085.06 154.761C1084.11 154.603 1083.22 154.667 1081.93 154.761C1080.84 154.84 1080.11 154.894 1079.14 155.195C1078.53 155.383 1077.69 155.655 1076.82 156.356C1076.41 156.691 1075.93 157.091 1075.61 157.807C1075.54 157.955 1075.27 158.582 1075.31 159.431C1075.34 159.9 1075.36 160.423 1075.72 160.882C1076.32 161.662 1077.41 161.643 1077.57 161.638C1076.36 162.052 1075.31 162.27 1074.56 162.393C1072.86 162.669 1071.78 162.842 1070.5 162.393C1069.34 161.988 1068.61 161.277 1068.35 161.001C1067.34 159.925 1067.07 158.755 1067.02 158.508C1066.81 157.491 1066.98 156.681 1067.02 156.479C1067.18 155.783 1067.47 155.265 1067.68 154.949C1067.69 155.161 1067.75 155.447 1067.96 155.65C1068.64 156.321 1070.36 155.576 1071.05 155.299C1071.07 155.294 1073.73 154.899 1079.07 154.104C1081.81 153.7 1083.79 153.507 1086.31 153.26C1092.72 152.638 1097.89 152.678 1100.73 152.698C1100.73 152.698 1112.19 152.767 1129.28 152.628C1133.01 152.599 1140.34 152.51 1149.39 152.209C1161.32 151.809 1161.66 151.523 1173.93 151.083C1183.41 150.743 1184.98 150.851 1197.34 150.451C1204.42 150.224 1210.2 149.982 1213.94 149.819L1213.95 149.805Z" fill="#FF6726" stroke="#FFF6F2" stroke-width="2" stroke-miterlimit="10"/>
<path d="M1213.95 155.641C1216.55 158.42 1219.86 162.014 1223.66 166.249C1226.94 169.907 1232.72 176.374 1239.57 184.668C1246.17 192.645 1245.64 192.483 1254.59 203.501C1262.32 213.024 1262.43 212.787 1266.82 218.444C1272.5 225.77 1276.65 231.763 1279.74 236.236C1287.16 246.968 1284.96 244.727 1289.54 251.041C1292.65 255.321 1295.53 258.914 1297.67 264.868C1298.52 267.208 1299 269.212 1299.27 270.565C1299.84 270.856 1300.63 271.335 1301.42 272.095C1301.94 272.579 1302.91 273.517 1303.51 275.013C1303.88 275.941 1303.94 276.79 1304.07 278.488C1304.14 279.446 1304.11 280.216 1304.07 281.756C1304 283.963 1303.86 284.417 1303.51 284.743C1303.31 284.93 1302.94 285.177 1302.6 285.715C1302.42 286.016 1302.31 286.293 1302.26 286.48C1302.35 286.994 1302.58 287.873 1303.3 288.564C1303.71 288.959 1304.16 289.156 1305.04 289.536C1306.2 290.035 1306.78 290.287 1307.4 290.37C1309.19 290.612 1310.65 289.758 1311.02 289.536C1312.14 288.855 1312.68 288.011 1313.52 286.688C1314.31 285.434 1314.71 284.412 1315.46 282.447C1316.18 280.581 1316.54 279.648 1316.68 278.764C1316.87 277.688 1316.99 275.867 1316.27 273.517C1315.77 276.104 1314.89 278.019 1314.24 279.229C1314.05 279.574 1313.31 280.887 1312.03 282.329C1310.88 283.622 1310.26 283.928 1309.99 284.042C1309.84 284.111 1307.92 284.92 1306.81 284.042C1306.05 283.439 1306.02 282.334 1306 281.677C1305.89 279.209 1305.07 276.805 1304.93 274.336C1304.78 271.32 1303.72 268.679 1301.59 263.402C1300.33 260.282 1299.23 258.218 1297.02 254.101C1294.13 248.715 1291.67 244.732 1290.91 243.497C1288.25 239.232 1287.15 237.855 1281.12 229.221C1273.38 218.158 1273.87 218.553 1270.59 214.13C1266.53 208.655 1263.15 204.503 1260.55 201.319C1257.27 197.296 1254.86 194.502 1250.68 189.654C1243.43 181.242 1243.54 181.647 1237.47 174.563C1233.75 170.228 1229.86 166.042 1226.29 161.589C1224.92 159.886 1222.58 156.914 1218.79 153.592C1216.87 151.909 1215.15 150.645 1213.95 149.811V155.646L1213.95 155.641Z" fill="#FF6726" stroke="#FFF6F2" stroke-width="2" stroke-miterlimit="10"/>
<path d="M1095.78 159.713C1098.58 161.456 1101.65 162.72 1104.53 164.304C1111.52 168.15 1113.69 169.098 1125.88 175.481C1140.68 183.226 1153.36 190.128 1161.4 194.511C1176.43 202.696 1175.14 202.173 1190.06 210.333C1213.76 223.292 1213.59 222.729 1229.79 231.728C1247.41 241.523 1249.14 243.033 1266.75 252.724C1282.45 261.368 1290.31 265.692 1290.61 265.821C1293.63 267.139 1296.36 269.019 1299.26 270.565C1299.59 270.737 1300.48 271.206 1301.42 272.095C1301.92 272.569 1302.9 273.507 1303.5 275.013C1303.87 275.941 1303.93 276.79 1304.06 278.488C1304.13 279.446 1304.1 280.216 1304.06 281.756C1303.99 283.963 1303.85 284.417 1303.5 284.743C1303.3 284.93 1302.93 285.177 1302.6 285.715C1302.41 286.016 1302.3 286.293 1302.25 286.48C1295.94 283.41 1286.44 278.675 1275.05 272.569C1252.58 260.519 1239.52 252.097 1223.45 242.312C1168.87 209.099 1168.69 214.455 1137.68 193.687C1137.68 193.687 1113.08 177.223 1092.02 167.804C1082.86 163.712 1078.28 161.663 1077.56 161.624C1077.34 161.609 1076.27 161.584 1075.71 160.868C1075.35 160.409 1075.32 159.817 1075.3 159.417C1075.26 158.568 1075.53 157.941 1075.6 157.793C1075.92 157.077 1076.4 156.677 1076.81 156.342C1077.68 155.641 1078.52 155.374 1079.13 155.181C1080.11 154.88 1080.86 154.821 1081.92 154.747C1081.92 154.747 1083.62 154.629 1085.05 154.747C1088.57 155.038 1093.59 158.341 1095.78 159.703L1095.78 159.713Z" fill="#FF6726" stroke="#FFF6F2" stroke-width="2" stroke-miterlimit="10"/>
<path d="M1206.09 83.6937C1206.89 83.8812 1208.09 84.1922 1209.52 84.6859C1210.24 84.9377 1210.82 85.1697 1215.47 87.3369C1217.94 88.4871 1218.46 88.7389 1219.23 89.2671C1219.76 89.6373 1220.71 90.3334 1221.67 91.0936C1222.12 91.454 1222.5 91.765 1222.77 91.9871C1223.41 91.4342 1223.96 91.0245 1224.37 90.7332C1224.75 90.4716 1224.98 90.3235 1225.14 90.2248C1225.4 90.0717 1225.67 89.9236 1226.25 89.6472C1226.64 89.4547 1227.17 89.2128 1227.81 88.9413C1226.89 88.1514 1225.48 87.0111 1223.59 85.8559C1222.58 85.2388 1221.34 84.6267 1218.89 83.4221C1215.11 81.561 1216.22 82.2176 1213.38 80.8156C1211.75 80.0159 1210.63 79.4186 1208.86 79.0335C1208.01 78.8508 1207.3 78.7719 1206.81 78.7373L1206.08 83.6937H1206.09Z" fill="#FF6726" stroke="#FFF6F2" stroke-width="2" stroke-miterlimit="10"/>
<path d="M799.862 52.1664C799.676 50.7817 799.587 49.6578 799.539 48.8995C799.437 47.2905 799.478 46.5712 799.072 45.5133C798.954 45.2063 798.67 44.4831 798.069 43.7693C797.202 42.7346 796.424 42.6152 795.075 41.8532C792.944 40.6483 791.727 39.1528 791.053 38.3241C790.373 37.4866 789.839 36.6434 789.568 35.5585C789.457 35.1165 789.338 34.6235 789.437 34.0078C789.6 32.9814 790.247 32.324 790.946 31.6365C791.524 31.0627 792.539 30.2023 794.053 29.5171C794.373 29.3719 795.82 28.7362 797.871 28.5383C799.438 28.3848 800.599 28.5586 801.899 28.7557C804.087 29.0853 805.681 29.6511 806.192 29.8442C806.627 30.0051 808.103 30.5714 809.855 31.639C811.433 32.5999 812.351 33.4256 812.619 33.671C813.52 34.5008 813.974 34.9165 814.283 35.63C814.587 36.3311 814.508 36.7045 814.967 37.2692C815.107 37.4408 815.6 38.0244 816.426 38.1695C816.678 38.2139 817.259 38.3125 817.759 37.9566C818.26 37.6007 818.354 37.022 818.4 36.7439C818.51 36.0776 818.331 35.2904 817.82 34.79C817.428 34.4032 817.079 34.417 816.625 34.2215C815.413 33.6985 815.251 32.4444 814.46 31.1685C813.683 29.9147 812.717 29.3096 810.925 28.1837C809.149 27.069 807.63 26.592 806.358 26.1884C804.662 25.6532 803.35 25.4457 802.133 25.2518C800.34 24.9682 799.259 24.7967 797.747 24.8867C796.651 24.9548 795.444 25.0402 794.058 25.6589C793.427 25.9401 792.753 26.4283 791.406 27.4047C789.977 28.439 789.259 28.9553 788.808 29.5005C787.865 30.6386 787.5 31.7909 787.233 32.635C786.963 33.4935 786.656 34.4653 786.738 35.7737C786.824 37.0829 787.257 38.0367 787.46 38.4726C787.821 39.2432 788.291 39.8292 789.234 40.9986C790.155 42.1362 790.612 42.7082 791.355 43.3283C792.437 44.2359 793.541 44.8032 793.626 44.8449C794.591 45.3359 795.087 45.4116 795.798 46.0361C796.141 46.3398 796.539 46.686 796.778 47.2665C796.992 47.7884 796.952 48.1742 796.835 49.6129C796.801 50.004 796.743 50.7462 796.666 51.7425L799.857 52.1576L799.862 52.1664Z" fill="#FF6726" stroke="#FFF6F2" stroke-width="1.5" stroke-miterlimit="10"/>
<path d="M818.359 61.853C819.277 62.9825 819.624 63.7652 820.074 64.5064C820.583 65.344 820.854 65.5066 823.476 68.0233C826.672 71.0847 826.377 70.9434 827.248 71.6526C827.589 71.9293 829.087 73.1341 831.621 74.5233C834.754 76.2424 835.716 76.1825 839.381 77.7804C841.578 78.7381 841.021 78.6677 846.81 81.6361C847.608 82.0444 850.46 83.5041 854.093 85.262C858.857 87.5666 858.784 87.3987 862.196 89.1113C865.694 90.862 867.442 91.7392 868.751 92.4583C869.99 93.1352 871.445 93.9663 873.563 94.7886C874.297 95.0728 874.604 95.1598 875.448 95.5102C875.997 95.7382 877.419 96.3419 879.386 97.4343C881.433 98.5713 883.025 99.4554 884.884 101.048C885.474 101.554 886.458 102.44 887.535 103.673C888.313 104.563 888.806 105.249 889.445 106.135C890.069 107.002 890.333 107.436 890.566 107.893C890.904 108.557 891.059 109.039 891.235 109.564C891.557 110.542 891.755 111.17 891.515 111.364C891.298 111.539 890.817 111.277 890.607 111.162C888.319 109.896 887.177 109.263 886.426 108.49C886.04 108.089 883.47 106.692 878.329 103.894C874.31 101.705 872.299 100.611 869.435 99.2015C868.73 98.8554 866.009 97.5198 862.346 95.8958C860.339 95.0067 858.673 94.3034 855.643 93.0283C850.871 91.0178 850.07 90.7417 848.349 89.7946C845.914 88.454 846.179 88.2815 843.71 86.8726C841.028 85.3445 839.982 85.1317 835.318 83.0805C832.306 81.7563 830.115 80.6861 828.097 79.7038C823.919 77.6693 821.83 76.6484 819.71 75.3587C815.544 72.8223 815.736 72.2463 812.7 70.8446C810.692 69.9213 810.81 70.2624 806.213 68.4198C805.164 67.9976 803.689 67.3935 801.592 66.8412C800.573 66.5737 799.723 66.4042 799.146 66.2992C799.453 61.6994 799.161 59.2325 798.817 57.8242C798.71 57.383 798.308 55.8558 798.253 53.7754C798.232 52.9966 798.267 52.3628 798.298 51.9638C798.647 52.0146 799.188 52.0927 799.851 52.1675C801.72 52.3808 802.404 52.3427 803.395 52.4563C804.706 52.6027 805.589 52.9009 807.353 53.5007C808.85 54.0071 809.95 54.3875 811.251 55.1958C812.358 55.8852 813.033 56.5206 813.369 56.8685C813.883 57.3922 814.244 57.8859 814.323 57.9944C814.754 58.5833 814.727 58.6721 814.984 59.0023C815.557 59.7214 816.051 59.7324 816.887 60.3428C817.426 60.7355 817.73 61.1103 818.343 61.857L818.359 61.853Z" fill="#FF6726" stroke="#FFF6F2" stroke-width="1.5" stroke-miterlimit="10"/>
<path d="M796.675 51.7515C795.574 51.6857 794.656 51.7895 793.448 51.9999C791.2 52.3972 790.075 52.5955 788.645 53.1741C787.404 53.673 786.54 54.2481 784.812 55.3983C782.566 56.8887 780.975 58.259 780.004 59.095C778.995 59.9679 778.319 60.6188 777.711 61.2051C775.669 63.1772 775.052 64.027 774.626 64.7297C774.214 65.4086 773.95 66.0027 773.793 66.3817C775.061 66.9284 776.115 67.3442 776.856 67.63C778.378 68.2103 779.083 68.4233 780.097 68.9822C781.003 69.4828 781.686 69.9985 782.128 70.366C782.925 69.9356 784.149 69.3302 785.718 68.7901C786.556 68.5015 787.564 68.2543 789.553 67.7694C792.63 67.0208 791.709 67.3215 794.021 66.7561C795.341 66.434 796.262 66.1791 797.62 66.1841C798.268 66.1874 798.805 66.2458 799.165 66.299C799.472 61.6992 799.18 59.2324 798.836 57.8241C798.729 57.3829 798.327 55.8556 798.272 53.7752C798.251 52.9965 798.286 52.3627 798.317 51.9636C797.918 51.8827 797.358 51.7889 796.68 51.7487L796.675 51.7515Z" fill="#FF6726" stroke="#FFF6F2" stroke-width="1.5" stroke-miterlimit="10"/>
<path d="M778.234 72.2653C777.493 72.5449 776.466 72.932 775.24 73.3964C773.131 74.1963 771.101 74.9645 768.68 75.9077C765.004 77.3393 764.431 77.6109 762.232 78.406C760.664 78.9767 759.368 79.4105 758.529 79.6874C758.44 78.9087 758.394 77.6424 758.804 76.1698C759.016 75.4199 759.416 73.9943 760.642 72.7596C761.737 71.6551 762.925 71.2772 764.313 70.8336C766.151 70.2468 767.638 70.2006 769.04 70.1549C770.776 70.0994 771.977 70.2595 773.549 70.4637C775.374 70.7051 776.313 70.9702 777.25 71.5348C777.685 71.7982 778.017 72.0652 778.24 72.2588L778.234 72.2653Z" fill="#FF6726" stroke="#FFF6F2" stroke-width="1.5" stroke-miterlimit="10"/>
<path d="M781.939 75.5494C781.517 75.7216 781.092 75.893 780.671 76.0652C780.271 76.2269 777.072 77.5253 777.068 77.5245C774.555 78.5421 771.221 79.8144 768.991 80.6824C766.91 81.4924 763.916 82.6729 760.231 84.1974C759.771 83.7765 758.526 82.5253 758.448 80.7017C758.432 80.33 758.466 79.9884 758.53 79.6838C759.369 79.4069 760.665 78.9694 762.233 78.4024C764.429 77.6064 765.005 77.3357 768.681 75.9041C771.102 74.9609 773.132 74.1927 775.241 73.3928C776.467 72.9284 777.494 72.5413 778.235 72.2616C778.839 72.6194 779.547 73.1065 780.275 73.7575C780.975 74.3833 781.524 75.0059 781.94 75.5457L781.939 75.5494Z" fill="#FF6726" stroke="#FFF6F2" stroke-width="1.5" stroke-miterlimit="10"/>
<path d="M785.664 74.0987C785.71 74.253 785.837 74.7593 786.259 75.2324C786.35 75.3361 786.426 75.406 786.489 75.4618C786.915 75.8369 787.21 75.8227 788.081 76.4142C788.572 76.7471 788.819 76.9194 788.958 77.2006C789.294 77.8747 788.95 78.622 788.898 78.7357C788.619 79.3418 788.123 79.6302 787.876 79.769C786.831 80.357 785.764 80.0333 785.629 79.9919C784.917 79.7657 784.487 79.3062 784.283 79.0824C783.534 78.2638 783.778 77.7638 782.981 76.6687C782.856 76.4968 782.898 76.5784 781.939 75.5497C780.525 74.037 780.646 74.0904 780.275 73.7615C779.967 73.4884 779.992 73.547 778.234 72.2656C777.323 71.6006 777.37 71.6263 777.245 71.5415C776.529 71.0564 775.689 70.7527 773.543 70.4704C771.976 70.2635 770.77 70.1061 769.035 70.1617C767.636 70.2082 766.146 70.2535 764.308 70.8404C762.92 71.2839 761.736 71.659 760.637 72.7663C760.32 73.0831 759.142 74.3363 758.799 76.1766C758.686 76.7702 758.766 76.875 758.524 79.6942C758.445 80.5988 758.437 80.5819 758.442 80.7121C758.476 81.5013 758.762 82.3692 760.225 84.2078C761.276 85.5261 761.805 86.1897 762.723 86.9247C763.881 87.8491 764.378 87.8646 767.438 89.2297C771.426 91.0132 772.431 91.8168 773.017 92.3413C773.802 93.0466 774.575 93.7531 775.143 94.9378C775.68 96.0587 775.632 96.7729 776.178 98.556C776.535 99.7204 776.931 100.639 777.205 101.235L773.475 101.812C772.971 99.9625 772.355 98.5282 771.867 97.5282C771.196 96.1574 770.81 95.7076 770.591 95.4806C769.668 94.5058 768.74 94.2242 767.426 93.6634C766.106 93.0975 765.083 92.5065 763.046 91.3224C760.753 89.9942 759.589 89.3036 758.538 88.0877C758.429 87.9612 758.469 88.0042 756.604 85.1013C754.951 82.5262 754.709 82.1651 754.472 81.384C754.2 80.4699 754.17 79.6321 754.117 77.9543C754.067 76.4141 754.04 75.6453 754.246 74.7688C754.704 72.84 755.765 71.6484 756.004 71.3903C756.144 71.2391 756.335 71.0461 757.565 70.1196C759.528 68.6422 760.512 67.9039 761.293 67.5117C762.68 66.8174 763.853 66.5765 765.051 66.326C766.554 66.0142 767.701 65.9609 768.855 65.9093C770.753 65.8216 771.721 65.9565 772.076 66.0126C772.282 66.043 772.941 66.1512 773.784 66.3911C774.907 66.716 775.276 66.9686 776.846 67.6393C778.954 68.5392 779.052 68.4053 780.087 68.9915C780.744 69.3649 781.205 69.7022 782.118 70.3753C783.22 71.1889 783.772 71.5957 784.345 72.2464C785.111 73.1185 785.497 73.5531 785.658 74.1088L785.664 74.0987Z" fill="#FF6726" stroke="#FFF6F2" stroke-width="1.5" stroke-miterlimit="10"/>
<path d="M798.899 69.9481L799.162 66.2987C799.738 66.4037 800.588 66.5733 801.607 66.8408C803.705 67.3895 805.18 67.9971 806.228 68.4194C810.825 70.262 810.708 69.9172 812.715 70.8441C815.748 72.2414 815.56 72.8182 819.725 75.3582C821.844 76.6515 823.934 77.6688 828.112 79.7033C831.051 81.1364 833.534 82.2753 835.333 83.0801C839.072 84.3075 841.852 85.7548 843.725 86.8722C845.783 88.1024 846.121 88.5608 848.364 89.7941C850.082 90.7405 850.881 91.0201 855.658 93.0278C858.688 94.303 860.355 95.0026 862.362 95.8953C866.021 97.5186 868.741 98.8542 869.45 99.201C872.31 100.609 874.322 101.704 878.345 103.894C883.512 106.705 885.609 107.979 886.441 108.489C888.195 109.565 889.63 110.502 890.623 111.162L891.53 111.363C891.589 111.923 891.627 113.119 890.907 114.174C890.7 114.477 890.405 114.897 889.893 115.053C889.152 115.28 888.414 114.824 888.149 114.667C887.179 114.099 885.313 113.34 881.528 112.303C882.347 112.375 883.169 112.447 883.988 112.518C884.043 112.219 884.081 111.773 883.959 111.263C883.829 110.719 883.574 110.366 883.184 109.832C882.27 108.593 881.816 107.973 881.659 107.805C881.227 107.341 880.493 106.563 879.31 105.857C879.125 105.748 878.329 105.283 877.167 104.908C876.257 104.615 875.501 104.5 874.876 104.423C872.257 104.104 869.063 104.098 868.159 104.099C867.436 103.802 866.327 103.324 865 102.689C863.134 101.793 861.788 101.035 861.287 100.758C861.287 100.758 857.312 98.5252 849.399 94.2852C845.297 92.0895 842.222 90.6223 838.612 88.8997C832.784 86.1202 831.881 85.8972 826.197 83.2064C821.393 80.9307 820.159 80.198 815.023 77.6516C811.252 75.7833 805.761 73.1277 798.901 70.0433L798.908 69.9425L798.899 69.9481Z" fill="#FF6726" stroke="#FFF6F2" stroke-width="1.5" stroke-miterlimit="10"/>
<path d="M881.516 112.304C876.009 111.88 871.851 111.957 869.665 111.992C865.106 112.067 860.543 112.057 855.985 112.147C849.09 112.281 840.699 112.439 830.846 112.376C825.636 112.341 821.207 112.255 814.455 112.583C811.463 112.732 808.991 112.908 807.325 113.044C805.468 112.074 804.107 111.078 803.188 110.328C801.935 109.303 801.102 108.404 799.067 106.8C798.372 106.251 797.786 105.817 797.387 105.528C804.813 105.394 810.809 105.339 814.842 105.31C826.174 105.238 826.339 105.37 830.807 105.173C836.491 104.922 839.006 104.584 844.729 104.665C847.552 104.703 848.455 104.808 851.682 104.784C855.904 104.756 859.85 104.537 861.79 104.432C864.325 104.293 865.532 104.188 868.15 104.105C868.15 104.105 871.257 104.008 874.868 104.429C875.355 104.487 876.164 104.591 877.158 104.914C878.32 105.289 879.116 105.754 879.301 105.863C880.481 106.565 881.216 107.343 881.651 107.811C881.807 107.978 882.261 108.599 883.175 109.837C883.566 110.368 883.821 110.721 883.95 111.269C884.073 111.778 884.031 112.224 883.979 112.524C883.396 112.467 882.545 112.388 881.519 112.309L881.516 112.304Z" fill="#FF6726" stroke="#FFF6F2" stroke-width="1.5" stroke-miterlimit="10"/>
<path d="M754.256 74.7596C748.403 76.3386 743.504 77.8633 739.779 79.0868C738.583 79.4821 733.416 81.1865 727.552 83.5371C725.253 84.4581 722.411 85.6535 718.979 87.5451C718.149 88.0025 717.469 88.3982 717.002 88.6741C716.685 89.1465 716.547 89.5637 716.476 89.8631C716.375 90.3189 716.439 90.4772 716.278 90.7601C716.03 91.1911 715.562 91.3528 715.232 91.4695C715.027 91.5416 714.489 91.7223 713.849 91.5803C713.314 91.4617 713.213 91.2307 712.57 90.9818C712.084 90.7944 711.657 90.7376 711.373 90.7164C710.83 90.8694 710.049 91.125 709.155 91.5301C705.694 93.1043 703.746 95.5072 703.209 96.2002C702.123 97.6065 701.596 98.8027 701.025 100.092C700.232 101.889 699.734 103.638 699.867 105.318C699.916 105.952 700.057 106.583 700.506 107.126C700.631 107.279 701.059 107.78 701.778 107.962C702.726 108.203 703.549 107.725 703.969 107.476C704.857 106.945 705.148 106.334 705.791 105.52C706.319 104.851 707.044 104.253 708.488 103.063C710.526 101.382 712.653 100.245 715.022 98.9558C722.088 95.1222 720.747 95.728 722.686 94.7538C725.902 93.1367 730.101 91.2101 735.203 89.3357C739.154 87.4032 743.434 85.5022 748.044 83.7121C750.232 82.8614 752.378 82.0812 754.476 81.366C754.3 80.3819 754.157 79.2271 754.121 77.9363C754.087 76.7525 754.15 75.6811 754.25 74.7508L754.256 74.7596Z" fill="#FF6726" stroke="#FFF6F2" stroke-width="1.5" stroke-miterlimit="10"/>
<path d="M701.028 100.097C699.92 101.585 699.296 102.946 698.938 103.891C698.465 105.137 698.138 105.994 698.209 107.179C698.274 108.241 698.643 109.006 699.389 110.537C700.048 111.894 700.397 112.582 701.144 113.044C702.086 113.624 703.09 113.581 703.438 113.552C703.864 113.514 704.467 113.462 704.995 113.032C705.703 112.457 705.838 111.576 705.922 111.025C706.125 109.681 705.595 109.435 705.847 108.314C706.058 107.382 706.607 106.752 706.959 106.348C707.248 106.018 707.79 105.406 708.7 105C709.369 104.704 709.938 104.652 710.716 104.582C711.386 104.522 711.953 104.534 712.356 104.562C713.945 103.765 716.285 102.606 719.153 101.257C720.081 100.822 721.342 100.232 726.122 98.0851C730.244 96.2324 731.218 95.8108 736.795 93.3169C738.758 92.439 740.455 91.6843 743.845 90.174C747.411 88.5853 749.242 87.773 751.565 86.8802C753.685 86.0637 755.448 85.4717 756.606 85.0946L754.474 81.3773C753.025 81.8683 750.77 82.6587 748.041 83.7233C742.952 85.7107 741.683 86.5186 735.201 89.347C727.694 92.6198 727.156 92.512 722.683 94.7651C720.761 95.7317 722.004 95.1761 715.02 98.9671C712.651 100.252 710.525 101.39 708.485 103.074C707.041 104.264 706.317 104.859 705.789 105.531C705.145 106.345 704.854 106.956 703.966 107.488C703.546 107.74 702.727 108.215 701.775 107.973C701.057 107.791 700.629 107.29 700.503 107.137C700.317 106.914 699.96 106.402 699.864 105.33C699.671 103.188 700.705 100.803 701.023 100.103L701.028 100.097Z" fill="#FF6726" stroke="#FFF6F2" stroke-width="1.5" stroke-miterlimit="10"/>
<path d="M712.362 104.556C716.325 104.839 720.313 104.672 724.276 104.924C729.039 105.229 727.956 104.841 739.674 105.032C749.743 105.197 752.647 105.518 756.22 105.251C756.884 105.201 759.536 104.984 763.1 105.031C763.947 105.044 764.637 105.064 765.069 105.084C764.502 105.433 763.701 106.003 762.91 106.882C762.084 107.8 761.644 108.636 761.255 109.381C760.894 110.071 760.446 111.045 760.085 112.279C758.452 112.288 755.8 112.3 752.534 112.293C743.286 112.277 740.09 112.142 728.941 112.057C721.269 111.999 717.526 112.023 716.241 112.031C711.771 112.064 708.04 112.136 705.381 112.2C705.558 111.947 705.794 111.551 705.923 111.022C706.199 109.876 705.647 109.409 705.848 108.311C706.008 107.436 706.527 106.841 706.96 106.345C707.249 106.014 707.791 105.402 708.7 104.997C709.377 104.699 709.962 104.646 710.717 104.579C711.584 104.501 712.238 104.548 712.357 104.559L712.362 104.556Z" fill="#FF6726" stroke="#FFF6F2" stroke-width="1.5" stroke-miterlimit="10"/>
<path d="M777.211 101.221C779.299 100.724 781.068 100.634 782.339 100.654C784.668 100.692 786.398 101.121 788.449 101.629C790.02 102.019 791.436 102.378 793.24 103.177C793.931 103.482 795.533 104.235 797.387 105.523C797.986 105.94 798.38 106.252 799.067 106.795C801.215 108.493 801.866 109.252 803.188 110.323C803.787 110.805 804.156 111.058 807.326 113.039C810.59 115.076 812.222 116.098 812.79 116.429C816.789 118.78 821.083 119.694 825.013 120.543C834.399 122.574 843.522 124.658 848.899 125.944C854.556 127.301 854.453 127.392 861.144 128.982C861.144 128.982 865.152 129.935 871.019 131.493C873.545 132.167 876.368 132.941 879.692 134.551C881.113 135.242 882.548 136.045 884.046 137.3C885.63 138.626 886.491 139.792 887.1 140.625C887.202 140.766 887.646 141.654 888.531 143.428C888.671 143.706 888.916 144.212 888.731 144.718C888.652 144.939 888.511 145.094 888.411 145.185C887.895 145.014 887.125 144.756 886.2 144.426C883.675 143.525 882.322 142.936 880.52 142.248C878.582 141.507 877.163 141.045 875.351 140.453C870.757 138.957 866.964 138.146 864.88 137.7C864.88 137.7 856.47 135.888 843.974 133.012C841.241 132.383 835.887 131.128 829.306 129.437C820.628 127.206 820.425 126.941 811.508 124.626C804.619 122.837 803.451 122.662 794.455 120.36C789.305 119.044 785.112 117.928 782.397 117.201C781.6 115.059 780.888 113.121 780.272 111.432C779 107.944 778.555 106.661 778.089 104.949C777.663 103.393 777.386 102.095 777.213 101.214L777.211 101.221Z" fill="#FF6726" stroke="#FFF6F2" stroke-width="1.5" stroke-miterlimit="10"/>
<path d="M773.481 101.803C772.202 102.043 770.951 102.278 769.35 102.739C767.964 103.138 766.827 103.557 766.011 103.885C765.816 104.18 765.508 104.612 765.069 105.084C764.178 106.04 763.666 106.158 762.91 106.882C762.193 107.566 761.854 108.223 761.255 109.381C760.685 110.48 760.504 111.142 760.085 112.279C759.761 113.159 759.275 114.224 758.304 116.362C756.834 119.599 756.096 121.219 755.407 122.357C754.014 124.651 752.605 126.164 751.559 127.272C749.331 129.635 747.537 130.896 745.08 132.735C738.535 137.628 739.519 137.452 735.203 140.518C730.853 143.606 730.78 143.131 724.7 147.157C721.182 149.485 718.197 151.464 714.479 154.488C712.734 155.907 710.09 158.297 704.876 163.023C702.672 165.02 700.855 166.678 699.613 167.814C699.038 168.559 698.938 169.232 698.915 169.541C698.869 170.195 699.06 170.754 699.228 171.243C699.524 172.101 699.717 172.087 699.754 172.551C699.83 173.494 699.083 174.243 698.898 174.429C698.624 174.703 698.238 175.091 697.669 175.159C697.049 175.234 696.815 174.855 696.114 174.814C695.706 174.788 695.211 174.883 694.639 175.238C693.596 176.381 692.342 177.913 691.108 179.848C690.101 181.431 689.09 183.013 688.315 185.377C687.418 188.107 687.338 190.351 687.33 191.241C687.311 193.586 687.745 195.223 687.896 195.758C688.152 196.657 688.438 197.232 689.006 198.387C689.518 199.43 689.789 199.782 690.222 199.973C690.533 200.11 690.63 200.03 691.538 200.265C692.241 200.447 692.343 200.538 692.555 200.49C693.202 200.342 693.459 199.218 693.535 198.89C693.97 197.085 695.007 195.471 695.506 193.684C696.111 191.499 697.318 189.737 699.734 186.216C701.163 184.134 702.305 182.801 704.591 180.143C707.582 176.666 710.034 174.147 710.795 173.367C713.434 170.673 714.46 169.842 720.287 164.496C727.752 157.647 727.329 157.857 730.45 155.148C734.312 151.796 737.464 149.303 739.884 147.392C742.943 144.977 745.162 143.321 749.013 140.449C755.693 135.463 755.544 135.741 761.148 131.538C764.575 128.966 768.102 126.53 771.444 123.848C772.723 122.822 774.924 121.025 778.241 119.207C779.922 118.285 781.382 117.637 782.397 117.221C781.6 115.079 780.888 113.141 780.271 111.452C778.999 107.964 778.555 106.681 778.088 104.969C777.663 103.413 777.385 102.115 777.213 101.234C775.715 101.418 774.449 101.631 773.483 101.811L773.481 101.803Z" fill="#FF6726" stroke="#FFF6F2" stroke-width="1.5" stroke-miterlimit="10"/>
<path d="M782.398 117.213L781.45 121.488C783.612 121.941 786.879 122.646 790.833 123.569C799.273 125.538 803.715 126.846 813.101 129.359C827.884 133.319 826.056 132.542 836.76 135.511C843.75 137.448 847.305 138.547 855.303 140.643C860.396 141.977 864.597 143.003 867.371 143.671C870.119 143.411 871.972 142.858 873.183 142.375C873.783 142.136 874.747 141.709 876.032 141.781C876.756 141.82 877.393 142.011 878.326 142.289C879.108 142.524 879.639 142.683 880.295 143.06C880.713 143.297 881.287 143.633 881.807 144.287C882.056 144.6 882.345 144.972 882.464 145.548C882.487 145.667 882.584 146.171 882.414 146.786C882.32 147.125 882.217 147.505 881.881 147.783C881.314 148.257 880.521 148.066 880.399 148.035C881.221 148.536 881.953 148.866 882.486 149.079C883.689 149.558 884.45 149.859 885.459 149.738C886.375 149.63 887.022 149.227 887.259 149.067C888.179 148.443 888.564 147.629 888.641 147.457C888.961 146.746 888.97 146.125 888.97 145.97C888.967 145.434 888.838 145.007 888.738 144.742C888.692 144.895 888.602 145.095 888.418 145.21C887.809 145.591 886.672 144.766 886.207 144.45C886.197 144.444 884.307 143.722 880.526 142.273C878.588 141.532 877.169 141.069 875.357 140.478C870.763 138.981 866.97 138.171 864.887 137.724C864.887 137.724 856.477 135.913 843.98 133.036C841.247 132.407 835.894 131.152 829.312 129.462C820.635 127.23 820.432 126.965 811.515 124.651C804.625 122.862 803.457 122.686 794.461 120.384C789.311 119.068 785.118 117.953 782.403 117.225L782.398 117.213Z" fill="#FF6726" stroke="#FFF6F2" stroke-width="1.5" stroke-miterlimit="10"/>
<path d="M781.45 121.489C779.096 123.103 776.085 125.198 772.612 127.684C769.616 129.832 764.33 133.632 757.959 138.595C751.83 143.369 752.248 143.336 743.9 149.955C736.685 155.676 736.644 155.485 732.509 158.917C727.156 163.362 723.141 167.079 720.15 169.854C712.974 176.513 714.951 175.229 710.565 179.11C707.591 181.741 704.902 183.907 702.362 187.921C701.363 189.498 700.687 190.889 700.264 191.835C699.805 191.957 699.148 192.18 698.439 192.607C697.984 192.878 697.123 193.408 696.438 194.406C696.016 195.026 695.831 195.638 695.465 196.862C695.259 197.552 695.152 198.121 694.934 199.256C694.623 200.884 694.654 201.24 694.858 201.535C694.972 201.705 695.203 201.946 695.362 202.395C695.45 202.646 695.481 202.865 695.491 203.011C695.342 203.373 695.029 203.979 694.389 204.369C694.025 204.591 693.663 204.663 692.958 204.799C692.027 204.976 691.563 205.067 691.09 205.026C689.741 204.913 688.813 204.051 688.577 203.828C687.863 203.146 687.606 202.44 687.206 201.334C686.828 200.286 686.701 199.473 686.47 197.911C686.249 196.428 686.14 195.686 686.175 195.015C686.216 194.197 686.418 192.841 687.327 191.236C687.28 193.214 687.609 194.76 687.893 195.753C687.975 196.036 688.3 197.118 689.003 198.382C689.636 199.516 690.045 199.842 690.219 199.968C690.323 200.044 691.595 200.949 692.552 200.485C693.207 200.167 693.408 199.362 693.533 198.885C694.01 197.093 695.004 195.466 695.503 193.679C696.108 191.494 697.315 189.732 699.731 186.211C701.161 184.129 702.302 182.796 704.588 180.138C707.579 176.66 710.031 174.142 710.792 173.362C713.431 170.668 714.458 169.837 720.284 164.491C727.749 157.642 727.327 157.852 730.447 155.143C734.309 151.791 737.461 149.298 739.881 147.387C742.94 144.972 745.159 143.316 749.01 140.444C755.69 135.458 755.541 135.736 761.145 131.533C764.573 128.961 768.099 126.525 771.441 123.842C772.72 122.817 774.921 121.02 778.238 119.202C779.919 118.28 781.379 117.632 782.394 117.216L781.446 121.491L781.45 121.489Z" fill="#FF6726" stroke="#FFF6F2" stroke-width="1.5" stroke-miterlimit="10"/>
<path d="M867.371 143.668C865.041 144.491 862.586 144.918 860.216 145.611C854.47 147.293 852.724 147.635 842.753 150.331C830.654 153.603 820.245 156.6 813.637 158.505C801.297 162.061 802.329 161.888 790.069 165.443C770.599 171.088 770.817 170.704 757.487 174.667C742.979 178.98 741.472 179.807 726.995 184.047C714.082 187.829 707.624 189.721 707.383 189.766C704.959 190.242 702.649 191.176 700.271 191.837C700.005 191.911 699.277 192.11 698.446 192.608C698 192.874 697.131 193.402 696.445 194.408C696.023 195.028 695.838 195.639 695.472 196.864C695.266 197.554 695.159 198.122 694.941 199.258C694.63 200.885 694.661 201.241 694.865 201.537C694.979 201.707 695.21 201.948 695.369 202.396C695.457 202.648 695.488 202.867 695.498 203.013C700.619 201.788 708.351 199.863 717.688 197.239C736.11 192.059 747.049 188.01 760.412 183.452C805.794 167.981 805.055 171.934 831.154 161.755C831.154 161.755 851.849 153.687 868.813 150.207C876.188 148.696 879.877 147.939 880.408 148.027C880.577 148.053 881.366 148.208 881.891 147.775C882.226 147.496 882.344 147.067 882.423 146.777C882.594 146.162 882.5 145.659 882.474 145.54C882.355 144.963 882.065 144.591 881.816 144.278C881.297 143.624 880.722 143.292 880.304 143.051C879.637 142.672 879.097 142.506 878.335 142.281C878.335 142.281 877.11 141.918 876.042 141.772C873.415 141.414 869.2 143.018 867.377 143.661L867.371 143.668Z" fill="#FF6726" stroke="#FFF6F2" stroke-width="1.5" stroke-miterlimit="10"/>
<path d="M798.892 70.0479C798.276 70.0555 797.346 70.0885 796.224 70.2193C795.655 70.2867 795.187 70.3612 791.428 71.1938C789.436 71.6364 789.012 71.7359 788.365 71.9986C787.911 72.1825 787.103 72.5386 786.278 72.94C785.887 73.1303 785.561 73.2972 785.33 73.4167C784.946 72.9065 784.607 72.5165 784.354 72.2365C784.122 71.9839 783.98 71.8385 783.873 71.7389C783.713 71.5859 783.538 71.4332 783.16 71.1369C782.902 70.9316 782.554 70.6686 782.132 70.3662C782.929 69.9358 784.152 69.3304 785.722 68.7903C786.56 68.5018 787.567 68.2545 789.557 67.7697C792.634 67.0211 791.713 67.3217 794.024 66.7564C795.344 66.4342 796.266 66.1794 797.623 66.1843C798.272 66.1876 798.809 66.246 799.169 66.2993L798.899 70.0495L798.892 70.0479Z" fill="#FF6726" stroke="#FFF6F2" stroke-width="1.5" stroke-miterlimit="10"/>
<defs>
<filter id="filter0_d_316_5074" x="-81" y="0" width="1591" height="346" filterUnits="userSpaceOnUse" color-interpolation-filters="sRGB">
<feFlood flood-opacity="0" result="BackgroundImageFix"/>
<feColorMatrix in="SourceAlpha" type="matrix" values="0 0 0 0 0 0 0 0 0 0 0 0 0 0 0 0 0 0 127 0" result="hardAlpha"/>
<feOffset dy="4"/>
<feGaussianBlur stdDeviation="2"/>
<feComposite in2="hardAlpha" operator="out"/>
<feColorMatrix type="matrix" values="0 0 0 0 0 0 0 0 0 0 0 0 0 0 0 0 0 0 0.25 0"/>
<feBlend mode="normal" in2="BackgroundImageFix" result="effect1_dropShadow_316_5074"/>
<feBlend mode="normal" in="SourceGraphic" in2="effect1_dropShadow_316_5074" result="shape"/>
</filter>
</defs>
</svg>
