<svg width="1440" height="400" viewBox="0 0 1440 400" fill="none" xmlns="http://www.w3.org/2000/svg">
<g filter="url(#filter0_d_269_4001)">
<rect x="-106.725" width="1572" height="72" transform="rotate(5 -106.725 0)" fill="#244523"/>
<rect x="-105.816" y="1.08335" width="1570" height="70" transform="rotate(5 -105.816 1.08335)" stroke="#F6EDE9" stroke-width="2"/>
</g>
<path d="M297.767 130.989L327.999 137.916C329.712 146.083 332.88 157.3 339.113 169.617C341.343 174.026 347.989 186.528 361.347 200.905C364.833 204.657 376.094 216.413 409.93 237.141C437.584 254.081 451.415 262.551 467.159 268.023C481.035 272.845 501.283 278.066 518.215 291.49C523.237 295.471 529.203 301.157 529.742 309.198C530.112 314.774 527.734 319.359 526.035 321.959C522.919 319.677 518.149 316.376 512.035 312.898C496.771 304.229 486.942 302.338 471.029 295.825C461.783 292.044 455.226 288.529 442.096 281.507C426.471 273.147 418.673 267.853 394.57 252.574C392.074 250.994 366.731 234.94 345.567 222.018C333.323 214.544 316.575 204.509 296.268 192.938C298.291 185.184 300.16 175.23 300.573 163.562C301.038 150.521 299.539 139.408 297.767 130.982V130.989Z" fill="#FF6726" stroke="#FFF6F2" stroke-width="3" stroke-linejoin="round"/>
<path d="M296.268 192.945C290.973 196.874 283.286 202.715 274.225 210.084C257.071 224.048 244.599 235.708 233.434 246.187C223.472 255.536 216.737 262.226 207.079 271.818C183.574 295.168 177.297 302.722 172.062 309.723C166.132 317.654 162.144 322.993 157.979 331.381C152.36 342.709 152.618 347.103 145.706 362.064C140.751 372.793 138.27 378.155 133.433 383.006C124.941 391.513 115.12 394.201 108.526 396.003C103.172 397.465 90.4116 400.788 77.1196 396.003C72.1425 394.216 70.2668 392.429 69.5357 391.668C61.9519 383.781 66.0282 369.847 66.6484 367.838C70.5031 370.615 77.3633 374.817 86.8671 376.862C91.0393 377.763 101.385 379.86 113.584 375.777C126.492 371.457 133.729 362.81 136.69 359.169C137.635 358.002 142.243 352.25 145.714 343.285C149.561 333.368 148.431 328.789 150.765 319.817C152.308 313.888 155.52 305.455 163.038 295.988C171.803 283.279 180.074 274.034 186.144 267.831C192.406 261.428 195.182 259.442 205.55 248.963C214.95 239.46 214.751 238.994 223.324 230.288C239.917 213.437 241.055 214.796 247.516 206.459C254.487 197.464 258.076 189.541 262.676 179.38C269.108 165.179 270.482 157.293 270.976 153.748C271.685 148.727 271.766 144.473 271.7 141.475L297.767 130.975C299.539 139.4 301.031 150.521 300.573 163.555C300.16 175.215 298.291 185.177 296.268 192.93V192.945Z" fill="#FF6726" stroke="#FFF6F2" stroke-width="3" stroke-linejoin="round"/>
<path d="M526.043 321.959C525.312 322.72 524.197 323.724 522.646 324.581C518.577 326.825 512.995 327.209 502.043 323.266C491.897 319.618 484.875 315.04 483.811 314.353C473 307.323 461.466 301.46 450.611 294.496C431.47 282.209 421.627 275.887 410.299 269.005C388.315 255.647 386.942 256.082 367.469 243.957C350.869 233.619 348.528 231.219 333.382 221.73C317.306 211.65 302.774 203.586 290.671 197.302L296.268 192.953C316.575 204.524 333.331 214.56 345.567 222.033C366.731 234.955 392.074 251.002 394.57 252.589C418.68 267.868 426.471 273.155 442.096 281.522C455.219 288.544 461.783 292.052 471.029 295.84C486.942 302.353 496.771 304.244 512.035 312.913C518.149 316.384 522.919 319.685 526.035 321.974L526.043 321.959Z" fill="#FF6726" stroke="#FFF6F2" stroke-width="3" stroke-linejoin="round"/>
<path d="M297.767 130.99L288.943 129.276C284.785 129.867 279.387 131.049 273.435 133.508C268.318 135.62 264.197 138.101 261.081 140.294L271.7 141.498L297.767 130.997V130.99Z" fill="#FF6726" stroke="#FFF6F2" stroke-width="3" stroke-linejoin="round"/>
<path d="M261.081 140.294C261.295 142.347 261.473 145.441 261.081 149.148C260.306 156.54 257.721 162.196 252.065 172.165C247.368 180.451 244.562 185.398 239.349 192.945C232.754 202.493 227.194 209.132 218.746 219.167C210.335 229.159 206.126 234.151 201.681 238.648C190.811 249.636 186.033 251.615 170.614 264.242C160.254 272.727 153.46 279.159 140.833 291.122C116.892 313.807 121.367 312.293 109.279 322.188C105.83 325.009 88.1077 339.342 79.3349 349.23C75.2587 353.83 71.9505 358.771 71.7659 359.051C69.4545 362.537 67.7709 365.609 66.6337 367.846C70.4883 370.623 77.3485 374.824 86.8523 376.87C91.0245 377.771 101.37 379.868 113.569 375.784C126.477 371.465 133.714 362.817 136.675 359.177C137.62 358.01 142.228 352.258 145.699 343.293C149.546 333.368 148.409 328.819 150.75 319.825C153.01 311.178 156.606 305.662 163.023 295.995C171.559 283.154 176.448 279.631 205.535 248.964C217.867 235.967 217.838 235.709 223.31 230.289C238.042 215.704 240.885 214.988 247.501 206.459C254.472 197.465 258.061 189.541 262.661 179.38C269.093 165.18 270.467 157.293 270.962 153.749C271.67 148.727 271.752 144.474 271.685 141.476L261.066 140.272L261.081 140.294Z" fill="#FF6726" stroke="#FFF6F2" stroke-width="3" stroke-linejoin="round"/>
<path d="M492.111 311.473C491.794 307.951 486.898 306.068 484.431 305.115C482.652 304.429 479.661 303.572 475.696 303.793C366.561 321.258 257.426 338.722 148.291 356.194C147.464 358.136 146.6 360.093 145.699 362.079C143.853 366.14 141.97 370.032 140.072 373.746C256.717 354.539 373.354 335.34 489.999 316.133C490.849 315.269 492.296 313.526 492.111 311.473Z" fill="#FF6726" stroke="#FFF6F2" stroke-width="3" stroke-linejoin="round"/>
<path d="M314.5 34.5C313.5 33.5 313.5 33.5 313 33C312.424 32.424 312.573 32.6138 308.142 29.5566C307.012 28.7812 303.638 26.6176 298.727 26.1081C293.979 25.6133 290.383 26.9351 288.381 27.6957C286.875 28.2717 282.156 30.1917 277.947 34.8734C274.728 38.4475 273.384 41.8813 271.914 45.6178C269.817 50.9568 269.16 55.513 268.909 57.9868C268.776 59.3307 268.281 64.7509 269.566 71.7662C270.482 76.7507 271.419 81.8681 274.964 87.0594C277.423 90.663 278.9 91.0027 282.511 96.3785C284.342 99.096 285.612 100.986 286.705 103.741C287.628 106.067 288.308 108.718 288.758 117.904C288.921 121.294 289.061 125.739 289.017 130.99C289.652 131.241 290.855 131.617 292.399 131.514C293.898 131.41 295.013 130.894 295.603 130.569C295.493 125.754 295.448 121.862 295.441 119.248C295.404 111.834 295.53 110.276 294.828 107.374C293.979 103.844 292.635 101.385 290.811 98.0327C289.209 95.0936 287.591 92.7823 284.35 88.167C280.436 82.5918 279.653 81.9124 278.324 79.1728C276.633 75.6873 275.917 72.6671 275.614 71.2271C274.292 64.8174 275.215 59.663 275.961 55.5056C276.345 53.3715 276.751 51.1709 277.792 48.3427C278.819 45.5735 280.244 41.8443 283.641 38.3884C285.413 36.5866 287.724 34.2383 291.416 33.4999C293.484 33.0864 295.116 33.3448 298.232 33.847C301.26 34.3343 302 34.5 302 34.5C302 34.5 304 35 306 35.5L315.5 36.5L315 35.5L314.5 34.5Z" fill="#FF6726" stroke="#FFF6F2" stroke-width="2" stroke-linejoin="round"/>
<defs>
<filter id="filter0_d_269_4001" x="-117" y="0" width="1580.29" height="216.735" filterUnits="userSpaceOnUse" color-interpolation-filters="sRGB">
<feFlood flood-opacity="0" result="BackgroundImageFix"/>
<feColorMatrix in="SourceAlpha" type="matrix" values="0 0 0 0 0 0 0 0 0 0 0 0 0 0 0 0 0 0 127 0" result="hardAlpha"/>
<feOffset dy="4"/>
<feGaussianBlur stdDeviation="2"/>
<feComposite in2="hardAlpha" operator="out"/>
<feColorMatrix type="matrix" values="0 0 0 0 0 0 0 0 0 0 0 0 0 0 0 0 0 0 0.25 0"/>
<feBlend mode="normal" in2="BackgroundImageFix" result="effect1_dropShadow_269_4001"/>
<feBlend mode="normal" in="SourceGraphic" in2="effect1_dropShadow_269_4001" result="shape"/>
</filter>
</defs>
</svg>
